<svg width="3" height="3" viewBox="0 0 3 3" fill="none" xmlns="http://www.w3.org/2000/svg">
<path d="M2.30237 0.284363C2.47415 0.587237 1.98913 0.344939 1.95882 0.647813C1.92851 0.950687 1.56475 0.708391 1.58496 0.95069C1.60517 1.19299 1.22119 0.950675 1.03931 0.809334C0.857424 0.667993 0.594716 1.19298 0.321894 1.27375C0.0490722 1.35451 -0.102486 1.99055 0.0793956 1.97036C0.261277 1.95017 0.412832 1.6372 0.635131 1.65739C0.85743 1.67759 0.776607 1.41509 1.08985 1.47566C1.40309 1.53624 1.1808 2.55592 1.60519 2.63669C2.02958 2.71745 2.04977 3.00014 2.25186 3.00014C2.45395 3.00014 2.25186 2.35401 2.25186 2.1319C2.25186 1.90979 2.69645 2.13189 2.90865 1.83911C3.12084 1.54633 2.7672 0.82953 2.7672 0.32474C2.7672 -0.180051 2.1407 -0.0185109 2.30237 0.284363Z" fill="#92E3A9"/>
</svg>
