<svg width="4" height="3" viewBox="0 0 4 3" fill="none" xmlns="http://www.w3.org/2000/svg">
<path d="M3.99773 2.22199C4.05515 1.93515 3.13647 1.82041 3.19389 1.50489C3.25131 1.18936 2.33262 0.931204 2.04554 0.759099C1.75845 0.586994 1.30867 0.500937 1.30867 0.156727C1.30867 -0.187484 0.686651 0.0706857 0.657942 0.587001C0.629233 1.10332 0.370849 0.988572 0.504824 1.4762C0.638799 1.96383 -0.0789276 2.07857 0.00719912 2.33672C0.0933258 2.59488 0.418703 2.33672 0.734501 2.33672C1.0503 2.33672 0.648361 2.8148 1.05029 2.85305C1.436 2.78544 1.77968 2.5691 2.00725 2.25067C2.13165 2.0212 2.39961 1.93515 2.76326 2.25067C3.1269 2.5662 3.94989 2.50883 3.99773 2.22199Z" fill="#92E3A9"/>
</svg>
