<svg width="127" height="20" viewBox="0 0 127 20" fill="none" xmlns="http://www.w3.org/2000/svg">
<g clip-path="url(#clip0_89_2770)">
<path d="M9.24516 0H10.4773C10.8071 0.0440933 11.1406 0.0772028 11.4667 0.132319C13.482 0.47588 15.3431 1.44328 16.7946 2.90179C18.2461 4.36029 19.2169 6.23842 19.5739 8.27853C19.6391 8.64598 19.6753 9.01342 19.7261 9.38087V10.6301C19.6971 10.869 19.6717 11.1079 19.6391 11.3431C19.3724 13.4735 18.415 15.4536 16.9174 16.9722C14.3805 19.5443 11.3326 20.4814 7.82812 19.7796C5.5047 19.3257 3.43472 18.0022 2.02955 16.072C1.00235 14.7081 0.338696 13.0992 0.102424 11.3999C-0.133848 9.70068 0.0651953 7.96837 0.680459 6.36972C1.29572 4.77108 2.3065 3.35995 3.61545 2.27204C4.9244 1.18413 6.48749 0.456033 8.1543 0.157976C8.52033 0.106534 8.88637 0.0514422 9.24516 0ZM10.6948 8.3006V7.56571C10.6948 6.56259 10.6948 6.54788 11.6914 6.54788H12.467V4.57834C12.4465 4.57604 12.4258 4.57604 12.4054 4.57834C11.6805 4.57834 10.9775 4.5453 10.2671 4.60777C9.86139 4.62545 9.47135 4.77186 9.15208 5.02635C8.83281 5.28083 8.60042 5.63056 8.48769 6.02614C8.39 6.37449 8.33404 6.73346 8.32099 7.09537C8.29562 7.49589 8.32099 7.90011 8.32099 8.32635H7.20841V10.384H8.32825V16.1602H10.7093V10.3656H12.3111L12.5141 8.32267L10.6948 8.3006Z" fill="white"/>
<path d="M10.7095 8.30053H12.5215L12.3186 10.3435H10.7167V16.1381H8.3357V10.3618H7.21582V8.30421H8.32845C8.32845 7.87797 8.31033 7.47375 8.32845 7.07323C8.34149 6.71132 8.39745 6.35235 8.49514 6.004C8.60787 5.60842 8.84026 5.25869 9.15953 5.00421C9.4788 4.74972 9.86885 4.60331 10.2746 4.58563C10.9994 4.52316 11.6989 4.55997 12.4128 4.55629C12.4333 4.55399 12.4539 4.55399 12.4744 4.55629V6.52574H11.6988C10.7203 6.52574 10.7022 6.52575 10.7022 7.54357L10.7095 8.30053Z" fill="#2F383B"/>
</g>
<g clip-path="url(#clip1_89_2770)">
<path d="M46.1671 19.9998H45.0883C44.8084 19.968 44.5276 19.9431 44.2488 19.902C42.8592 19.7131 41.5271 19.2192 40.3452 18.4547C40.2921 18.4154 40.2303 18.39 40.1652 18.381C40.1 18.3719 40.0337 18.3795 39.9722 18.4029C38.8457 18.7751 37.7162 19.1365 36.5877 19.5043C36.526 19.5244 36.4633 19.543 36.3754 19.5699C36.7696 18.3809 37.1474 17.2296 37.5334 16.0812C37.5855 15.9266 37.5816 15.8112 37.4817 15.6708C36.6628 14.4928 36.1149 13.1435 35.8785 11.7224C35.8081 11.3081 35.7743 10.887 35.7236 10.4693V9.41484C35.7357 9.34539 35.7492 9.27643 35.7593 9.20746C35.8225 8.7707 35.8592 8.32709 35.9523 7.89767C36.4724 5.48155 37.7046 3.50757 39.6528 2.02855C42.0444 0.213526 44.7337 -0.3861 47.6617 0.233581C50.021 0.732946 51.9397 1.98502 53.4069 3.91841C54.9904 6.00635 55.6494 8.38334 55.4019 11C55.2017 13.1124 54.395 14.9797 53.0089 16.5757C51.4799 18.3364 49.5723 19.4315 47.2902 19.8423C46.9178 19.9118 46.5414 19.9489 46.1671 19.9998ZM48.768 15.6356C49.0879 15.5735 49.3682 15.5534 49.6249 15.4644C51.0197 14.9797 51.493 14.2975 51.5335 12.9916C51.5398 12.7837 51.4621 12.6463 51.2773 12.5573C50.5483 12.2056 49.8241 11.8437 49.0922 11.4974C48.7038 11.314 48.4824 11.3849 48.2281 11.7322C48.0352 11.9933 47.8494 12.257 47.6516 12.5147C47.3573 12.8967 47.1402 12.9505 46.6982 12.7681C45.0878 12.1029 43.8821 10.9658 42.976 9.48135C42.7551 9.11992 42.7662 9.01281 43.0489 8.68903C43.2274 8.48458 43.4136 8.28601 43.5796 8.07228C43.7364 7.87126 43.8821 7.65166 43.7692 7.37678C43.4315 6.54924 43.086 5.72316 42.7324 4.90197C42.688 4.79926 42.5838 4.67699 42.4859 4.65254C41.9682 4.52195 41.4273 4.49309 40.995 4.84818C40.0301 5.64197 39.7291 6.71015 39.9143 7.92408C40.0446 8.77413 40.4392 9.51902 40.9159 10.2228C41.6816 11.3546 42.5466 12.3954 43.5781 13.2909C44.7254 14.2877 46.0575 14.9206 47.4924 15.348C47.9208 15.4752 48.3647 15.5461 48.768 15.6356Z" fill="white"/>
<path d="M48.7681 15.6358C48.3648 15.5463 47.9209 15.4754 47.4935 15.3477C46.0586 14.9202 44.7265 14.2874 43.5792 13.2906C42.5477 12.395 41.6827 11.3528 40.9194 10.2225C40.4427 9.51869 40.0481 8.7738 39.9178 7.92376C39.7326 6.70983 40.0355 5.64165 40.9985 4.84785C41.4328 4.4913 41.9717 4.52016 42.4894 4.65221C42.5858 4.67667 42.6915 4.79894 42.7359 4.90165C43.0895 5.72284 43.4326 6.54892 43.7727 7.37646C43.8856 7.65133 43.7399 7.87094 43.5831 8.07196C43.4162 8.28569 43.2299 8.48426 43.0524 8.6887C42.7697 9.01248 42.7586 9.11959 42.9795 9.48103C43.8856 10.9654 45.0913 12.1026 46.7017 12.7677C47.1437 12.9502 47.3608 12.8964 47.6551 12.5144C47.8529 12.2586 48.0411 11.995 48.2316 11.7318C48.4859 11.3846 48.7073 11.3137 49.0957 11.4971C49.8276 11.8433 50.5518 12.2053 51.2808 12.5569C51.4656 12.646 51.5433 12.7834 51.537 12.9913C51.4965 14.2971 51.0232 14.9794 49.6284 15.4641C49.3683 15.5536 49.088 15.5737 48.7681 15.6358Z" fill="#2F383B"/>
</g>
<g clip-path="url(#clip2_89_2770)">
<path d="M81.9316 19.9998H80.6987C80.6573 19.9853 80.6146 19.9745 80.5713 19.9674C79.7378 19.9154 78.9159 19.7431 78.1302 19.4556C74.548 18.1103 72.3734 15.5389 71.6063 11.7412C71.5318 11.376 71.5035 10.9973 71.4521 10.6253V9.37321C71.4634 9.31686 71.4763 9.26052 71.4866 9.20365C71.5991 8.56509 71.6602 7.91192 71.8307 7.28953C73.5542 1.00823 80.673 -1.93053 86.2585 1.35724C88.8912 2.9067 90.4708 5.25228 91.0297 8.29589C91.095 8.65273 91.1294 9.0148 91.1782 9.37477V10.5867C91.1674 10.6493 91.154 10.7114 91.1453 10.7745C91.0939 11.1668 91.058 11.5633 90.984 11.9515C90.2134 15.9774 87.0033 19.1577 83.0134 19.8459C82.6544 19.9085 82.2912 19.9492 81.9316 19.9998ZM79.8126 8.24633V15.2559H81.9367V15.0175C81.9367 13.9219 81.9337 12.8305 81.9367 11.7376C81.9367 11.3463 81.9686 10.955 82.1458 10.5971C82.377 10.1276 82.8316 9.91891 83.4527 9.99925C83.8862 10.0514 84.1811 10.3451 84.2746 10.8538C84.3229 11.1158 84.348 11.3818 84.3496 11.6484C84.3578 12.7804 84.3537 13.9131 84.3542 15.0452V15.2538H86.4963C86.4999 15.1897 86.5061 15.1391 86.5061 15.0879C86.5061 13.8359 86.5194 12.589 86.4984 11.3395C86.4919 10.8391 86.4417 10.3403 86.3484 9.849C86.1876 9.02628 85.7361 8.41432 84.9018 8.19416C84.5544 8.10278 84.1962 8.06064 83.8374 8.06895C83.034 8.08878 82.3744 8.41849 81.9275 9.12331C81.9028 9.14934 81.8756 9.17276 81.8463 9.19322V8.24738L79.8126 8.24633ZM78.4349 15.2549V8.25259H76.3092V15.2549H78.4349ZM77.3628 7.27283C77.6101 7.27283 77.8519 7.19825 78.0575 7.05856C78.2631 6.91886 78.4232 6.72034 78.5176 6.48814C78.6119 6.25593 78.6363 6.0005 78.5876 5.75421C78.5389 5.50792 78.4193 5.28186 78.244 5.10467C78.0686 4.92748 77.8454 4.80714 77.6027 4.75889C77.3599 4.71064 77.1086 4.73666 76.8804 4.83365C76.6522 4.93064 76.4575 5.09424 76.321 5.30371C76.1845 5.51319 76.1122 5.75911 76.1134 6.01031C76.1155 6.3457 76.2479 6.66668 76.4819 6.90335C76.7159 7.14002 77.0325 7.27319 77.3628 7.27388V7.27283Z" fill="white"/>
</g>
<g clip-path="url(#clip3_89_2770)">
<path d="M117.038 19.9998C111.589 19.9998 107.171 15.5097 107.178 9.9816C107.184 4.46849 111.611 -0.00824665 117.053 -0.0002334C122.495 0.00777985 126.907 4.48719 126.904 10.0067C126.9 15.5262 122.479 20.0014 117.038 19.9998ZM123.115 10.0099H123.133C123.133 9.26201 123.138 8.51411 123.131 7.77048C123.132 7.47714 123.114 7.18403 123.075 6.8933C122.886 5.61385 122.262 4.65974 121.038 4.17574C120.534 3.98103 119.998 3.88303 119.457 3.88673C117.912 3.88103 116.367 3.88103 114.823 3.88673C114.495 3.88568 114.167 3.91122 113.842 3.96312C112.6 4.17307 111.679 4.81787 111.218 6.04389C111.036 6.54513 110.945 7.07597 110.951 7.61022C110.951 9.16265 110.948 10.7156 110.951 12.2686C110.949 12.5546 110.969 12.8403 111.009 13.1233C111.191 14.3104 111.751 15.2319 112.863 15.7447C113.405 15.9888 113.993 16.113 114.587 16.1091C116.223 16.1187 117.86 16.1187 119.496 16.1091C120.132 16.1048 120.752 15.9841 121.327 15.6924C122.506 15.0941 123.026 14.0561 123.104 12.7846C123.161 11.8636 123.115 10.9346 123.115 10.0083V10.0099Z" fill="white"/>
<path d="M123.115 10.0086C123.115 10.9349 123.161 11.8639 123.104 12.7865C123.025 14.058 122.506 15.0959 121.326 15.6943C120.752 15.9859 120.132 16.1067 119.496 16.1109C117.86 16.1223 116.223 16.1223 114.586 16.1109C113.993 16.1149 113.405 15.9907 112.862 15.7466C111.751 15.2338 111.19 14.3122 111.008 13.1252C110.968 12.8422 110.949 12.5564 110.95 12.2705C110.945 10.7175 110.947 9.16453 110.95 7.6121C110.945 7.07766 111.035 6.54664 111.218 6.04524C111.678 4.81654 112.599 4.17548 113.842 3.96447C114.166 3.91214 114.493 3.88606 114.821 3.88647C116.366 3.87899 117.911 3.87899 119.455 3.88647C119.995 3.88278 120.531 3.98077 121.036 4.17548C122.259 4.65948 122.88 5.61359 123.073 6.89304C123.112 7.18321 123.131 7.47577 123.13 7.76862C123.137 8.51652 123.132 9.26443 123.132 10.0081L123.115 10.0086ZM117.045 5.04038V5.02007C116.887 5.02007 116.729 5.02007 116.571 5.02007C115.769 5.0377 114.966 5.02382 114.167 5.08472C113.245 5.15523 112.561 5.62374 112.256 6.53725C112.142 6.88402 112.081 7.24657 112.076 7.6121C112.057 9.15171 112.066 10.6919 112.069 12.232C112.07 12.4384 112.082 12.6446 112.106 12.8496C112.238 14.0286 113.017 14.8262 114.177 14.9116C114.936 14.9651 115.701 14.9715 116.463 14.9693C117.613 14.9656 118.765 14.9693 119.912 14.9068C120.835 14.8534 121.519 14.3694 121.823 13.457C121.939 13.0967 121.999 12.7205 122.002 12.3415C122.021 10.8088 122.012 9.27511 122.009 7.74191C122.008 7.52206 121.994 7.30245 121.968 7.08429C121.844 6.07836 121.219 5.36304 120.251 5.13921C119.988 5.07953 119.72 5.04766 119.45 5.04412C118.648 5.03503 117.847 5.04251 117.045 5.04251V5.04038Z" fill="white"/>
<path d="M117.028 13.2502C116.605 13.2496 116.186 13.1639 115.796 12.9981C115.406 12.8323 115.052 12.5896 114.755 12.2842C114.458 11.9788 114.224 11.6166 114.066 11.2188C113.908 10.8209 113.83 10.3952 113.835 9.9664C113.838 9.53761 113.925 9.1137 114.091 8.71923C114.257 8.32477 114.499 7.96759 114.802 7.66838C115.105 7.36916 115.463 7.13387 115.856 6.97611C116.25 6.81836 116.67 6.74129 117.093 6.74935C117.941 6.7616 118.749 7.11426 119.34 7.72993C119.931 8.3456 120.258 9.17396 120.247 10.0332C120.241 10.8924 119.898 11.7138 119.294 12.317C118.691 12.9203 117.876 13.2559 117.028 13.2502ZM117.068 7.90379C116.796 7.89949 116.526 7.9496 116.274 8.05127C116.021 8.15293 115.791 8.30415 115.596 8.49624C115.402 8.68832 115.246 8.9175 115.139 9.17061C115.032 9.42373 114.975 9.6958 114.972 9.97121C114.947 11.1219 115.86 12.0728 117.012 12.0958C118.151 12.1188 119.082 11.1994 119.107 10.0284C119.112 9.7529 119.062 9.47924 118.962 9.22313C118.862 8.96702 118.713 8.73352 118.523 8.53607C118.334 8.33861 118.108 8.1811 117.858 8.07259C117.608 7.96408 117.34 7.90671 117.068 7.90379Z" fill="white"/>
<path d="M120.277 7.41229C120.193 7.41492 120.11 7.40065 120.032 7.37032C119.953 7.33998 119.882 7.29418 119.821 7.23558C119.761 7.17698 119.712 7.10674 119.678 7.02896C119.645 6.95117 119.627 6.86737 119.625 6.78245C119.623 6.69606 119.638 6.61009 119.669 6.52962C119.7 6.44915 119.747 6.3758 119.806 6.3139C119.866 6.25201 119.937 6.20282 120.015 6.16924C120.094 6.13567 120.178 6.11839 120.263 6.11842C120.432 6.11756 120.595 6.18448 120.715 6.30458C120.836 6.42469 120.904 6.58822 120.906 6.75948C120.908 6.93059 120.843 7.09544 120.725 7.21784C120.607 7.34024 120.446 7.41017 120.277 7.41229Z" fill="white"/>
<path d="M117.045 5.04243C117.847 5.04243 118.65 5.03495 119.451 5.0467C119.721 5.05024 119.989 5.08211 120.252 5.14179C121.22 5.36563 121.846 6.08095 121.969 7.08688C121.996 7.30503 122.009 7.52465 122.01 7.7445C122.013 9.2777 122.023 10.8114 122.003 12.3441C122.001 12.7231 121.94 13.0993 121.824 13.4595C121.52 14.372 120.836 14.8576 119.913 14.9094C118.766 14.974 117.614 14.9682 116.464 14.9719C115.702 14.9719 114.936 14.9719 114.178 14.9142C113.019 14.8287 112.24 14.0312 112.107 12.8521C112.083 12.6471 112.071 12.441 112.071 12.2346C112.067 10.6944 112.058 9.15429 112.077 7.61468C112.082 7.24916 112.143 6.8866 112.257 6.53984C112.562 5.62633 113.246 5.15782 114.168 5.0873C114.967 5.0264 115.77 5.04029 116.572 5.02266C116.73 5.01946 116.888 5.02266 117.046 5.02266L117.045 5.04243ZM117.028 13.2501C117.875 13.2558 118.691 12.9202 119.294 12.3169C119.898 11.7137 120.24 10.8923 120.247 10.0331C120.257 9.17386 119.931 8.3455 119.34 7.72983C118.748 7.11416 117.94 6.7615 117.093 6.74925C116.67 6.74119 116.249 6.81826 115.856 6.97601C115.463 7.13377 115.104 7.36906 114.801 7.66828C114.498 7.96749 114.257 8.32467 114.091 8.71913C113.925 9.1136 113.838 9.53751 113.835 9.9663C113.829 10.3951 113.908 10.8208 114.066 11.2187C114.224 11.6165 114.458 11.9787 114.755 12.2841C115.052 12.5895 115.406 12.8322 115.796 12.998C116.186 13.1638 116.605 13.2495 117.028 13.2501ZM120.277 7.41221C120.446 7.4101 120.607 7.34017 120.725 7.21777C120.843 7.09537 120.908 6.93052 120.906 6.7594C120.904 6.58814 120.835 6.42461 120.715 6.30451C120.594 6.18441 120.432 6.11749 120.263 6.11834C120.178 6.11831 120.093 6.13559 120.015 6.16917C119.936 6.20275 119.865 6.25193 119.806 6.31383C119.746 6.37573 119.7 6.44907 119.668 6.52955C119.637 6.61002 119.623 6.69599 119.625 6.78237C119.626 6.8673 119.644 6.95109 119.678 7.02888C119.712 7.10667 119.76 7.17691 119.821 7.23551C119.881 7.29411 119.953 7.33991 120.031 7.37024C120.11 7.40058 120.193 7.41485 120.277 7.41221Z" fill="#2F383B"/>
<path d="M117.068 7.9038C117.34 7.90658 117.609 7.96389 117.859 8.07244C118.109 8.18099 118.335 8.33863 118.525 8.53627C118.714 8.7339 118.864 8.96764 118.964 9.224C119.064 9.48037 119.113 9.75429 119.108 10.03C119.084 11.201 118.152 12.1204 117.013 12.0974C115.862 12.0744 114.948 11.1235 114.973 9.97282C114.976 9.69737 115.033 9.42521 115.14 9.17198C115.247 8.91875 115.402 8.68944 115.597 8.49719C115.791 8.30495 116.021 8.15357 116.274 8.05174C116.526 7.94991 116.796 7.89964 117.068 7.9038Z" fill="#2F383B"/>
</g>
<defs>
<clipPath id="clip0_89_2770">
<rect width="19.726" height="20" fill="white"/>
</clipPath>
<clipPath id="clip1_89_2770">
<rect width="19.726" height="20" fill="white" transform="translate(35.7256)"/>
</clipPath>
<clipPath id="clip2_89_2770">
<rect width="19.726" height="20" fill="white" transform="translate(71.4521)"/>
</clipPath>
<clipPath id="clip3_89_2770">
<rect width="19.726" height="20" fill="white" transform="translate(107.178)"/>
</clipPath>
</defs>
</svg>
