<svg width="149" height="122" viewBox="0 0 149 122" fill="none" xmlns="http://www.w3.org/2000/svg">
<path d="M76.9279 27.8834C76.6496 28.7618 77.1838 29.6735 78.0973 29.9301L78.1861 29.955L78.1881 29.9529C79.0748 30.1541 79.9878 29.6687 80.2531 28.8247C82.8109 20.7323 90.8717 15.0717 99.8631 15.0717C100.813 15.0717 101.599 14.3441 101.599 13.4284C101.599 12.5126 100.813 11.7851 99.8631 11.7851C89.0001 11.7851 79.863 18.5959 76.9279 27.8834ZM76.9279 27.8834L77.0715 27.9289M76.9279 27.8834C76.9278 27.8834 76.9278 27.8834 76.9278 27.8835L77.0715 27.9289M77.0715 27.9289C76.8213 28.7189 77.2991 29.5494 78.138 29.785L77.0715 27.9289Z" fill="#2A6877" stroke="#F9FFF9" stroke-width="0.3"/>
<path d="M122.054 86.5653H112.543C111.668 86.5653 110.958 85.8969 110.958 85.0727C110.958 84.2486 111.668 83.5801 112.543 83.5801H122.054C135.164 83.5801 145.83 73.5361 145.83 61.1915C145.83 48.847 135.164 38.8029 122.054 38.8029H121.825C121.365 38.8029 120.928 38.6153 120.627 38.288C120.326 37.9607 120.19 37.5268 120.256 37.0982C120.397 36.1686 120.469 35.2346 120.469 34.3253C120.469 23.6267 111.224 14.9217 99.8623 14.9217C95.4422 14.9217 91.2269 16.2223 87.6716 18.684C86.8904 19.2245 85.7808 18.9847 85.3291 18.1754C75.2604 0.121774 48.9619 -2.30265 35.3275 13.4025C29.5838 20.0188 27.3271 28.6256 29.1354 37.0141C29.3347 37.9405 28.5818 38.8041 27.582 38.8041H26.9469C13.837 38.8041 3.17036 48.8481 3.17036 61.1927C3.17036 73.5373 13.837 83.5813 26.9469 83.5813H36.4573C37.3325 83.5813 38.0425 84.2497 38.0425 85.0739C38.0425 85.898 37.3326 86.5665 36.4573 86.5665H26.9469C12.0887 86.5665 0 75.1835 0 61.1926C0 47.5942 11.4194 36.4595 25.7025 35.8454C24.3609 27.1426 26.9265 18.3641 32.8728 11.5133C47.4704 -5.30263 75.4456 -3.41778 87.2714 15.3332C91.0441 13.1061 95.361 11.9377 99.8618 11.9377C113.627 11.9377 124.535 22.97 123.581 35.8594C137.732 36.6067 149 47.6826 149 61.1915C149 75.1835 136.911 86.5654 122.053 86.5654L122.054 86.5653Z" fill="#2A6877"/>
<path d="M34.5088 84.2301C34.5088 104.897 52.3622 121.696 74.2875 121.696C96.2131 121.696 114.066 104.897 114.066 84.2301C114.066 63.5629 96.2131 46.7646 74.2875 46.7646C52.3619 46.7646 34.5088 63.5632 34.5088 84.2301ZM37.9811 84.2301C37.9811 65.3931 54.2596 50.0518 74.2875 50.0518C94.315 50.0518 110.594 65.3928 110.594 84.2301C110.594 103.067 94.315 118.408 74.2875 118.408C54.2599 118.408 37.9811 103.067 37.9811 84.2301Z" fill="#2A6877" stroke="#F9FFF9" stroke-width="0.3"/>
<path d="M73.7023 99.2512C73.7023 99.9462 74.2981 100.495 75.0134 100.495C75.7286 100.495 76.3246 99.947 76.3246 99.2512V70.8399C76.3246 70.1449 75.7287 69.5965 75.0134 69.5965C74.2981 69.5965 73.7023 70.1449 73.7023 70.8399V99.2512Z" fill="#2A6877" stroke="#483EA8" stroke-width="0.3"/>
<path d="M84.2966 80.8282C83.9643 80.8282 83.6289 80.7085 83.3727 80.4672L75.0128 72.5953L66.6531 80.4671C66.1424 80.9489 65.3165 80.9487 64.8052 80.4672C64.2886 79.9808 64.2886 79.1888 64.8052 78.7024L74.0888 69.9607L84.2966 80.8282ZM84.2966 80.8282C84.6286 80.8282 84.9641 80.7094 85.2206 80.467M84.2966 80.8282L74.0889 69.9606C74.5996 69.4789 75.4254 69.4791 75.9367 69.9606L85.2204 78.7024C85.7369 79.1888 85.737 79.9806 85.2206 80.467M85.2206 80.467C85.2206 80.467 85.2206 80.467 85.2206 80.467L85.1171 80.3575L85.2204 80.4672C85.2205 80.4671 85.2205 80.4671 85.2206 80.467Z" fill="#2A6877" stroke="#483EA8" stroke-width="0.3"/>
</svg>
