<svg width="3" height="5" viewBox="0 0 3 5" fill="none" xmlns="http://www.w3.org/2000/svg">
<path d="M2.45754 2.12953C2.34445 2.32944 2.13565 2.07738 1.93557 2.07738C1.89101 2.07752 1.84689 2.06842 1.80604 2.05065C1.76518 2.03289 1.72848 2.00684 1.69822 1.97415C1.66797 1.94147 1.64481 1.90288 1.63026 1.8608C1.61571 1.81872 1.61008 1.77407 1.61369 1.72969C1.61369 1.52978 1.5615 1.24295 1.37011 1.26033C1.17872 1.27772 1.431 1.47763 1.37011 1.58193C1.30921 1.68623 1.24832 1.46894 1.15262 1.46894C1.05693 1.46894 0.952525 1.32118 0.952525 1.06042C0.952525 0.799661 0.752428 0.825737 0.752428 0.53021C0.752428 0.234683 0.326173 0 0.0912874 0C-0.143598 0 0.134787 0.469367 0.256579 0.625822C0.378371 0.782278 0.630641 0.92135 0.621941 1.03435C0.637785 1.1314 0.674839 1.22377 0.730472 1.3049C0.786105 1.38602 0.858947 1.4539 0.943817 1.50371C1.08301 1.55586 0.856843 2.01653 0.856843 2.3729C0.856843 2.72927 0.59586 2.66843 0.421871 2.90311C0.247882 3.13779 0.874222 3.37248 1.13521 3.60716C1.39619 3.84184 0.909026 4.41551 0.978622 4.54589C1.04407 4.6037 1.12462 4.64174 1.21087 4.65559C1.29712 4.66944 1.38551 4.65853 1.46579 4.62412C1.73547 4.54589 1.86596 3.89399 2.05735 3.71146C2.24873 3.52893 2.12694 3.2421 2.22264 3.09434C2.31833 2.94657 2.44883 2.97265 2.57932 2.97265C2.70981 2.97265 2.64022 2.61628 2.80551 2.61628C2.9708 2.61628 2.8925 2.3729 2.98819 2.09475C3.08389 1.81661 2.56193 1.9383 2.45754 2.12953Z" fill="#92E3A9"/>
</svg>
