<svg width="6" height="7" viewBox="0 0 6 7" fill="none" xmlns="http://www.w3.org/2000/svg">
<path d="M0.0649189 3.82404C0.314528 4.08267 0.249821 4.48909 0.360758 4.6923C0.471696 4.89551 0.85073 4.92322 0.85073 5.31117C0.85073 5.69911 1.17428 6.30875 1.38691 6.14249C1.59954 5.97623 1.7752 6.21638 1.84915 6.38264C1.92311 6.5489 2.43158 6.25333 2.60723 6.29028C2.78288 6.32723 3.29134 6.43806 3.32832 6.65975C3.3653 6.88143 3.82753 6.65974 4.15109 6.51196C4.47466 6.36417 4.28977 5.32964 4.5856 5.12643C4.71921 5.01639 4.82127 4.87295 4.88135 4.7107C4.94144 4.54844 4.95742 4.37318 4.92768 4.20275C4.92768 3.83328 5.66725 3.8148 5.78744 3.66702C5.90762 3.51923 5.61177 3.27908 5.39914 3.16823C5.18651 3.05739 5.39916 2.81723 5.21426 2.66944C5.02937 2.52165 4.80748 2.13371 5.02936 2.11524C5.25123 2.09676 4.8722 1.76424 5.02936 1.6534L5.11256 1.60721C5.31594 1.49637 5.60254 1.35781 5.47312 1.2285C5.34369 1.09918 5.92611 1.2285 5.99082 0.988346C6.05554 0.748189 5.75969 0.581917 5.60253 0.618865C5.44537 0.655812 5.10333 0.618875 5.10333 0.471086C5.06587 0.352553 4.99717 0.246264 4.90446 0.163381C4.81175 0.0804973 4.69843 0.0240645 4.57637 0C4.37299 0 4.14185 0.434128 4.12336 0.618865C4.10487 0.803601 3.79056 0.785134 3.81829 1.04376C3.81829 1.14537 3.81829 1.19156 3.69811 1.21927C3.57793 1.24698 3.42078 1.21926 3.42078 1.35781C3.42078 1.49636 3.16193 1.30239 3.02326 1.28392C2.88459 1.28392 2.58874 1.80118 2.51478 2.15218C2.44082 2.50318 2.145 2.39234 1.69201 2.42929C1.23901 2.46623 1.42389 2.9835 1.32219 3.22365C1.2205 3.46381 0.730554 3.04815 0.480945 2.99273H0.416225C0.21284 2.97426 -0.147711 3.60236 0.0649189 3.82404Z" fill="#92E3A9"/>
</svg>
