<svg width="5" height="8" viewBox="0 0 5 8" fill="none" xmlns="http://www.w3.org/2000/svg">
<path d="M0.0439342 1.30933C-0.127977 1.46201 0.244495 1.6624 0.47371 1.69103C0.702926 1.71965 0.301803 1.90096 0.254049 2.16815C0.206296 2.43533 0.550121 2.32083 0.569222 2.50214C0.588324 2.68344 0.0821303 2.72161 0.0821303 2.90292C0.0821303 3.08422 0.368657 2.81704 0.492815 2.7407C0.616974 2.66436 0.425956 3.18919 0.741127 3.13194C1.0563 3.07469 0.970343 2.60711 1.08495 2.62619C1.19956 2.64528 1.02765 2.8743 1.08495 3.07469C1.14225 3.27508 0.855734 3.58043 0.874835 3.72357C0.893937 3.8667 1.52428 3.86671 1.72484 3.63769C1.92541 3.40867 2.01136 3.63768 1.87766 3.82853C1.84437 3.85576 1.81943 3.89178 1.80568 3.9325C1.79192 3.97321 1.78992 4.01699 1.79988 4.05879C1.80984 4.1006 1.83137 4.13876 1.86202 4.16892C1.89266 4.19907 1.93118 4.22 1.97317 4.22931C2.14508 4.29611 2.21194 4.31519 2.12598 4.46787C2.04003 4.62055 2.12598 4.90682 2.07823 5.04996C2.03047 5.1931 1.49563 5.17401 1.47653 5.04996C1.45743 4.92591 1.23776 5.04996 1.29507 5.15493C1.35237 5.25989 1.10406 5.43166 1.12316 5.55571C1.14226 5.67976 1.45743 5.65113 1.46699 5.80381C1.47654 5.95648 1.23776 6.1378 0.903486 6.24276C0.569214 6.34773 0.970346 6.634 1.13271 6.50995C1.29507 6.3859 1.24732 6.59583 1.47653 6.59583C1.70575 6.59583 1.83945 6.79622 2.09732 6.69126C2.35518 6.58629 2.33608 6.69126 2.09732 6.85348C1.85855 7.0157 1.61979 6.85348 1.44788 6.94891C1.27597 7.04433 0.569222 7.77909 0.702931 7.95085C0.83664 8.12261 0.88439 7.79817 1.13271 7.68366C1.38102 7.56915 1.42878 7.76001 1.57204 7.77909C1.7153 7.79818 1.71529 7.47374 1.8299 7.50237C1.94451 7.531 2.04957 7.3974 2.25013 7.43557C2.3339 7.45145 2.42029 7.44671 2.50182 7.42178C2.58336 7.39684 2.6576 7.35245 2.71812 7.29244C2.82317 7.19701 3.10013 7.47373 3.18609 7.41648C3.39358 7.32509 3.61836 7.27953 3.84509 7.28288C4.14623 7.23108 4.42903 7.10294 4.66644 6.91073C4.7906 6.77714 4.5805 6.74851 4.40858 6.77714C4.23667 6.80576 4.27488 6.58629 4.40858 6.39545C4.54229 6.2046 4.87656 6.06145 4.89566 5.77518C4.91476 5.48891 4.34173 5.28853 4.27488 5.4412C4.20802 5.59388 4.08386 5.5748 3.98835 5.4412C3.89285 5.30761 4.07431 5.10721 3.98835 5.08812C3.92826 5.05124 3.87896 4.99919 3.84542 4.9372C3.81189 4.87522 3.79531 4.80549 3.79734 4.73506C3.79734 4.63964 3.65408 4.02893 3.35801 3.95259C3.06194 3.87625 3.01418 3.41821 2.96643 3.1701C2.91867 2.922 2.71811 3.0556 2.57485 2.84566C2.43159 2.63573 2.17372 2.74069 2.04001 2.75023C1.90631 2.75978 2.04002 2.48305 2.25013 2.33992C2.48993 2.00705 2.64409 1.62034 2.69901 1.2139C2.69901 1.05168 1.74394 1.06123 1.61978 1.15665C1.49563 1.25208 1.26642 1.01352 1.41923 0.946718C1.57204 0.879922 1.87765 0.545939 1.85855 0.412345C1.83945 0.278752 2.07823 0.154706 1.94452 0.0306545C1.81081 -0.0933969 1.80125 0.192865 1.68665 0.288289C1.57204 0.383713 1.32372 0.355086 1.04675 0.288289C0.769786 0.221492 0.674275 0.650908 0.683825 0.832214C0.693376 1.01352 0.36865 1.11848 0.425954 1.27116C0.483258 1.42384 0.368656 1.53835 0.2827 1.45247C0.196744 1.36658 0.215846 1.15666 0.0439342 1.30933Z" fill="#92E3A9"/>
</svg>
