<svg width="34" height="65" viewBox="0 0 34 65" fill="none" xmlns="http://www.w3.org/2000/svg">
<path d="M33.4512 0.304925C33.4271 0.239057 33.3883 0.179485 33.3379 0.13071C33.2874 0.0819343 33.2266 0.0452131 33.1599 0.0232862C33.0932 0.00135924 33.0224 -0.00519969 32.9529 0.00410724C32.8833 0.0134142 32.8167 0.0383453 32.7582 0.0770247C13.2215 13.2246 0.676666 38.0385 0.00994662 64.7545C-0.00331554 64.8357 -0.00331554 64.9186 0.00994662 64.9999H0.948617C0.961894 64.9304 0.961894 64.859 0.948617 64.7895C1.60656 38.4943 13.9496 14.1011 33.1705 1.13759C33.3091 1.05514 33.4135 0.92586 33.465 0.773137C33.5165 0.620415 33.5116 0.454348 33.4512 0.304925Z" fill="black"/>
</svg>
