<svg width="4" height="3" viewBox="0 0 4 3" fill="none" xmlns="http://www.w3.org/2000/svg">
<path d="M0.863721 1.50925C0.863721 1.72799 0.599202 1.69154 0.398518 1.72799C0.197833 1.76445 0.398499 1.98318 0.17957 2.09255C-0.0393582 2.20192 -0.0393448 2.3842 0.0792414 2.45711C0.197828 2.53003 0.0792414 2.767 0.0792414 2.93105C0.0792414 3.09511 0.225191 2.93106 0.362022 2.80346C0.498852 2.67586 0.63567 2.88548 0.663036 2.73054C0.690402 2.5756 0.316404 2.45712 0.325526 2.27483C0.334648 2.09255 0.599195 2.32952 0.790758 2.22015C0.938609 2.175 1.09607 2.17154 1.24577 2.21014C1.39547 2.24874 1.53158 2.3279 1.6391 2.4389C1.89451 2.67586 1.95836 2.58472 2.00397 2.29307C2.04958 2.00141 2.44184 1.87381 2.81585 1.87381C3.18985 1.87381 3.23545 1.6733 3.11686 1.58216C2.99827 1.49102 3.7463 0.962398 3.73718 0.825686C3.72806 0.688973 3.3358 1.14468 3.21722 0.980625C3.09863 0.81657 2.90707 1.07177 2.65166 1.12645C2.39624 1.18114 1.62084 0.479342 1.42928 0.151233C1.23772 -0.176877 0.891089 0.0965588 1.06441 0.333527C1.23773 0.570495 1.06441 0.643397 1.06441 0.962392C1.06441 1.28139 0.827233 1.29051 0.863721 1.50925Z" fill="#92E3A9"/>
</svg>
