<svg width="9" height="9" viewBox="0 0 9 9" fill="none" xmlns="http://www.w3.org/2000/svg">
<path d="M8.46434 4.82095C8.40192 5.58987 8.11666 6.32398 7.64343 6.93354C7.1702 7.54311 6.52948 8.00171 5.79959 8.25334C5.06971 8.50496 4.28228 8.5387 3.53352 8.35041C2.78476 8.16212 2.1071 7.75998 1.58339 7.19312C1.05969 6.62626 0.712625 5.91922 0.584581 5.15846C0.456537 4.3977 0.553057 3.61616 0.86239 2.90933C1.17172 2.2025 1.68045 1.601 2.32638 1.17838C2.97232 0.755751 3.72751 0.530291 4.49961 0.529549C5.0421 0.550795 5.57506 0.678708 6.06802 0.905956C6.56098 1.1332 7.00427 1.45535 7.37251 1.85393C7.74075 2.25251 8.02674 2.7197 8.21409 3.22882C8.40143 3.73794 8.48647 4.27896 8.46434 4.82095Z" stroke="#263238" stroke-linecap="round" stroke-linejoin="round"/>
</svg>
