<svg width="60" height="60" viewBox="0 0 60 60" fill="none" xmlns="http://www.w3.org/2000/svg">
<path d="M25.8989 12C25.4585 11.5518 24.9106 11.2239 24.3075 11.0475C23.7044 10.871 23.0661 10.852 22.4536 10.9922C21.8355 11.1288 21.262 11.4197 20.7866 11.8377C20.3112 12.2557 19.9494 12.7872 19.7348 13.3828L7.10203 48.0937C6.90502 48.6587 6.84518 49.2624 6.92743 49.855C7.00968 50.4476 7.23167 51.0122 7.57508 51.5021C7.91848 51.992 8.37347 52.3933 8.90249 52.6727C9.43151 52.9522 10.0194 53.1019 10.6177 53.1094C11.056 53.11 11.4915 53.0388 11.9067 52.8984L46.6176 40.2656C47.2132 40.0511 47.7448 39.6892 48.1628 39.2138C48.5808 38.7385 48.8717 38.165 49.0083 37.5469C49.1484 36.9343 49.1294 36.2961 48.953 35.693C48.7766 35.0899 48.4487 34.542 48.0005 34.1016L25.8989 12ZM14.9536 37.4531L19.4536 25.0781L34.9223 40.5469L22.5473 45.0469L14.9536 37.4531ZM37.5005 16.875C37.535 15.6069 37.8385 14.3606 38.3911 13.2187C39.6333 10.7344 41.977 9.375 45.0005 9.375C46.5708 9.375 47.5786 8.83594 48.2114 7.6875C48.534 7.03717 48.7176 6.32677 48.7505 5.60156C48.7504 5.35643 48.7991 5.11373 48.8936 4.88754C48.9881 4.66136 49.1266 4.4562 49.301 4.28395C49.4755 4.11171 49.6823 3.97582 49.9097 3.88416C50.1371 3.7925 50.3803 3.7469 50.6255 3.75C51.1227 3.75 51.5997 3.94754 51.9513 4.29917C52.3029 4.6508 52.5005 5.12772 52.5005 5.625C52.5005 8.64844 50.5083 13.125 45.0005 13.125C43.4301 13.125 42.4223 13.6641 41.7895 14.8125C41.4669 15.4628 41.2833 16.1732 41.2505 16.8984C41.2505 17.1436 41.2018 17.3863 41.1073 17.6125C41.0128 17.8386 40.8743 18.0438 40.6999 18.216C40.5255 18.3883 40.3186 18.5242 40.0912 18.6158C39.8639 18.7075 39.6206 18.7531 39.3755 18.75C38.8782 18.75 38.4013 18.5525 38.0496 18.2008C37.698 17.8492 37.5005 17.3723 37.5005 16.875ZM31.8755 9.375V3.75C31.8755 3.25272 32.073 2.77581 32.4246 2.42417C32.7763 2.07254 33.2532 1.875 33.7505 1.875C34.2477 1.875 34.7247 2.07254 35.0763 2.42417C35.4279 2.77581 35.6255 3.25272 35.6255 3.75V9.375C35.6255 9.87228 35.4279 10.3492 35.0763 10.7008C34.7247 11.0525 34.2477 11.25 33.7505 11.25C33.2532 11.25 32.7763 11.0525 32.4246 10.7008C32.073 10.3492 31.8755 9.87228 31.8755 9.375ZM55.7114 28.6641C56.0635 29.0195 56.261 29.4997 56.261 30C56.261 30.5003 56.0635 30.9804 55.7114 31.3359C55.353 31.6825 54.874 31.8762 54.3755 31.8762C53.8769 31.8762 53.3979 31.6825 53.0395 31.3359L49.2895 27.5859C48.9905 27.2216 48.8377 26.7591 48.8609 26.2884C48.884 25.8177 49.0814 25.3724 49.4146 25.0391C49.7479 24.7059 50.1932 24.5085 50.6639 24.4854C51.1346 24.4623 51.5971 24.6151 51.9614 24.9141L55.7114 28.6641ZM56.8364 18.6562L51.2114 20.5312C51.023 20.5964 50.8247 20.6281 50.6255 20.625C50.1795 20.6251 49.7481 20.4663 49.4088 20.177C49.0694 19.8878 48.8442 19.487 48.7736 19.0467C48.7031 18.6064 48.7917 18.1553 49.0237 17.7745C49.2557 17.3937 49.6159 17.108 50.0395 16.9687L55.6645 15.0937C55.8984 15.0168 56.1452 14.9867 56.3908 15.0051C56.6363 15.0235 56.8759 15.0901 57.0957 15.2011C57.3155 15.3121 57.5113 15.4653 57.6719 15.652C57.8325 15.8387 57.9548 16.0551 58.0317 16.2891C58.1087 16.523 58.1388 16.7698 58.1204 17.0153C58.1019 17.2609 58.0353 17.5004 57.9243 17.7202C57.8133 17.94 57.6601 18.1358 57.4735 18.2964C57.2868 18.457 57.0703 18.5793 56.8364 18.6562Z" fill="#E79638"/>
</svg>
