<svg width="63" height="163" viewBox="0 0 63 163" fill="none" xmlns="http://www.w3.org/2000/svg">
<path d="M1.21397 6.50158C1.21397 6.50158 14.2477 -5.04507 28.8282 3.89707C43.4086 12.8392 47.0233 26.3566 47.8748 36.6184C48.7264 46.8801 61.1519 48.1737 61.7775 58.4355C62.4031 68.6972 48.5005 71.458 51.924 81.3204C55.3475 91.1828 61.9861 92.8758 59.2055 101.427C56.425 109.979 48.5005 105.916 51.7155 113.833C54.9304 121.751 62.2033 124.529 60.9173 132.438C59.6313 140.347 54.0702 140.998 54.7132 145.912C55.3562 150.826 59.8485 149.767 59.6313 148.048L59.4227 146.312C59.4227 146.312 65.2011 148.664 60.9173 156.365C56.6335 164.066 48.7524 163.64 46.1457 156.157C43.5389 148.673 44.4078 127.924 35.8751 122.15C27.3423 116.377 9.54688 114.233 4.19435 106.324C-1.15818 98.4147 6.8011 82.5793 6.8011 82.5793C6.8011 82.5793 14.7256 51.5683 11.5106 42.1573C8.29565 32.7463 1.6658 20.7656 0.805576 15.6347C0.291154 12.5959 0.430374 9.48246 1.21397 6.50158Z" fill="#263238" stroke="#263238" stroke-miterlimit="10"/>
</svg>
