<svg width="59" height="12" viewBox="0 0 59 12" fill="none" xmlns="http://www.w3.org/2000/svg">
<path d="M56.061 5.64894C56.061 5.20065 55.9725 4.75677 55.8005 4.34272C55.6286 3.92867 55.3766 3.55257 55.0589 3.23599C54.7412 2.91941 54.3642 2.66858 53.9493 2.49782C53.5345 2.32706 53.09 2.23974 52.6413 2.24088H0.502078V0.502085H53.5811C54.2263 0.500942 54.8654 0.626935 55.4618 0.872843C56.0583 1.11875 56.6003 1.47974 57.057 1.93518C57.5136 2.39062 57.8758 2.93154 58.123 3.52702C58.3702 4.12249 58.4974 4.76085 58.4974 5.40551C58.4986 6.1057 58.3614 6.7992 58.0937 7.44632C57.8261 8.09343 57.4332 8.68141 56.9377 9.17652C56.4422 9.67163 55.8537 10.0641 55.206 10.3316C54.5584 10.599 53.8642 10.736 53.1634 10.7349H0.502078V8.9961H52.6413C53.5364 8.99628 54.3958 8.64589 55.0351 8.02009C55.6745 7.3943 56.0428 6.543 56.061 5.64894Z" fill="#92E3A9" stroke="#263238" stroke-linecap="round" stroke-linejoin="round"/>
</svg>
