<svg width="68" height="89" viewBox="0 0 68 89" fill="none" xmlns="http://www.w3.org/2000/svg">
<path d="M0 62.3937C0.0895858 62.1034 0.179172 61.8131 0.263488 61.5229C0.541711 60.6033 1.02451 59.8149 1.64905 59.2602C2.27359 58.7055 3.01096 58.4102 3.76523 58.4127C5.79672 58.4127 7.83085 58.4679 9.85971 58.3919C11.3142 58.3401 12.5657 58.7928 13.5327 60.3341L15.5247 59.3733C15.2428 57.8666 14.9055 56.429 14.7105 54.9603C13.3167 44.4132 15.443 35.2623 21.1344 27.5801C23.9379 23.8029 26.8072 20.1121 29.6635 16.4006C29.806 16.2532 29.9055 16.0461 29.9453 15.8139C29.9851 15.5817 29.9628 15.3386 29.8821 15.1254C29.0416 12.0566 28.2064 8.981 27.437 5.8777C27.241 5.12207 27.2073 4.3103 27.3395 3.53122C27.7637 1.49575 29.6793 0.735477 30.9888 1.98302C32.2219 3.15453 32.4617 3.14071 33.6237 1.8517C34.7293 0.624087 36.1378 -0.033651 37.5862 0.00132659C39.0345 0.0363042 40.4236 0.761612 41.494 2.04177C42.3741 3.07851 42.8879 3.07851 43.8128 2.12126C44.2174 1.665 44.7265 1.39861 45.2595 1.36419C45.7925 1.32976 46.319 1.52927 46.7559 1.93118C47.6544 2.75021 47.9943 4.13252 47.607 5.62542C46.7928 8.77019 45.9681 11.9115 45.1117 15.0355C45.0201 15.2715 44.9938 15.5419 45.0376 15.8005C45.0813 16.059 45.1923 16.2895 45.3515 16.4524C47.6807 19.4624 49.981 22.507 52.297 25.5308C52.7107 26.0768 52.99 26.6712 52.824 27.466C52.7663 27.7555 52.6523 28.0204 52.4931 28.2347C52.334 28.449 52.1351 28.6055 51.916 28.6887C51.6969 28.772 51.465 28.7792 51.2432 28.7096C51.0213 28.6401 50.817 28.4962 50.6502 28.292C50.0732 27.6181 49.5462 26.8716 49.0008 26.1563C47.0326 23.5748 45.0749 20.9726 43.0855 18.4291C42.8209 18.1112 42.4796 17.9253 42.1211 17.9038C39.0296 17.8624 35.938 17.8624 32.8464 17.9038C32.5086 17.9212 32.1865 18.0951 31.9374 18.3946C28.9362 22.2823 25.9404 26.177 22.9788 30.1201C18.6602 35.8809 16.6551 42.8339 16.9792 50.8928C17.0689 53.3202 17.4449 55.7147 18.0937 57.991C19.4507 57.5349 20.7286 57.0027 22.046 56.6848C25.5847 55.8208 28.981 56.5154 32.2246 58.5232C35.252 60.3997 38.2848 62.3039 41.2885 64.2045C43.5493 65.6318 44.5505 67.8919 44.4056 71.1852C44.4056 71.3753 44.4056 71.5654 44.4056 72.0215C45.1776 71.2716 45.86 70.7014 46.4608 70.0103C49.8738 66.0661 53.2728 62.1023 56.6578 58.1189C56.874 57.8404 57.0327 57.4944 57.1189 57.1133C58.3558 51.8823 58.3457 46.2808 57.0899 41.0577C57.0451 40.8641 56.9924 40.6741 56.9502 40.4771C56.721 39.4127 57.0556 38.5038 57.796 38.179C57.9643 38.1024 58.1429 38.0725 58.3204 38.0912C58.498 38.1099 58.6706 38.1767 58.8274 38.2875C58.9842 38.3983 59.1218 38.5506 59.2313 38.7348C59.3409 38.919 59.4201 39.131 59.4639 39.3574C59.8463 41.0449 60.1638 42.7565 60.4151 44.4858C60.8121 47.5978 60.8193 50.774 60.4362 53.889C60.9632 53.7059 61.4585 53.4812 61.9592 53.3741C63.0211 53.136 64.1133 53.3493 65.0763 53.9828C66.0393 54.6164 66.8228 55.6369 67.3123 56.8957C67.8019 58.1544 67.972 59.5853 67.7977 60.9798C67.6234 62.3742 67.1139 63.659 66.3436 64.6469C63.3697 68.4851 60.3773 72.3003 57.3665 76.0925C55.343 78.6359 53.3695 81.2762 51.1904 83.5673C48.2604 86.6568 44.8087 88.3018 41.0619 88.8305C40.8903 88.8702 40.7212 88.9268 40.556 88.9998H3.04856C2.31637 88.7415 1.64905 88.2346 1.11384 87.5302C0.578629 86.8258 0.194439 85.9489 0 84.9877V62.3937ZM14.31 85.5302H38.377C43.5651 85.5302 48.0233 83.1734 51.7385 78.4044C54.6895 74.603 57.659 70.8569 60.6206 67.0832C61.888 65.4659 63.1686 63.8728 64.4096 62.2244C65.727 60.4723 65.2738 57.6835 63.5533 56.9508C62.5599 56.5258 61.7088 56.9163 60.9395 57.8217C56.8422 62.6253 52.7239 67.4012 48.6214 72.2012C47.2434 73.8151 45.7494 75.1767 43.9972 76.0026C41.5283 77.1499 39.0542 77.5992 36.5115 76.2929C35.3047 75.6743 34.0426 75.2562 32.8069 74.724C30.3538 73.6872 27.8981 72.6781 25.4477 71.6345C25.1448 71.5334 24.8786 71.2961 24.6956 70.9638C24.5126 70.6316 24.4244 70.2256 24.4464 69.8168C24.4675 69.4226 24.5909 69.0498 24.7961 68.7606C25.0013 68.4713 25.2759 68.283 25.5741 68.2271C25.9027 68.2116 26.2303 68.2809 26.5385 68.431C30.525 70.0794 34.509 71.752 38.4982 73.3935C39.8604 73.9568 41.1331 73.1827 41.6047 71.5757C42.0764 69.9688 41.552 68.2893 40.2583 67.4737C37.0622 65.4521 33.8793 63.3993 30.6515 61.4676C27.8428 59.7846 24.8548 59.2835 21.8695 60.3341C19.4981 61.1669 17.2084 62.4075 14.8712 63.4443C14.4049 63.6482 14.2969 63.9592 14.2995 64.557C14.3153 70.6669 14.2995 76.7767 14.2995 82.8727L14.31 85.5302ZM11.6751 73.6872C11.6751 70.3835 11.6751 67.0821 11.6751 63.7829C11.6751 62.4421 11.2457 61.8926 10.2154 61.8892C8.18306 61.8892 6.15156 61.8892 4.12095 61.8892C3.09335 61.8892 2.66386 62.4421 2.66386 63.7829C2.66386 70.3835 2.66386 76.9852 2.66386 83.5881C2.66386 84.9704 3.08545 85.5268 4.15784 85.5302H10.1179C11.2799 85.5302 11.6778 85.0119 11.6778 83.5017C11.6708 80.2187 11.6664 76.9414 11.6646 73.67L11.6751 73.6872ZM30.1904 5.6427C30.9519 8.50064 31.6581 11.2031 32.409 13.8813C32.4852 14.0163 32.584 14.1266 32.6977 14.2038C32.8114 14.2811 32.937 14.3233 33.0651 14.3271C36.024 14.3547 38.983 14.3271 41.942 14.3582C42.1123 14.3883 42.285 14.3306 42.4236 14.1972C42.5621 14.0638 42.6559 13.8651 42.685 13.6429C43.3095 11.2065 43.9629 8.78402 44.6006 6.3546C44.648 6.1339 44.6867 5.91012 44.7165 5.68418C42.7878 6.78658 41.1515 6.41334 39.647 4.59905C39.0729 3.87429 38.309 3.46541 37.5122 3.45641C36.7154 3.44741 35.9462 3.83899 35.3627 4.55068C33.8318 6.39262 32.185 6.77966 30.1799 5.62542L30.1904 5.6427Z" fill="#50AC97"/>
<path d="M37.6267 35.07C37.6385 36.4461 37.2076 37.1264 36.5162 37.173C35.8248 37.2196 35.3323 36.6449 35.2589 35.6695C35.1808 34.7376 34.7853 34.2251 34.1247 33.989C33.8181 33.8785 33.4939 33.8837 33.1894 34.0041C32.8849 34.1244 32.6124 34.355 32.4033 34.6693C32.3 34.8206 32.2226 34.9992 32.1765 35.1932C32.1305 35.3872 32.1167 35.5919 32.1363 35.7934C32.1558 35.9949 32.2082 36.1886 32.2898 36.3612C32.3714 36.5339 32.4804 36.6815 32.6093 36.794C32.9916 37.1053 33.427 37.2868 33.8761 37.3221C35.704 37.4619 37.2455 39.0834 37.5912 41.3199C37.9251 43.4944 36.9898 45.6129 35.2778 46.6504C35.0917 46.7848 34.9512 47.0068 34.8848 47.2716C34.7001 48.0979 34.2573 48.5981 33.6488 48.5763C33.0403 48.5546 32.678 48.0606 32.4957 47.2468C32.4051 46.9605 32.2362 46.7289 32.0221 46.5976C30.6701 45.7309 29.8271 44.4045 29.7419 42.3792C29.6993 41.3976 30.1349 40.7018 30.7932 40.621C30.9568 40.595 31.1228 40.6141 31.2805 40.677C31.4382 40.74 31.5841 40.8455 31.7089 40.9867C31.8338 41.128 31.9347 41.3019 32.0054 41.4972C32.076 41.6926 32.1148 41.9052 32.1192 42.1213C32.1342 42.5132 32.2471 42.8877 32.4406 43.187C32.634 43.4862 32.8972 43.6936 33.1894 43.777C33.4923 43.9155 33.8201 43.9302 34.1296 43.8193C34.439 43.7084 34.7155 43.4771 34.9227 43.1558C35.0478 42.9859 35.1399 42.7789 35.1909 42.5523C35.242 42.3258 35.2506 42.0864 35.2159 41.8546C35.1813 41.6227 35.1044 41.4053 34.9919 41.2208C34.8795 41.0363 34.7347 40.8902 34.5699 40.795C34.2134 40.5771 33.8264 40.4586 33.4333 40.447C31.693 40.3259 30.1184 38.6547 29.7893 36.53C29.4459 34.3058 30.3504 32.1811 32.0387 31.1591C32.2482 31.0231 32.4094 30.786 32.4886 30.4975C32.6661 29.6991 33.0663 29.2083 33.6583 29.1959C33.938 29.1728 34.2144 29.2872 34.4333 29.517C34.6522 29.7467 34.798 30.0753 34.8422 30.4384C34.8919 30.8951 35.0647 31.0224 35.3299 31.1809C36.7222 32.0258 37.5059 33.4112 37.6267 35.07Z" fill="#50AC97"/>
<path d="M48.6844 29.4632C48.6876 29.2562 48.7228 29.0522 48.7878 28.8635C48.8529 28.6749 48.9466 28.5056 49.063 28.3658C49.1795 28.2261 49.3164 28.1189 49.4654 28.0507C49.6144 27.9825 49.7725 27.9547 49.9299 27.969C50.2439 27.9859 50.5399 28.1658 50.7529 28.469C50.9658 28.7722 51.0781 29.174 51.0653 29.5859C51.0524 29.9978 50.9153 30.3862 50.6842 30.6655C50.4531 30.9448 50.1468 31.0923 49.8328 31.0754C49.6758 31.0723 49.5209 31.0277 49.3773 30.9443C49.2337 30.8608 49.1045 30.7402 48.9973 30.5897C48.89 30.4392 48.8071 30.2619 48.7533 30.0683C48.6996 29.8747 48.6761 29.6689 48.6844 29.4632Z" fill="#50AC97"/>
</svg>
