<svg width="8" height="5" viewBox="0 0 8 5" fill="none" xmlns="http://www.w3.org/2000/svg">
<path d="M0.768481 1.21847C1.01719 1.27581 0.500639 1.58166 0.424113 1.84927C0.347587 2.11688 0.816305 2.36537 1.01719 2.56608C1.13692 2.65184 1.27817 2.70263 1.42515 2.71276C1.57212 2.72288 1.71902 2.69195 1.8494 2.62342C2.02159 2.50873 1.96419 2.10731 2.19377 2.12643C2.42335 2.14554 2.299 1.90661 2.48075 1.83971C2.6625 1.7728 2.68163 2.0213 2.52858 2.22201C2.37553 2.42272 2.80598 2.41316 3.03556 2.16466C3.26514 1.91616 3.32254 2.16466 3.27471 2.38449C3.22688 2.60431 2.73902 2.48006 2.56683 2.73811C2.39465 2.99616 1.8781 2.79546 1.61026 3.08218C1.34242 3.36891 1.8207 3.38803 2.14594 3.31157C2.53282 3.23189 2.92973 3.21254 3.32254 3.25422C3.56168 3.31156 3.17905 3.39758 2.78686 3.39758C2.39466 3.39758 2.27029 3.53139 2.27986 3.64608C2.28942 3.76077 1.73462 3.51227 1.70592 3.77032C1.67722 4.02838 2.22247 4.12395 2.28943 4.28643C2.35639 4.44891 2.71988 4.28643 2.86337 4.35333C3.00686 4.42024 2.6338 4.52537 2.57641 4.60183C2.51902 4.67829 2.98773 4.77387 3.06426 4.91723C3.14078 5.06059 3.46602 4.98413 3.45646 4.78343C3.47635 4.5523 3.54764 4.32853 3.66514 4.12845C3.78264 3.92838 3.94338 3.75704 4.13562 3.62696C4.52782 3.47404 4.30781 3.33068 4.35564 3.08218C4.40347 2.83369 4.71914 3.08218 4.63304 2.84324C4.54695 2.60431 4.63305 2.55652 4.83393 2.29846C5.03481 2.04041 5.24525 2.22201 5.54179 2.06909C5.83833 1.91617 5.99138 2.18378 5.66615 2.21245C5.34091 2.24112 5.51309 2.59475 5.75224 2.69989C5.99138 2.80502 5.75224 2.88148 5.96268 2.92926C6.17313 2.97705 6.0966 3.27334 5.85746 3.54095C5.61832 3.80856 5.92442 3.8659 6.42184 3.66519C6.91926 3.46448 6.6036 3.83723 6.74708 3.99971C6.89057 4.16219 7.28277 3.88502 7.49321 3.61741C7.70366 3.3498 8.00976 3.38803 8.0002 3.24466C7.99063 3.1013 7.76105 3.04395 7.5793 3.12997C7.39755 3.21599 6.93839 3.12997 7.10101 2.99617C7.26363 2.86236 7.22537 2.70944 6.99579 2.73811C6.76621 2.76678 6.34532 2.64254 6.53664 2.55652C6.72795 2.4705 6.39314 2.18377 6.21139 2.19333C6.02964 2.20289 6.07747 1.98307 6.0966 1.82059C6.11574 1.65811 5.57048 1.59121 5.67571 1.53387C5.78093 1.47652 5.4557 1.35227 5.36961 1.46696C5.28352 1.58165 5.14003 1.55298 5.14003 1.38094C5.14003 1.20891 4.74784 1.24714 4.59479 1.26626C4.44173 1.28537 4.50869 0.89351 4.35564 0.769262C4.20259 0.645014 3.99213 1.02732 3.86778 0.989088C3.74342 0.950858 3.96344 0.711919 4.0304 0.539883C4.09736 0.367848 3.47558 0.138469 3.41819 0.310505C3.36079 0.48254 3.23644 0.0524518 3.10252 0.00466418C2.96859 -0.0431235 3.10252 0.291384 2.95903 0.320057C2.81555 0.34873 2.68163 0.482535 2.88251 0.625898C3.09185 0.903641 3.21791 1.23509 3.24601 1.58165C3.24601 1.69634 2.61466 1.06555 2.59553 0.769262C2.5764 0.472979 2.2703 0.224486 2.18421 0.444309C2.09812 0.664133 1.88767 0.740594 1.95463 0.960417C2.02159 1.18024 1.79201 1.23758 1.79201 1.06554C1.79201 0.893507 1.46678 0.702363 1.35199 0.683248C1.2372 0.664133 1.64852 0.587673 1.8494 0.482541C2.05028 0.377408 1.67722 0.243598 1.50503 0.358288C1.33285 0.472978 1.11285 0.281832 1.00763 0.444309C0.902402 0.606787 0.778039 0.444309 0.59629 0.444309C0.41454 0.444309 0.251917 0.731033 0.127562 0.673688C0.00320719 0.616343 -0.0828847 0.960412 0.127562 1.31404C0.338009 1.66767 0.519771 1.21847 0.768481 1.21847Z" fill="#92E3A9"/>
</svg>
