<svg width="113" height="223" viewBox="0 0 113 223" fill="none" xmlns="http://www.w3.org/2000/svg">
<path d="M80.7119 176.5L70.9312 179.574C76.5202 187.585 87.9776 202.713 89.0955 199.136C90.2133 195.559 83.9722 182.555 80.7119 176.5Z" fill="#636363" stroke="#636363"/>
<path d="M98.9265 199.314L89.1457 202.388C94.7348 210.399 106.192 225.527 107.31 221.95C108.428 218.373 102.187 205.369 98.9265 199.314Z" fill="#636363" stroke="#636363"/>
<path d="M71.7621 179.097L61.5413 182.511L59.4856 189.088C63.7792 188.358 73.7286 186.185 73.7286 182.511C73.7286 178.518 72.6702 178.576 71.7621 179.097Z" fill="#F39981" stroke="#F39981"/>
<path d="M89.9767 201.911L79.7559 205.325L77.7001 211.902C81.9938 211.172 91.9432 208.999 91.9432 205.325C91.9432 201.332 90.8848 201.39 89.9767 201.911Z" fill="#F39981" stroke="#F39981"/>
<path d="M29.2016 144.53L42.5663 110.163V108.063H62.4225L73.1142 138.802L29.2016 144.53Z" fill="#F39981" stroke="#F39981"/>
<path d="M9.6219 201.594C8.98046 195.179 27.2619 148.407 36.4828 125.822H52.9199V149.877L36.4828 183.553L58.5326 177.138L64.1453 185.958C53.989 192.507 32.3934 205.924 27.2618 207.207C20.8472 208.81 10.4237 209.612 9.6219 201.594Z" fill="#639399" stroke="#639399"/>
<path d="M75.0036 160.402C78.1472 152.228 71.8601 133.943 68.3236 125.822H52.0161L51.0337 154.508C45.9253 167.213 34.9227 195.61 31.7792 207.556C28.6356 219.501 37.8044 222.488 42.7818 222.488L85.2203 214.236V201.269H56.928C61.6434 191.052 71.8601 168.575 75.0036 160.402Z" fill="#84BFC7" stroke="#84BFC7"/>
<path d="M89.2432 60.2098L94.0461 56.1651C97.3325 48.9183 104.107 33.363 104.916 29.116C103.657 25.436 101.893 18.2889 104.916 19.1406C105.254 17.5018 106.04 14.4233 106.482 15.22C106.925 16.0167 106.937 17.1748 106.888 17.6543C107.404 16.6953 108.481 14.8659 108.658 15.22C108.822 15.5483 108.905 16.9115 108.817 17.5937C109.351 16.7731 110.871 15.0345 110.871 16.0683C110.871 17.1305 110.65 18.5591 110.539 19.1406C111.166 18.0673 112.435 16.1273 112.494 16.9535C112.568 17.9862 111.904 27.4284 110.539 28.166C109.175 28.9037 101.406 57.1519 100.756 57.8024C100.235 58.3229 96.0659 62.6813 94.0461 64.7955L90.6729 67.5602L86.2819 62.1934L89.2432 60.2098Z" fill="#F39981" stroke="#F39981"/>
<path d="M23.7568 60.2098L18.9539 56.1651C15.6675 48.9183 8.89255 33.363 8.08361 29.116C9.34319 25.436 11.1066 18.2889 8.08361 19.1406C7.7461 17.5018 6.96042 14.4233 6.51782 15.22C6.07522 16.0167 6.06292 17.1748 6.1121 17.6543C5.59573 16.6953 4.51874 14.8659 4.3417 15.22C4.17755 15.5483 4.09457 16.9115 4.18308 17.5937C3.64908 16.7731 2.12869 15.0345 2.12869 16.0683C2.12869 17.1305 2.34999 18.5591 2.46064 19.1406C1.83363 18.0673 0.564836 16.1273 0.505823 16.9535C0.432056 17.9862 1.09596 27.4284 2.46064 28.166C3.82533 28.9037 11.5936 57.1519 12.2441 57.8024C12.7645 58.3229 16.9341 62.6813 18.9539 64.7955L22.3271 67.5602L26.7181 62.1934L23.7568 60.2098Z" fill="#F39981" stroke="#F39981"/>
<ellipse cx="66.4163" cy="51.0416" rx="4.51473" ry="5.74571" fill="#F39981"/>
<path d="M38.2048 45.9239C39.3771 44.3828 40.6471 46.0372 41.1356 47.057V51.7028C40.7937 52.1183 39.7288 52.7 38.2048 51.7028C36.2999 50.4564 36.7395 47.8502 38.2048 45.9239Z" fill="#F39981" stroke="#F39981"/>
<path d="M42.6723 72.1573H64.749L87.1052 58.1847L94.9299 66.0094L69.2204 84.7326V121.061C69.2204 125.533 30.3766 123.017 34.2889 118.826C37.4188 115.472 37.2697 93.023 36.804 82.2176L13.6094 63.4943L21.9929 56.7875L42.6723 72.1573Z" fill="#518961" stroke="#518961"/>
<path d="M58.0453 71.6735C58.0453 74.6096 55.6651 76.9898 52.729 76.9898C49.7929 76.9898 47.4127 74.6096 47.4127 71.6735L47.4127 63.4823L58.0453 63.4823L58.0453 71.6735Z" fill="#DF8972"/>
<ellipse cx="52.7292" cy="49.6767" rx="12.2737" ry="18.8843" fill="#F39981"/>
<path d="M57.0882 20.7356C38.4538 21.2605 34.2326 37.1391 34.4513 45.0129C34.6918 46.0734 36.9355 47.5633 36.9355 46.9628C36.9355 46.2121 39.4552 43.3408 40.103 45.2843C40.6213 46.8391 47.6969 44.8181 52.2317 40.0853C53.2682 43.4972 62.4489 46.1391 65.2001 48.6719C65.2001 44.9738 67.2192 45.5371 68.2288 46.2809C72.2138 52.4976 63.9249 54.7292 64.2437 56.642C64.4988 58.1723 62.756 60.1488 61.8527 60.9458C62.4903 60.627 64.6582 60.1807 68.2288 60.9458C72.692 61.9022 77.6334 57.7578 79.5463 53.2946C81.4591 48.8313 88.4727 49.6284 92.6171 48.6719C96.7616 47.7155 94.53 35.1229 97.718 29.8626C100.906 24.6024 91.6607 20.7356 92.6171 17.7481C93.5736 14.7607 95.4864 7.86527 89.4291 2.28623C83.3719 -3.29281 67.2724 5.31484 65.2001 12.8067C63.5424 18.8002 59.1015 20.5899 57.0882 20.7356Z" fill="#37322A"/>
<path d="M52.2317 40.0853C53.2682 43.4972 62.4489 46.1391 65.2001 48.6719C65.2001 44.9738 67.2192 45.5371 68.2288 46.2809C72.2138 52.4976 63.9249 54.7292 64.2437 56.642C64.4988 58.1723 62.756 60.1488 61.8527 60.9458C62.4903 60.627 64.6582 60.1807 68.2288 60.9458C72.692 61.9022 77.6334 57.7578 79.5463 53.2946C81.4591 48.8313 88.4727 49.6284 92.6171 48.6719C96.7616 47.7155 94.53 35.1229 97.718 29.8626C100.906 24.6024 91.6607 20.7356 92.6171 17.7481C93.5736 14.7607 95.4864 7.86527 89.4291 2.28623C83.3719 -3.29281 67.2724 5.31484 65.2001 12.8067C63.5424 18.8002 59.1015 20.5899 57.0882 20.7356C38.4538 21.2605 34.2326 37.1391 34.4513 45.0129C34.6918 46.0734 36.9355 47.5633 36.9355 46.9628C36.9355 46.2121 39.4552 43.3408 40.103 45.2843C40.6213 46.8391 47.6969 44.8181 52.2317 40.0853ZM52.2317 40.0853C51.1951 36.6735 52.2317 39.9234 52.2317 40.0853Z" stroke="#37322A"/>
<path d="M68.1437 124.514H36.8855L35.5443 128.037H69.3817L68.1437 124.514Z" fill="#59888E" stroke="#59888E"/>
<ellipse cx="48.0724" cy="51.3728" rx="0.968128" ry="1.68137" fill="#37322A"/>
<ellipse cx="55.2384" cy="51.3728" rx="0.968128" ry="1.68137" fill="#37322A"/>
<path d="M56.8063 58.168C56.8063 59.5149 56.2712 60.8068 55.3188 61.7592C54.3663 62.7117 53.0745 63.2468 51.7275 63.2468C50.3805 63.2468 49.0887 62.7117 48.1362 61.7592C47.1837 60.8068 46.6486 59.5149 46.6486 58.168L51.7275 58.168H56.8063Z" fill="#E36C62"/>
<rect x="50.8686" y="53.0891" width="0.859446" height="3.52091" rx="0.429199" fill="#CA745E"/>
<path d="M56.6984 58.2693L46.7239 58.2692C46.7828 59.0456 46.851 59.4944 47.0063 59.7513C50.1424 59.7991 56.3405 59.9898 56.4161 59.8101C56.5102 59.5866 56.6984 58.8456 56.6984 58.2693Z" fill="white" stroke="white" stroke-width="0.2"/>
</svg>
