<svg width="4" height="3" viewBox="0 0 4 3" fill="none" xmlns="http://www.w3.org/2000/svg">
<path d="M2.18496 0.0376263C1.74421 -0.151103 2.01406 0.415085 2.35586 0.738621C2.69767 1.06216 2.18495 0.900397 1.71722 0.549899C1.24948 0.199401 1.30346 0.792548 1.52833 0.981277C1.75321 1.17001 1.47436 1.43962 1.17753 0.981277C0.880703 0.522934 0.736785 0.0825647 0.278047 0.0825647C-0.180692 0.0825647 0.0261888 0.576853 0.206086 0.83748C0.448311 1.13011 0.756588 1.36111 1.10557 1.51151C1.50135 1.74518 2.13998 1.40367 2.43681 1.51151C2.73364 1.61936 2.113 1.98783 2.31088 2.25745C2.50877 2.52706 3.04846 2.33833 3.47122 2.31137C3.89397 2.28441 3.6871 2.0148 3.92996 1.82607C4.17282 1.63734 3.6871 1.66429 3.88499 1.21494C4.08287 0.765581 3.27333 0.0286438 3.24634 0.316232C3.21936 0.60382 2.6347 0.226356 2.18496 0.0376263Z" fill="#92E3A9"/>
</svg>
