<svg width="33" height="27" viewBox="0 0 33 27" fill="none" xmlns="http://www.w3.org/2000/svg">
<path d="M27.5428 17.0764C27.2397 17.2016 26.903 17.2201 26.588 17.1289C26.2639 17.0414 25.7558 16.7438 25.3879 16.9714C25.0199 17.1989 25.2477 16.6388 25.5455 16.5862C25.8434 16.5337 25.7207 16.3762 25.6419 16.0261C25.5631 15.676 26.15 15.9036 26.4128 16.3062C26.5325 16.4986 26.7126 16.6459 26.925 16.7251C27.1374 16.8043 27.3701 16.8108 27.5866 16.7438C28.0247 16.6038 27.5867 16.2186 27.7794 15.9561C27.9721 15.6935 26.4566 14.8795 26.3778 14.5994C26.2989 14.3193 26.7632 14.5119 27.1749 14.7045C27.5866 14.897 27.683 14.3368 27.683 14.0918C27.683 13.8467 26.807 13.8292 26.3953 14.0918C25.9836 14.3543 25.6156 13.7767 26.15 13.7067C26.6844 13.6366 26.2025 13.3916 26.3602 13.2165C26.5179 13.0415 27.2362 13.7242 27.5604 13.6016C27.8845 13.4791 28.1648 13.6016 28.4364 13.3566C28.7079 13.1115 27.902 12.8489 27.7268 12.6213C27.5516 12.3938 28.6028 12.4813 28.9182 12.4988C29.2335 12.5163 29.3211 11.9912 29.0671 12.0962C28.8131 12.2012 27.902 11.7461 28.086 11.431C28.2699 11.1159 28.6291 11.4835 29.0321 11.2559C29.435 11.0284 29.0321 10.1794 28.778 10.1794C28.524 10.1794 27.8232 10.0744 27.8232 9.91681C27.8232 9.75926 27.2625 9.61922 27.4202 9.46167C27.5779 9.30413 27.7881 9.65423 28.156 9.35664C28.524 9.05905 29.2861 9.42666 29.619 9.35664C29.9519 9.28662 29.4788 8.60393 29.2861 8.72646C29.0934 8.849 28.4101 8.884 28.4101 8.5164C28.4101 8.14879 29.0321 8.5164 29.1459 8.34135C29.2598 8.1663 28.2174 7.71116 28.0597 8.07877C27.902 8.44638 27.3238 8.32384 27.6305 8.07877C27.764 7.93094 27.8632 7.75537 27.9207 7.56468C27.9783 7.37399 27.9928 7.17293 27.9633 6.97595C27.9633 6.67837 29.0496 6.66086 28.9182 6.17071C28.7868 5.68057 29.4438 5.5843 29.7942 5.5843C30.1446 5.5843 29.7942 5.05914 29.4263 5.11166C29.0583 5.16417 28.7079 5.6018 28.5502 5.42675C28.3926 5.2517 28.9707 4.93661 29.2861 4.93661C29.7482 4.9568 30.2096 4.88541 30.6439 4.72654C30.9155 4.55149 30.1621 4.39395 29.654 4.46397C29.1459 4.53399 29.1459 4.28892 29.9081 4.27141C30.6702 4.25391 30.5476 4.07885 31.0907 4.00883C31.6338 3.93881 31.4586 3.69374 31.7915 3.67624C32.1244 3.65873 33.0004 3.25612 33.0004 3.06356C33.0004 2.87101 31.7477 2.48589 31.152 2.48589C30.5563 2.48589 30.0833 2.59092 30.057 3.04605C30.0307 3.50119 29.2686 2.95853 28.9532 3.11608C28.6379 3.27362 28.7955 2.74847 28.4714 2.92352C28.1473 3.09857 27.8056 3.5187 27.4202 3.69375C27.0348 3.8688 26.7544 4.30642 26.5442 4.34143C26.334 4.37645 27.061 3.5362 27.4202 3.11608C27.7794 2.69595 27.5954 2.24082 27.0873 2.24082C26.5792 2.24082 26.6931 2.64344 26.404 2.71346C26.1149 2.78348 24.7396 3.5362 24.652 3.30863C24.5644 3.08107 25.7821 2.69595 25.7733 2.53841C25.0557 2.36641 24.3105 2.34259 23.5833 2.46839C22.9175 2.57342 21.7349 2.99354 21.7174 2.78348C21.6999 2.57342 23.0927 2.27583 23.7935 2.18831C24.6418 2.20942 25.4899 2.1449 26.3252 1.99575C26.8683 1.75068 27.683 1.73317 27.8319 1.54062C27.9809 1.34806 27.2012 1.09424 26.8245 1.11174C26.4478 1.12925 26.0536 1.11174 26.0887 0.866672C26.1237 0.621601 25.5017 0.604093 25.4317 0.446547C25.3616 0.289001 24.179 0.446549 23.9162 0.236488C23.397 0.0278474 22.8331 -0.0444689 22.278 0.0264285C21.6385 0.0789438 20.3333 0.0264302 20.0267 0.0964505C19.7774 0.166134 19.5223 0.213004 19.2646 0.236488C18.993 0.236488 18.5813 0.324013 18.739 0.516569C19.028 0.857918 18.3097 1.00671 18.3535 0.744137C18.3973 0.481561 17.7315 0.359024 17.5213 0.55158C17.3111 0.744136 16.216 0.324014 16.0584 0.55158C15.9007 0.779146 14.6392 0.709128 14.3063 0.779148C13.9735 0.849169 14.8757 1.14675 14.8495 1.3218C14.8232 1.49685 13.6493 1.32181 13.8946 1.62815C14.1399 1.93449 14.8933 2.1708 15.2612 2.57342C15.6291 2.97603 14.9721 2.73097 14.5604 2.43338C14.1487 2.13579 13.6231 2.24083 13.369 1.94324C13.1675 1.78127 12.9326 1.66587 12.6812 1.60534C12.4298 1.5448 12.1681 1.54064 11.9148 1.59314C11.6258 1.8032 12.5631 2.1883 12.5631 2.41587C12.5631 2.64344 11.9324 2.36336 11.8185 2.41587C11.7046 2.46839 11.144 1.8207 10.8286 1.8207C10.5132 1.8207 10.7848 2.13579 10.7848 2.57342C10.7848 3.01104 10.1628 3.27362 10.338 2.97603C10.5132 2.67845 10.338 1.90822 10.0489 1.76818C9.75986 1.62814 8.8488 2.06577 8.40204 2.04827C7.95527 2.03076 7.36836 2.18831 7.7538 2.43338C8.13925 2.67845 7.75379 2.81849 7.40339 2.55591C7.05299 2.29334 5.96673 2.55591 6.18574 2.73096C6.29616 2.84465 6.37014 2.98865 6.39823 3.14456C6.42632 3.30047 6.40724 3.4612 6.34343 3.60622C6.20326 3.81628 5.73897 3.39616 5.30973 3.43117C4.88048 3.46618 2.74302 4.5865 2.87442 4.88409C3.00582 5.18168 3.90812 4.93661 4.19721 5.11166C4.48629 5.28671 4.10084 5.9344 3.75043 6.18822C3.40003 6.44205 2.08602 6.18822 2.05974 6.52082C2.03346 6.85341 0.00111413 6.88842 0.00111413 7.39607C-0.00606309 7.49439 0.0216041 7.59211 0.0792567 7.67211C0.136909 7.75212 0.220875 7.80931 0.316478 7.8337C0.605561 7.90372 0.955965 7.8337 1.19249 8.11378C1.40332 8.26629 1.65186 8.35831 1.91125 8.37991C2.17063 8.4015 2.431 8.35185 2.66419 8.23632C3.15475 8.02625 3.5402 8.23632 3.5402 8.58642C3.5402 8.93652 2.42766 8.46389 2.09478 8.69145C1.76189 8.91902 0.719451 8.69145 0.763251 8.97153C0.807052 9.25161 1.3239 9.16409 1.73562 9.25161C2.14735 9.33914 1.73562 9.5317 1.73562 9.72425C1.73562 9.91681 1.96338 9.8818 2.3751 10.1094C2.78683 10.3369 3.47888 10.477 3.25111 10.2144C3.02335 9.95182 3.68035 9.98683 3.79424 10.1444C3.90812 10.3019 4.20597 9.9168 4.51257 10.0043C4.81917 10.0919 4.92429 9.68925 5.16958 9.8643C5.41486 10.0393 6.51863 10.1444 6.9216 10.3719C7.32456 10.5995 7.7976 10.652 7.7976 10.9759C7.7976 11.2997 8.12173 11.5535 8.55097 11.7636C8.719 11.8581 8.85576 11.9995 8.94447 12.1705C9.03317 12.3416 9.06994 12.5347 9.05029 12.7264C9.05029 13.024 9.50582 13.234 9.42698 13.3741C9.34814 13.5141 9.42698 13.7067 9.69854 13.9867C9.97011 14.2668 9.25178 14.4769 9.42698 14.722C9.60218 14.967 9.17293 15.4397 9.68102 15.5272C10.1891 15.6147 10.1103 15.1421 10.4957 15.1421C10.8812 15.1421 10.4957 15.5097 10.6884 15.7372C10.8811 15.9648 11.3279 15.9035 11.7221 16.2712C12.1163 16.6388 11.871 16.8138 11.5031 16.5162C11.2838 16.4016 11.0438 16.3317 10.7971 16.3107C10.5505 16.2897 10.3021 16.3179 10.0665 16.3937C10.0665 16.4987 11.2491 17.2689 11.5206 17.1289C11.7922 16.9889 12.1601 17.5665 11.9937 17.7416C11.8272 17.9166 11.9148 18.3543 11.8886 18.5643C11.8623 18.7744 11.4506 18.5643 11.1965 18.5643C10.9425 18.5643 10.7673 18.6869 10.7673 18.9845C10.7673 19.282 10.3731 19.4921 10.3205 19.8597C10.2679 20.2273 10.6446 20.2098 10.8461 20.3674C11.0476 20.5249 10.4694 20.6212 10.4344 20.8838C10.3993 21.1463 10.9775 21.619 11.179 21.759C11.3805 21.899 11.179 22.4767 11.2754 22.7743C11.3717 23.0719 11.6258 22.7043 11.5995 23.0894C11.5732 23.4745 11.8535 23.457 11.871 23.6846C11.8886 23.9121 12.3791 23.8771 12.2828 24.1922C12.1864 24.5073 12.4229 24.7349 12.5368 24.9099C12.6507 25.085 13.0624 25.3738 13.1413 25.6014C13.2201 25.8289 13.4654 26.1265 13.7545 26.039C14.0435 25.9515 14.0523 26.2491 14.2801 26.2141C14.4027 26.1973 14.5276 26.2165 14.6396 26.2694C14.7516 26.3222 14.8458 26.4063 14.9108 26.5116C14.9809 26.7042 15.6642 26.8792 15.8569 26.9143C16.0496 26.9493 16.0759 26.5642 16.2511 26.4591C16.4263 26.3541 16.365 25.5839 16.5226 25.5314C16.6803 25.4788 16.6365 24.6561 16.5226 24.6561C16.4088 24.6561 16.4263 24.306 16.7942 24.3585C17.1621 24.411 17.0307 24.0084 17.2059 23.9559C17.3811 23.9034 17.3023 23.5358 17.4337 23.5008C17.5651 23.4657 17.5388 23.2207 17.4337 23.0806C17.3286 22.9406 17.4337 22.8356 17.6439 22.8006C17.8542 22.7656 17.7929 22.468 17.5301 22.3629C17.2673 22.2579 17.3549 21.9428 17.6177 22.1354C17.8805 22.3279 18.0644 22.1879 17.9155 21.9778C17.7666 21.7678 18.0907 21.6627 18.4236 21.6277C18.7565 21.5927 18.9404 21.4002 18.8704 21.1201C18.8003 20.84 19.2558 20.8575 19.1419 21.1201C19.028 21.3827 19.0981 21.6102 19.2558 21.4352C19.4135 21.2601 19.7201 21.3826 20.2632 21.2076C20.5339 21.1209 20.7816 20.9744 20.9879 20.7789C21.1941 20.5834 21.3536 20.344 21.4546 20.0785C21.586 19.6059 22.208 19.6584 22.1291 19.3433C22.0503 19.0282 22.243 18.9057 22.6372 19.1157C23.0314 19.3258 22.716 18.9757 23.1628 18.9757C23.6096 18.9757 23.5307 18.8006 23.96 18.7831C24.6404 18.7535 25.3028 18.555 25.8872 18.2055C26.3776 17.8791 26.8898 17.5867 27.4202 17.3302C27.6655 17.1464 27.7531 16.9539 27.5428 17.0764Z" fill="#92E3A9"/>
</svg>
