<svg width="7" height="7" viewBox="0 0 7 7" fill="none" xmlns="http://www.w3.org/2000/svg">
<path d="M5.73576 6.03422C5.7454 5.82548 5.77211 5.61788 5.81563 5.41349C5.81563 5.28934 5.89549 5.23613 6.04637 5.2716C6.19725 5.30707 6.17063 4.93463 6.04637 4.89916C5.92212 4.86369 5.86889 4.42031 5.59375 4.42031C5.31861 4.42031 5.37186 4.66861 5.53162 4.68634C5.56546 4.68802 5.59852 4.69712 5.62845 4.71301C5.65837 4.7289 5.68444 4.75119 5.70477 4.77827C5.72511 4.80536 5.73922 4.8366 5.7461 4.86976C5.75299 4.90291 5.75248 4.93717 5.74462 4.9701C5.69136 5.09425 5.62923 4.84596 5.40735 4.8637C5.18546 4.88143 5.32748 4.56219 5.06122 4.54446C4.79496 4.52672 4.85708 4.02127 4.58195 4.02127C4.30681 4.02127 4.28906 3.77296 4.46656 3.59561C4.64407 3.41825 4.19143 3.25864 4.19143 3.04581C4.19143 2.83299 3.89856 2.95713 3.89856 2.77978C3.89856 2.60243 3.7743 2.69111 3.62342 2.47828C3.47254 2.26546 3.41928 2.47828 3.28615 2.30093C3.15302 2.12358 2.98439 2.05263 2.86901 2.10584C2.75363 2.15905 2.49625 1.87528 2.39862 1.59151C2.30099 1.30774 1.57321 0.988508 1.51109 0.704741C1.44896 0.420975 1.15606 0.279099 0.721167 0.296835C0.286276 0.31457 0.10878 -0.173162 0.0111508 0.0662656C-0.086478 0.305694 0.481541 1.04172 0.756676 1.21907C1.03181 1.39642 1.17383 2.0349 1.49335 2.10584C1.81286 2.17678 1.84835 3.25864 2.09686 3.31185C2.51878 3.66579 2.81203 4.14893 2.93115 4.68634C3.0199 5.14746 3.55242 5.37801 3.72992 5.71499C3.90743 6.05196 4.61744 6.51309 4.71507 6.65497C4.8127 6.79686 4.91033 7.11609 4.99021 6.95647C5.07008 6.79685 5.40737 6.95647 5.56712 6.95647C5.72688 6.95647 5.75351 6.28252 5.73576 6.03422Z" fill="#92E3A9"/>
</svg>
