<svg width="4" height="4" viewBox="0 0 4 4" fill="none" xmlns="http://www.w3.org/2000/svg">
<path d="M2.13645 0.252942C2.38073 0.0967375 2.13645 -0.0789933 1.85309 0.0381598C1.40322 0.435081 1.06617 0.94359 0.875972 1.51233C0.875972 1.80521 0.875958 2.15669 0.602366 2.13716C0.328773 2.11764 0.0747262 2.37146 0.27015 2.52767C0.465573 2.68387 -0.247715 3.13295 0.0942757 3.3282C0.436267 3.52346 0.700091 3.26963 1.01277 3.3282C1.15883 3.36635 1.31147 3.37214 1.46 3.34516C1.60853 3.31817 1.74935 3.25908 1.87262 3.17201C2.13644 2.95723 2.13644 3.36725 2.4198 3.3282C2.70317 3.28915 2.26347 3.58205 2.28301 3.79683C2.30255 4.01161 2.58592 3.67967 2.79111 3.56251C2.99631 3.44536 3.2699 3.56251 3.17219 3.75777C3.07448 3.95302 3.75845 4.14828 3.91479 3.83587C4.07113 3.52346 3.75846 3.03533 3.65098 3.25011C3.5435 3.46489 3.37739 3.09391 3.65098 2.89865C3.92457 2.7034 3.65098 2.62529 3.4067 2.74245C3.16242 2.8596 3.24059 2.21525 3.4067 2.0981C3.57281 1.98095 2.92791 1.74664 2.92791 1.96142C2.92791 2.1762 2.44912 2.03953 2.39049 1.84428C2.33186 1.64902 1.99966 1.59043 2.12668 1.45376C2.25371 1.31708 1.71629 1.24874 1.66743 1.45376C1.61858 1.65877 1.45247 1.29755 1.66743 0.994905C1.8824 0.69226 1.89217 0.409146 2.13645 0.252942Z" fill="#92E3A9"/>
</svg>
