<svg width="11" height="7" viewBox="0 0 11 7" fill="none" xmlns="http://www.w3.org/2000/svg">
<path d="M9.35846 3.57505C9.12331 3.3401 8.28217 3.24973 8.25504 2.90633C8.2279 2.56294 6.71749 1.74965 6.06629 1.58699L5.65026 1.46047C5.02708 1.18138 4.39012 0.934053 3.74186 0.719461C3.49766 0.719461 3.46149 1.20744 3.24442 1.20744C3.02736 1.20744 2.73793 1.69543 2.33998 1.84001C1.94202 1.9846 1.93296 0.601991 1.75207 0.33089C1.57118 0.0597901 0.57631 -0.157101 0.476821 0.150146C0.377332 0.457393 0.0426689 0.29474 0.00649109 0.53873C-0.0296868 0.78272 0.0878979 0.701384 0.295921 0.701384C0.503943 0.701384 0.512993 0.882123 0.612482 1.11708C0.711971 1.35203 1.29986 1.18937 1.51693 1.17129C1.734 1.15322 1.75207 1.46047 1.47169 1.35203C1.19131 1.24359 1.19131 1.49662 0.992334 1.4424C0.793356 1.38818 0.53108 1.44239 0.666747 1.53276C0.802414 1.62312 1.01044 1.78579 1.01044 2.07496C1.01044 2.12529 1.03044 2.17357 1.06606 2.20916C1.10168 2.24474 1.14999 2.26474 1.20037 2.26474C1.25074 2.26474 1.29906 2.24474 1.33468 2.20916C1.3703 2.17357 1.39029 2.12529 1.39029 2.07496C1.39029 1.84001 1.58928 2.14725 1.9601 2.25569C2.33092 2.36413 2.07767 2.5268 2.45753 2.54487C3.01787 2.62156 3.55316 2.82559 4.02224 3.1413C4.34784 3.4124 4.12173 3.59313 4.3388 3.84616C4.55586 4.09918 4.61918 4.38835 4.3388 4.38835C4.05842 4.38835 3.72378 4.71368 3.80518 4.87634C3.88658 5.039 4.86336 4.80404 5.08948 4.80404C5.31559 4.80404 5.39699 5.09321 5.68641 5.31009C5.86103 5.43701 6.06793 5.51218 6.28335 5.52698C7.00691 5.52698 6.82601 5.11129 6.95263 5.11129C7.07926 5.11129 7.13355 4.85826 7.2873 4.65945C7.44106 4.46065 8.07415 4.65946 8.45402 4.94863C8.83388 5.23781 9.27707 6.2228 9.67503 6.13243C10.073 6.04207 10.48 6.38546 10.8418 6.36738C11.2035 6.34931 10.8418 6.04206 10.7604 5.98784C10.679 5.93362 10.3443 5.71674 10.3624 5.57215C10.3805 5.42756 10.0368 5.45468 9.80166 5.29202C9.56651 5.12936 9.65693 4.60523 9.41273 4.47872C9.16853 4.35221 8.9786 3.9546 9.27707 3.97267C9.57553 3.99074 9.58458 3.81001 9.35846 3.57505Z" fill="#92E3A9"/>
</svg>
