<svg width="10" height="4" viewBox="0 0 10 4" fill="none" xmlns="http://www.w3.org/2000/svg">
<path d="M2.72085 2.5907C2.91009 3.15793 3.1088 2.76087 3.39266 2.98776C3.67652 3.21465 4.12123 3.35647 4.33886 3.12957C4.55648 2.90268 4.67002 2.73251 4.74572 2.93104C4.82141 3.12957 5.4459 3.29974 6.63811 3.3281C7.83032 3.35646 7.58431 2.76087 7.9344 2.98776C8.4226 3.18861 8.96001 3.23803 9.4767 3.12957C9.84572 3.04449 10.0255 2.42054 9.99712 2.10856C9.96873 1.79658 7.20583 1.55079 6.71381 1.86276C6.22179 2.17474 5.44591 1.72094 5.05796 1.93838C4.67002 2.15582 4.80249 1.66423 4.11177 1.63587C3.42104 1.60751 4.16854 1.21044 4.301 1.04027C4.43347 0.870103 3.24126 0.416325 2.74924 0.529771C2.25722 0.643217 1.97336 0.359597 1.50972 0.132705C1.04609 -0.0941869 -0.221817 -0.0374587 0.0336566 0.359602C0.28913 0.756663 1.70843 1.23881 1.86928 0.955191C2.03014 0.671576 2.40861 1.29553 2.64516 1.60751C2.88171 1.91948 2.56 2.02347 2.72085 2.5907Z" fill="#92E3A9"/>
</svg>
