<svg width="127" height="20" viewBox="0 0 127 20" fill="none" xmlns="http://www.w3.org/2000/svg">
<g clip-path="url(#clip0_20_3531)">
<path d="M9.24516 0H10.4773C10.8071 0.0440933 11.1406 0.0772028 11.4667 0.132319C13.482 0.47588 15.3431 1.44328 16.7946 2.90179C18.2461 4.36029 19.2169 6.23842 19.5739 8.27853C19.6391 8.64598 19.6753 9.01342 19.7261 9.38087V10.6301C19.6971 10.869 19.6717 11.1079 19.6391 11.3431C19.3724 13.4735 18.415 15.4536 16.9174 16.9722C14.3805 19.5443 11.3326 20.4814 7.82812 19.7796C5.5047 19.3257 3.43472 18.0022 2.02955 16.072C1.00235 14.7081 0.338696 13.0992 0.102424 11.3999C-0.133848 9.70068 0.0651953 7.96837 0.680459 6.36972C1.29572 4.77108 2.3065 3.35995 3.61545 2.27204C4.9244 1.18413 6.48749 0.456033 8.1543 0.157976C8.52033 0.106534 8.88637 0.0514422 9.24516 0ZM10.6948 8.3006V7.56571C10.6948 6.56259 10.6948 6.54788 11.6914 6.54788H12.467V4.57834C12.4465 4.57604 12.4258 4.57604 12.4054 4.57834C11.6805 4.57834 10.9775 4.5453 10.2671 4.60777C9.86139 4.62545 9.47135 4.77186 9.15208 5.02635C8.83281 5.28083 8.60042 5.63056 8.48769 6.02614C8.39 6.37449 8.33404 6.73346 8.32099 7.09537C8.29562 7.49589 8.32099 7.90011 8.32099 8.32635H7.20841V10.384H8.32825V16.1602H10.7093V10.3656H12.3111L12.5141 8.32267L10.6948 8.3006Z" fill="white"/>
<path d="M10.7092 8.30053H12.5213L12.3184 10.3435H10.7165V16.1381H8.33546V10.3618H7.21558V8.30421H8.3282C8.3282 7.87797 8.31008 7.47375 8.3282 7.07323C8.34125 6.71132 8.39721 6.35235 8.4949 6.004C8.60763 5.60842 8.84002 5.25869 9.15929 5.00421C9.47856 4.74972 9.8686 4.60331 10.2743 4.58563C10.9992 4.52316 11.6986 4.55997 12.4126 4.55629C12.4331 4.55399 12.4537 4.55399 12.4742 4.55629V6.52574H11.6986C10.7201 6.52574 10.702 6.52575 10.702 7.54357L10.7092 8.30053Z" fill="#2F383B"/>
</g>
<g clip-path="url(#clip1_20_3531)">
<path d="M46.1678 19.9996H45.089C44.8092 19.9678 44.5284 19.9428 44.2495 19.9017C42.86 19.7129 41.5278 19.219 40.3459 18.4545C40.2929 18.4151 40.231 18.3898 40.1659 18.3807C40.1008 18.3717 40.0345 18.3792 39.9729 18.4027C38.8464 18.7749 37.7169 19.1363 36.5885 19.5041C36.5267 19.5242 36.464 19.5427 36.3762 19.5696C36.7703 18.3807 37.1481 17.2293 37.5341 16.0809C37.5862 15.9264 37.5823 15.811 37.4825 15.6706C36.6635 14.4926 36.1156 13.1433 35.8792 11.7221C35.8088 11.3079 35.775 10.8868 35.7244 10.4691V9.41459C35.7364 9.34514 35.7499 9.27618 35.7601 9.20722C35.8233 8.77046 35.8599 8.32685 35.9531 7.89743C36.4731 5.48131 37.7054 3.50733 39.6536 2.02831C42.0451 0.213282 44.7344 -0.386344 47.6625 0.233337C50.0217 0.732701 51.9405 1.98478 53.4076 3.91816C54.9911 6.0061 55.6501 8.3831 55.4026 10.9997C55.2024 13.1121 54.3957 14.9795 53.0096 16.5754C51.4807 18.3361 49.573 19.4312 47.291 19.8421C46.9185 19.9115 46.5422 19.9487 46.1678 19.9996ZM48.7687 15.6354C49.0886 15.5733 49.3689 15.5532 49.6256 15.4642C51.0204 14.9795 51.4937 14.2972 51.5342 12.9913C51.5405 12.7835 51.4628 12.646 51.278 12.557C50.549 12.2054 49.8249 11.8434 49.093 11.4972C48.7046 11.3137 48.4831 11.3847 48.2289 11.7319C48.0359 11.9931 47.8501 12.2567 47.6523 12.5145C47.358 12.8965 47.1409 12.9502 46.699 12.7678C45.0885 12.1026 43.8828 10.9655 42.9768 9.48111C42.7558 9.11967 42.7669 9.01256 43.0496 8.68878C43.2281 8.48434 43.4144 8.28577 43.5803 8.07204C43.7371 7.87102 43.8828 7.65141 43.7699 7.37654C43.4322 6.549 43.0868 5.72292 42.7331 4.90173C42.6887 4.79902 42.5845 4.67675 42.4866 4.65229C41.9689 4.52171 41.4281 4.49285 40.9958 4.84793C40.0308 5.64173 39.7298 6.70991 39.915 7.92384C40.0453 8.77388 40.44 9.51877 40.9166 10.2226C41.6823 11.3543 42.5474 12.3951 43.5789 13.2907C44.7262 14.2874 46.0583 14.9203 47.4931 15.3478C47.9215 15.4749 48.3654 15.5459 48.7687 15.6354Z" fill="white"/>
<path d="M48.7689 15.6355C48.3655 15.546 47.9217 15.4751 47.4942 15.3475C46.0594 14.92 44.7273 14.2871 43.58 13.2903C42.5485 12.3948 41.6834 11.3525 40.9201 10.2223C40.4435 9.51845 40.0488 8.77356 39.9185 7.92352C39.7333 6.70959 40.0363 5.64141 40.9993 4.84761C41.4335 4.49106 41.9724 4.51991 42.4901 4.65197C42.5866 4.67642 42.6922 4.7987 42.7366 4.90141C43.0903 5.72259 43.4333 6.54867 43.7734 7.37622C43.8863 7.65109 43.7406 7.87069 43.5838 8.07171C43.4169 8.28545 43.2307 8.48402 43.0531 8.68846C42.7704 9.01224 42.7593 9.11935 42.9803 9.48079C43.8863 10.9652 45.092 12.1023 46.7025 12.7675C47.1444 12.9499 47.3615 12.8961 47.6558 12.5141C47.8536 12.2583 48.0418 11.9947 48.2324 11.7316C48.4866 11.3843 48.7081 11.3134 49.0965 11.4968C49.8284 11.8431 50.5525 12.205 51.2815 12.5567C51.4663 12.6457 51.544 12.7831 51.5377 12.991C51.4972 14.2969 51.0239 14.9792 49.6291 15.4639C49.3691 15.5534 49.0887 15.5734 48.7689 15.6355Z" fill="#2F383B"/>
</g>
<g clip-path="url(#clip2_20_3531)">
<path d="M81.9316 19.9998H80.6987C80.6573 19.9853 80.6146 19.9745 80.5713 19.9674C79.7378 19.9154 78.9159 19.7431 78.1302 19.4556C74.548 18.1103 72.3734 15.5389 71.6063 11.7412C71.5318 11.376 71.5035 10.9973 71.4521 10.6253V9.37321C71.4634 9.31686 71.4763 9.26052 71.4866 9.20365C71.5991 8.56509 71.6602 7.91192 71.8307 7.28953C73.5542 1.00823 80.673 -1.93053 86.2585 1.35724C88.8912 2.9067 90.4708 5.25228 91.0297 8.29589C91.095 8.65273 91.1294 9.0148 91.1782 9.37477V10.5867C91.1674 10.6493 91.154 10.7114 91.1453 10.7745C91.0939 11.1668 91.058 11.5633 90.984 11.9515C90.2134 15.9774 87.0033 19.1577 83.0134 19.8459C82.6544 19.9085 82.2912 19.9492 81.9316 19.9998ZM79.8126 8.24633V15.2559H81.9367V15.0175C81.9367 13.9219 81.9337 12.8305 81.9367 11.7376C81.9367 11.3463 81.9686 10.955 82.1458 10.5971C82.377 10.1276 82.8316 9.91891 83.4527 9.99925C83.8862 10.0514 84.1811 10.3451 84.2746 10.8538C84.3229 11.1158 84.348 11.3818 84.3496 11.6484C84.3578 12.7804 84.3537 13.9131 84.3542 15.0452V15.2538H86.4963C86.4999 15.1897 86.5061 15.1391 86.5061 15.0879C86.5061 13.8359 86.5194 12.589 86.4984 11.3395C86.4919 10.8391 86.4417 10.3403 86.3484 9.849C86.1876 9.02628 85.7361 8.41432 84.9018 8.19416C84.5544 8.10278 84.1962 8.06064 83.8374 8.06895C83.034 8.08878 82.3744 8.41849 81.9275 9.12331C81.9028 9.14934 81.8756 9.17276 81.8463 9.19322V8.24738L79.8126 8.24633ZM78.4349 15.2549V8.25259H76.3092V15.2549H78.4349ZM77.3628 7.27283C77.6101 7.27283 77.8519 7.19825 78.0575 7.05856C78.2631 6.91886 78.4232 6.72034 78.5176 6.48814C78.6119 6.25593 78.6363 6.0005 78.5876 5.75421C78.5389 5.50792 78.4193 5.28186 78.244 5.10467C78.0686 4.92748 77.8454 4.80714 77.6027 4.75889C77.3599 4.71064 77.1086 4.73666 76.8804 4.83365C76.6522 4.93064 76.4575 5.09424 76.321 5.30371C76.1845 5.51319 76.1122 5.75911 76.1134 6.01031C76.1155 6.3457 76.2479 6.66668 76.4819 6.90335C76.7159 7.14002 77.0325 7.27319 77.3628 7.27388V7.27283Z" fill="white"/>
</g>
<g clip-path="url(#clip3_20_3531)">
<path d="M117.038 20C111.589 20 107.172 15.5099 107.178 9.98185C107.184 4.46873 111.611 -0.00800251 117.053 1.07409e-05C122.495 0.00802399 126.908 4.48743 126.904 10.007C126.9 15.5265 122.479 20.0016 117.038 20ZM123.116 10.0102H123.133C123.133 9.26226 123.138 8.51436 123.131 7.77073C123.133 7.47738 123.114 7.18427 123.075 6.89354C122.886 5.61409 122.262 4.65998 121.039 4.17598C120.534 3.98128 119.998 3.88328 119.458 3.88697C117.912 3.88127 116.367 3.88127 114.823 3.88697C114.495 3.88592 114.167 3.91146 113.843 3.96336C112.6 4.17331 111.679 4.81811 111.218 6.04414C111.036 6.54538 110.945 7.07621 110.951 7.61046C110.951 9.1629 110.948 10.7159 110.951 12.2688C110.949 12.5548 110.969 12.8405 111.009 13.1236C111.191 14.3106 111.752 15.2321 112.863 15.745C113.406 15.9891 113.993 16.1133 114.587 16.1093C116.224 16.1189 117.86 16.1189 119.497 16.1093C120.132 16.105 120.753 15.9843 121.327 15.6926C122.506 15.0943 123.026 14.0563 123.104 12.7849C123.161 11.8639 123.116 10.9349 123.116 10.0086V10.0102Z" fill="white"/>
<path d="M123.116 10.0086C123.116 10.9349 123.161 11.8639 123.104 12.7865C123.026 14.058 122.506 15.0959 121.327 15.6943C120.753 15.9859 120.132 16.1067 119.497 16.1109C117.86 16.1223 116.224 16.1223 114.587 16.1109C113.993 16.1149 113.406 15.9907 112.863 15.7466C111.752 15.2338 111.191 14.3122 111.009 13.1252C110.969 12.8422 110.949 12.5564 110.951 12.2705C110.946 10.7175 110.948 9.16453 110.951 7.6121C110.945 7.07766 111.036 6.54664 111.218 6.04524C111.679 4.81654 112.6 4.17548 113.843 3.96447C114.166 3.91214 114.494 3.88606 114.821 3.88647C116.367 3.87899 117.912 3.87899 119.456 3.88647C119.996 3.88278 120.532 3.98077 121.037 4.17548C122.26 4.65948 122.881 5.61359 123.073 6.89304C123.112 7.18321 123.131 7.47577 123.13 7.76862C123.138 8.51652 123.133 9.26443 123.133 10.0081L123.116 10.0086ZM117.046 5.04038V5.02007C116.888 5.02007 116.73 5.02007 116.571 5.02007C115.77 5.0377 114.966 5.02382 114.168 5.08472C113.246 5.15523 112.562 5.62374 112.257 6.53725C112.142 6.88402 112.082 7.24657 112.077 7.6121C112.057 9.15171 112.067 10.6919 112.07 12.232C112.071 12.4384 112.083 12.6446 112.106 12.8496C112.239 14.0286 113.018 14.8262 114.178 14.9116C114.937 14.9651 115.701 14.9715 116.463 14.9693C117.613 14.9656 118.765 14.9693 119.913 14.9068C120.836 14.8534 121.52 14.3694 121.823 13.457C121.94 13.0967 122 12.7205 122.003 12.3415C122.022 10.8088 122.013 9.27511 122.009 7.74191C122.009 7.52206 121.995 7.30245 121.968 7.08429C121.845 6.07836 121.219 5.36304 120.251 5.13921C119.989 5.07953 119.72 5.04766 119.451 5.04412C118.649 5.03503 117.848 5.04251 117.046 5.04251V5.04038Z" fill="white"/>
<path d="M117.028 13.25C116.605 13.2494 116.186 13.1637 115.796 12.9979C115.406 12.832 115.052 12.5894 114.755 12.284C114.458 11.9785 114.224 11.6164 114.066 11.2185C113.908 10.8207 113.83 10.395 113.835 9.96616C113.838 9.53736 113.925 9.11345 114.091 8.71899C114.257 8.32453 114.499 7.96734 114.802 7.66813C115.105 7.36892 115.463 7.13362 115.856 6.97587C116.25 6.81811 116.67 6.74104 117.093 6.74911C117.941 6.76135 118.749 7.11402 119.34 7.72969C119.931 8.34535 120.258 9.17371 120.247 10.0329C120.241 10.8921 119.898 11.7136 119.294 12.3168C118.691 12.92 117.876 13.2557 117.028 13.25ZM117.068 7.90355C116.796 7.89924 116.526 7.94936 116.274 8.05102C116.021 8.15269 115.791 8.30391 115.596 8.49599C115.402 8.68808 115.246 8.91725 115.139 9.17037C115.032 9.42348 114.975 9.69556 114.972 9.97097C114.947 11.1217 115.86 12.0726 117.012 12.0955C118.151 12.1185 119.082 11.1991 119.107 10.0281C119.112 9.75265 119.062 9.47899 118.962 9.22288C118.862 8.96678 118.713 8.73328 118.523 8.53582C118.334 8.33837 118.108 8.18086 117.858 8.07235C117.608 7.96383 117.34 7.90647 117.068 7.90355Z" fill="white"/>
<path d="M120.277 7.41204C120.193 7.41467 120.11 7.40041 120.032 7.37007C119.953 7.33974 119.882 7.29394 119.821 7.23534C119.761 7.17674 119.712 7.1065 119.678 7.02871C119.645 6.95092 119.627 6.86713 119.625 6.7822C119.623 6.69582 119.638 6.60985 119.669 6.52938C119.7 6.4489 119.747 6.37555 119.806 6.31366C119.866 6.25176 119.937 6.20257 120.015 6.169C120.094 6.13542 120.178 6.11814 120.263 6.11817C120.432 6.11731 120.595 6.18424 120.715 6.30434C120.836 6.42444 120.904 6.58797 120.906 6.75923C120.908 6.93035 120.843 7.0952 120.725 7.2176C120.607 7.34 120.446 7.40993 120.277 7.41204Z" fill="white"/>
<path d="M117.046 5.04219C117.848 5.04219 118.65 5.03471 119.452 5.04646C119.721 5.05 119.99 5.08187 120.252 5.14155C121.22 5.36539 121.846 6.0807 121.969 7.08663C121.996 7.30479 122.01 7.5244 122.01 7.74425C122.014 9.27745 122.023 10.8112 122.004 12.3439C122.001 12.7228 121.941 13.0991 121.824 13.4593C121.521 14.3717 120.837 14.8573 119.914 14.9092C118.766 14.9738 117.614 14.9679 116.464 14.9717C115.702 14.9717 114.936 14.9717 114.179 14.914C113.02 14.8285 112.24 14.0309 112.107 12.8519C112.084 12.6469 112.072 12.4407 112.071 12.2343C112.068 10.6942 112.058 9.15405 112.078 7.61444C112.083 7.24891 112.143 6.88636 112.258 6.53959C112.563 5.62608 113.247 5.15758 114.169 5.08706C114.967 5.02616 115.771 5.04005 116.573 5.02242C116.731 5.01922 116.889 5.02242 117.047 5.02242L117.046 5.04219ZM117.028 13.2499C117.876 13.2556 118.691 12.9199 119.295 12.3167C119.898 11.7135 120.241 10.892 120.247 10.0328C120.258 9.17361 119.932 8.34525 119.34 7.72959C118.749 7.11392 117.941 6.76125 117.093 6.74901C116.67 6.74094 116.25 6.81801 115.857 6.97577C115.463 7.13352 115.105 7.36882 114.802 7.66803C114.499 7.96724 114.257 8.32443 114.091 8.71889C113.926 9.11335 113.838 9.53726 113.835 9.96606C113.83 10.3949 113.908 10.8206 114.066 11.2184C114.224 11.6163 114.458 11.9784 114.755 12.2839C115.052 12.5893 115.406 12.8319 115.796 12.9978C116.187 13.1636 116.605 13.2493 117.028 13.2499ZM120.277 7.41197C120.446 7.40986 120.607 7.33992 120.725 7.21752C120.843 7.09513 120.908 6.93027 120.906 6.75916C120.904 6.5879 120.836 6.42437 120.715 6.30427C120.595 6.18416 120.432 6.11724 120.263 6.1181C120.178 6.11807 120.094 6.13535 120.015 6.16893C119.937 6.2025 119.866 6.25169 119.806 6.31359C119.747 6.37548 119.7 6.44883 119.669 6.5293C119.638 6.60978 119.623 6.69575 119.625 6.78213C119.627 6.86706 119.645 6.95085 119.678 7.02864C119.712 7.10643 119.761 7.17666 119.821 7.23527C119.882 7.29387 119.953 7.33966 120.032 7.37C120.11 7.40034 120.193 7.4146 120.277 7.41197Z" fill="#2F383B"/>
<path d="M117.068 7.90356C117.34 7.90634 117.609 7.96365 117.859 8.0722C118.109 8.18075 118.335 8.33838 118.525 8.53602C118.714 8.73366 118.864 8.9674 118.964 9.22376C119.064 9.48012 119.113 9.75404 119.108 10.0297C119.084 11.2007 118.152 12.1201 117.013 12.0972C115.862 12.0742 114.948 11.1233 114.973 9.97258C114.976 9.69712 115.033 9.42497 115.14 9.17174C115.247 8.91851 115.402 8.68919 115.597 8.49695C115.791 8.30471 116.021 8.15333 116.274 8.0515C116.526 7.94967 116.796 7.89939 117.068 7.90356Z" fill="#2F383B"/>
</g>
<defs>
<clipPath id="clip0_20_3531">
<rect width="19.726" height="20" fill="white"/>
</clipPath>
<clipPath id="clip1_20_3531">
<rect width="19.726" height="20" fill="white" transform="translate(35.7261)"/>
</clipPath>
<clipPath id="clip2_20_3531">
<rect width="19.726" height="20" fill="white" transform="translate(71.4521)"/>
</clipPath>
<clipPath id="clip3_20_3531">
<rect width="19.726" height="20" fill="white" transform="translate(107.178)"/>
</clipPath>
</defs>
</svg>
