<svg width="4" height="2" viewBox="0 0 4 2" fill="none" xmlns="http://www.w3.org/2000/svg">
<path d="M0.915968 1.52279C1.06768 1.47415 1.22841 1.46033 1.38621 1.48233C1.54401 1.50433 1.69483 1.56158 1.82742 1.64985C2.06059 1.77692 2.12417 1.5228 2.64348 1.33219C3.1628 1.14159 4.00007 1.49102 4.00007 1.04628C4.00007 0.601533 2.61169 0.125019 2.26194 0.252089C2.14811 0.287857 2.02603 0.287857 1.9122 0.252089C1.54126 0.146197 1.08553 -0.107946 0.852365 0.0508921C0.619202 0.20973 1.2869 0.749771 1.2869 1.03568C1.2869 1.32159 0.131686 1.03568 0.0151046 1.28983C-0.101477 1.54397 0.481437 1.70281 0.915968 1.52279Z" fill="#92E3A9"/>
</svg>
