<svg width="4" height="3" viewBox="0 0 4 3" fill="none" xmlns="http://www.w3.org/2000/svg">
<path d="M0.553583 0.79809C0.881585 0.559749 1.47794 0.947052 1.36861 1.21519C1.25928 1.48332 0.315029 1.21519 0.374665 1.39394C0.434302 1.5727 0.503887 1.84084 1.15989 1.63229C1.43541 1.53133 1.73351 1.5085 2.0212 1.56634C2.3089 1.62418 2.57497 1.76043 2.78996 1.96C3.21736 2.34731 3.62487 2.49627 3.92306 2.10897C4.22124 1.72166 3.54535 1.66208 3.6845 1.36415C3.82366 1.06622 3.24716 0.887472 2.94898 0.887472C2.6508 0.887472 2.54147 0.291615 2.29299 0.410786C2.0445 0.529957 1.88547 0.738508 1.88547 0.351203C1.88547 -0.0361015 0.47406 -0.0658984 0.126179 0.0830649C-0.221701 0.232028 0.225582 1.03643 0.553583 0.79809Z" fill="#92E3A9"/>
</svg>
