<svg width="7" height="5" viewBox="0 0 7 5" fill="none" xmlns="http://www.w3.org/2000/svg">
<path d="M0.288872 2.48878C0.679601 2.7035 0.445155 2.98653 0.874956 3.18173C1.30476 3.37692 2.52579 2.92798 2.63324 3.24029C2.74069 3.55261 1.37314 3.59164 1.56851 3.7966C1.76387 4.00156 2.54532 4.32362 2.41833 4.4993C2.29135 4.67498 3.69797 5.17273 3.83472 4.9385C3.97148 4.70426 4.34268 4.76282 4.68457 4.9385C5.02645 5.11417 5.05575 4.03083 5.29995 4.20651C5.54416 4.38219 5.51486 3.82588 5.91536 3.6502C6.31585 3.47453 6.89218 3.47453 6.89218 3.26957C6.89218 3.06461 6.78473 2.92798 6.29632 2.98654C5.8079 3.04509 5.49532 2.84013 5.71022 2.54734C5.92512 2.25455 5.18274 2.16671 5.44649 1.93248C5.71023 1.69824 4.93854 1.464 5.01668 1.81535C5.09483 2.16671 4.53803 1.81536 4.45989 1.52257C4.38174 1.22977 3.28771 1.08338 2.56487 0.380671C1.84202 -0.322035 1.09962 0.146434 1.52942 0.234272C1.95923 0.322111 1.92992 0.556341 1.52942 0.527062C1.12893 0.497783 0.552615 0.527066 1.12894 0.790581C1.70526 1.0541 1.08009 1.11266 0.620988 1.11266C0.161882 1.11266 0.142346 1.7568 0.728439 1.84464C1.31453 1.93248 0.894496 2.31311 0.406086 2.16671C-0.0823245 2.02031 -0.140929 2.28383 0.288872 2.48878Z" fill="#92E3A9"/>
</svg>
