<svg width="10" height="8" viewBox="0 0 10 8" fill="none" xmlns="http://www.w3.org/2000/svg">
<path d="M1.73761 4.31319C1.73761 4.58412 1.23144 4.40349 1.24952 4.58411C1.2676 4.76473 1.16817 4.89118 0.851808 4.89118C0.535448 4.89118 0.996427 5.10792 1.03258 5.3066C1.06874 5.50528 0.716222 5.36079 0.707183 5.66785C0.698144 5.97491 0.0925513 5.66784 0.0112016 6.06521C-0.0701481 6.46257 0.309479 6.4084 0.571606 6.42646C0.833733 6.44452 0.472179 6.70641 0.671034 6.86897C0.869889 7.03153 1.01452 6.97735 0.887971 6.67933C0.761427 6.3813 1.57492 6.77866 1.33087 7.01347C1.08682 7.24828 1.71954 7.4289 2.0359 7.44696C2.35226 7.46502 3.455 7.73595 3.48212 7.44696C3.50923 7.15797 3.07537 7.10379 2.73189 6.70642C2.38842 6.30905 2.13533 5.66785 2.53304 5.39692C2.93074 5.12598 2.57823 4.99955 2.97594 4.69249C3.37365 4.38544 3.13864 4.09643 3.46404 4.06031C3.78944 4.02418 3.46404 3.69907 3.76232 3.64489C3.82459 3.62921 3.88308 3.60119 3.93429 3.56248C3.98551 3.52377 4.02841 3.47517 4.06045 3.41957C4.09249 3.36396 4.11302 3.3025 4.12081 3.23881C4.1286 3.17512 4.1235 3.11051 4.1058 3.04883C4.06061 2.90434 4.45831 3.04883 4.63909 2.85015C4.81987 2.65146 5.2447 2.7779 5.38028 2.47085C5.51587 2.16379 7.40498 1.46839 8.47157 1.19746C9.53815 0.926529 10.2793 0.438854 9.89971 0.113736C9.52008 -0.211383 8.45349 0.240179 8.19137 0.474987C7.92924 0.709794 7.54961 0.54723 7.28748 0.709789C7.12585 0.814905 6.94128 0.879621 6.74935 0.898483C6.55742 0.917345 6.36377 0.889794 6.18474 0.818158C5.90453 0.619474 5.57913 1.05297 5.3622 1.03491C5.14527 1.01685 4.90122 1.26971 4.66621 1.25165C4.43119 1.23358 3.97925 1.45033 3.94309 1.59483C3.90694 1.73933 3.51827 1.7032 3.51827 1.87479C3.50913 1.92552 3.48699 1.97303 3.454 2.01265C3.421 2.05227 3.37828 2.08266 3.33002 2.10086C3.28175 2.11906 3.22958 2.12444 3.17861 2.11647C3.12764 2.10851 3.07961 2.08748 3.03921 2.05542C2.87651 1.89286 2.67766 2.23604 2.91267 2.47085C3.14768 2.70565 2.47881 2.72372 2.59631 2.86821C2.71382 3.01271 2.35226 3.10302 2.43361 3.26558C2.51496 3.42814 2.1986 3.48233 1.95455 3.53652C1.7105 3.59071 1.57492 3.95194 1.89128 3.97001C2.20764 3.98807 1.7105 4.0242 1.73761 4.31319Z" fill="#92E3A9"/>
</svg>
