<svg width="7" height="3" viewBox="0 0 7 3" fill="none" xmlns="http://www.w3.org/2000/svg">
<path d="M0.817232 0.674813C0.477237 0.674813 0.495133 1.07709 0.888812 1.07709C1.28249 1.07709 1.40775 1.21119 0.844073 1.18437C0.280396 1.15756 0.0388188 1.68499 0.423551 1.57772C0.808283 1.47044 1.31828 1.47938 0.987232 1.57772C0.656184 1.67605 -0.10433 1.76545 0.0119847 1.92636C0.128299 2.08727 0.405658 2.00681 0.718812 2.1409C1.03197 2.27499 1.22881 2.35545 1.47933 2.06045C1.72986 1.76544 2.043 1.47937 1.91774 1.87271C1.79248 2.26605 2.31142 1.97999 2.96457 1.95318C3.61772 1.92636 2.84826 2.38227 2.15932 2.43591C1.47038 2.48954 1.59564 2.86501 2.15932 2.9991C2.87182 3.01773 3.56728 2.77976 4.11877 2.32864C4.38719 2.03363 4.62876 2.48955 4.89718 2.275C5.1656 2.06045 5.68455 2.27499 6.1498 2.19453C6.61506 2.11408 6.68663 1.13073 6.33769 0.96982C5.98875 0.808908 5.9977 1.15755 5.72928 1.21119C5.46086 1.26483 5.3177 0.889363 5.09402 0.647995C4.87034 0.406627 5.02244 -0.0492908 4.70034 0.00434649C4.37824 0.0579838 3.69825 0.621176 4.11877 0.674813C4.53929 0.72845 4.38719 0.969815 4.11877 1.07709C3.85035 1.18436 4.63771 1.3721 4.53929 1.52407C4.44088 1.67604 3.31352 1.52407 3.26879 1.29164C3.12093 1.08734 2.92559 0.922008 2.69959 0.809883C2.47359 0.697758 2.22369 0.642201 1.97142 0.647995C1.60458 0.75527 1.74775 0.326172 1.38986 0.299353C1.03197 0.272535 1.15723 0.647994 0.817232 0.674813Z" fill="#92E3A9"/>
</svg>
