<svg width="388" height="190" viewBox="0 0 388 190" fill="none" xmlns="http://www.w3.org/2000/svg">
<circle cx="132.615" cy="145.708" r="40.3038" fill="#231E1E"/>
<circle cx="279.175" cy="145.708" r="40.3038" fill="#231E1E"/>
<path d="M340.632 75.7271C257.972 -38.8356 156.205 -1.61834 115.479 46.7433C108.232 56.5487 83.2494 76.4154 41.2991 77.4386C1.36246 78.4127 -2.33188 117.329 1.08378 139.455C1.37422 141.336 3.02121 142.666 4.92486 142.666H383.907C386.112 142.666 387.9 140.878 387.9 138.673V81.4321C387.9 79.2265 386.112 77.4386 383.907 77.4386H343.919C342.626 77.4386 341.389 76.7758 340.632 75.7271Z" fill="#2A6877" stroke="#350202" stroke-width="0.199214"/>
<path d="M155.82 149.616C155.82 171.875 137.775 189.919 115.516 189.919C93.2567 189.919 75.212 171.875 75.212 149.616C75.212 127.356 93.2567 109.312 115.516 109.312C137.775 109.312 155.82 127.356 155.82 149.616Z" fill="#2C2A2A"/>
<path d="M135.79 149.616C135.79 160.813 126.713 169.89 115.516 169.89C104.319 169.89 95.2417 160.813 95.2417 149.616C95.2417 138.419 104.319 129.342 115.516 129.342C126.713 129.342 135.79 138.419 135.79 149.616Z" fill="#DED8D8"/>
<path d="M302.379 149.616C302.379 171.875 284.335 189.919 262.075 189.919C239.816 189.919 221.772 171.875 221.772 149.616C221.772 127.356 239.816 109.312 262.075 109.312C284.335 109.312 302.379 127.356 302.379 149.616Z" fill="#2C2A2A"/>
<path d="M282.349 149.616C282.349 160.813 273.272 169.89 262.075 169.89C250.878 169.89 241.801 160.813 241.801 149.616C241.801 138.419 250.878 129.342 262.075 129.342C273.272 129.342 282.349 138.419 282.349 149.616Z" fill="#DED8D8"/>
<path d="M298.65 60.9742C241.878 -4.32714 166.85 29.8161 129.231 60.6483C126.429 62.9447 128.117 67.298 131.74 67.298H295.683C299.006 67.298 300.83 63.4817 298.65 60.9742Z" fill="#F3E5E5" stroke="#350202" stroke-width="0.199214"/>
<line x1="206.149" y1="67.2981" x2="206.149" y2="142.666" stroke="black" stroke-width="0.996069"/>
<path d="M8.32602 103.619C10.9493 97.6869 15.7738 93.0429 20.0045 90.0083C22.381 88.3037 25.3849 90.1407 25.3849 93.0654V104.286C25.3849 106.492 23.5969 108.278 21.3913 108.278H11.7249C9.194 108.278 7.30248 105.934 8.32602 103.619Z" fill="#C2BD88" stroke="#350202" stroke-width="0.199214"/>
<path d="M376.854 86.2131C376.854 84.5589 378.195 83.2179 379.849 83.2179H387.673V94.5202H379.849C378.195 94.5202 376.854 93.1792 376.854 91.525V86.2131Z" fill="#882626"/>
</svg>
