<svg width="111" height="81" viewBox="0 0 111 81" fill="none" xmlns="http://www.w3.org/2000/svg">
<path d="M109.679 13.4798C109.859 13.5898 110.07 13.6386 110.28 13.6189C110.419 13.6189 110.28 13.4798 110.158 13.4537C110.036 13.4277 110.158 13.306 110.271 13.4016C110.384 13.4972 110.549 13.5406 110.567 13.4016C110.584 13.2625 110.68 13.0713 110.845 13.08C111.01 13.0887 111.062 12.9844 110.906 12.9236C110.606 12.7694 110.337 12.56 110.114 12.3065C109.984 12.1153 109.375 12.0197 109.375 12.1153C109.375 12.2109 109.184 12.1153 109.131 11.9849C109.079 11.8546 108.444 11.8546 108.435 11.9849C108.427 12.1153 108.583 12.1153 108.679 12.2631C108.775 12.4108 108.557 12.4716 108.601 12.6281C108.644 12.7845 108.366 12.5499 108.262 12.463C108.157 12.376 108.209 12.0458 108.262 11.872C108.314 11.6981 108.079 11.7329 108.061 11.5591C108.044 11.3853 107.322 11.0289 107.018 10.8899C106.713 10.7508 106.33 10.6291 106.226 10.4553C106.122 10.2815 105.591 10.2641 105.356 10.0295C104.919 9.68741 104.406 9.45497 103.86 9.35156C103.469 9.35156 103.556 9.09084 103.364 9.1256C102.946 9.14591 102.527 9.12844 102.112 9.07344C101.859 9.07344 101.799 9.23858 101.616 9.16036C101.433 9.08214 100.494 8.70842 100.381 8.84748C100.268 8.98654 100.32 9.18644 100.207 9.2212C100.094 9.25597 100.207 9.42978 100.468 9.69051C100.729 9.95124 100.572 10.1511 100.337 10.2641C100.198 10.2955 100.052 10.2832 99.9194 10.2287C99.7871 10.1743 99.6748 10.0804 99.5978 9.95993C99.476 9.76004 99.1541 9.84695 99.0759 9.58622C98.9976 9.32549 99.1715 9.28203 99.3281 9.42978C99.3622 9.45866 99.4036 9.4776 99.4478 9.48452C99.492 9.49144 99.5372 9.48609 99.5786 9.46903C99.6199 9.45198 99.6557 9.42388 99.6821 9.38783C99.7085 9.35178 99.7245 9.30916 99.7282 9.26465C99.7282 9.07344 99.2933 8.94309 99.0498 8.96047C98.8062 8.97785 98.6757 9.35155 98.4148 9.50799C97.9648 9.59263 97.4995 9.53492 97.0839 9.34287C96.5429 9.27454 95.9937 9.30993 95.466 9.44716C95.3181 9.55146 95.466 9.95994 95.3529 9.9947C95.2398 10.0295 95.2137 9.52538 95.2137 9.42978C95.2137 9.33418 95.0485 9.26465 94.7962 9.26465C94.5439 9.26465 94.4135 9.26465 94.5178 9.14297C94.6222 9.0213 94.4222 8.91701 94.6135 8.76926C94.8049 8.62152 94.2656 8.16089 93.7437 7.90016C93.0783 7.73384 92.3822 7.73384 91.7169 7.90016C91.3066 7.97326 90.8893 7.9995 90.473 7.97838C90.1686 7.97838 90.4121 7.84801 90.3251 7.69157C90.2382 7.53513 89.7249 7.35262 89.6554 7.47429C89.5858 7.59597 89.4466 7.47429 89.4466 7.37869C89.4466 7.28309 88.9682 7.10059 88.7768 7.14404C88.5854 7.1875 88.4985 6.95284 88.7159 6.95284C88.9334 6.95284 89.3248 7.00498 89.1509 6.72686C88.9769 6.44875 87.559 6.36184 87.4111 6.41399C87.2633 6.46613 87.4111 6.66603 87.098 6.9876C86.7848 7.30917 86.4891 7.09189 86.5239 6.93545C86.5587 6.77901 86.9414 6.80509 86.9414 6.64865C86.9414 6.49221 86.4195 6.57912 86.3412 6.44876C86.2629 6.31839 86.4543 6.23147 86.6457 6.29231C86.837 6.35315 87.1676 6.38791 87.185 6.29231C87.2024 6.19671 86.9849 6.17933 86.6631 6.11849C86.1774 5.98835 85.6782 5.91543 85.1756 5.90122C84.7755 5.94467 84.5928 5.73609 84.3667 5.71871C84.1405 5.70133 84.1492 5.84908 84.2536 5.98813C84.358 6.12719 84.0361 6.21409 83.7751 6.17064C83.5142 6.12718 83.1315 6.32707 83.288 6.53566C83.4446 6.74424 83.5838 6.47482 83.7143 6.53566C83.8448 6.5965 83.3837 6.75294 83.5664 6.84854C83.7491 6.94414 83.7317 7.14404 83.7404 7.24833C83.7491 7.35262 83.4185 7.39608 83.3054 7.24833C83.1924 7.10058 83.0184 7.24833 82.7922 7.24833C82.566 7.24833 82.4095 7.33524 82.6443 7.37869C82.8792 7.42215 82.9575 7.5699 82.6443 7.60467C82.3312 7.63943 82.4095 7.28309 82.2181 7.33523C82.0268 7.38738 81.6179 7.17011 81.3918 7.1788C81.1656 7.18749 81.0699 7.37869 80.7742 7.40476C80.6232 7.40697 80.4735 7.378 80.3342 7.31968C80.195 7.26135 80.0694 7.17493 79.9652 7.06581C79.8521 6.89199 79.8086 6.83985 79.6694 7.06581C79.5303 7.29178 79.5129 7.63942 79.3737 7.6655C79.2345 7.69157 79.1736 8.03053 79.0345 8.11743C78.8953 8.20435 78.8866 7.98707 78.7039 8.00445C78.5212 8.02183 77.9297 7.40477 77.9036 7.22226C77.7858 6.98751 77.6163 6.78248 77.4078 6.62258C77.3122 6.55305 77.5035 6.51828 77.6253 6.62258C77.6743 6.67279 77.7391 6.70456 77.8089 6.71247C77.8786 6.72039 77.949 6.70399 78.008 6.66603C78.1298 6.5965 78.1124 6.27493 77.9123 6.26624C77.7123 6.25755 77.7819 6.06634 77.9123 6.03158C78.0428 5.99681 77.6775 5.65787 77.7993 5.62311C77.921 5.58835 77.8688 5.44059 77.6949 5.41452C77.5209 5.38845 77.3382 5.232 77.3295 5.1364C77.3208 5.0408 76.5902 5.00604 76.6163 5.1364C76.6424 5.26677 76.3814 5.232 76.4249 5.1364C76.4684 5.0408 76.1639 5.05819 75.816 4.9539C75.4681 4.8496 75.4594 4.58018 75.3376 4.5628C75.2158 4.54542 75.2593 4.93652 75.0853 4.84961C74.9113 4.7627 74.72 4.92782 74.8157 5.15379C74.9114 5.37975 74.8157 5.41451 74.8157 5.59703C74.8157 5.77954 74.7026 5.70132 74.5025 5.59703C74.3024 5.49273 74.2937 5.78823 73.8501 5.66656C73.4065 5.54488 73.2064 5.66656 73.1281 5.51881C73.0499 5.37106 72.9194 5.34499 72.902 5.51881C72.8846 5.69263 72.2061 5.59704 72.1452 5.40584C72.0843 5.21463 72.267 5.17986 72.3714 5.12772C72.4758 5.07557 72.2583 4.99735 71.8843 5.02343C71.5102 5.0495 71.2754 4.81484 70.8926 4.8583C70.4426 4.89466 69.9952 4.95852 69.553 5.0495C69.4313 5.11034 69.6574 5.34499 69.4748 5.36238C69.2921 5.37976 69.4226 4.97997 69.3965 4.78877C69.3704 4.59756 69.0833 4.57149 69.1268 4.71923C69.1703 4.86698 68.6832 4.91913 68.5701 4.80615C68.3955 4.64195 68.1835 4.52264 67.9525 4.4585C67.6394 4.37159 67.2653 4.73662 67.3523 4.84091C67.4393 4.9452 67.6655 4.84091 67.6742 4.93651C67.6829 5.03211 67.0131 5.02343 67.0131 5.1451C67.0131 5.26678 66.3868 5.43191 66.2041 5.45798C65.6822 5.52751 65.5691 5.5275 65.3343 5.75347C65.0994 5.97944 65.2734 5.55358 65.4647 5.34499C65.6561 5.13641 65.8562 5.22332 65.9606 5.05819C66.0649 4.89306 66.2476 4.91044 66.5521 4.8583C66.8565 4.80615 66.8391 4.61495 66.9783 4.54542C67.1175 4.47589 67.4654 4.32813 67.535 4.1717C67.7964 3.9548 68.1123 3.81354 68.4483 3.76323C68.5962 3.76323 68.6223 3.45035 68.7006 3.45035C68.9258 3.37704 69.1442 3.28397 69.353 3.17223C69.4196 3.13722 69.4767 3.08644 69.5191 3.02433C69.5616 2.96221 69.5882 2.89064 69.5965 2.8159C69.5965 2.70291 69.3878 2.7203 69.3617 2.616C69.3356 2.51171 69.4661 2.616 69.6314 2.5204C69.7966 2.4248 69.6313 2.20753 69.4922 2.25098C69.353 2.29444 69.5704 2.12062 69.4487 1.96418C69.3269 1.80774 69.092 2.05978 69.1007 1.89465C69.1209 1.72696 69.0808 1.55755 68.9876 1.41664C68.892 1.31234 68.718 1.59915 68.5179 1.41664C68.3179 1.23413 67.7438 1.14722 67.7438 1.21675C67.7438 1.28628 67.4654 1.11245 67.4132 1.21675C67.1967 1.27506 66.9686 1.27506 66.7521 1.21675C66.715 1.20646 66.676 1.20402 66.6378 1.20956C66.5997 1.2151 66.5631 1.22851 66.5303 1.24894C66.4976 1.26937 66.4695 1.29637 66.4478 1.32824C66.4261 1.3601 66.4112 1.39612 66.4042 1.43402C66.4042 1.59046 65.8388 1.52963 65.7344 1.50355C65.63 1.47748 66.1258 1.03423 66.1258 0.956013C66.1258 0.877794 65.256 0.956018 65.256 0.88649C65.256 0.816961 64.8037 0.773504 64.621 0.782195C64.4383 0.790886 64.621 0.730047 64.7776 0.712665C64.9341 0.695283 65.0907 0.538846 65.2734 0.504082C65.456 0.469318 65.4212 0.399788 65.343 0.278113C65.2647 0.156438 65.0733 0.217276 64.8906 0.156439C64.7087 0.0832237 64.519 0.0307456 64.3252 0C64.0865 0.0368913 63.8509 0.0920999 63.6207 0.165132C63.2466 0.243351 63.2205 0.556227 63.0291 0.651828C62.8378 0.747429 62.5072 1.12984 62.6638 1.1646C62.8204 1.19937 62.7421 1.30365 62.7682 1.41664C62.7943 1.52962 62.6464 1.5557 62.4637 1.52094C62.2811 1.48617 61.5939 1.52094 61.6461 1.64261C61.6983 1.76429 62.0201 1.85989 61.994 1.9381C61.9679 2.01632 61.7244 1.9381 61.5939 1.85119C61.5149 1.81149 61.4243 1.80106 61.3383 1.82175C61.2523 1.84243 61.1765 1.89289 61.1242 1.96418C61.072 2.11192 60.8458 2.07716 60.7762 2.04239C60.7066 2.00763 60.5501 2.11192 60.4283 2.04239C60.3065 1.97286 60.6719 1.80774 60.5762 1.71214C60.4805 1.61654 60.1151 1.71214 60.0716 1.85989C60.0282 2.00764 59.802 1.7469 59.715 1.79905C59.6028 1.86935 59.4866 1.93318 59.3671 1.99025C59.2018 2.06847 58.9147 1.90334 58.8539 2.04239C58.793 2.18145 59.167 2.2249 59.1757 2.28574C59.1844 2.34658 58.3058 2.33789 58.3058 2.43349C58.3058 2.52909 57.9927 2.5291 57.6361 2.53779C57.2794 2.54648 57.4186 2.72899 57.1402 2.78982C56.8619 2.85066 56.7227 2.85936 56.627 3.0158C56.6076 3.05064 56.5804 3.08055 56.5475 3.10323C56.5147 3.12592 56.4771 3.14077 56.4376 3.14665C56.3981 3.15253 56.3578 3.14927 56.3197 3.13713C56.2817 3.12499 56.247 3.10429 56.2182 3.07663C56.1225 2.95495 55.8616 3.13746 56.0007 3.15485C56.1399 3.17223 56.0007 3.32867 55.9225 3.29391C55.8442 3.25914 55.5832 3.45903 55.7311 3.44165C55.7581 3.43302 55.7872 3.43342 55.8139 3.44278C55.8407 3.45213 55.8637 3.46993 55.8794 3.4935C55.8951 3.51707 55.9027 3.54513 55.9011 3.5734C55.8994 3.60168 55.8886 3.62866 55.8703 3.65024C55.8007 3.74584 55.4875 3.53726 55.4092 3.65024C55.331 3.76322 55.5658 3.85013 55.705 3.83275C55.7338 3.8291 55.763 3.83151 55.7909 3.8398C55.8187 3.84809 55.8445 3.86209 55.8666 3.8809C55.8887 3.89971 55.9066 3.92292 55.9192 3.94905C55.9319 3.97518 55.9389 4.00366 55.9398 4.03265C55.9398 4.14563 55.6093 3.96312 55.5397 4.03265C55.4701 4.10218 55.5919 4.1717 55.7398 4.18908C55.8877 4.20646 55.7398 4.26731 55.9138 4.39767C56.0007 4.51065 55.8442 4.54541 55.8616 4.64971C55.879 4.754 55.7137 4.80614 55.7137 4.70185C55.7137 4.59756 55.2874 4.56279 55.2005 4.70185C55.1135 4.84091 55.0526 4.90174 54.9482 4.79745C54.8438 4.69316 54.5481 4.79745 54.1567 4.84091C53.6928 4.84525 53.2301 4.88887 52.7736 4.97128C52.7179 4.99119 52.6675 5.02373 52.6265 5.06637C52.5855 5.109 52.5549 5.16057 52.5372 5.217C52.5195 5.27344 52.5151 5.3332 52.5245 5.39161C52.5338 5.45001 52.5565 5.50545 52.5909 5.55358C52.7736 5.75348 52.5909 5.84038 52.5909 5.97075C52.5909 6.10111 53.0606 6.37054 53.3216 6.39661C53.3845 6.40519 53.4445 6.42859 53.4965 6.4649C53.5486 6.50121 53.5913 6.54938 53.621 6.60543C53.6508 6.66147 53.6667 6.72379 53.6676 6.78722C53.6685 6.85065 53.6542 6.91337 53.626 6.97021C53.4782 7.1788 53.0171 6.90938 52.7562 6.64865C52.3908 6.41392 51.964 6.29292 51.5297 6.30101C51.3035 6.30101 51.434 6.07504 51.147 6.08373C50.8599 6.09243 50.6077 6.37923 50.799 6.37923C50.9904 6.37923 51.1296 6.37922 51.0252 6.46613C50.9208 6.55304 51.0774 6.54435 51.3209 6.65733C51.5645 6.77032 51.1209 6.92676 50.8773 6.74425C50.8315 6.71141 50.7792 6.68862 50.724 6.67737C50.6687 6.66612 50.6117 6.66667 50.5567 6.67898C50.5016 6.69129 50.4498 6.71508 50.4047 6.7488C50.3595 6.78251 50.3219 6.82538 50.2945 6.87461C50.2249 7.01367 50.5815 7.40477 51.0078 7.47429C51.434 7.54382 51.2948 7.69157 51.4949 7.76979C51.695 7.848 51.5471 7.93493 51.4166 7.94362C51.2861 7.95231 51.0078 7.71764 50.799 7.59597C50.5903 7.47429 50.0074 7.64812 49.8857 7.50907C49.7639 7.37001 49.964 7.23964 49.8857 7.13534C49.8074 7.03105 49.8857 6.79639 50.0161 6.55305C50.0721 6.42358 50.0792 6.27821 50.036 6.14394C49.9928 6.00967 49.9023 5.89564 49.7813 5.823C49.5812 5.75347 49.5986 5.98813 49.6421 6.05766C49.6655 6.16387 49.666 6.27384 49.6435 6.38025C49.621 6.48666 49.576 6.58705 49.5116 6.67472C49.3464 6.892 48.8679 6.89199 48.8679 7.03974C48.8679 7.18749 48.5461 7.30048 48.6505 7.39608C48.8842 7.6409 49.0886 7.91215 49.2594 8.20434C49.329 8.36947 48.8766 8.89094 48.9462 9.19513C49.0158 9.49932 48.8853 9.63837 48.9462 9.78611C49.0071 9.93386 49.2246 9.78611 49.3551 9.86433C49.4855 9.94255 49.6856 9.77742 49.9814 9.71658C50.2771 9.65575 50.8077 9.9947 51.0078 10.099C51.2078 10.2033 51.1035 10.3771 51.2078 10.5509C51.3122 10.7247 50.973 10.7247 50.9643 10.9855C50.9556 11.2462 51.5558 11.3592 51.5819 11.4374C51.608 11.5156 51.1557 11.4374 50.9817 11.3853C50.8077 11.3331 50.7903 11.0637 50.7294 11.0116C50.6685 10.9594 50.8512 10.7508 50.8686 10.5857C50.886 10.4206 50.6685 10.325 50.599 10.212C50.5294 10.099 50.3989 9.93387 50.2597 9.96863C50.1205 10.0034 49.5899 10.0555 49.3898 10.212C49.1898 10.3684 49.3899 10.8116 49.5029 11.0289C49.616 11.2462 49.0419 11.5504 49.0593 11.7242C49.0767 11.898 48.894 11.9763 48.6505 12.1066C48.4069 12.237 48.1547 12.35 48.1634 12.5759C48.1721 12.8019 47.8502 12.6802 47.6763 12.5759C47.5023 12.4717 47.3022 12.6368 47.0586 12.6281C46.8151 12.6194 46.8238 12.4021 46.6324 12.4803C46.5968 12.4988 46.5563 12.5057 46.5166 12.4999C46.4769 12.4941 46.44 12.476 46.4111 12.4482C46.3823 12.4203 46.3629 12.3841 46.3558 12.3446C46.3487 12.3052 46.3542 12.2645 46.3715 12.2283C46.4324 12.0805 46.6411 12.2283 46.6585 12.3065C46.6759 12.3847 46.8064 12.3673 46.9717 12.3065C47.1369 12.2457 47.0499 12.4282 47.2761 12.4456C47.5023 12.463 47.3805 12.3152 47.5545 12.3326C47.7284 12.35 47.7371 12.3326 47.6763 12.1935C47.6154 12.0545 47.8067 12.0371 47.9198 11.9849C48.0329 11.9328 47.9807 11.7329 48.0851 11.6721C48.1895 11.6112 48.0851 11.4896 48.2242 11.4809C48.3634 11.4722 48.3895 11.2897 48.4852 11.2897C48.5809 11.2897 48.6505 11.1072 48.5809 11.0116C48.5625 10.9391 48.5668 10.8627 48.5932 10.7928C48.6197 10.7228 48.667 10.6627 48.7288 10.6205C48.8244 10.6205 48.8331 10.4814 48.7288 10.4032C48.6244 10.325 48.2851 10.0642 48.3112 9.8991C48.3373 9.73397 48.2504 9.42978 48.3112 9.29942C48.3459 9.11562 48.3459 8.92699 48.3112 8.74319C48.3465 8.53515 48.3929 8.32915 48.4504 8.12612C48.4939 7.83932 48.1721 7.53514 48.0155 7.45692C47.8589 7.3787 47.9633 7.23095 48.1895 7.02237C48.3719 6.72277 48.4513 6.37178 48.4156 6.02289C48.4156 5.88383 47.9372 5.76216 47.7545 5.77954C47.4116 5.78842 47.0684 5.77099 46.7281 5.7274C46.5628 5.7274 46.5106 5.88384 46.4324 6.05766C46.2824 6.33364 46.1628 6.62504 46.0757 6.92677C45.9713 7.31786 45.5538 7.43953 45.3624 7.51775C45.1711 7.59597 45.0493 7.89146 45.1363 8.03052C45.2233 8.16958 45.3537 8.03053 45.4407 8.10875C45.5277 8.18697 45.4407 8.52591 45.3798 8.57806C45.3189 8.63021 45.4842 8.76056 45.3798 8.85617C45.2755 8.95177 45.1189 9.15167 45.1972 9.25596C45.2755 9.36025 45.6669 9.4124 45.8322 9.51669C45.9974 9.62099 45.9365 9.81219 46.0583 9.9947C46.1801 10.1772 46.3193 10.0642 46.3889 10.1772C46.4584 10.2902 46.154 10.7421 46.0496 10.7595C45.9452 10.7769 45.5277 10.2989 45.4059 10.1946C45.2842 10.0903 44.7883 9.92517 44.5361 9.78611C44.2889 9.70119 44.0501 9.59354 43.8228 9.46455C43.5413 9.24547 43.1863 9.1428 42.8312 9.17774C42.3353 9.17774 42.0222 9.05607 41.8569 9.08214C41.6917 9.10821 41.7525 8.89963 41.4568 8.76058C41.161 8.62152 40.9784 8.43031 40.8131 8.52592C40.6478 8.62152 40.7087 8.96916 40.961 9.01261C41.2132 9.05607 41.0915 9.20381 41.3611 9.18643C41.6308 9.16905 41.709 9.27334 41.7004 9.45585C41.7139 9.64388 41.8015 9.81889 41.9439 9.94255C42.0657 10.0642 41.9874 10.2641 41.7786 10.2641C41.5699 10.2641 41.3176 10.2641 41.4133 10.464C41.509 10.6639 41.3524 10.6726 41.135 10.5857C40.9175 10.4988 41.048 10.3337 41.135 10.2381C41.2219 10.1425 40.9436 10.0208 40.8131 9.96863C40.6826 9.91648 40.1346 10.351 39.9867 10.4206C39.8389 10.4901 39.4648 10.3163 39.1169 10.4206C38.7689 10.5248 38.7603 10.8551 38.6211 10.8203C38.4819 10.7856 38.0557 10.8638 37.8991 10.7595C37.7425 10.6552 37.8991 10.5944 38.0383 10.6031C38.1775 10.6118 38.2557 10.5509 38.1601 10.4293C38.0644 10.3076 38.2905 10.1164 38.2818 10.0295C38.2731 9.94255 37.6555 10.1685 37.5512 10.2641C37.4468 10.3597 37.5512 10.5335 37.4468 10.5944C37.3424 10.6552 37.3424 10.4901 37.2119 10.4379C36.7735 10.4528 36.3483 10.5914 35.9854 10.8377C35.8115 11.055 35.4722 11.0637 35.4722 11.1854C35.4722 11.307 35.046 11.2984 34.8807 11.3853C34.7154 11.4722 34.8285 11.8285 34.7676 12.0023C34.7067 12.1762 34.0544 12.124 33.8543 12.124C33.6542 12.124 33.5846 11.7155 33.4281 11.6895C33.2715 11.6634 33.3585 11.42 33.4281 11.3157C33.4976 11.2114 33.602 11.3157 33.8021 11.1593C34.0021 11.0029 34.1935 11.2288 34.2718 11.1593C34.3501 11.0898 33.9761 10.8116 33.95 10.5944C33.9239 10.3771 33.5063 10.3163 33.2715 10.3858C33.0462 10.4426 32.8078 10.4148 32.6017 10.3076C32.4364 10.2207 32.4538 10.464 32.6974 10.5335C32.9409 10.6031 32.8192 10.8117 32.8539 10.942C32.8609 11.1754 32.7906 11.4045 32.6539 11.5939C32.506 11.8198 32.6539 11.8111 32.8279 11.8024C33.0018 11.7938 33.0279 12.0979 33.0279 12.3152C33.0279 12.5325 32.8539 12.602 32.8539 12.7671C32.8539 12.9323 32.68 12.6889 32.6278 12.7671C32.5756 12.8454 32.4973 12.7671 32.4712 12.5933C32.4451 12.4195 32.1146 12.5325 31.9319 12.4803C31.7492 12.4282 31.6796 12.4803 31.5927 12.6628C31.4692 12.7982 31.2973 12.8794 31.1142 12.8888C30.9664 12.8888 30.7402 13.193 30.601 13.2973C30.4619 13.4016 30.4358 13.6015 30.601 13.8101C30.7663 14.0187 30.8359 14.1577 30.8185 14.2707C30.8011 14.3837 30.2618 14.3489 30.1748 14.2272C30.0178 14.1102 29.8207 14.0602 29.6268 14.0882C29.505 14.0882 29.1832 13.6971 29.0179 13.6884C28.8526 13.6797 28.7482 13.9057 28.6874 14.0186C28.6265 14.1316 28.7656 14.1664 28.8439 14.3576C28.9222 14.5488 29.218 14.5575 29.3745 14.5575C29.5311 14.5575 29.4615 14.8095 29.418 14.9138C29.3745 15.0181 29.0962 15.0963 29.0179 14.9834C28.9396 14.8704 28.6004 14.9834 28.5917 14.8443C28.5598 14.7441 28.4933 14.6585 28.404 14.6028C28.3148 14.5471 28.2087 14.5249 28.1046 14.5401C27.861 14.5401 27.8088 14.4097 27.8262 14.2012C27.8436 13.9926 27.6957 13.8709 27.6957 13.7753C27.6957 13.6797 27.5913 13.4885 27.6957 13.3929C27.8001 13.2973 27.6957 13.1495 27.6957 13.0192C27.6957 12.8888 27.4783 12.6889 27.2782 12.6889C27.0781 12.6889 27.1216 12.4716 26.9563 12.4282C26.7345 12.3349 26.5506 12.1695 26.4344 11.9589C26.4344 11.8285 26.1561 11.8111 26.2431 11.7677C26.3232 11.7549 26.4054 11.7644 26.4805 11.795C26.5557 11.8257 26.621 11.8763 26.6693 11.9415C26.8722 12.1384 27.1359 12.261 27.4174 12.2891C27.7914 12.3326 27.9393 12.5238 28.3481 12.602C28.7569 12.6802 29.0092 12.7324 29.6007 12.828C30.1922 12.9236 30.9925 12.2631 31.1577 12.0892C31.323 11.9154 31.1055 11.533 31.1055 11.394C31.1055 11.2549 30.8359 11.2375 30.8011 11.1332C30.7598 11.0492 30.697 10.9777 30.6191 10.9258C30.5412 10.8739 30.4509 10.8435 30.3575 10.8377C30.1226 10.8377 30.0965 10.5509 29.9138 10.5683C29.7312 10.5857 29.6007 10.4814 29.131 10.1337C28.7706 9.84302 28.3374 9.65665 27.8784 9.59491C27.7566 9.65575 27.6783 9.69051 27.6 9.59491C27.5218 9.49931 27.3391 9.48193 27.2086 9.59491C27.0781 9.70789 26.9563 9.49931 26.7215 9.59491C26.4866 9.69051 26.3562 9.48193 26.417 9.40371C26.4779 9.32549 26.8346 9.4037 26.8172 9.26465C26.7998 9.12559 26.6693 9.26465 26.4605 9.10821C26.2518 8.95177 26.13 9.05606 26.0778 9.18643C26.0256 9.31679 25.869 9.28203 25.7559 9.18643C25.6255 9.09952 25.3819 9.09083 25.3558 9.18643C25.3558 9.2187 25.343 9.24965 25.3201 9.27247C25.2973 9.29529 25.2663 9.3081 25.234 9.3081C25.2017 9.3081 25.1708 9.29529 25.1479 9.27247C25.1251 9.24965 25.1123 9.2187 25.1123 9.18643C25.1123 9.05606 24.7817 8.95177 24.7643 8.89094C24.7469 8.8301 24.9122 8.83879 25.034 8.89094C25.1557 8.94308 25.2514 8.89094 25.3906 8.76926C25.5298 8.64759 25.7298 8.76926 25.7559 8.61282C25.782 8.45638 25.5298 8.39554 25.4776 8.31733C25.4304 8.25903 25.3683 8.21454 25.2978 8.18854C25.2274 8.16254 25.1513 8.15599 25.0775 8.16958C24.9035 8.16958 24.8948 8.16958 24.7904 8.02183C24.686 7.87409 24.3729 8.09136 24.3729 8.33471C24.3729 8.57806 24.1728 8.51722 24.2424 8.38686C24.312 8.25649 24.1467 8.10005 24.312 8.05659C24.4773 8.01314 24.3816 7.75241 24.0858 7.72634C23.7901 7.70027 23.6857 7.96968 23.7553 8.05659C23.8249 8.1435 23.5552 8.51722 23.4334 8.51722C23.3117 8.51722 23.4334 8.19565 23.4334 8.02183C23.4334 7.84801 23.3204 7.94361 23.0942 8.22172C22.868 8.49984 22.7115 8.75188 22.581 8.77795C22.4505 8.80402 22.4679 8.52592 22.6767 8.40424C22.8854 8.28257 22.8941 7.9523 23.0246 7.9523C23.1551 7.9523 23.1638 7.77849 22.9637 7.72634C22.7637 7.67419 22.7289 7.91753 22.668 7.98706C22.6071 8.05659 22.2765 7.86539 22.2852 7.93492C22.2939 8.00445 22.1113 8.03053 22.1896 8.16089C22.2678 8.29126 22.1896 8.40423 22.0765 8.2478C21.9634 8.09136 21.7981 8.2478 21.7024 8.38686C21.6068 8.52591 21.485 8.55198 21.572 8.61282C21.5964 8.636 21.615 8.66478 21.6259 8.69667C21.6368 8.72856 21.6398 8.76264 21.6347 8.79596C21.6296 8.82928 21.6164 8.86086 21.5964 8.88799C21.5764 8.91513 21.5501 8.93701 21.5198 8.95177C21.3806 8.99522 21.4328 8.52592 21.3197 8.56937C21.2066 8.61283 21.3197 8.3434 21.4328 8.3434C21.5459 8.3434 21.7372 8.10006 21.7198 8.03922C21.7024 7.97838 21.5285 7.961 21.5285 8.09136C21.5285 8.22173 21.2936 8.19566 21.0935 8.18697C20.8935 8.17827 20.9022 8.439 21.0935 8.57806C21.2849 8.71712 21.05 8.80403 20.937 8.69973C20.8239 8.59544 20.6499 8.64759 20.5368 8.69973C20.4237 8.75188 20.8239 8.91701 20.8326 8.99523C20.8413 9.07344 20.6325 8.89962 20.5803 8.99523C20.5281 9.09083 20.3107 8.95177 20.302 8.80402C20.2933 8.65627 19.9279 8.86486 20.128 8.91701C20.3281 8.96916 20.2498 9.10821 20.2498 9.29942C20.2498 9.49062 20.0236 9.34287 20.0671 9.17774C20.1106 9.01261 19.9279 9.04738 19.7714 9.17774C19.6148 9.30811 19.7714 8.98654 19.7714 8.83879C19.7714 8.69105 19.5626 8.83879 19.3973 8.83879C19.232 8.83879 19.1451 8.88225 19.2494 9.00392C19.3538 9.1256 19.3364 9.29942 19.1973 9.27335C19.0581 9.24727 19.0146 9.27335 19.0233 9.41241C19.0278 9.42672 19.0288 9.44187 19.0263 9.45666C19.0239 9.47145 19.0179 9.48545 19.009 9.49753C19.0001 9.50961 18.9885 9.51943 18.9751 9.5262C18.9618 9.53297 18.947 9.53649 18.9319 9.53649C18.9169 9.53649 18.9021 9.53297 18.8888 9.5262C18.8754 9.51943 18.8638 9.50961 18.8549 9.49753C18.846 9.48545 18.8401 9.47145 18.8376 9.45666C18.8351 9.44187 18.8361 9.42672 18.8406 9.41241C18.8406 9.29073 18.5536 9.32549 18.4753 9.46455C18.397 9.60361 18.1708 9.70789 18.1969 9.86433C18.223 10.0208 18.397 9.78611 18.5362 9.86433C18.6754 9.94255 18.5362 9.9947 18.6058 10.0729C18.6753 10.1511 18.6667 10.3423 18.5623 10.2294C18.4579 10.1164 18.31 10.0816 18.2839 10.2294C18.2578 10.3771 18.136 10.2294 18.049 10.0729C17.9621 9.91648 17.8577 10.3163 17.7533 10.2294C17.6489 10.1424 17.9621 9.87302 17.8751 9.74266C17.7881 9.61229 17.7446 9.82088 17.5619 10.0208C17.3793 10.2207 17.1357 10.212 17.2227 10.3076C17.3097 10.4032 17.04 10.4553 16.9878 10.6205C16.9356 10.7856 16.5703 10.8464 16.3354 11.0202C16.1006 11.1941 16.3789 11.2028 16.5181 11.0202C16.6573 10.8377 16.7008 10.9507 16.9095 10.803C17.1183 10.6552 17.3532 10.5335 17.4315 10.5944C17.4547 10.6154 17.4823 10.6309 17.5124 10.6397C17.5424 10.6486 17.574 10.6506 17.6049 10.6456C17.6358 10.6406 17.6652 10.6287 17.6909 10.6108C17.7166 10.5929 17.7379 10.5695 17.7533 10.5422C17.8577 10.3858 17.9795 10.4206 18.0838 10.5422C18.1882 10.6639 17.9099 10.7161 18.0404 10.8551C18.1708 10.9942 17.8838 11.0724 17.8838 10.9507C17.8838 10.829 17.7272 10.7248 17.675 10.8377C17.6228 10.9507 17.5184 11.0724 17.4227 11.0811C17.3271 11.0898 17.2053 11.2984 17.2053 11.5069C17.2053 11.7155 17.0226 11.5069 17.0052 11.6895C16.9034 11.9681 16.7364 12.2184 16.5181 12.4195C16.2919 12.6542 16.5181 12.7063 16.4311 12.854C16.3441 13.0018 16.1006 12.854 16.0136 12.9323C15.9266 13.0105 16.0571 13.3581 15.9353 13.4711C15.8135 13.5841 15.9353 13.7405 15.9353 13.8709C15.9353 14.0013 15.6309 13.7927 15.6048 13.923C15.5787 14.0534 15.309 14.0187 15.2307 14.0534C15.1524 14.0882 15.396 14.2968 15.5352 14.4184C15.6743 14.5401 15.4047 14.6357 15.3699 14.4967C15.3351 14.3576 15.135 14.5836 14.8915 14.7052C14.6479 14.8269 14.7523 15.0703 14.5609 15.079C14.3696 15.0876 14.4305 15.4179 14.3 15.5222C14.1695 15.6265 14.2043 15.2788 14.0042 15.2702C13.8042 15.2615 13.8216 15.4179 13.9433 15.6004C14.0651 15.7829 13.7607 15.6439 13.6476 15.8003C13.5345 15.9568 13.2214 15.8785 13.1344 16.0089C13.0474 16.1393 13.3692 16.1393 13.4214 16.2436C13.4736 16.3478 13.1344 16.2957 12.9604 16.2436C12.7864 16.1914 12.8386 16.4869 12.6734 16.4521C12.5081 16.4174 12.3167 16.5999 12.4298 16.7216C12.5429 16.8432 12.3428 16.8606 12.2297 16.7824C12.1167 16.7042 12.0297 16.8954 11.9862 17.0431C11.9427 17.1909 12.2036 17.2604 12.1949 17.3299C12.1862 17.3995 11.9862 17.5124 12.1341 17.5472C12.2819 17.582 12.134 17.721 12.0732 17.7645C12.0123 17.8079 11.9775 17.9122 12.0732 18.0426C12.1688 18.173 11.9079 18.199 12.0732 18.3989C12.2384 18.5988 12.2906 18.3468 12.3428 18.4945C12.395 18.6423 12.5516 18.4945 12.7255 18.3381C12.8995 18.1817 12.9604 18.5293 12.8212 18.5206C12.6821 18.5119 12.5168 18.6075 12.5429 18.764C12.569 18.9204 12.3254 18.8943 12.3341 18.7031C12.3428 18.5119 12.0384 18.7031 12.1514 18.8769C12.2645 19.0508 12.108 19.0942 12.108 19.2246C12.108 19.3549 12.3254 19.3289 12.4124 19.2246C12.4994 19.1203 12.6386 19.1116 12.6995 19.2246C12.7603 19.3376 12.5603 19.2246 12.5603 19.4592C12.5603 19.6939 12.4385 19.4592 12.3428 19.6418C12.2471 19.8243 12.7429 20.085 12.8995 20.1284C13.0561 20.1719 13.2127 20.3631 13.5258 20.311C13.839 20.2588 14.4479 19.6157 14.5262 19.5027C14.6044 19.3897 14.7784 19.5027 14.9002 19.4158C15.022 19.3289 14.9437 19.0421 15.0307 18.9899C15.1176 18.9378 15.1698 19.2767 15.2481 19.3115C15.3264 19.3463 15.3699 19.4071 15.3699 19.5809V19.6331C15.3643 19.7434 15.3832 19.8537 15.4253 19.9559C15.4674 20.0581 15.5317 20.1497 15.6135 20.224C15.7874 20.3805 15.6135 20.6152 15.7961 20.8324C15.9788 21.0497 15.9005 21.2061 16.0658 21.3626C16.1366 21.409 16.1875 21.4802 16.2084 21.5623C16.2294 21.6443 16.2188 21.7312 16.1789 21.8058C16.1093 22.0057 16.318 21.9449 16.3267 22.0666C16.305 22.231 16.305 22.3975 16.3267 22.5619C16.3876 22.6836 16.492 22.5619 16.753 22.5619C17.0139 22.5619 16.9356 22.3794 16.9443 22.2143C16.953 22.0492 17.0835 22.1274 17.1096 22.0231C17.1357 21.9188 17.3706 21.8927 17.5532 21.9796C17.7359 22.0666 17.8316 21.9188 17.8664 21.7189C17.9012 21.519 17.9969 21.7624 18.0578 21.7971C18.1186 21.8319 18.2752 21.4843 18.3535 21.2496C18.4318 21.0149 18.3535 21.0584 18.1621 21.2496C17.9708 21.4408 18.0838 21.0236 18.1621 20.8411C18.2111 20.5538 18.2402 20.2634 18.2491 19.972C18.2527 19.8885 18.2835 19.8084 18.3369 19.744C18.3903 19.6797 18.4634 19.6346 18.5449 19.6157C18.7797 19.5635 19.0755 19.2507 19.032 19.1203C18.9885 18.9899 19.3451 18.7727 19.3451 18.6423C19.3451 18.5119 18.9624 18.1121 18.8406 18.0252C18.7188 17.9383 18.4318 18.0252 18.4579 17.9122C18.4594 17.6906 18.439 17.4693 18.397 17.2517C18.397 17.0605 18.5971 16.8693 18.5971 16.6868C18.5971 16.5043 18.5971 16.2957 18.7362 16.2349C18.8754 16.174 18.7884 16.0176 18.9885 15.9654C19.1886 15.9133 19.1451 15.6004 19.3625 15.5048C19.58 15.4092 19.5887 15.331 19.867 15.1833C20.2041 15.0252 20.5014 14.7935 20.7369 14.5053C20.8152 14.3228 20.4498 14.1316 20.676 13.9404C20.9022 13.7492 20.7195 13.5319 20.8848 13.4624C21.0261 13.3942 21.1463 13.2891 21.2327 13.1582C21.3545 13.0192 21.5111 13.1582 21.7981 13.0974C21.8925 13.0752 21.9908 13.0752 22.0852 13.0974C22.2346 13.1506 22.3799 13.2145 22.5201 13.2886C22.7289 13.3929 22.7028 13.558 22.7115 13.7405C22.7202 13.9231 22.7115 14.0273 22.6158 13.9491C22.5201 13.8709 22.3809 13.9491 22.32 14.2098C22.2832 14.3452 22.2141 14.4697 22.1187 14.5726C22.0233 14.6755 21.9043 14.7538 21.772 14.8008C21.5893 14.8008 21.6068 15.0268 21.4589 15.0703C21.311 15.1137 21.1631 15.2093 21.1718 15.3918C21.1805 15.5743 20.9457 15.5917 20.7978 15.5917C20.6499 15.5917 20.676 15.8872 20.5629 15.9654C20.4498 16.0437 20.4672 16.148 20.5629 16.3044C20.6586 16.4608 20.5629 16.5999 20.6151 16.7129C20.6776 16.808 20.7185 16.9157 20.735 17.0282C20.7515 17.1408 20.7433 17.2556 20.7108 17.3647C20.589 17.6515 20.4672 18.0078 20.5716 17.9731C20.676 17.9383 20.9109 18.2077 21.0674 18.1903C21.224 18.173 21.2414 18.4337 21.3893 18.3816C21.5372 18.3294 21.5459 18.538 21.9808 18.5206C22.4157 18.5032 23.2943 18.1034 23.6422 18.1034C23.8037 18.1055 23.9648 18.085 24.1206 18.0426C24.1994 18.0234 24.2754 17.9942 24.3468 17.9557C24.4686 17.8862 24.5556 18.2251 24.686 18.3381C24.8165 18.4511 25.0688 18.3381 25.1558 18.4511C25.2427 18.5641 25.0775 18.5641 24.9035 18.5293C24.7295 18.4945 24.6686 18.6162 24.3816 18.7205C24.0945 18.8248 24.1902 18.8856 24.1206 18.9465C24.0882 18.9753 24.0495 18.9961 24.0075 19.0073C23.7727 19.0768 23.2769 18.8335 22.9898 18.8943C22.7028 18.9552 22.12 18.9552 21.9895 19.1116C21.859 19.268 21.5198 19.3115 21.6676 19.4505C21.8155 19.5896 21.6676 19.6591 21.7807 19.8243C21.8938 19.9894 21.946 20.0589 22.0939 20.0242C22.2417 19.9894 22.3635 20.0763 22.2069 20.2588C22.0591 20.4326 22.207 20.563 22.1635 20.8411C22.12 21.1192 21.8764 21.0671 21.7285 21.0671C21.5807 21.0671 21.3284 20.5717 21.2501 20.4587C21.1718 20.3457 20.9196 20.5978 20.7369 20.7194C20.5542 20.8411 20.6499 21.0758 20.5194 21.1888C20.4441 21.2582 20.3951 21.3515 20.3809 21.4529C20.3666 21.5543 20.3879 21.6575 20.4411 21.745C20.4883 21.8462 20.5083 21.9579 20.4991 22.0691C20.49 22.1804 20.452 22.2873 20.389 22.3794C20.302 22.4924 20.3455 22.5011 20.389 22.5446C20.4235 22.5646 20.4509 22.595 20.4672 22.6315C20.5368 22.7705 20.1802 22.7879 20.2933 22.953C20.4063 23.1182 20.041 23.1269 20.041 22.953C20.041 22.7792 19.6583 22.8661 19.6757 22.953C19.6923 22.9979 19.6923 23.0472 19.6757 23.0921C19.6459 23.1437 19.6027 23.1863 19.5506 23.2154C19.4985 23.2445 19.4395 23.2589 19.3799 23.2572C19.1538 23.2572 19.1364 23.0052 19.1277 22.8922C19.119 22.7792 18.1969 22.9878 17.9534 23.2572C17.7098 23.5266 17.1357 23.4224 17.0835 23.5701C17.0313 23.7179 16.9878 23.7352 16.9356 23.7005C16.8834 23.6657 16.9356 23.7005 16.8922 23.6309C16.8487 23.5614 16.7791 23.4397 16.5703 23.4397C16.3615 23.4397 16.7008 23.2138 16.6225 23.1008C16.5442 22.9878 16.3354 23.3094 16.1441 23.2398C15.9527 23.1703 15.7091 23.4832 15.5439 23.6222C15.5114 23.6494 15.4704 23.6645 15.428 23.6648C15.3856 23.6651 15.3444 23.6507 15.3114 23.6239C15.2785 23.5972 15.256 23.5599 15.2476 23.5183C15.2392 23.4768 15.2455 23.4337 15.2655 23.3963C15.396 23.1964 15.2655 23.2138 15.0741 23.292C14.8828 23.3702 14.6566 23.292 14.6827 23.0834C14.6946 23.0408 14.6946 22.9957 14.6827 22.953C14.6131 22.8227 14.4566 22.7271 14.4739 22.6315C14.4913 22.5359 14.6392 22.6315 14.7436 22.6923C14.848 22.7532 15.1002 22.814 15.1263 22.6923C15.1524 22.5706 15.1264 22.2404 14.935 22.3273C14.7436 22.4142 14.7436 22.3794 14.6914 22.3273C14.6392 22.2751 14.8045 22.1013 14.8393 21.9623C14.8741 21.8232 15.1437 21.8753 15.1785 21.7624C15.2133 21.6494 15.0046 21.5364 14.9263 21.4929C14.8855 21.4326 14.8637 21.3615 14.8637 21.2887C14.8637 21.2159 14.8855 21.1448 14.9263 21.0845C14.9778 21.0122 15.0104 20.9282 15.021 20.8402C15.0317 20.7521 15.02 20.6628 14.9872 20.5804C14.9089 20.4935 14.6218 20.5804 14.5957 20.815C14.5696 21.0497 14.3435 20.9454 14.2826 20.9976C14.2217 21.0497 14.4044 21.154 14.2826 21.2583C14.1608 21.3626 14.1347 21.1018 13.9694 21.0845C13.8042 21.0671 13.7868 21.3626 13.6998 21.5103C13.6388 21.7263 13.6388 21.9549 13.6998 22.1708C13.6998 22.3794 13.9607 22.5098 13.9085 22.6836C13.9029 22.7301 13.9069 22.7773 13.9203 22.8222C13.9338 22.8671 13.9565 22.9087 13.9868 22.9443C14.0477 23.0486 14.1173 23.1442 14.0825 23.2225C14.0477 23.3007 14.0825 23.5093 14.2217 23.7265C14.3609 23.9438 14.0042 23.8221 13.9955 23.9612C13.9868 24.1003 13.6911 23.9612 13.5954 23.9004C13.4997 23.8395 13.1866 23.9004 13.1953 23.9699C13.2032 24.0101 13.2032 24.0514 13.1953 24.0916C13.1953 24.1524 13.1344 24.1959 13.0648 24.1524C12.9952 24.1089 12.7603 24.1524 12.5255 24.1524C12.2906 24.1524 12.2123 24.4566 12.2993 24.5609C12.3863 24.6652 12.0732 24.7173 12.0471 24.5609C12.021 24.4044 11.7861 24.5609 11.8035 24.6999C11.8209 24.839 11.5426 24.952 11.5599 25.178C11.5773 25.4039 11.299 25.6125 11.125 25.7255L11.0467 25.7776C10.9377 25.8519 10.8172 25.9077 10.6901 25.9428H10.5683C10.3769 25.9428 10.2117 26.0992 10.2465 26.4468C10.2813 26.7945 10.0116 26.8206 9.68976 26.8466C9.36791 26.8727 9.4723 27.1508 9.34182 27.2638C9.21134 27.3768 8.73292 27.203 8.66334 27.0118C8.59375 26.8206 8.17621 27.0118 8.35888 27.2377C8.43715 27.3202 8.48631 27.426 8.49887 27.5389C8.51143 27.6519 8.48671 27.7659 8.42847 27.8635C8.32409 27.9504 8.10663 27.7244 7.95876 27.8635C7.81088 28.0025 7.81087 27.7592 7.6369 27.6897C7.46293 27.6201 7.39335 27.7766 7.115 27.7505C6.83665 27.7244 6.68007 27.8982 6.78445 28.0286C6.88883 28.159 6.78446 28.2806 6.84535 28.3936C6.90624 28.5066 7.28896 28.4892 7.55862 28.6457C7.82827 28.8021 7.88917 28.6457 8.02835 28.7847C8.16752 28.9238 8.19362 28.8282 8.20232 29.0455C8.20967 29.1628 8.25403 29.2748 8.32905 29.3653C8.40406 29.4559 8.50586 29.5204 8.61984 29.5495C8.8808 29.6278 8.68073 29.819 8.75902 30.0102C8.83731 30.2014 8.64594 30.4795 8.68074 30.7141C8.70018 31.0817 8.61255 31.447 8.42847 31.7657C8.2719 31.7657 7.81088 31.618 7.50643 31.6528C7.20198 31.6875 6.14076 31.6006 5.76672 31.6528C5.39269 31.7049 5.3405 31.4703 5.11433 31.4703C4.88817 31.4703 4.99256 31.7658 4.67071 31.7744C4.34887 31.7831 4.32277 32.0004 4.55763 32.2003C4.79249 32.4002 4.67071 32.5566 4.65331 32.7739C4.62222 32.9054 4.62222 33.0423 4.65331 33.1737C4.68629 33.6655 4.57117 34.1558 4.32276 34.5817C4.114 34.8424 4.32277 34.9119 4.53153 35.0944C4.7403 35.2769 4.60112 35.9635 4.60112 36.0852C4.60112 36.2069 4.79249 36.1982 5.00996 36.1982C5.15431 36.1818 5.29693 36.1527 5.43618 36.1113C5.52857 36.0758 5.63084 36.0758 5.72323 36.1113C5.94939 36.2156 6.07117 36.8239 6.37562 36.7805C6.4974 36.7805 6.43651 36.6588 6.4974 36.5893C6.55829 36.5198 6.68007 36.5893 6.81054 36.5893C6.94102 36.5893 7.00191 36.3894 7.29766 36.3807C7.59341 36.372 7.79348 36.3807 7.98485 36.3807C8.17622 36.3807 8.3241 36.3199 8.36759 36.1721C8.40622 36.0889 8.4658 36.0171 8.54051 35.9638C8.61522 35.9105 8.7025 35.8774 8.79381 35.8679C9.00257 35.8679 8.96778 35.5898 8.98518 35.4508C9.00257 35.3117 9.35922 35.1031 9.38532 34.9988C9.41141 34.8945 9.17655 34.4947 9.38532 34.1297C9.59408 33.7647 9.82894 33.756 9.82894 33.5561C9.82894 33.3562 10.0464 33.3041 10.3161 33.2693C10.5857 33.2345 10.6727 33.0346 10.9076 32.9304C10.9987 32.8917 11.0718 32.8201 11.1121 32.7298C11.1525 32.6394 11.1571 32.5372 11.125 32.4437C11.1282 32.3916 11.1282 32.3393 11.125 32.2872C11.0293 31.9483 11.3077 31.7484 11.5686 31.7049C11.9109 31.699 12.249 31.7797 12.5516 31.9396C12.7082 32.0439 12.9082 32.0178 13.1692 31.7136C13.2559 31.6029 13.3742 31.5211 13.5084 31.479C13.5982 31.4592 13.6857 31.4301 13.7694 31.392C13.9346 31.3051 13.8564 31.14 14.1347 31.0531C14.2799 31.0341 14.4275 31.0558 14.5611 31.1156C14.6947 31.1755 14.8091 31.2711 14.8915 31.392C14.975 31.4922 15.0319 31.6117 15.0568 31.7397C15.0889 31.8861 15.1501 32.0247 15.2367 32.1471C15.3234 32.2695 15.4337 32.3733 15.5613 32.4523C15.944 32.7218 16.0919 33.0259 16.292 33.1389C16.492 33.2519 16.6834 33.2258 16.8052 33.3823C16.9333 33.5302 17.0941 33.6462 17.2749 33.7212C17.4662 33.8168 17.4749 34.0428 17.6489 34.0689C17.8229 34.095 17.7185 34.2688 17.8229 34.4165C17.8804 34.5124 17.9107 34.622 17.9107 34.7337C17.9107 34.8455 17.8804 34.9551 17.8229 35.051C17.7098 35.2248 17.7707 35.5203 17.8229 35.5203C17.8751 35.5203 18.0664 35.2074 18.0925 35.0336C18.1186 34.8598 18.2752 34.8685 18.397 34.6859C18.5188 34.5034 18.2143 34.46 18.1534 34.2253C18.1468 34.1633 18.1594 34.1008 18.1896 34.0462C18.2197 33.9916 18.2659 33.9476 18.3219 33.9201C18.3779 33.8926 18.441 33.8829 18.5026 33.8924C18.5643 33.902 18.6216 33.9302 18.6666 33.9733C18.945 34.1645 19.0581 34.2948 19.0755 33.9733C19.0929 33.6517 18.2056 33.2867 18.0143 33.1042C17.8229 32.9217 17.9447 32.7391 17.6141 32.7565C17.2836 32.7739 16.9008 32.3307 16.7878 31.8179C16.6747 31.3051 16.1615 31.2878 16.031 30.9488C15.9005 30.6099 16.1528 30.6098 16.031 30.3578C15.9092 30.1058 16.1093 30.0884 16.2659 30.0189C16.3734 29.9647 16.4963 29.9494 16.6138 29.9754C16.6747 29.9754 16.6921 30.071 16.7008 30.1492C16.7095 30.2274 16.7008 30.4013 16.7965 30.4013C16.8922 30.4013 17.2053 30.4013 17.214 30.5925C17.3152 30.893 17.4748 31.1707 17.6837 31.4094C17.8142 31.5659 18.1012 31.5311 18.1186 31.6615C18.136 31.7918 18.3361 31.9135 18.571 31.9309C18.653 31.949 18.7301 31.9845 18.7971 32.0352C18.8945 32.1047 18.9875 32.1801 19.0755 32.2611C19.1914 32.3728 19.3166 32.4745 19.4495 32.5653C19.6583 32.687 19.7366 32.7739 19.5887 32.9304C19.5123 33.0625 19.4722 33.2123 19.4722 33.3649C19.4722 33.5175 19.5123 33.6673 19.5887 33.7995C19.7453 33.9385 19.7888 34.2166 19.9453 34.2948C20.0401 34.3381 20.1189 34.41 20.1704 34.5005C20.2219 34.591 20.2436 34.6954 20.2324 34.7989C20.2264 34.8459 20.2366 34.8935 20.2613 34.9339C20.2859 34.9743 20.3236 35.0051 20.3681 35.0213C20.4127 35.0374 20.4613 35.038 20.5062 35.0229C20.5511 35.0077 20.5895 34.9778 20.6151 34.938C20.7369 34.7815 21.0935 35.0249 21.0935 35.1292C21.0935 35.2335 20.7282 35.0162 20.5281 35.1813C20.3281 35.3465 20.6847 35.5029 20.6325 35.6767C20.6224 35.7219 20.6217 35.7687 20.6305 35.8142C20.6392 35.8596 20.6572 35.9029 20.6832 35.9411C20.7093 35.9794 20.743 36.0119 20.7821 36.0367C20.8213 36.0615 20.8651 36.078 20.9109 36.0852C21.0935 36.0852 21.3023 36.3981 21.4154 36.3372C21.5285 36.2764 21.2762 35.8245 21.3197 35.7549C21.3632 35.6854 21.5806 35.8766 21.6937 35.7549C21.8068 35.6333 21.6068 35.5116 21.4415 35.5203C21.2762 35.529 21.4415 35.2769 21.6328 35.4073C21.8242 35.5377 21.9286 35.4073 22.0243 35.3552C22.12 35.303 22.1374 34.9641 21.8503 34.8771C21.5633 34.7902 21.598 35.1118 21.4067 34.8771C21.2153 34.6425 21.5807 34.7468 21.5807 34.5643C21.5807 34.3818 21.2849 34.121 21.1457 33.9038C21.0066 33.6865 21.3458 33.5822 21.4241 33.7386C21.5024 33.8951 21.7111 33.869 21.8503 33.8081C21.9895 33.7473 21.7024 33.4692 21.9547 33.3649C22.2069 33.2606 22.1982 33.4431 22.2765 33.4779C22.3548 33.5126 22.4244 33.2606 22.6767 33.2606C22.8166 33.2813 22.9453 33.3487 23.042 33.4518C23.1244 33.5411 23.2349 33.5993 23.3552 33.6169C23.5726 33.6169 23.6596 33.3562 23.851 33.278C24.0423 33.1998 24.4686 33.278 24.5729 33.1998C24.6773 33.1216 24.3033 32.9651 24.1641 32.8434C24.0929 32.7563 24.0477 32.6509 24.0336 32.5393C24.0336 32.4697 24.0336 32.4089 23.964 32.4002C23.8945 32.3915 23.7379 31.983 23.851 31.957C23.9641 31.9309 24.1032 31.5137 24.2772 31.4529C24.3061 31.4462 24.3323 31.4311 24.3525 31.4094C24.3726 31.3877 24.3858 31.3605 24.3903 31.3312C24.3903 31.2443 24.3903 31.1313 24.3903 31.027C24.3903 30.9227 24.4947 30.5664 24.6599 30.549C24.8252 30.5316 24.9557 30.549 24.9383 30.2274C24.9383 29.958 24.9383 29.9754 25.1905 29.7929C25.4428 29.6104 25.4428 29.2453 25.6516 29.2019C25.8603 29.1584 25.9386 29.0541 26.2431 29.1063C26.5475 29.1584 26.0952 29.367 26.2953 29.4887C26.4953 29.6104 27.1651 29.4887 27.1651 29.6278C27.1651 29.7668 26.4431 29.9754 26.4605 30.0623C26.4779 30.1492 26.8607 30.2361 26.9911 30.3317C27.1216 30.4273 26.9911 30.6968 26.9911 30.7837C26.9911 30.8706 27.2608 30.7837 27.4261 30.6707C27.5913 30.5577 27.7305 30.5838 27.9393 30.4273C28.148 30.2709 28.6004 30.4273 28.6526 30.3143C28.7047 30.2014 28.5308 30.1231 28.1133 30.1579C27.6957 30.1927 27.6783 29.7668 27.6783 29.6799C27.8424 29.4488 28.0826 29.2827 28.3568 29.2106C28.5956 29.1805 28.8261 29.1037 29.0353 28.9846C29.1739 28.9224 29.3202 28.8785 29.4702 28.8543C29.7312 28.7934 29.9921 28.776 30.0182 28.8543C30.0443 28.9325 29.4615 29.2367 29.3484 29.2801C29.2354 29.3236 29.5659 29.5061 29.5572 29.6104C29.5485 29.7147 29.2093 29.7407 29.2441 29.9493C29.2789 30.1579 29.131 30.2014 28.9483 30.2014C28.7656 30.2014 28.7221 30.323 28.8091 30.3404C28.8961 30.3578 28.8874 30.6185 29.2267 30.7141C29.6222 30.884 29.9669 31.1535 30.227 31.4963C30.2649 31.5457 30.3122 31.5871 30.3662 31.618C30.6793 31.8179 31.1316 31.7658 31.236 32.1221C31.3404 32.4784 31.5144 32.3741 31.4361 32.7305C31.4141 32.8068 31.3721 32.8758 31.3143 32.9304C31.1821 33.0548 31.0262 33.1513 30.8558 33.214C30.6854 33.2767 30.504 33.3044 30.3227 33.2954C30.0139 33.253 29.7007 33.253 29.3919 33.2954C29.0788 33.2954 28.9918 33.052 28.7569 33.0694C28.5221 33.0868 28.5134 32.8348 28.2785 32.8348C28.0437 32.8348 28.2263 32.7044 27.4783 32.6001C27.1852 32.5722 26.8895 32.6066 26.6107 32.701C26.3318 32.7953 26.0761 32.9475 25.8603 33.1476C25.6168 33.3736 24.7643 33.1476 24.686 33.2172C24.6077 33.2867 24.686 33.5474 24.4164 33.6691C24.1467 33.7908 23.503 33.6691 23.2943 33.7734C23.0855 33.8777 22.9985 34.2253 23.1812 34.2079C23.3639 34.1906 23.4595 34.2861 23.3986 34.3731C23.3378 34.46 23.5552 34.7033 23.4508 34.8076C23.4226 34.8337 23.4001 34.8652 23.3848 34.9004C23.3694 34.9355 23.3614 34.9735 23.3614 35.0119C23.3614 35.0502 23.3694 35.0882 23.3848 35.1233C23.4001 35.1585 23.4226 35.1901 23.4508 35.2161C23.5726 35.3204 23.5987 35.5116 23.4508 35.5377C23.303 35.5637 23.7118 35.7549 23.7205 35.8418C23.7292 35.9288 24.0684 35.9635 24.0684 36.0678C24.0684 36.1721 24.1641 36.2069 24.3381 36.1547C24.5121 36.1026 24.5642 36.3546 24.6686 36.5284C24.773 36.7023 25.3558 36.5806 25.3558 36.3894C25.3558 36.1982 25.5298 36.146 25.7907 36.1721C26.0517 36.1982 26.3909 36.5893 26.5214 36.6414C26.6519 36.6936 26.9042 36.5371 27.0781 36.5371C27.2521 36.5371 27.4783 36.2503 27.5739 36.1895C27.6696 36.1287 27.8349 36.3894 27.9828 36.3025C28.1307 36.2156 28.3046 36.12 28.4003 36.1808C28.496 36.2416 28.1654 36.5111 28.2524 36.6501C28.2743 36.715 28.2743 36.7852 28.2524 36.85C28.2524 36.963 28.1915 37.0673 28.2524 37.1455C28.3133 37.2237 28.2524 37.3975 28.2089 37.5801V37.6583C28.1041 37.9603 27.9701 38.2514 27.8088 38.5274L28.0611 38.6491L27.7914 38.5187C27.7518 38.6077 27.7226 38.7011 27.7044 38.7968C27.6163 39.1627 27.4757 39.514 27.2869 39.8397C27.2631 39.8692 27.2426 39.9013 27.226 39.9353C27.1564 40.0049 26.8955 39.831 26.6519 39.9353C26.5355 39.9561 26.416 39.953 26.3009 39.9261C26.1857 39.8992 26.0772 39.8491 25.9821 39.7789C25.7914 39.7334 25.5933 39.7276 25.4002 39.762C25.2071 39.7964 25.0232 39.8702 24.86 39.9788C24.7556 40.1439 24.4947 40.1439 24.2598 40.0396C23.9523 39.8821 23.6197 39.7792 23.2769 39.7354C22.868 39.7354 22.5462 39.6312 22.4679 39.5182C22.4679 39.3965 22.2069 39.3878 21.7459 39.3096C21.2849 39.2314 21.4502 38.8837 20.9283 38.849C20.4064 38.8142 19.7366 39.2748 19.7366 39.5182C19.7366 39.7615 19.9801 40.0309 19.8062 40.283C19.7572 40.3529 19.6922 40.41 19.6165 40.4494C19.5407 40.4889 19.4566 40.5094 19.3712 40.5094C19.2858 40.5094 19.2017 40.4889 19.126 40.4494C19.0503 40.41 18.9852 40.3529 18.9363 40.283C18.6683 40.0302 18.3132 39.8902 17.9447 39.8919C17.6228 39.8919 17.3967 39.6659 17.4141 39.4747C17.4315 39.2835 17.3358 39.1966 17.0661 39.1358C16.7965 39.0749 16.5703 38.8316 16.0919 38.9185C15.8758 38.9513 15.6554 38.9016 15.4743 38.7794C15.3809 38.7205 15.3104 38.6316 15.2742 38.5274C15.2742 38.4144 15.1263 38.2232 15.0481 38.3275C14.9698 38.4318 14.6653 38.3275 14.6305 38.1276C14.5957 37.9277 14.8306 37.919 15.0481 37.7191C15.1026 37.6687 15.1461 37.6075 15.1759 37.5394C15.2057 37.4714 15.221 37.3979 15.221 37.3237C15.221 37.2494 15.2057 37.1759 15.1759 37.1079C15.1461 37.0398 15.1026 36.9787 15.0481 36.9282C14.8132 36.7196 14.9785 36.6067 15.1437 36.4155C15.309 36.2243 15.1437 36.12 15.0741 36.2069C15.0046 36.2938 14.8393 36.3199 14.8219 36.1113C14.8045 35.9027 14.2826 35.8766 14.0825 36.0678C14.0443 36.1033 13.9989 36.1302 13.9494 36.1467C13.8998 36.1632 13.8474 36.1689 13.7955 36.1634C13.6232 36.1529 13.4533 36.1178 13.2909 36.0591C13.107 36.0584 12.9234 36.0758 12.7429 36.1113C12.569 36.1113 12.1428 36.4241 11.9949 36.2764C11.3224 36.25 10.649 36.2937 9.98552 36.4068C9.57669 36.4068 9.40272 36.8935 9.11566 36.8935C8.77514 36.9356 8.46379 37.1067 8.24581 37.3715C8.22124 37.4015 8.19084 37.4262 8.15646 37.4441C8.12207 37.462 8.0844 37.4728 8.04573 37.4758C7.85437 37.4758 7.61951 37.3193 7.41944 37.3106C7.21937 37.3019 6.71486 37.4584 6.54959 37.2063C6.38431 36.9543 6.20166 36.8761 6.04508 36.9543C5.82018 37.3385 5.62532 37.7395 5.46227 38.1537C5.36213 38.2765 5.23798 38.3776 5.09738 38.4508C4.95679 38.524 4.80273 38.5678 4.64462 38.5795C4.43585 38.5795 4.40975 38.9359 4.24448 39.0836C4.07921 39.2314 4.14009 39.466 3.94003 39.6398C3.73996 39.8137 3.83564 40.3438 3.94003 40.5089C4.04441 40.6741 3.57469 41.2911 3.30504 41.465C3.03538 41.6388 2.9571 41.969 2.52218 42.0473C2.3767 42.0773 2.24346 42.1499 2.13944 42.2558C2.00327 42.4121 1.9024 42.5959 1.84369 42.7947C1.74801 43.0728 1.1565 43.4813 1.13041 43.8724C1.10431 44.2635 0.5563 44.8718 0.190962 45.6975C0.105582 45.8719 0.0525407 46.0604 0.034395 46.2537C0.0260605 46.3796 0.0486542 46.5055 0.100202 46.6207C0.15175 46.7358 0.230685 46.8366 0.330142 46.9142C0.495414 47.1228 0.208362 47.4878 0.451921 47.8616C0.69548 48.2353 0.391034 48.8089 0.277953 49.0175C0.217051 49.1787 0.184674 49.3493 0.182268 49.5216C0.176034 49.6877 0.134524 49.8506 0.0604895 49.9996C-0.113481 50.2777 0.130074 50.6948 0.260552 50.8252C0.274639 50.8616 0.274639 50.9018 0.260552 50.9382C0.260552 51.0338 0.199661 51.1642 0.190962 51.2945C0.179114 51.341 0.178455 51.3897 0.189038 51.4365C0.199621 51.4834 0.221151 51.527 0.251858 51.564L0.304047 51.6335C0.443224 51.8247 0.460626 51.9116 0.73028 51.9985C0.999935 52.0854 0.730271 52.2679 0.965131 52.4417L1.02603 52.4939C1.2087 52.6503 1.1913 52.8328 1.40876 53.0067C1.66619 53.193 1.87258 53.4411 2.00897 53.728C2.04027 53.7985 2.06643 53.8711 2.08725 53.9453C2.12905 54.2371 2.28167 54.5016 2.51347 54.684L2.9397 54.9969C3.16586 55.1533 3.42682 55.3272 3.63559 55.501C4.02058 55.8349 4.44055 56.1263 4.88818 56.3701C4.93109 56.3801 4.97573 56.3801 5.01865 56.3701C5.3405 56.3701 5.88851 56.1181 6.60179 55.9877C6.94731 55.9257 7.30279 55.9496 7.6369 56.0572C7.85437 56.1267 7.99355 56.205 8.03704 56.2136C8.4021 56.1022 8.75252 55.9476 9.08086 55.753C9.28963 55.64 9.53319 55.5618 9.69846 55.4662C9.73811 55.4473 9.77359 55.4207 9.80284 55.388C9.89211 55.3219 9.997 55.2799 10.1073 55.2663C10.2239 55.2368 10.3437 55.2222 10.4639 55.2229C10.6379 55.2229 10.7336 54.9795 10.8293 55.1012C10.925 55.2403 11.3773 55.2663 11.6295 55.3272C11.7547 55.3807 11.8656 55.4628 11.9533 55.567C12.0409 55.6712 12.1028 55.7944 12.1341 55.9268C12.1598 56.126 12.2629 56.3071 12.4211 56.4309C12.5342 56.5005 12.8299 56.3006 12.9691 56.3006C13.1083 56.3006 13.5867 56.3006 13.6824 56.2136C13.6873 56.2081 13.6933 56.2037 13.7001 56.2006C13.7068 56.1976 13.7141 56.196 13.7215 56.196C13.7289 56.196 13.7363 56.1976 13.743 56.2006C13.7498 56.2037 13.7558 56.2081 13.7607 56.2136C13.8514 56.3092 13.9276 56.4176 13.9868 56.5352C14.0999 56.709 14.3087 56.5787 14.3957 56.6308C14.507 56.8008 14.5618 57.0015 14.5522 57.2044C14.5522 57.3174 14.387 57.5868 14.4479 57.7259C14.4683 57.7587 14.4813 57.7957 14.4857 57.8341C14.4901 57.8725 14.4859 57.9114 14.4735 57.948C14.461 57.9846 14.4405 58.018 14.4135 58.0457C14.3865 58.0735 14.3537 58.0948 14.3174 58.1083C14.1521 58.1691 14.1608 58.3343 14.3174 58.343C14.474 58.3516 14.387 58.4212 14.3174 58.4994C14.2876 58.5416 14.2557 58.5822 14.2217 58.6211C14.1521 58.6993 14.387 58.8036 14.4305 58.9166C14.474 59.0295 14.126 58.9948 14.1347 59.1599C14.1314 59.2341 14.1108 59.3065 14.0745 59.3714C14.0383 59.4363 13.9874 59.4918 13.926 59.5336C13.8303 59.6119 14.1782 59.9421 14.1869 60.0464C14.1956 60.1507 14.2739 60.2637 14.5696 60.5852C14.8654 60.9068 14.7262 60.9763 15.1002 61.3153H15.1611C15.354 61.4866 15.5082 61.6969 15.6135 61.9324C15.7054 62.1404 15.7698 62.3595 15.8048 62.5842C15.8059 62.6044 15.8059 62.6248 15.8048 62.645C15.9314 63.0644 16.0884 63.4739 16.2746 63.8705C16.3441 64.0356 16.1876 64.1833 16.1876 64.4875C16.1876 64.7917 16.4833 65.3566 16.5181 65.713C16.519 65.8766 16.4854 66.0385 16.4194 66.1883C16.3535 66.338 16.2567 66.4722 16.1354 66.5821C15.9096 66.918 15.7775 67.308 15.7526 67.7119C15.7526 68.0508 15.4656 68.3811 15.4743 68.581C15.468 68.843 15.4447 69.1042 15.4047 69.3632C15.4286 69.641 15.5312 69.9063 15.7004 70.128C15.9316 70.5004 16.1074 70.9044 16.2224 71.3274C16.3441 71.7532 16.6834 72.1965 16.7704 72.5528C16.8573 72.9091 16.7095 73.335 16.7704 73.5436C16.8659 73.8403 16.93 74.1461 16.9617 74.4561C16.9578 74.9549 17.0837 75.446 17.3271 75.8815C17.4514 76.0275 17.5621 76.1846 17.6576 76.3508C17.8279 76.6466 17.9623 76.9617 18.0578 77.2894C18.1882 77.75 18.4927 78.1585 18.571 78.454C18.6492 78.7495 18.7449 78.9668 18.571 78.9929C18.397 79.0189 18.4057 79.1754 18.571 79.4709C18.7362 79.7664 18.571 79.9402 18.7449 79.9749C18.9189 80.0097 18.8493 80.114 18.9711 80.1227C19.0929 80.1314 19.1799 80.2618 19.2581 80.3747C19.2772 80.4034 19.303 80.427 19.3334 80.4432C19.3638 80.4595 19.3977 80.468 19.4321 80.468C19.4666 80.468 19.5005 80.4595 19.5308 80.4432C19.5612 80.427 19.587 80.4034 19.6061 80.3747C19.6931 80.2357 19.9627 80.1922 20.2411 80.1922C20.5194 80.1922 20.4585 80.0619 20.7282 79.9749C20.9968 79.8879 21.286 79.8879 21.5546 79.9749C21.6388 80.009 21.7304 80.0205 21.8204 80.0083C21.9104 79.9961 21.9957 79.9606 22.0678 79.9054C22.1809 79.8272 22.3896 80.0271 22.407 79.8272C22.4244 79.6273 22.6419 79.6621 22.8506 79.6621C23.2784 79.5106 23.6571 79.2464 23.9466 78.8973C24.4343 78.3656 24.863 77.7828 25.2253 77.1591C25.4363 76.8127 25.6939 76.4968 25.9908 76.2204C26.1495 75.9231 26.2359 75.5926 26.2431 75.2557C26.2495 75.1573 26.2495 75.0586 26.2431 74.9602C26.2431 74.6821 26.0865 74.9081 26.0343 74.7343C25.9821 74.5604 26.417 74.2476 26.9042 74.0651C27.3913 73.8825 27.5305 73.7782 27.5739 73.6044C27.6174 73.4306 27.5739 72.9439 27.6348 72.7353C27.6957 72.5267 27.5913 72.4311 27.5391 71.9966C27.487 71.562 27.3391 71.4925 27.2782 71.2492C27.2173 71.0058 27.226 70.8146 27.3652 70.8059C27.5044 70.7972 27.4957 70.7277 27.6087 70.493C27.7218 70.2584 27.8436 70.354 28.0611 70.1802C28.2785 70.0063 28.2872 69.7891 28.6265 69.5023C28.9657 69.2155 29.3397 69.2328 29.6703 69.0155C30.0008 68.7983 30.5401 67.9466 30.5401 67.7901C30.4463 67.4151 30.4024 67.0294 30.4097 66.6429C30.4097 66.3561 30.3575 65.6 30.3575 65.235C30.3575 64.896 29.9921 65.0437 29.9834 64.6961C29.9747 64.3485 29.7747 64.3485 29.7834 64.1051C29.7921 63.8618 29.7834 63.6445 29.7225 63.6184C29.6616 63.5923 29.7225 63.3838 29.8182 63.1752C29.9138 62.9666 29.592 62.9405 29.5398 62.6798C29.5718 62.3795 29.6511 62.0862 29.7747 61.8107C29.9248 61.3755 30.099 60.949 30.2966 60.5331C30.4184 60.3332 30.5314 60.368 30.6358 60.2289C30.7402 60.0898 30.775 60.2984 30.9316 60.0203L30.9751 59.9508C31.1838 59.6466 31.7492 59.0817 32.1668 58.5776C32.4171 58.2531 32.7346 57.9863 33.0975 57.7954C33.609 57.3851 34.0574 56.9019 34.4284 56.3614C34.703 56.0428 34.9128 55.6738 35.046 55.275C35.1534 54.9578 35.3186 54.6632 35.5331 54.4059C35.771 54.0528 35.9393 53.6575 36.0289 53.2413C36.0289 53.0327 36.1855 52.5895 36.2116 52.2158C36.2377 51.8421 35.9506 51.8073 35.8636 52.0159C35.7767 52.2245 35.0982 52.3635 34.6632 52.3722C34.2283 52.3809 33.9587 52.4244 33.7934 52.5895C33.6281 52.7546 33.2454 52.546 33.0975 52.7285C32.9496 52.9111 32.3929 53.0675 32.2277 52.6503C32.1736 52.5153 32.0795 52.4001 31.958 52.3201C31.8188 52.2418 31.697 52.2245 31.6709 52.1897C31.6448 52.1549 31.8275 51.955 31.9754 51.9203C32.1233 51.8855 32.0537 51.6943 31.9319 51.5726L31.8536 51.5031C31.6513 51.2799 31.4625 51.0448 31.2882 50.7991C31.1931 50.6406 31.067 50.5028 30.9176 50.3938C30.7682 50.2849 30.5984 50.2069 30.4184 50.1647C30.2357 50.1647 30.2009 49.8084 30.0791 49.791C29.8449 49.56 29.7054 49.2501 29.6877 48.9219C29.6456 48.6815 29.5405 48.4567 29.3832 48.27C29.2963 48.1365 29.184 48.0214 29.0527 47.9311C28.8613 47.8355 28.7395 47.4705 28.7395 47.0098C28.7285 46.6824 28.6878 46.3566 28.6178 46.0365C28.5402 45.7857 28.373 45.5723 28.148 45.4368C28.0679 45.3906 27.9995 45.3266 27.9482 45.2497C27.8969 45.1729 27.8641 45.0852 27.8523 44.9935C27.835 44.9162 27.835 44.8361 27.8523 44.7589C27.8523 44.4808 27.7131 44.4981 27.6 44.107C27.487 43.7159 27.052 43.1336 27.0346 42.9077C27.0172 42.6817 26.7737 42.5513 26.7824 42.308C26.7911 42.0646 26.6606 42.0386 26.417 41.6562C26.2137 41.3391 26.1276 40.961 26.1735 40.5872C26.2431 40.5872 26.4431 41.1434 26.5301 41.3346C26.6171 41.5258 26.8781 42.1081 27.0694 42.1081C27.2608 42.1081 27.3304 41.239 27.3913 41.239C27.4348 41.3607 27.3913 41.8734 27.487 41.9082C27.5826 41.943 27.6696 42.1863 27.9219 42.4905C28.247 42.888 28.5082 43.3337 28.696 43.8115C28.7096 43.9442 28.7535 44.0721 28.8244 44.1851C28.8953 44.2981 28.9912 44.3933 29.1049 44.4634C29.4267 44.698 29.4267 44.9848 29.592 45.1239C29.7573 45.2629 29.7138 45.4194 29.7225 45.767C29.7209 45.9535 29.7588 46.1382 29.8338 46.3089C29.9087 46.4797 30.019 46.6327 30.1574 46.7578C30.4491 46.9337 30.6682 47.208 30.775 47.5313C30.8877 47.8479 31.0556 48.1422 31.2708 48.4004C31.4535 48.6003 31.3491 48.7046 31.4535 48.8523C31.5255 48.9575 31.584 49.0714 31.6274 49.1913C31.6829 49.3045 31.6983 49.4332 31.6709 49.5563C31.616 49.8751 31.6712 50.203 31.8275 50.4863C32.0015 50.7557 31.9319 51.2511 32.0102 51.3554C32.1721 51.4043 32.3424 51.4187 32.5102 51.3978C32.678 51.3768 32.8396 51.3209 32.9844 51.2337C33.181 51.0752 33.4278 50.992 33.6803 50.999C33.9066 50.9704 34.1143 50.8589 34.2631 50.6861C34.3327 50.5819 34.6545 50.5732 34.7937 50.5905C34.9329 50.6079 35.0634 50.4428 35.2113 50.2864C35.3591 50.1299 35.8375 50.0517 36.3421 49.8779C36.8466 49.7041 36.7422 49.4433 36.8553 49.2869C36.9684 49.1305 37.0988 49.1913 37.3163 49.0957L37.4555 49.0262C37.7512 48.835 38.0905 48.9306 38.3253 48.861C38.5602 48.7915 38.3253 48.5829 38.5341 48.4004C38.7428 48.2179 39.0125 48.4004 39.1169 48.2961C39.2213 48.1918 39.2909 47.8355 39.4648 47.7573C39.6388 47.6791 39.8302 47.7573 39.8041 47.5661C39.778 47.3749 39.8041 46.8099 39.9867 46.7752C40.1694 46.7404 40.413 46.5492 40.4217 46.4449C40.5553 46.2072 40.7034 45.9779 40.8653 45.7583C40.9697 45.5671 40.9784 45.4715 40.8653 45.4455C40.7522 45.4194 40.4739 44.9588 40.413 44.8284C40.3521 44.698 39.8911 44.7849 39.5431 44.4634C39.3851 44.2894 39.2848 44.0708 39.2561 43.8376C39.2322 43.5898 39.1827 43.3451 39.1082 43.1076C39.0125 43.1076 38.6211 43.5595 38.4645 43.8984C38.3695 44.0797 38.2207 44.2272 38.0385 44.3205C37.8562 44.4139 37.6495 44.4486 37.4468 44.4199C37.3358 44.3878 37.218 44.388 37.1071 44.4203C36.9962 44.4526 36.8968 44.5158 36.8205 44.6024C36.8205 44.6024 36.7509 44.6024 36.7074 44.6024C36.5977 44.5021 36.5191 44.3724 36.4812 44.2287C36.4672 44.1746 36.4672 44.1177 36.4812 44.0636C36.5856 43.8724 36.6465 43.377 36.4204 43.3075C36.1942 43.2379 36.0637 43.742 36.0637 43.8811C36.0637 43.8811 35.681 43.3683 35.7767 43.2466C35.8723 43.1249 35.7071 42.786 35.5331 42.6122C35.3591 42.4384 35.0025 42.1168 34.9938 41.9169C34.9759 41.8343 34.9527 41.7531 34.9242 41.6735C34.8225 41.4298 34.7354 41.1802 34.6632 40.9261C34.6678 40.8888 34.6865 40.8546 34.7154 40.8305C34.7825 40.7675 34.8627 40.72 34.9503 40.6915H35.0808C35.2199 40.6915 35.2112 40.5263 35.3243 40.6306C35.4374 40.7349 35.5853 40.6306 35.6984 40.6306C35.8115 40.6306 36.1072 41.2477 36.2377 41.5519C36.3682 41.8561 36.3682 41.9603 36.5508 42.0907C36.7335 42.2211 36.9423 42.1515 37.2032 42.447C37.5479 42.7372 37.9725 42.9159 38.421 42.9598C38.7081 42.9598 38.9168 42.6209 39.2909 42.6991C39.6649 42.7773 39.5692 43.2901 39.6997 43.4726C40.309 43.661 40.9354 43.7891 41.5699 43.855C41.7565 43.8888 41.9456 43.9062 42.1353 43.9071C42.4679 43.9345 42.8027 43.9081 43.1269 43.8289C43.1792 43.7731 43.2484 43.736 43.3239 43.7234C43.3994 43.7109 43.4769 43.7235 43.5444 43.7594C43.8237 43.8706 44.135 43.8706 44.4143 43.7594C44.6753 43.6029 44.8318 43.7594 44.8405 43.8984C44.8492 44.0375 44.971 44.0983 45.0841 44.22C45.1972 44.3417 45.0841 44.4807 45.1972 44.6198C45.3102 44.7589 45.432 44.7328 45.6669 44.8458C45.6987 44.8579 45.7282 44.8755 45.7539 44.8979C45.9104 45.037 45.98 45.289 46.241 45.402C46.5019 45.515 46.8325 45.1847 46.8325 45.402C46.8325 45.6193 46.1018 45.6019 46.0844 45.6714C46.067 45.7409 46.8412 46.7665 47.2239 46.6883C47.6067 46.6101 47.9024 46.1494 47.7893 46.0799C47.6762 46.0104 47.8502 45.7236 47.9546 45.7757C48.059 45.8279 47.9546 46.2798 48.0851 46.3841C48.2155 46.4884 48.1721 46.6796 48.0851 46.9229C48.0737 47.2564 48.1089 47.5899 48.1895 47.9137C48.1895 48.1831 48.3808 48.5742 48.4417 48.974C48.536 49.5153 48.7028 50.0415 48.9375 50.5384C49.1463 50.9816 49.3203 51.8507 49.4594 52.0593C49.7174 52.4281 49.8897 52.8497 49.964 53.2935C50.0221 53.6878 50.205 54.0533 50.4859 54.3364C50.625 54.4407 50.9121 54.2147 50.9904 53.9714C51.0687 53.728 51.4601 53.6324 51.4862 53.4238C51.5123 53.2152 51.5471 53.0501 51.695 53.024C51.8428 52.998 51.8341 52.8328 51.8341 52.6069C51.816 52.348 51.8702 52.0893 51.9907 51.8594C52.1333 51.5612 52.1612 51.2209 52.069 50.9034C52.0008 50.6592 52.0161 50.3992 52.1125 50.1647C52.1908 49.9561 52.156 49.7041 52.3126 49.6867C52.5354 49.6288 52.7262 49.4851 52.8432 49.2869C53.0889 49.0236 53.3599 48.7849 53.6521 48.5742C53.9762 48.2883 54.2679 47.9677 54.522 47.6182C54.6785 47.3314 55.1309 47.2358 55.331 47.0012C55.531 46.7665 55.4614 46.6448 55.5049 46.3928C55.5484 46.1407 56.2095 46.0365 56.4618 46.0365H56.5922C56.7401 46.0365 56.8097 45.9235 56.9489 45.9235C57.0881 45.9235 57.3577 45.9235 57.3751 45.6975C57.3925 45.4715 57.5926 45.3585 57.7056 45.4194C57.8703 45.652 57.9667 45.9259 57.984 46.2103C57.9952 46.3132 58.0246 46.4132 58.071 46.5058C58.17 46.7503 58.3474 46.9552 58.5755 47.0881C58.8799 47.2271 59.0887 47.9137 59.1844 48.2787C59.2662 48.5943 59.2386 48.9282 59.1061 49.2261C58.993 49.4346 59.1061 49.4433 59.3236 49.5476C59.5411 49.6519 59.715 49.6867 59.8455 49.4781C59.976 49.2695 60.263 49.1218 60.2978 48.8871C60.3326 48.6524 60.4631 49.0001 60.5762 49.1218C60.7136 49.3117 60.7895 49.5392 60.7936 49.7736C60.7766 50.2096 60.8693 50.6429 61.0633 51.0338C61.1633 51.1645 61.2337 51.3153 61.2697 51.4759C61.3058 51.6364 61.3066 51.8029 61.272 51.9637C61.2112 52.1462 61.3938 52.4591 61.3417 52.659C61.3417 52.6996 61.3417 52.7517 61.3417 52.8154C61.2982 53.0675 61.2372 53.4673 61.1851 53.6846C61.1329 53.9018 61.0807 54.1886 61.1851 54.206C61.2894 54.2234 61.6113 54.5797 61.8896 54.9621C61.9585 55.0477 62.0116 55.1448 62.0462 55.2489C62.1503 55.5269 62.2033 55.8213 62.2028 56.118C62.2028 56.4657 62.6725 56.9872 62.7421 57.2479C62.8117 57.5086 62.9509 57.5434 63.264 57.7867C63.5772 58.0301 64.1339 58.4212 64.2904 58.3603C64.447 58.2995 64.1078 57.7259 63.9338 57.4912C63.7598 57.2566 63.9338 56.7525 63.9338 56.3614C63.9338 55.9703 63.6033 56.0138 63.525 55.7443C63.4467 55.4749 63.3075 55.6314 63.264 55.4575C63.2529 55.4297 63.2382 55.4035 63.2205 55.3793C63.0742 55.1712 62.8528 55.0279 62.6029 54.9795C62.3333 54.9795 62.2115 54.5189 62.2289 54.319C62.2463 54.1191 62.0375 53.9453 62.0375 53.7715C62.0375 53.5976 61.8723 53.589 61.6896 53.4933C61.5069 53.3977 61.7331 52.8068 61.7592 52.5547C61.7853 52.3027 62.1593 51.5813 62.0462 51.3554C61.9331 51.1294 62.4377 50.9556 62.4985 51.2076C62.5594 51.4597 62.5855 51.5813 62.9074 51.564C63.2292 51.5466 63.2205 51.816 63.4728 51.8942H63.5163C63.7164 51.9898 63.638 52.2679 63.6554 52.4244C63.6728 52.5808 63.8816 52.4939 63.986 52.4852C64.0904 52.4765 63.9164 52.6764 63.986 52.7981C64.0556 52.9198 64.36 52.6938 64.4122 52.7981L64.4644 52.885C64.5285 52.9667 64.6084 53.0347 64.6993 53.0849C64.8297 53.1718 64.5427 53.3195 64.5514 53.5977C64.5601 53.8758 64.7515 53.9453 64.8211 53.8323C64.9527 53.6666 65.1152 53.5279 65.2995 53.4238C65.4213 53.3804 65.2995 53.1892 65.4299 53.1979C65.5604 53.2065 65.5169 52.998 65.5691 52.885C65.6213 52.772 65.717 52.8155 65.8997 52.8242C66.1725 52.7627 66.4244 52.6308 66.6303 52.4417C66.9 52.2505 66.9522 52.2071 67.0479 51.6595C67.0838 51.2011 67.0426 50.7399 66.9261 50.2951C66.9261 50.1386 66.5521 49.3738 66.4216 49.426C66.2911 49.4781 65.6648 48.7394 65.5517 48.6264C65.4387 48.5134 65.4734 48.3222 65.3169 48.1744C65.2428 48.0566 65.1932 47.9251 65.1708 47.7878C65.1483 47.6505 65.1537 47.5101 65.1864 47.3749C65.1864 47.1054 65.5691 47.0446 65.5604 46.8621C65.5517 46.6796 65.5604 46.5231 65.7692 46.5144C65.8575 46.4992 65.9411 46.4639 66.0136 46.4111C66.086 46.3584 66.1452 46.2896 66.1867 46.2103H66.2302C66.3346 46.1581 66.5173 46.2103 66.5608 46.1147C66.6043 46.0191 66.7782 46.0017 66.8565 46.1147C66.9348 46.2276 67.0044 46.2711 67.1609 46.1147C67.3175 45.9582 67.3958 46.2711 67.3088 46.358C67.2218 46.4449 67.3088 46.7143 67.4219 46.8708C67.535 47.0272 67.5959 46.7752 67.5698 46.6187C67.5437 46.4623 67.822 46.3059 68.3179 46.1234C68.7115 45.9852 69.0684 45.7593 69.3617 45.4628C69.3617 45.3759 69.7183 45.6106 69.8836 45.4628C70.1796 45.3458 70.4961 45.2896 70.8143 45.2977C70.9709 45.2977 70.9622 45.1413 71.1275 44.9935C71.2928 44.8458 71.258 44.7762 71.4493 44.7154C71.5273 44.6887 71.5967 44.6415 71.6503 44.5788C71.7038 44.5161 71.7396 44.4402 71.7538 44.3591C71.7538 44.2548 72.1104 44.22 72.1191 44.107C72.1278 43.9941 72.3888 43.9593 72.3888 43.8202C72.3888 43.6812 72.5454 43.7072 72.6149 43.603C72.6845 43.4987 72.5627 43.1945 72.6932 43.151C72.8237 43.1076 72.641 42.9424 72.6149 42.8642C72.5888 42.786 72.8585 42.7686 72.989 42.673C73.0568 42.6267 73.1138 42.5662 73.1559 42.4956C73.1979 42.4251 73.2241 42.3462 73.2325 42.2645C73.2325 42.0994 73.4848 41.9517 73.5805 41.9082C73.6761 41.8647 73.7283 41.6301 73.6936 41.4302C73.6588 41.2303 73.8762 41.2824 73.7805 41.2042C73.6849 41.126 73.824 40.9087 74.0154 40.8479C74.2068 40.7871 73.8936 40.6915 73.7892 40.7784C73.6849 40.8653 73.5718 40.535 73.4848 40.6567C73.3978 40.7784 73.1195 40.5785 73.2934 40.5437C73.4858 40.4553 73.6718 40.3536 73.8501 40.2395C73.9719 40.2395 73.6762 39.9093 73.5283 39.918C73.3804 39.9266 73.2151 39.5355 73.0499 39.5355C72.8846 39.5355 73.1716 39.4139 73.3543 39.5355C73.537 39.6572 73.7544 39.7268 73.8327 39.6398C73.911 39.5529 73.5196 39.2053 73.3804 39.0836C73.2412 38.9619 73.3804 38.7968 73.2847 38.7273C73.1361 38.5083 73.0217 38.268 72.9455 38.0146C72.8759 37.8147 72.5453 37.78 72.4671 37.6496C72.4343 37.5433 72.4419 37.4287 72.4885 37.3277C72.535 37.2266 72.6172 37.1463 72.7193 37.102C72.9629 36.9891 72.8672 36.7631 72.9716 36.7892C73.076 36.8153 73.1803 36.7892 73.2673 36.5632C73.3543 36.3372 73.5022 36.485 73.5892 36.3807C73.6762 36.2764 74.0676 36.2851 74.1981 36.1808C74.3286 36.0765 74.0763 35.7636 73.8936 35.8071C73.7939 35.8332 73.6882 35.8251 73.5936 35.7841C73.499 35.7431 73.4209 35.6717 73.3717 35.5811C73.2412 35.3725 72.9107 35.9548 72.6584 36.0852C72.4062 36.2156 72.2409 35.8592 72.3279 35.6246C72.4149 35.3899 72.1278 35.3986 71.7712 35.416C71.4145 35.4334 71.545 34.7207 71.7712 34.6859C71.9973 34.6512 72.3018 34.9032 72.441 34.4687C72.5801 34.0341 72.7628 34.3731 73.0586 33.9907C73.3543 33.6083 73.711 33.3736 73.9284 33.5996C74.1459 33.8255 73.6501 34.1819 73.5631 34.3991C73.4761 34.6164 73.6414 34.6859 73.4848 34.8511C73.3282 35.0162 73.5457 35.0597 73.8588 34.8511C74.1692 34.6171 74.5012 34.4134 74.8505 34.2427C74.9332 34.221 75.02 34.221 75.1027 34.2427C75.2229 34.252 75.3399 34.2861 75.4463 34.343C75.5526 34.3998 75.6459 34.4782 75.7203 34.573C75.8682 34.7816 75.5463 35.0162 75.3985 35.2074C75.2506 35.3986 75.4855 35.4073 75.4942 35.5637C75.5029 35.7202 75.6942 35.8505 75.7638 35.7115C75.8334 35.5724 75.9552 35.6246 76.1813 35.6246C76.2073 35.6229 76.2332 35.6296 76.2551 35.6436C76.277 35.6577 76.2939 35.6785 76.3031 35.7028C76.364 35.8071 76.3553 35.9983 76.4684 36.007C76.5815 36.0157 76.625 36.3025 76.4684 36.259C76.3118 36.2156 76.2857 36.5284 76.4684 36.7979C76.6511 37.0673 76.1639 37.3715 76.2944 37.5105C76.4249 37.6496 76.2944 37.8147 76.3727 37.9016C76.559 37.9225 76.7476 37.9005 76.924 37.8372C77.1004 37.7739 77.26 37.6711 77.3904 37.5366C77.6862 37.2063 77.7645 37.2498 77.921 37.2933C77.9548 37.3032 77.9906 37.3033 78.0244 37.2934C78.0581 37.2835 78.0883 37.264 78.1113 37.2374C78.1342 37.2108 78.149 37.1781 78.1538 37.1433C78.1587 37.1085 78.1534 37.0731 78.1385 37.0412C78.0143 36.7694 77.9662 36.4691 77.9993 36.1721C77.9036 35.8015 77.7115 35.4627 77.4426 35.19C77.3015 35.0107 77.1411 34.8475 76.9642 34.7033C76.7815 34.5817 76.8946 34.2427 77.1208 34.1819C77.4486 34.0007 77.7601 33.7913 78.0515 33.5561C78.2168 33.4518 78.1037 33.1129 78.2429 32.8434C78.4086 32.6048 78.6078 32.3911 78.8344 32.209L78.9649 32.1047C79.094 31.9828 79.2484 31.8908 79.4172 31.8353C79.6086 31.8353 79.8086 32.209 80.0348 32.2177C80.5072 32.0255 80.9297 31.7283 81.27 31.3486C81.5273 30.9723 81.8185 30.6204 82.1398 30.297C82.4543 29.9507 82.718 29.5615 82.9227 29.1411C83.0948 28.8411 83.2836 28.5509 83.4881 28.272C83.623 28.0852 83.7368 27.8841 83.8273 27.6723C83.9389 27.1655 84.0145 26.6514 84.0535 26.134C84.1057 26.0644 84.0535 25.8819 84.1579 25.7689C84.2623 25.656 84.1579 25.4995 84.358 25.3518C84.4133 25.3051 84.4519 25.2416 84.4676 25.1709C84.4833 25.1002 84.4754 25.0264 84.4449 24.9607C84.4015 24.8477 84.4449 24.5956 84.4449 24.5174C84.4449 24.4392 84.4449 24.4044 84.5058 24.3436C84.5667 24.2828 84.4449 24.1263 84.3144 24.0568C84.184 23.9873 84.0013 23.9264 83.9839 23.7613C83.9614 23.666 83.9085 23.5805 83.8332 23.5178C83.7579 23.4551 83.6643 23.4186 83.5664 23.4137C83.3924 23.4137 83.0706 23.3094 83.1054 23.4137C83.1402 23.518 83.1054 23.6396 83.001 23.6136C82.8966 23.5875 82.8792 23.6657 82.7748 23.8395C82.6704 24.0133 82.3051 24.0307 82.4704 23.8395C82.6356 23.6483 82.4182 23.6657 82.4704 23.4919C82.5226 23.3181 82.6356 23.1442 82.4704 23.2572C82.3051 23.3702 82.2877 23.6396 82.1398 23.6744C81.9919 23.7092 82.0354 23.2051 82.0702 23.0747C82.105 22.9443 81.7919 23.0747 81.4613 23.0747C81.1308 23.0747 81.2178 22.7966 81.4613 22.6402C81.7049 22.4837 81.6788 22.336 81.818 22.2751C81.9572 22.2143 82.2964 21.9623 82.5052 21.8319C82.5801 21.7859 82.6449 21.7252 82.6957 21.6535C82.7465 21.5818 82.7823 21.5006 82.8009 21.4147C82.8444 21.267 83.2271 21.0845 83.5664 20.7803C83.8041 20.6025 84.0025 20.3777 84.1492 20.1198C84.2362 19.9372 84.7407 19.7113 84.7494 19.5722C84.7581 19.4332 85.3496 19.0855 85.7497 18.9986C86.1449 18.9203 86.5549 18.9753 86.9153 19.1551C87.0371 19.2854 87.1241 19.2333 87.1937 19.1551C87.2633 19.0768 87.4198 19.1116 87.6895 19.1551C87.9591 19.1985 88.0287 19.016 88.2027 19.0768C88.3767 19.1377 88.5419 19.1724 88.6463 18.9378C88.7507 18.7031 89.2813 18.7466 89.4031 18.8422C89.5249 18.9378 89.6206 19.0681 89.8032 18.9291C89.9859 18.79 89.9946 19.1116 90.1773 19.1377C90.3599 19.1637 90.2382 19.3376 90.0816 19.3202C89.925 19.3028 89.725 19.4071 89.9076 19.5201C90.0903 19.6331 90.3078 19.4158 90.4469 19.4332C90.6418 19.4713 90.8439 19.434 91.0123 19.3289C91.2124 19.1898 91.2646 19.4419 91.3864 19.3289C91.5497 19.2179 91.7461 19.1658 91.9431 19.1811C92.091 19.1811 91.9431 18.9986 91.7343 18.9986C91.5255 18.9986 91.4994 18.8596 91.6908 18.5032C91.9065 18.2058 92.1712 17.9472 92.4737 17.7384C92.7085 17.5211 92.8738 17.6254 92.8738 17.4864C92.8738 17.3473 92.9782 16.9562 93.1522 16.9562C93.4456 16.9907 93.7431 16.958 94.022 16.8606C94.283 16.7042 94.2656 16.9823 94.37 17.0258C94.4744 17.0692 94.6396 16.7824 94.7614 16.8606C94.8832 16.9388 94.57 17.1561 94.5004 17.4082C94.4309 17.6602 94.6657 17.5646 94.8049 17.6341C94.9441 17.7036 94.6309 17.8079 94.657 17.8775C94.6831 17.947 94.9615 17.947 95.3094 17.5646C95.4084 17.4254 95.5386 17.3112 95.6896 17.2312C95.8407 17.1512 96.0084 17.1077 96.1793 17.104C96.3967 17.104 96.2749 16.8867 96.2923 16.5391C96.3097 16.1914 96.9882 16.0784 97.1622 16.1827C97.3362 16.287 97.371 16.3826 97.1622 16.3218C96.9534 16.2609 96.7534 16.4695 96.7621 16.765C96.7708 17.0605 96.5707 17.1474 96.6751 17.2604C96.7795 17.3734 96.5185 17.3995 96.5185 17.5211C96.5185 17.6428 96.5185 17.7384 96.3532 17.7906C96.188 17.8427 95.666 17.9036 95.6486 18.1295C95.6312 18.3555 95.3529 18.3816 95.2137 18.6597C95.0745 18.9378 94.57 19.1029 94.2308 19.6591C93.8915 20.2154 93.3609 20.2154 93.3609 20.3197C93.3609 20.4239 92.9869 20.4153 92.8564 20.4326C92.7259 20.45 92.9782 20.789 92.6737 21.1453C92.3579 21.5198 92.1853 21.994 92.1866 22.4837C92.2083 23.2581 92.3162 24.0277 92.5085 24.7782C92.6476 25.0302 92.5694 25.6473 92.6825 25.7776C92.7955 25.908 92.752 26.1253 92.8216 26.2035C92.8912 26.2817 93.187 25.8558 93.387 25.6733C93.5871 25.4908 93.5175 25.43 93.6567 25.3344C93.7959 25.2388 93.735 24.839 93.7698 24.7347C93.8046 24.6304 94.0568 24.5783 94.1351 24.4653C94.2134 24.3523 94.4221 24.4653 94.5352 24.3784C94.6483 24.2915 94.5352 24.0481 94.483 23.883C94.4308 23.7179 94.8049 23.4919 94.9962 23.3441C95.1876 23.1964 95.4225 23.4397 95.64 23.2225C95.8574 23.0052 95.6399 22.7531 95.5443 22.6402C95.4486 22.5272 95.7617 21.9796 95.927 21.9275C96.0923 21.8754 96.1793 22.0579 96.3358 21.9275C96.4924 21.7971 96.1966 21.5277 96.0836 21.5451C95.9705 21.5625 95.9357 21.1019 96.1966 20.8846C96.4576 20.6673 96.3532 20.6238 96.1966 20.5717C96.0401 20.5196 95.9879 20.5717 95.8574 20.5717C95.7269 20.5717 95.5877 20.2675 95.7878 19.9633C95.9879 19.6591 96.1967 19.6939 96.2402 19.4419C96.3432 19.1786 96.4806 18.9302 96.649 18.7031C96.7186 18.5728 97.0056 18.7031 97.1187 18.7031C97.2318 18.7031 97.1883 18.9378 97.3188 18.8074C97.4492 18.6771 97.6754 18.2425 97.8581 18.2425C98.0407 18.2425 97.919 18.5641 97.9711 18.7553C98.0233 18.9465 98.119 18.7031 98.467 18.4424C98.6704 18.3324 98.8944 18.2655 99.1249 18.2461C99.3555 18.2266 99.5875 18.255 99.8066 18.3294C100.033 18.4511 100.076 18.7379 100.207 18.7031C100.337 18.6684 100.207 18.4163 100.424 18.3555C100.71 18.2188 100.974 18.0401 101.207 17.8253C101.459 17.6254 101.39 17.7732 101.529 17.5907C101.668 17.4082 101.799 17.4864 101.833 17.3647C102.072 17.1323 102.375 16.9778 102.703 16.9215C103.199 16.7998 103.851 16.4434 103.817 16.3305C103.782 16.2175 104.008 16.1653 104.034 16.2783C104.06 16.3913 104.243 16.3478 104.504 16.4087C104.765 16.4695 104.886 16.5825 105.095 16.3565C105.304 16.1306 105.095 16.0523 105.095 15.8785C105.095 15.7047 104.739 15.5222 104.782 15.3397C104.826 15.1572 104.521 14.6705 104.425 14.7661C104.33 14.8617 104.104 14.6879 104.104 14.5488C104.104 14.4097 104.104 14.2446 103.938 14.3489C103.902 14.3739 103.862 14.391 103.819 14.3993C103.776 14.4076 103.732 14.4068 103.689 14.397C103.646 14.3872 103.606 14.3685 103.571 14.3423C103.536 14.316 103.507 14.2828 103.486 14.2446C103.443 14.0882 103.782 13.9752 104.017 14.0795C104.252 14.1838 104.182 14.2881 104.304 14.3663C104.4 14.4065 104.504 14.4271 104.608 14.4271C104.713 14.4271 104.816 14.4065 104.913 14.3663C105.078 14.2794 105.548 14.1142 105.626 13.9665C105.704 13.8188 105.626 13.7492 105.774 13.6623C105.922 13.5754 105.774 13.3929 105.678 13.3147C105.582 13.2365 105.582 13.0279 105.722 13.0279C105.861 13.0279 105.826 12.8454 105.922 12.8367C106.017 12.828 106.026 12.9149 106.2 12.8367C106.374 12.7584 106.2 12.9844 106.13 13.1495C106.061 13.3147 106.296 13.4537 106.322 13.5493C106.348 13.6449 106.687 13.6797 106.878 13.5493C107.037 13.5136 107.203 13.5231 107.357 13.5769C107.511 13.6306 107.646 13.7265 107.748 13.8535C107.772 13.9602 107.818 14.0605 107.884 14.1475C107.95 14.2345 108.035 14.3062 108.131 14.3576C108.383 14.4967 108.618 14.4358 108.662 14.5662C108.669 14.5964 108.682 14.6249 108.7 14.6499C108.719 14.6748 108.742 14.6957 108.769 14.7112C108.796 14.7267 108.826 14.7365 108.857 14.74C108.888 14.7434 108.919 14.7405 108.949 14.7313C109.088 14.7313 109.166 14.8704 109.271 14.7313C109.375 14.5923 109.427 14.7922 109.566 14.6618C109.705 14.5314 109.271 14.4445 109.323 14.3402C109.375 14.2359 109.471 14.4184 109.592 14.4098C109.714 14.4011 109.592 14.149 109.645 14.1229C109.697 14.0969 109.645 13.5754 109.566 13.5406C109.488 13.5059 109.497 13.306 109.679 13.4798ZM27.6174 67.4512C27.4783 67.6684 27.0868 66.9819 27.0346 66.5821C26.9824 66.1823 27.2608 65.9389 27.0955 65.5391C26.9303 65.1393 26.8694 64.8786 26.9737 64.7743C26.999 64.765 27.0268 64.765 27.052 64.7743C27.2347 64.7743 27.4435 65.5304 27.4348 65.965C27.4449 66.0342 27.4449 66.1044 27.4348 66.1736C27.3304 66.4691 27.6435 67.1296 27.6609 67.4077C27.6482 67.4214 27.6335 67.4331 27.6174 67.4425V67.4512ZM25.8777 74.6734C25.8732 74.7139 25.8732 74.7547 25.8777 74.7951C25.8827 74.7502 25.8945 74.7062 25.9125 74.6647L25.8777 74.6734ZM25.495 72.5093C25.495 72.5093 25.4515 72.5093 25.4167 72.5093H25.4776H25.495ZM26.4953 64.6961V64.7483V64.7917C26.4953 64.7917 26.591 64.7048 26.5736 64.6874L26.4953 64.6961ZM26.5823 64.8612C26.5871 64.8929 26.5871 64.9251 26.5823 64.9568C26.6153 64.9278 26.6419 64.8923 26.6606 64.8525L26.5823 64.8612ZM24.9905 63.7922C24.8687 63.575 24.7469 63.2795 24.599 63.1926C24.3312 62.5015 24.2472 61.7529 24.3555 61.0198C24.3555 61.0198 24.3555 61.0198 24.4077 61.0806C24.4697 61.279 24.5134 61.4827 24.5382 61.689C24.5769 62.0774 24.6891 62.4549 24.8687 62.8015C25.04 63.0246 25.14 63.2942 25.1558 63.575C25.2166 63.7575 25.4515 63.9661 25.2862 64.0443C25.121 64.1225 25.1644 63.9574 25.0688 63.7836L24.9905 63.7922ZM21.3719 52.8763C21.3744 52.8936 21.3744 52.9111 21.3719 52.9284C21.4031 52.9158 21.4302 52.8947 21.4502 52.8676L21.3719 52.8763ZM25.1819 60.4723C25.2253 60.4723 25.2601 60.4723 25.2601 60.394C25.2601 60.3158 25.3036 60.4114 25.2601 60.4114L25.1819 60.4723ZM23.4334 56.0138L23.2943 55.6487L23.4247 55.9877L23.4334 56.0138ZM17.7185 57.5086V57.4565C17.6978 57.4925 17.6803 57.5303 17.6663 57.5694L17.7185 57.5086ZM17.6576 57.6564C17.6535 57.6823 17.6535 57.7087 17.6576 57.7346C17.664 57.697 17.6789 57.6613 17.7011 57.6303L17.6576 57.6564ZM17.6576 57.8389C17.6535 57.856 17.6535 57.8739 17.6576 57.891C17.6579 57.8742 17.662 57.8577 17.6695 57.8427C17.6771 57.8276 17.6878 57.8145 17.7011 57.8041L17.6576 57.8389ZM17.3619 54.432C17.3234 54.3446 17.2914 54.2546 17.2662 54.1626C17.3039 54.2467 17.3475 54.328 17.3967 54.4059L17.3619 54.432ZM16.7269 51.2771C16.6966 51.2668 16.6716 51.2449 16.6573 51.2163C16.6573 51.2163 16.6573 51.2771 16.7617 51.2771H16.7269ZM22.2069 69.7108C22.2069 69.7108 22.2417 69.5544 22.2417 69.5718L22.2069 69.7108ZM17.4923 54.571V54.4841C17.5134 54.5376 17.5428 54.5875 17.5793 54.6319L17.4923 54.571ZM16.492 50.9121C16.4788 50.9045 16.4638 50.9005 16.4485 50.9005C16.4332 50.9005 16.4182 50.9045 16.405 50.9121H16.4833H16.492ZM24.4599 72.2747C24.4599 72.1704 24.4599 72.014 24.0771 72.0227C24.4251 72.0227 24.4599 72.1704 24.4599 72.2747ZM26.8694 65.1741C26.8694 65.2263 26.8694 65.2697 26.8694 65.2958C26.8694 65.3219 26.8085 65.2436 26.7998 65.1915L26.8694 65.1741ZM26.8085 65.0003C26.8111 65.0379 26.8111 65.0757 26.8085 65.1133C26.7876 65.0798 26.7644 65.0478 26.7389 65.0177L26.8085 65.0003ZM26.8085 60.1333C26.6519 60.2115 27.0259 60.4636 26.8085 60.4983C26.591 60.5331 26.2257 60.3158 25.9386 60.4462C25.6516 60.5765 25.782 60.0116 25.9386 59.5771C26.043 59.2729 26.1822 58.9948 26.3475 58.9426C26.5808 58.8778 26.8274 58.8778 27.0607 58.9426C27.2695 59.0035 27.4261 59.0904 27.4174 59.1599C27.4087 59.2294 27.0346 59.2381 27.0346 59.5336V59.5945C27.0355 59.7085 27.0051 59.8205 26.9469 59.9186C26.8886 60.0166 26.8047 60.0969 26.7041 60.1507L26.8085 60.1333ZM28.5482 50.269C28.5524 50.3152 28.5524 50.3618 28.5482 50.408C28.5069 50.362 28.4601 50.3212 28.409 50.2864L28.5482 50.269ZM17.7011 44.9066L17.2227 45.1934L16.7965 45.4455L17.7011 44.9066ZM11.1424 51.9985C11.1606 51.9842 11.1748 51.9655 11.1839 51.9443C11.193 51.923 11.1967 51.8998 11.1946 51.8768C11.1913 51.917 11.1726 51.9544 11.1424 51.9811V51.9985ZM9.62887 52.546H9.5245C9.5873 52.5619 9.65306 52.5619 9.71586 52.546H9.62887ZM7.59342 53.2326C7.63691 53.2761 7.6717 53.2848 7.6978 53.2761C7.6978 53.2761 7.62821 53.2587 7.59342 53.2152V53.2326ZM3.07017 51.5466C3.07592 51.4946 3.07592 51.4421 3.07017 51.3901C3.07272 51.4248 3.07272 51.4597 3.07017 51.4944V51.5466ZM2.57436 50.3993V50.3385C2.57433 50.3414 2.57433 50.3443 2.57436 50.3472V50.3993ZM2.48737 50.2342C2.48203 50.2172 2.48203 50.199 2.48737 50.1821V50.2342ZM9.15915 50.2516C9.11627 50.2619 9.07155 50.2619 9.02867 50.2516C9.07113 50.2293 9.10709 50.1963 9.13305 50.156L9.15915 50.2516ZM10.8206 51.816C10.7863 51.8072 10.7504 51.8072 10.7162 51.816C10.732 51.777 10.7593 51.7436 10.7945 51.7204L10.8206 51.816ZM1.7567 51.955C1.79363 51.9338 1.82148 51.8998 1.83498 51.8594C1.79275 51.85 1.75553 51.8253 1.73061 51.7899L1.7567 51.955ZM1.86979 51.7465C1.87386 51.7724 1.87386 51.7988 1.86979 51.8247C1.88648 51.7852 1.89285 51.7422 1.88829 51.6996C1.88372 51.6571 1.86837 51.6163 1.84369 51.5813L1.86979 51.7465ZM3.61819 54.4059C3.63124 54.3605 3.63124 54.3123 3.61819 54.2669C3.60804 54.2502 3.59931 54.2328 3.59209 54.2147L3.61819 54.4059ZM9.07217 52.52V52.5808C9.07887 52.5667 9.08468 52.5522 9.08957 52.5373L9.07217 52.52ZM15.4395 57.6998H15.3438L15.2046 57.7433L15.4395 57.6998ZM31.2273 52.0419C31.2611 52.0051 31.2904 51.9642 31.3143 51.9203C31.303 51.9563 31.2885 51.9912 31.2708 52.0246L31.2273 52.0419ZM71.1275 26.9509C71.1797 26.9509 71.2319 27.0031 71.2406 27.0378C71.2493 27.0726 71.1797 26.9335 71.1275 26.9075V26.9509ZM70.9361 26.9075C70.8814 26.8981 70.8255 26.8981 70.7709 26.9075C70.811 26.8806 70.855 26.8601 70.9013 26.8466L70.9361 26.9075ZM40.5348 30.0449C40.7087 29.7668 40.9436 29.9928 41.0306 30.0449C41.1176 30.0971 41.0306 29.7494 41.248 29.7668C41.4655 29.7842 41.248 30.1145 41.3785 30.1145C41.509 30.1145 41.7438 30.5403 41.6656 30.8793C41.6428 30.9829 41.5843 31.0752 41.5003 31.14C41.1089 31.4442 40.7261 31.392 40.8566 31.0183C40.9871 30.6446 40.9958 30.1492 40.7957 30.1492C40.5956 30.1492 40.7261 30.9488 40.5695 31.0183C40.413 31.0878 40.3782 30.436 40.4913 30.1058C40.4921 30.068 40.495 30.0303 40.5 29.9928L40.5348 30.0449ZM51.6254 29.3323C51.7385 29.3323 51.5123 29.6104 51.0687 29.6104C50.625 29.6104 49.6421 29.367 49.2507 29.8364C48.8592 30.3057 49.1376 30.549 48.9636 30.5838C48.7897 30.6185 48.6766 29.8711 48.9027 29.6278C49.1025 29.4945 49.3285 29.4055 49.5655 29.3665C49.8025 29.3275 50.0451 29.3396 50.2771 29.4018C50.7301 29.4122 51.1828 29.3685 51.6254 29.2714V29.3323ZM52.2604 32.5566C52.255 32.4814 52.255 32.4059 52.2604 32.3307C52.2361 32.3931 52.2158 32.4569 52.1995 32.5219L52.2604 32.5566ZM48.7375 35.9809C48.6679 35.9809 48.4852 36.0939 48.3112 36.259C48.4504 36.007 48.6331 35.8505 48.7027 35.894L48.7375 35.9809ZM49.1115 36.1634C49.1286 36.1683 49.1466 36.1683 49.1637 36.1634H49.1115ZM46.8151 33.0346C46.7484 33.0387 46.6833 33.0565 46.6237 33.0868C46.6632 33.0233 46.7168 32.9698 46.7803 32.9304L46.8151 33.0346ZM44.8666 35.9896C44.8011 36.0069 44.7321 36.0069 44.6666 35.9896C44.7296 35.9694 44.7864 35.9335 44.8318 35.8853L44.8666 35.9896ZM42.057 29.6104C41.9961 29.706 41.3698 29.5235 41.3176 29.3844C41.2654 29.2454 42.1788 29.4018 42.057 29.6104ZM45.4755 36.0939C45.4426 36.0677 45.4038 36.0498 45.3624 36.0418C45.3963 36.0469 45.4288 36.0588 45.4581 36.0765L45.4755 36.0939ZM45.7452 36.2329C45.7452 36.2329 45.7191 36.2243 45.7278 36.2243L45.7452 36.2329ZM51.4253 38.4665C51.4202 38.3942 51.4202 38.3216 51.4253 38.2493C51.416 38.3068 51.4102 38.3649 51.4079 38.4231L51.4253 38.4665ZM51.4688 38.1102C51.4734 38.1007 51.4758 38.0903 51.4758 38.0798C51.4758 38.0692 51.4734 38.0589 51.4688 38.0494C51.4641 38.0562 51.4582 38.062 51.4514 38.0668L51.4688 38.1102ZM52.4604 40.8044C52.4571 40.7891 52.4513 40.7744 52.443 40.761L52.4604 40.8044ZM56.5052 42.447C56.4831 42.5296 56.4831 42.6165 56.5052 42.6991C56.4689 42.6048 56.4628 42.5015 56.4879 42.4036L56.5052 42.447ZM56.3139 42.082C56.2943 42.1169 56.2637 42.1444 56.2269 42.1602C56.2603 42.1514 56.2904 42.1333 56.3139 42.1081V42.082ZM56.5227 42.6469C56.5338 42.6747 56.5484 42.701 56.5661 42.7252C56.5491 42.7101 56.5344 42.6925 56.5227 42.673V42.6469ZM56.5836 42.7425C56.6061 42.7505 56.6306 42.7505 56.6531 42.7425C56.6339 42.7595 56.6092 42.7687 56.5836 42.7686V42.7425ZM63.1683 45.654C63.1074 45.654 63.0466 45.654 63.0205 45.654C62.9944 45.654 63.1074 45.6975 63.1683 45.6801V45.654ZM63.3771 45.5063C63.3396 45.5583 63.2923 45.6026 63.2379 45.6367C63.2919 45.6133 63.3396 45.5776 63.3771 45.5324V45.5063ZM65.2212 24.8911C65.4387 24.3697 66.2476 24.1003 66.6477 23.405C66.9348 22.9096 67.1697 22.1535 67.3349 22.2056C67.3913 22.9489 67.1817 23.6882 66.7434 24.2915C66.2911 24.7347 65.3865 24.839 65.3865 25.204C65.3865 25.569 64.2991 25.7516 64.2034 25.5951C64.1078 25.4387 65.0124 25.4387 65.2212 24.9172V24.8911ZM38.7776 33.0781C38.7227 33.0485 38.6752 33.0069 38.6385 32.9564C38.6768 33.0185 38.7308 33.0695 38.795 33.1042L38.7776 33.0781ZM32.1494 33.2432C32.1329 33.2213 32.1184 33.1981 32.1059 33.1737L32.1494 33.2432ZM33.141 34.5469C33.1129 34.5346 33.0876 34.5166 33.0667 34.4942C33.0458 34.4718 33.0296 34.4454 33.0192 34.4165C33.0281 34.4519 33.0454 34.4846 33.0696 34.5118C33.0938 34.5391 33.1243 34.56 33.1584 34.573L33.141 34.5469ZM32.9844 34.3122C32.9882 34.2776 32.9882 34.2426 32.9844 34.2079C32.9961 34.2273 33.0037 34.2489 33.0067 34.2713C33.0097 34.2937 33.008 34.3165 33.0018 34.3383L32.9844 34.3122ZM33.8543 34.7207C33.7899 34.7443 33.7226 34.7589 33.6542 34.7642C33.7415 34.7737 33.8299 34.7678 33.9152 34.7468L33.8543 34.7207ZM33.228 33.3562C33.2564 33.4035 33.2714 33.4575 33.2715 33.5127C33.2867 33.471 33.2927 33.4265 33.2889 33.3823L33.228 33.3562ZM32.7844 34.1123C32.7844 34.1123 32.7322 34.1123 32.7061 34.1123C32.7061 34.1123 32.8192 34.1297 32.8453 34.1384L32.7844 34.1123ZM32.6452 34.1992C32.6452 34.1992 32.7235 34.2079 32.7235 34.2253L32.6452 34.1992ZM33.9587 34.6164C34.046 34.5665 34.1302 34.5113 34.2109 34.4513C34.1575 34.5328 34.0994 34.6111 34.0369 34.6859L33.9587 34.6164ZM33.602 32.548C33.5498 32.548 33.5063 32.4871 33.4802 32.4958C33.4541 32.5045 33.602 32.6001 33.6542 32.6001L33.602 32.548ZM23.6509 20.4326C23.671 20.4911 23.7037 20.5445 23.7466 20.5891C23.7039 20.5477 23.6711 20.4972 23.6509 20.4413V20.4326ZM19.9801 29.5843L20.0584 29.5235C20.0149 29.5235 19.9714 29.5756 19.9627 29.6104L19.9801 29.5843ZM21.5807 25.0302C21.5753 25.0764 21.5753 25.1231 21.5807 25.1693C21.5964 25.1449 21.6138 25.1216 21.6328 25.0997L21.5807 25.0302ZM21.5807 25.3344C21.5764 25.291 21.5764 25.2474 21.5807 25.204C21.6155 25.317 21.6241 25.3605 21.6241 25.4039L21.5807 25.3344ZM21.5807 25.4561C21.5807 25.4561 21.5807 25.4561 21.5807 25.4039C21.5807 25.3518 21.6415 25.5082 21.6415 25.5256L21.5807 25.4561ZM20.9805 31.027C20.9865 31.0072 20.9865 30.986 20.9805 30.9662C21.0042 30.9775 21.0232 30.9966 21.0343 31.0204C21.0455 31.0442 21.0479 31.0711 21.0413 31.0965L20.9805 31.027ZM20.9805 30.7141C20.9756 30.7604 20.9756 30.807 20.9805 30.8532C21.0019 30.8283 21.0252 30.8051 21.05 30.7837L20.9805 30.7141ZM21.1805 28.2546C21.1958 28.2416 21.2084 28.2257 21.2174 28.2078C21.2263 28.1899 21.2315 28.1703 21.2327 28.1503C21.2334 28.1706 21.229 28.1909 21.2199 28.2091C21.2108 28.2273 21.1973 28.2429 21.1805 28.2546ZM20.9022 27.7766C20.9122 27.831 20.9362 27.8819 20.9718 27.9243C20.945 27.8852 20.9271 27.8407 20.9196 27.794L20.9022 27.7766ZM21.1544 27.2899C21.1634 27.2953 21.1721 27.3011 21.1805 27.3073L21.1544 27.2899ZM21.1544 27.203C21.1491 27.1161 21.1491 27.0291 21.1544 26.9422C21.157 27.0354 21.1657 27.1283 21.1805 27.2203L21.1544 27.203ZM21.2327 28.1416C21.2234 28.1224 21.21 28.1055 21.1934 28.092C21.1769 28.0785 21.1577 28.0687 21.137 28.0634L21.0152 27.9765C21.0525 28.0242 21.1001 28.0628 21.1544 28.0894C21.2066 28.0894 21.2327 28.0894 21.2414 28.1503L21.2327 28.1416ZM23.3812 21.997C23.3403 22.0384 23.3052 22.0852 23.2769 22.1361C23.3095 22.0882 23.3508 22.047 23.3986 22.0144L23.3812 21.997ZM21.6415 23.5353C21.648 23.5202 21.6513 23.504 21.6513 23.4875C21.6513 23.4711 21.648 23.4549 21.6415 23.4397C21.6457 23.4539 21.6457 23.469 21.6415 23.4832C21.6528 23.4904 21.6609 23.5016 21.6641 23.5145C21.6673 23.5274 21.6655 23.5411 21.6589 23.5527L21.6415 23.5353ZM21.224 23.0313C21.224 22.953 21.224 22.8748 21.224 22.8314C21.224 22.7879 21.2327 22.927 21.224 23.04V23.0313ZM18.2839 28.0634C18.3212 28.1311 18.3649 28.1952 18.4144 28.2546C18.3864 28.2265 18.3629 28.1943 18.3448 28.159C18.3169 28.1227 18.2962 28.0814 18.2839 28.0373V28.0634ZM18.1795 27.8113C18.1795 27.8722 18.2317 27.9417 18.2578 28.0112C18.2241 27.9387 18.1979 27.863 18.1795 27.7853V27.8113ZM17.9186 29.3236L17.8142 29.4192L17.9273 29.3149L17.9186 29.3236ZM16.6747 27.7157C16.6747 27.7157 16.6747 27.7157 16.6747 27.6636V27.7157ZM17.2227 25.8819C17.2272 25.902 17.2272 25.9227 17.2227 25.9428C17.2437 25.9048 17.2584 25.8637 17.2662 25.8211C17.2474 25.838 17.2326 25.8587 17.2227 25.8819ZM17.6837 29.4887C17.6587 29.5101 17.6289 29.525 17.5967 29.5322C17.635 29.528 17.6712 29.5129 17.7011 29.4887H17.6837ZM19.4669 31.1052C19.4756 30.9576 19.4756 30.8096 19.4669 30.662C19.4669 30.8101 19.4582 30.9581 19.4408 31.1052H19.4669ZM19.3973 31.4268C19.3973 31.4268 19.3973 31.4268 19.4408 31.3486C19.4843 31.2704 19.3799 31.4268 19.3625 31.4268H19.3973ZM20.1019 32.4523L20.041 32.4089L20.128 32.4697L20.1019 32.4523ZM21.05 32.2872C21.0584 32.2296 21.0584 32.171 21.05 32.1134C21.05 32.1916 21.05 32.3567 21.05 32.4002C21.0492 32.3857 21.0492 32.3712 21.05 32.3567V32.2872ZM24.1902 30.0623L24.2511 29.9841C24.2248 30.0167 24.2015 30.0516 24.1815 30.0884L24.1902 30.0623ZM20.2759 9.77743H20.3281C20.4005 9.82843 20.4675 9.88667 20.5281 9.95124C20.4375 9.88541 20.3414 9.82727 20.2411 9.77743H20.2759ZM24.1728 21.6842C24.1728 21.6842 24.1728 21.7363 24.1728 21.745V21.6842ZM24.1206 21.4843C24.1088 21.4292 24.0882 21.3764 24.0597 21.3278C24.0762 21.3784 24.085 21.4311 24.0858 21.4843H24.1206ZM19.2408 27.09L19.1712 27.0204L19.119 26.9248C19.1389 26.9842 19.1683 27.04 19.206 27.09H19.2408ZM17.2749 25.7689C17.2929 25.7213 17.2929 25.6688 17.2749 25.6212C17.2814 25.673 17.2691 25.7255 17.2401 25.7689H17.2749ZM14.9263 29.0628H14.8654C14.8654 29.0628 14.8828 29.0455 14.9002 29.0628H14.9263ZM13.0213 29.9319C13.0128 29.9721 13.0128 30.0135 13.0213 30.0536C13 30.0074 12.991 29.9565 12.9952 29.9059L13.0213 29.9319ZM12.5342 25.8559C12.5378 25.776 12.5524 25.697 12.5777 25.6212C12.5367 25.6862 12.5045 25.7563 12.482 25.8298L12.5342 25.8559ZM12.6386 26.4468C12.6433 26.4756 12.6433 26.505 12.6386 26.5338C12.6437 26.4959 12.6407 26.4574 12.6299 26.4208L12.6386 26.4468ZM13.3431 28.1937C13.3383 28.2574 13.3383 28.3213 13.3431 28.3849C13.3398 28.3124 13.3427 28.2397 13.3518 28.1677L13.3431 28.1937ZM19.0233 31.9222C18.994 31.9766 18.9735 32.0352 18.9624 32.096C18.9638 32.029 18.9817 31.9633 19.0146 31.9048L19.0233 31.9222ZM23.1812 32.8434C23.1886 32.9186 23.1886 32.9943 23.1812 33.0694C23.1932 32.9742 23.1932 32.8778 23.1812 32.7826V32.8434ZM25.8951 24.7434C25.8951 24.8042 25.8951 24.8564 25.9386 24.8998C25.9821 24.9433 25.9125 24.7782 25.8951 24.6826V24.7434ZM27.861 39.9701C27.861 39.9701 27.861 40.0136 27.861 40.0396C27.861 40.0657 27.861 39.9353 27.861 39.9093V39.9701ZM27.861 39.7354C27.861 39.7354 27.861 39.6572 27.861 39.6225C27.861 39.5877 27.8871 39.6311 27.8871 39.6746L27.861 39.7354ZM27.861 39.4139C27.8544 39.3561 27.8544 39.2978 27.861 39.2401C27.8753 39.2791 27.8927 39.3169 27.9132 39.353L27.861 39.4139ZM37.7773 36.3459C37.4244 36.5426 37.0242 36.6388 36.6204 36.6241C36.1594 36.6241 36.1333 35.9896 35.6375 35.9896C35.4643 35.9708 35.3037 35.8901 35.1854 35.7623C35.0671 35.6345 34.9991 35.4683 34.9938 35.2943C34.98 35.1705 35.0142 35.046 35.0895 34.9467C35.2347 34.7763 35.3385 34.5747 35.3929 34.3576C35.4472 34.1405 35.4505 33.9138 35.4026 33.6952C35.2563 33.4602 35.0965 33.2339 34.9242 33.0173C34.652 32.7199 34.442 32.3713 34.3066 31.9917C34.3066 31.6962 34.4371 31.505 34.1065 31.2008C33.776 30.8967 34.1065 30.6794 34.3762 30.3317C34.6458 29.9841 35.0373 29.9059 35.3243 29.6973L35.42 29.6191C35.5631 29.4699 35.739 29.3561 35.9338 29.2867C36.1286 29.2173 36.3369 29.1942 36.5421 29.2193C36.9075 29.3236 37.2119 29.1498 37.3685 29.3931C37.5251 29.6364 37.3685 30.0884 37.4294 30.2622C37.4903 30.436 37.1423 30.4534 36.9075 30.4186C36.6726 30.3839 36.1768 30.5229 36.2464 30.6794C36.316 30.8358 36.4812 31.2008 36.1594 31.0096C35.8375 30.8184 35.7158 31.2008 35.8984 31.2008C35.997 31.213 36.0893 31.2556 36.1625 31.3225C36.2358 31.3895 36.2864 31.4776 36.3073 31.5746C36.3073 31.731 36.3073 32.0786 36.4812 32.0265C36.6552 31.9743 36.6378 32.2872 36.864 32.2698C37.0901 32.2524 37.2902 32.3394 37.1162 32.5653C36.9423 32.7913 37.2206 33.4344 37.2902 33.278C37.3598 33.1216 37.2902 32.9999 37.3511 32.8782C37.3375 32.8315 37.3382 32.7817 37.3532 32.7354C37.3682 32.6891 37.3967 32.6484 37.4351 32.6184C37.4735 32.5885 37.52 32.5707 37.5686 32.5675C37.6172 32.5642 37.6657 32.5756 37.7077 32.6001C38.0905 32.6001 37.9165 33.1216 38.1166 33.1389C38.3166 33.1563 38.5602 33.504 38.3775 33.4866C38.1948 33.4692 38.0296 33.6778 37.8382 33.6083C37.6468 33.5387 37.412 33.3649 37.3424 33.6083C37.2728 33.8516 37.2032 34.1123 37.4555 34.095C37.7077 34.0776 37.6642 34.2688 37.4555 34.46C37.2467 34.6512 37.7251 34.46 37.7512 34.599C37.7773 34.7381 37.9252 34.7902 37.8643 35.0683C37.838 35.3284 37.838 35.5905 37.8643 35.8505C37.8948 35.9611 37.8978 36.0775 37.873 36.1895L37.7773 36.3459ZM50.4076 37.7104C50.4076 37.7104 50.512 37.5453 50.5033 37.554L50.4076 37.7104ZM58.2798 46.1929C58.2783 46.2189 58.2783 46.245 58.2798 46.2711V46.1929ZM58.3146 46.1321C58.3146 46.1321 58.3667 46.0799 58.3928 46.0799C58.4189 46.0799 58.4363 45.9322 58.4102 45.9669L58.3146 46.1321ZM62.081 46.9838C62.0419 47.0005 62.0108 47.0316 61.994 47.0707C61.9747 47.0426 61.9645 47.0092 61.9649 46.9751C61.9654 46.941 61.9763 46.9079 61.9964 46.8802C62.0164 46.8526 62.0444 46.8319 62.0767 46.8209C62.109 46.8098 62.144 46.809 62.1767 46.8186L62.081 46.9838ZM66.0301 50.9469C66.0253 50.9756 66.0253 51.005 66.0301 51.0338C66.0216 50.9871 66.026 50.9389 66.0429 50.8945C66.0597 50.85 66.0884 50.8111 66.1258 50.7818L66.0301 50.9469Z" fill="#92E3A9"/>
</svg>
