<svg width="51" height="212" viewBox="0 0 51 212" fill="none" xmlns="http://www.w3.org/2000/svg">
<path d="M50.0224 106.637C50.0224 106.637 38.9328 137.649 34.49 162.514C31.7011 178.726 29.8095 195.079 28.8236 211.499H0.500687C0.500687 211.499 7.3992 158.327 7.15623 155.865C6.91326 153.402 12.5709 113.278 13.0655 108.362C13.5601 103.446 12.085 95.8082 8.87435 89.1584C5.66372 82.5086 1.23827 73.6479 2.22749 67.2495C2.79022 63.5034 3.61367 59.8011 4.69186 56.1694C4.69186 56.1694 5.6724 39.4365 4.93482 30.8186C4.19725 22.2008 3.19935 6.44755 3.19935 6.44755C3.19935 6.44755 10.3495 1.03753 17.248 0.54335C24.1465 0.0491657 30.0558 4.01131 30.0558 4.01131C30.0558 4.01131 31.045 27.6454 33.2578 34.7808C35.4705 41.9161 39.9133 54.7216 39.9133 54.7216C39.9133 54.7216 48.287 68.2639 49.0246 78.3557C49.7621 88.4475 46.3172 94.1089 47.0548 98.0451C47.7356 101.006 48.7305 103.886 50.0224 106.637Z" fill="#92E3A9" stroke="#263238" stroke-linecap="round" stroke-linejoin="round"/>
</svg>
