<svg width="9" height="9" viewBox="0 0 9 9" fill="none" xmlns="http://www.w3.org/2000/svg">
<path d="M8.46245 4.8308C8.39816 5.5989 8.11142 6.33169 7.63728 6.9397C7.16313 7.54771 6.52208 8.00463 5.79237 8.2547C5.06266 8.50477 4.27586 8.53715 3.52803 8.34791C2.7802 8.15866 2.10371 7.75598 1.58111 7.18901C1.05851 6.62203 0.712421 5.91531 0.585108 5.1551C0.457796 4.39489 0.554756 3.61409 0.864158 2.90802C1.17356 2.20195 1.682 1.60116 2.32744 1.17899C2.97288 0.756819 3.72738 0.531528 4.49883 0.530631C5.59507 0.576001 6.62841 1.05446 7.37167 1.86083C8.11493 2.66721 8.50727 3.73548 8.46245 4.8308Z" stroke="#263238" stroke-linecap="round" stroke-linejoin="round"/>
</svg>
