<svg width="20" height="20" viewBox="0 0 20 20" fill="none" xmlns="http://www.w3.org/2000/svg">
<path d="M18.6923 2.86293H16.1934C16.16 2.85134 16.1252 2.84382 16.09 2.84036H13.4293V0.633693C13.4295 0.46786 13.3645 0.30865 13.2486 0.19021C13.1326 0.0717809 12.9749 0.00345941 12.8092 0H6.51679C6.3487 0 6.18753 0.0666649 6.0688 0.185545C5.94992 0.304424 5.8831 0.465591 5.8831 0.633689V2.84035H3.23596C3.20075 2.84381 3.16599 2.85134 3.13258 2.86293H0.633678C0.407202 2.86293 0.198016 2.98361 0.0848721 3.17969C-0.0282907 3.37577 -0.0282907 3.61728 0.0848721 3.81337C0.198035 4.00944 0.407206 4.13028 0.633678 4.13028H2.66957L4.31464 19.4337C4.33224 19.5895 4.40658 19.7332 4.52351 19.8378C4.64028 19.9422 4.79151 19.9999 4.94831 20H14.3866C14.5417 19.9977 14.6907 19.9389 14.8058 19.8348C14.9208 19.7305 14.9938 19.588 15.0112 19.4337L16.6561 4.15262H18.6922C18.9187 4.15262 19.1278 4.03193 19.241 3.83585C19.3541 3.63977 19.3541 3.39811 19.241 3.20218C19.1278 3.0061 18.9187 2.88526 18.6922 2.88526L18.6923 2.86293ZM7.16414 1.26736H12.1618V2.84036H7.16414V1.26736ZM13.8114 18.7235H5.51456L3.94157 4.15277H15.3842L13.8114 18.7235Z" fill="#D64564"/>
<path d="M9.66443 17.2402C9.83252 17.2402 9.99369 17.1734 10.1126 17.0547C10.2315 16.9358 10.2981 16.7746 10.2981 16.6065V6.26953C10.2981 6.04306 10.1774 5.83387 9.98136 5.72073C9.78528 5.60741 9.54361 5.60741 9.34753 5.72073C9.15145 5.83389 9.03076 6.04306 9.03076 6.26953V16.6065C9.03076 16.7746 9.09743 16.9358 9.21631 17.0547C9.33519 17.1734 9.49635 17.2402 9.66445 17.2402H9.66443Z" fill="#D64564"/>
<path d="M7.16898 17.2361H7.19592C7.36326 17.2292 7.52096 17.1562 7.63474 17.0332C7.74835 16.9103 7.80885 16.7473 7.80268 16.58L7.4206 6.24297L7.42075 6.24282C7.41729 6.07353 7.34491 5.91281 7.22016 5.79814C7.09526 5.68362 6.92913 5.62509 6.76 5.63607C6.59266 5.64315 6.43496 5.71613 6.32133 5.83907C6.20757 5.96202 6.14723 6.12499 6.15324 6.29234L6.53532 16.6294C6.54329 16.7923 6.61342 16.9461 6.73139 17.059C6.84922 17.1717 7.00587 17.2352 7.16898 17.2361L7.16898 17.2361Z" fill="#D64564"/>
<path d="M12.1355 17.2352H12.1579C12.325 17.239 12.4867 17.177 12.6086 17.0628C12.7304 16.9484 12.8026 16.7908 12.8097 16.6239L13.1917 6.28692H13.1916C13.1978 6.11959 13.1373 5.95662 13.0237 5.83366C12.9099 5.71071 12.7522 5.63773 12.5848 5.63066C12.4137 5.61305 12.2431 5.66828 12.1147 5.78294C11.9864 5.89746 11.9123 6.06088 11.9107 6.23305L11.5241 16.5701H11.5242C11.5157 16.7397 11.5756 16.9056 11.6905 17.0307C11.8053 17.1557 11.9658 17.2295 12.1355 17.2352L12.1355 17.2352Z" fill="#D64564"/>
</svg>
