<svg width="51" height="110" viewBox="0 0 51 110" fill="none" xmlns="http://www.w3.org/2000/svg">
<path d="M45.9459 2.44601C45.9459 2.44601 39.9491 -3.12018 32.0402 4.58218C24.1313 12.2846 23.4707 24.4763 23.0449 30.468C22.619 36.4597 8.90445 28.3319 2.67293 40.1242C-3.55859 51.9166 5.2368 60.2268 8.87837 64.5078C12.5199 68.7888 11.2337 73.9208 6.74036 77.7764C2.24706 81.6319 -0.325501 88.4659 3.95052 94.0321C8.22654 99.5983 15.3011 99.8067 13.3717 103.654C11.4422 107.5 8.01795 105.156 8.01795 105.156C8.01795 105.156 10.8078 111.79 17.6564 107.292C24.505 102.794 24.505 94.8831 21.9411 90.7931C19.3772 86.7031 20.2029 80.9546 23.0101 80.1036C25.8173 79.2526 30.7191 75.3971 29.8587 69.6138C28.9983 63.8305 26.0085 53.5751 28.9896 48.0089C31.9706 42.4427 32.8397 34.9835 32.8397 34.9835C32.8397 34.9835 42.0436 31.7706 44.1903 29.2002C45.7329 27.1097 46.9598 24.8042 47.8319 22.3575C47.8319 22.3575 54.9412 12.2845 45.9459 2.44601Z" fill="#263238" stroke="#263238" stroke-miterlimit="10"/>
</svg>
