<svg width="20" height="20" viewBox="0 0 20 20" fill="none" xmlns="http://www.w3.org/2000/svg">
<g clip-path="url(#clip0_89_2810)">
<path d="M0 10.6304V9.3809C0.0121125 9.31777 0.0250922 9.25464 0.0346092 9.19151C0.106419 8.71628 0.14276 8.23315 0.255233 7.76845C1.00275 4.67857 2.79279 2.4129 5.60029 1.00124C7.45955 0.0665614 9.43994 -0.203496 11.4835 0.148981C14.0427 0.587385 16.1295 1.86928 17.7024 3.95871C19.3462 6.14635 19.983 8.63035 19.6335 11.3546C19.3879 13.3242 18.5485 15.1691 17.23 16.6374C15.7649 18.3302 13.7709 19.4621 11.5813 19.8439C11.217 19.9114 10.8476 19.9491 10.4799 19.9999H9.24701C9.00649 19.9692 8.76511 19.9438 8.52545 19.9122C6.59913 19.6508 4.79462 18.8093 3.34564 17.4966C1.66121 16.0102 0.533987 13.9806 0.154004 11.75C0.0882505 11.3774 0.0510454 11.0021 0 10.6304ZM9.85004 14.5471C11.5227 14.5471 13.1983 14.5471 14.8767 14.5471C15.7099 14.5471 16.2195 14.0289 16.2203 13.1854V6.82412C16.2203 5.98063 15.7099 5.46419 14.875 5.46419H4.86057C4.01442 5.46419 3.50743 5.97888 3.50743 6.83552C3.50743 8.93986 3.52214 11.0503 3.49965 13.1573C3.49099 13.9245 4.02567 14.5681 4.88393 14.5549C6.53728 14.5286 8.1941 14.5471 9.85004 14.5471Z" fill="white"/>
<path d="M9.85012 14.5472C8.19417 14.5472 6.53735 14.5288 4.8814 14.5551C4.02574 14.5683 3.49106 13.9247 3.49712 13.1575C3.51962 11.0531 3.50404 8.94266 3.5049 6.83569C3.5049 5.97904 4.0119 5.46436 4.85804 5.46436H14.8725C15.7074 5.46436 16.2169 5.9808 16.2178 6.82429V13.1855C16.2178 14.029 15.7074 14.5463 14.8742 14.5472C13.2004 14.5484 11.5257 14.5484 9.85012 14.5472ZM4.52842 7.02069V13.1382C4.52842 13.474 4.57426 13.5196 4.90822 13.5196H14.8076C15.1536 13.5196 15.1986 13.4775 15.1986 13.1303V7.02069C15.0758 7.11802 14.9919 7.18465 14.9088 7.25217L10.249 11.0005C9.97124 11.2241 9.7584 11.2241 9.48587 11.0058L6.25963 8.40955L4.52842 7.02069ZM14.1968 6.50688H5.5796C5.58479 6.56387 5.6194 6.57965 5.64795 6.60333C7.01147 7.69817 8.37325 8.79477 9.73331 9.89312C9.84665 9.98518 9.90635 9.95975 10.0093 9.87996C11.0677 9.0242 12.1278 8.17048 13.1897 7.3188L14.1968 6.50688Z" fill="white"/>
<path d="M4.52821 7.02051L6.25856 8.46023L9.4848 11.1468C9.75733 11.373 9.97017 11.3721 10.2479 11.1406C11.8017 9.8488 13.355 8.55638 14.9077 7.26338L15.1976 7.02402V13.337C15.1976 13.6965 15.1543 13.7395 14.8065 13.7395C11.5067 13.7395 8.20694 13.7395 4.90716 13.7395C4.5732 13.7395 4.52734 13.693 4.52734 13.3449V7.02051H4.52821Z" fill="black"/>
<path d="M14.1968 6.50513L13.1897 7.31705C12.129 8.17048 11.0689 9.0242 10.0093 9.87821C9.91067 9.958 9.84664 9.98343 9.7333 9.89136C8.37498 8.79067 7.01319 7.69408 5.64794 6.60158C5.61939 6.5779 5.58478 6.56212 5.57959 6.50513H14.1968Z" fill="black"/>
</g>
<defs>
<clipPath id="clip0_89_2810">
<rect width="19.726" height="20" fill="white"/>
</clipPath>
</defs>
</svg>
