<svg width="79" height="96" viewBox="0 0 79 96" fill="none" xmlns="http://www.w3.org/2000/svg">
<path d="M47.4578 0C49.4343 0.852498 50.1523 2.55499 50.0528 4.91498C49.9771 6.62498 50.0377 8.34248 50.0377 10.075C53.1431 9.36248 55.7943 12.0075 55.2796 15.905C58.2414 16.0635 61.162 16.7708 63.9297 18C69.8248 20.62 74.6732 24.7 77.2768 31.5849C80.1249 39.1099 79.0545 46.1374 74.431 52.2249C69.3793 58.8724 62.9306 62.7823 55.3488 64.1423C50.4226 65.0273 45.9008 63.9599 41.9585 60.3249C38.1849 56.8449 36.1759 52.1474 35.5163 46.7099C34.6059 39.1899 36.1261 32.2224 39.4716 25.7474C39.5667 25.5624 39.6489 25.3724 39.7678 25.1249L38.5547 24.2074C37.3177 25.9191 36.0771 27.6349 34.8329 29.3549C33.157 31.6799 31.5027 34.0274 29.7964 36.3249C29.2814 37.0074 29.0127 37.8925 29.046 38.7974C29.0612 55.1674 29.046 71.5473 29.072 87.9073C29.072 90.8448 28.2783 93.2473 26.1072 94.8548C25.4173 95.3548 24.5934 95.6248 23.83 95.9998H21.7129C20.2965 95.4998 18.9925 94.7698 17.9869 93.3548C16.9662 94.8173 15.6643 95.5023 14.2673 95.9998H12.1632C8.3831 94.7998 6.81526 91.6673 6.89528 87.0698C7.038 79.0698 6.93636 71.0698 6.93636 63.0699V61.9999C6.80831 62.0065 6.68098 62.0257 6.55576 62.0574C3.42009 63.4623 -0.0723845 60.6649 0.00114133 56.3849C0.104943 50.3599 0.0184426 44.3299 0.0292552 38.2999C0.0433902 34.9704 0.957903 31.7294 2.64473 29.0307C4.33156 26.332 6.70624 24.3107 9.43624 23.2499C10.0547 22.9999 10.6862 22.8249 11.3825 22.5874C9.85577 20.8624 8.81127 18.885 8.51501 16.545C8.32309 14.7499 8.25656 12.9399 8.31606 11.1325C8.37444 7.44499 9.7044 4.46499 12.2324 2.19999C13.5148 1.04999 15.0091 0.499999 16.5401 0L19.4531 0C19.5925 0.0782179 19.7371 0.143433 19.8856 0.195007C23.5013 1.1675 26.0077 3.6475 27.1776 7.72499C28.0275 10.6825 27.8523 13.7625 27.4306 16.795C27.1495 18.795 26.2369 20.4924 25.2011 22.1499C25.7272 21.8936 26.2025 21.5159 26.5981 21.0399C28.7447 18.12 30.869 15.1758 32.971 12.2075C33.0585 12.0695 33.1205 11.9122 33.1532 11.7453C33.186 11.5785 33.1887 11.4056 33.1613 11.2375C32.9988 10.6249 32.9649 9.9763 33.0623 9.3455C33.1597 8.71469 33.3856 8.11978 33.7214 7.60998C35.752 4.42999 38.36 2.16249 41.6125 0.947492C42.6764 0.549993 43.775 0.312499 44.8692 0L47.4578 0ZM37.9708 43.2274C38.0681 44.1824 38.12 45.7549 38.4033 47.2699C40.0403 56.1474 45.6629 62.2549 54.326 61.0574C61.3282 60.0874 67.3011 56.4049 72.1235 50.4224C74.392 47.6124 75.776 44.2599 75.9555 40.3499C76.215 34.7699 74.2039 30.2524 70.8217 26.5374C66.5659 21.8625 61.352 19.6524 55.5586 19.1199C53.9723 18.9386 52.3765 19.3336 50.9935 20.25C48.751 21.73 46.4068 22.9999 44.1188 24.4024C43.7155 24.6481 43.3611 24.9887 43.0787 25.4024C39.703 30.4699 38.1243 36.2499 37.9708 43.2274ZM12.7687 25.7049C7.14614 26.2974 2.84054 31.8299 2.80378 38.4974C2.7735 44.4324 2.80378 50.3699 2.80378 56.3074C2.80283 56.6814 2.84132 57.0541 2.9184 57.4174C3.03456 57.9329 3.29955 58.387 3.66948 58.7047C4.03941 59.0223 4.49209 59.1843 4.95255 59.1639C5.41301 59.1434 5.85362 58.9418 6.20142 58.5924C6.54922 58.2429 6.78334 57.7666 6.86501 57.2424C6.92163 56.8106 6.94694 56.374 6.94069 55.9374C6.94069 50.2207 6.94069 44.5024 6.94069 38.7824C6.94069 37.5324 7.47268 36.7824 8.32255 36.7824C9.17242 36.7824 9.71305 37.5574 9.72386 38.7824C9.72386 39.0324 9.72386 39.2824 9.72386 39.5324V87.8098C9.72386 88.1848 9.71305 88.5598 9.72386 88.9348C9.85794 91.4748 12.0637 93.3223 14.1333 92.6323C15.6319 92.1323 16.5618 90.6098 16.5639 88.5723C16.5639 80.6357 16.5639 72.6982 16.5639 64.7599C16.5496 64.3249 16.5926 63.8899 16.6915 63.4699C16.7865 63.1632 16.9614 62.8981 17.1922 62.7111C17.4229 62.5242 17.6981 62.4245 17.9799 62.4258C18.2617 62.4272 18.5361 62.5296 18.7655 62.7188C18.9949 62.908 19.1678 63.1748 19.2606 63.4824C19.3567 63.903 19.3989 64.3376 19.386 64.7723C19.386 72.5223 19.386 80.2723 19.386 88.0223C19.386 88.4598 19.386 88.8973 19.412 89.3323C19.585 91.5823 21.6026 93.2273 23.497 92.6673C25.2054 92.1673 26.2347 90.5548 26.2347 88.3598C26.2347 71.7998 26.2304 55.239 26.2218 38.6774C26.1876 37.0777 26.6746 35.5215 27.5863 34.3174C30.6722 30.0999 33.7149 25.8374 36.7662 21.585C36.9479 21.335 37.1815 21.0075 37.1815 20.7175C37.1815 19.185 37.7307 17.9675 38.6952 16.865L35.3563 14C35.0124 14.4675 34.7075 14.8675 34.4242 15.2725C32.5191 17.9075 30.6052 20.535 28.7108 23.1775C27.5301 24.8224 26.012 25.6024 24.1868 25.6499C23.8711 25.6499 23.5532 25.6499 23.3218 25.6499C22.3595 28.5924 22.0913 31.4449 22.6168 34.4549C23.0666 37.0474 23.2332 39.7049 23.5013 42.3399C23.6376 43.6799 23.1488 44.7074 22.2038 45.4499C21.3561 46.1124 20.5041 46.7724 19.6434 47.4149C18.5318 48.2499 17.416 48.2249 16.3131 47.3799C15.593 46.8274 14.8966 46.2299 14.1506 45.7274C12.7925 44.8074 12.3081 43.4774 12.5287 41.6999C12.8552 39.1074 13.1536 36.5099 13.4456 33.9124C13.5797 32.7074 13.8521 31.4749 13.7375 30.2949C13.5796 28.7499 13.1104 27.2674 12.7687 25.7049ZM24.9783 12.75H24.8399C24.8399 12.0325 24.8788 11.31 24.8399 10.5975C24.5869 6.59749 21.9789 3.61749 18.4345 3.2375C15.2643 2.9 12.0399 5.50499 11.3847 9.23748C11.056 11.1025 11.0971 13.0875 11.1684 15.0075C11.3349 18.815 14.0078 22.0074 17.15 22.3224C20.7419 22.6949 23.8235 20.285 24.6323 16.3625C24.8788 15.19 24.8724 13.9525 24.9783 12.75ZM47.2999 7.68998H47.2177C47.2177 6.56499 47.194 5.43999 47.2177 4.3175C47.2437 3.4475 46.9128 3.15749 46.1949 3.20249C42.0212 3.46749 38.6412 5.45249 36.0851 9.31248C35.6828 9.91748 35.7239 10.3125 36.2667 10.7725C37.867 12.095 39.4348 13.4775 41.0459 14.7725C41.1868 14.8565 41.342 14.9036 41.5005 14.9105C41.659 14.9174 41.8168 14.8839 41.9628 14.8125C43.5847 13.9025 45.1936 12.9525 46.7744 11.95C46.9133 11.8333 47.0291 11.6838 47.1141 11.5114C47.1992 11.339 47.2514 11.1476 47.2675 10.95C47.3388 9.87747 47.2999 8.77998 47.2999 7.68748V7.68998ZM18.0366 32.0349C17.7122 32.0349 17.3879 32.0624 17.0678 32.0349C16.5921 31.9849 16.419 32.1999 16.3671 32.7599C16.0384 35.8824 15.6622 39.0099 15.3356 42.1224C15.3321 42.2745 15.3571 42.4257 15.409 42.5655C15.4609 42.7054 15.5384 42.8305 15.6362 42.9324C17.9047 44.9199 17.9112 44.9099 20.2575 43.0549C20.3029 43.0199 20.3678 42.9974 20.3873 42.9474C20.4911 42.6974 20.6857 42.4474 20.6619 42.1974C20.3736 39.3824 20.068 36.5699 19.745 33.7599C19.5331 32.0324 19.5093 32.0349 18.0366 32.0349ZM52.5224 15.175C52.5592 13.565 51.532 12.8175 50.494 13.425C47.2559 15.3166 44.0295 17.2333 40.8145 19.175C40.0425 19.6375 39.8046 20.48 40.1376 21.2875C40.4707 22.095 41.2513 22.4475 42.0515 21.975C45.2953 20.0775 48.5174 18.165 51.7223 16.2025C52.118 15.9625 52.3624 15.3875 52.5224 15.175ZM15.6578 25.6824C15.8611 26.6474 16.0082 27.4999 16.2352 28.3224C16.2973 28.4413 16.3827 28.5418 16.4845 28.6156C16.5863 28.6894 16.7016 28.7346 16.8213 28.7474C17.5976 28.7974 18.3805 28.7924 19.159 28.7474C19.3579 28.7474 19.6823 28.5749 19.7255 28.4074C19.9548 27.5324 20.1105 26.6349 20.3029 25.6774L15.6578 25.6824Z" fill="#50AC97"/>
<path d="M61.3693 48.0949C61.5856 48.6124 61.8234 49.0949 62.0181 49.6149C62.3814 50.5449 62.1327 51.4624 61.4298 51.8649C61.2684 51.9662 61.0903 52.0273 60.9071 52.0441C60.724 52.0608 60.5398 52.033 60.3665 51.9623C60.1933 51.8916 60.0348 51.7796 59.9013 51.6337C59.7678 51.4877 59.6624 51.3109 59.5917 51.1149C59.1765 49.9349 58.5623 49.6149 57.4703 49.6549C55.4894 49.7224 53.9756 48.5649 52.9289 46.6299C52.3926 45.6299 52.5246 44.6799 53.2295 44.1599C53.9345 43.6399 54.6871 43.8724 55.2666 44.8924C55.9154 46.0374 56.8193 46.6599 57.9979 46.4699C59.1765 46.2799 60.0026 45.4549 60.3183 44.0674C60.4491 43.5376 60.4494 42.976 60.3191 42.446C60.1888 41.916 59.9331 41.4386 59.5809 41.0674C58.8651 40.2474 57.9849 39.9099 56.9859 40.2499C56.2657 40.4999 55.5759 40.8974 54.845 41.0574C53.7248 41.302 52.5666 41.1381 51.5305 40.5884C50.4944 40.0387 49.6317 39.1304 49.0617 37.9891C48.4918 36.8478 48.2427 35.5299 48.3489 34.2178C48.4552 32.9056 48.9116 31.6641 49.6549 30.6649C50.0593 30.1174 50.1415 29.7099 49.7825 29.1349C49.6178 28.8495 49.4883 28.5391 49.3976 28.2124C49.2756 27.8443 49.2775 27.4368 49.4028 27.0702C49.5281 26.7036 49.7678 26.4047 50.0744 26.2324C50.6799 25.8774 51.519 25.9974 51.7742 26.7324C52.2651 28.1449 53.0155 28.4824 54.3065 28.4599C56.123 28.4599 57.5719 29.6049 58.5623 31.4149C59.1354 32.4674 59.0121 33.4149 58.2596 33.9474C57.5395 34.4474 56.7977 34.1674 56.2182 33.1724C55.4569 31.8624 54.2914 31.3274 53.0717 31.7249C52.52 31.9341 52.0394 32.339 51.6981 32.8821C51.3569 33.4251 51.1724 34.0787 51.1708 34.7499C51.1708 36.1449 51.9126 37.4524 53.1171 37.7174C53.8741 37.8641 54.6514 37.7672 55.364 37.4374C58.7029 35.8649 62.2711 37.8799 63.0517 41.9374C63.4713 44.1224 62.9674 46.0749 61.6504 47.7324C61.5531 47.8424 61.4688 47.9624 61.3693 48.0949Z" fill="#50AC97"/>
</svg>
