<svg width="4" height="3" viewBox="0 0 4 3" fill="none" xmlns="http://www.w3.org/2000/svg">
<path d="M0.220981 2.10956C0.412933 2.00495 0.456552 1.9788 0.596154 2.03111C0.735756 2.08342 0.910258 1.87419 1.03241 1.74343C1.15456 1.61266 1.1022 2.21417 1.40758 2.21417C1.71296 2.21417 1.62572 1.58651 1.86129 1.76958C2.09687 1.95265 2.1754 1.69112 2.21903 1.50805C2.26265 1.32498 2.27138 1.01115 2.53313 0.958842C2.79488 0.906536 2.57676 1.24652 2.69891 1.4819C2.82106 1.71727 3.17006 1.4819 3.19623 1.35114C3.22241 1.22037 3.64995 1.29883 3.62377 1.11576C3.59759 0.932689 3.74592 0.880382 3.62377 0.671159C3.50162 0.461937 3.81572 0.514242 3.96405 0.357325C4.11238 0.200408 3.7721 0.357329 3.52779 0.0958011C3.28349 -0.165727 3.19623 0.174257 3.19623 0.331173C3.19623 0.48809 2.74254 0.331177 2.48078 0.252718C2.21903 0.17426 1.88747 0.592702 1.50356 0.801925C1.11966 1.01115 1.10221 1.37729 0.74448 1.35114C0.38675 1.32499 -0.128025 1.69112 0.0290271 1.76958C0.186079 1.84804 0.0290281 2.20546 0.220981 2.10956Z" fill="#92E3A9"/>
</svg>
