<svg width="22" height="19" viewBox="0 0 22 19" fill="none" xmlns="http://www.w3.org/2000/svg">
<path d="M21.9663 10.7956C22.0626 10.7169 21.9225 10.2971 21.835 10.367C21.7475 10.437 21.7562 9.71107 21.835 9.37871C21.9138 9.04636 21.835 9.0901 21.7037 9.26502C21.5724 9.43994 21.3798 8.93266 21.3448 8.80146C21.3098 8.67027 21.126 8.31168 20.9246 8.36416C20.7233 8.41664 20.8546 8.0493 20.662 8.08429C20.4694 8.11927 20.4344 7.78692 20.4694 7.47206C20.5044 7.1572 20.3381 7.40208 20.2506 7.27089C20.163 7.1397 20.0755 7.27089 19.9442 7.27089C19.8129 7.27089 19.7779 6.99977 19.8129 6.86858C19.8247 6.78408 19.812 6.69797 19.7764 6.62046C19.7407 6.54294 19.6835 6.47729 19.6116 6.43127C19.542 6.38599 19.4874 6.32111 19.4546 6.24483C19.4219 6.16855 19.4126 6.08429 19.4277 6.0027C19.4277 5.83653 18.4123 5.25929 18.1847 5.20682C17.9571 5.15434 18.1847 4.89195 18.0534 4.79575C17.9441 4.57343 17.8986 4.32515 17.9221 4.07856C17.9221 3.78993 17.5895 3.70247 17.5982 3.46633C17.607 3.23018 17.5019 3.00278 17.5282 2.7404C17.5545 2.47801 17.1781 2.4168 17.1693 2.26811C17.1605 2.11943 16.9592 2.26811 16.7491 2.26811C16.539 2.26811 16.5653 1.97948 16.5828 1.67337C16.6135 1.34235 16.5267 1.0111 16.3377 0.737538C16.1626 0.588854 16.1539 0.0903221 16.0751 0.0116069C15.9963 -0.0671083 15.7162 0.273991 15.7249 0.448914C15.7439 0.617382 15.6968 0.786637 15.5936 0.921199C15.4886 1.02615 15.6637 1.42848 15.5236 1.56842C15.3835 1.70836 15.5236 2.29435 15.4711 2.61795C15.476 2.91778 15.4194 3.21544 15.3048 3.49257C15.1647 3.71122 15.1385 4.06106 14.8496 4.1835C14.5607 4.30595 14.1843 4.05232 14.1931 3.8774C14.2018 3.70248 13.8867 3.60627 13.7203 3.63251C13.554 3.65875 13.449 3.39636 13.1864 3.1777C12.9237 2.95905 12.7224 3.23018 12.6436 2.96779C12.6177 2.87281 12.5724 2.78419 12.5107 2.70745C12.4489 2.63071 12.372 2.5675 12.2847 2.52174C12.0922 2.37306 12.1534 2.37306 12.3285 2.23312C12.3653 2.20421 12.3958 2.16824 12.4184 2.12733C12.441 2.08642 12.4552 2.0414 12.4601 1.99493C12.465 1.94846 12.4605 1.90149 12.4469 1.85678C12.4333 1.81206 12.4109 1.77052 12.381 1.7346C12.2847 1.55967 12.4861 1.6034 12.7224 1.45471C12.9588 1.30603 12.7224 1.1486 12.9063 1.06988C13.0901 0.991167 12.9763 0.816243 12.7837 0.781258C12.5911 0.746273 12.6524 0.991169 12.5824 1.01741C12.5124 1.04365 12.4336 0.685054 12.381 0.702546C12.3285 0.720038 12.0922 1.0524 11.9696 0.886221C11.8471 0.720044 11.1818 0.571357 10.9192 0.527626C10.6566 0.483895 10.569 0.125304 10.4202 0.186527C10.2714 0.24775 10.4202 0.370193 10.6215 0.580101C10.8229 0.790008 10.0263 0.938699 9.79869 0.859983C9.5711 0.781268 9.7987 1.04364 9.64113 1.02615C9.48357 1.00866 9.41353 1.37599 9.25597 1.55966C9.0984 1.74333 9.21221 1.87452 9.04589 1.99697C8.87957 2.11942 8.86206 2.24187 9.04589 2.49551C9.22972 2.74914 8.9496 2.75788 8.77453 2.55672C8.59945 2.35556 8.41563 2.36431 8.42438 2.55672C8.43314 2.74914 8.21429 2.67917 8.2493 2.42554C8.28432 2.1719 7.99545 2.29435 7.95168 2.15441C7.90791 2.01447 7.65404 1.76958 7.49647 1.78707C7.3389 1.80456 7.33892 1.97949 7.18135 1.97949C7.02379 1.97949 6.98877 2.07569 7.01503 2.25936C7.04129 2.44303 6.77867 2.25936 6.59484 2.25936C6.41102 2.25936 6.59486 2.513 6.50733 2.52174C6.41979 2.53049 6.41103 2.7229 6.25346 2.7229C6.0959 2.7229 6.12216 3.09899 6.14842 3.30015C6.17469 3.50131 5.9033 3.20394 5.74574 3.25642C5.58817 3.30889 5.78951 3.48382 5.83328 3.70248C5.87705 3.92113 5.74574 3.91238 5.66696 3.99984C5.58817 4.0873 5.44811 3.75495 5.44811 3.56254C5.44811 3.37012 5.24678 3.56253 5.03669 3.78993C4.8266 4.01733 5.10672 4.41966 5.03669 4.48963C4.74963 4.75563 4.48876 5.0485 4.25763 5.36424C4.00377 5.68785 3.4698 5.49543 3.30348 5.65286C3.13716 5.81029 2.95334 5.65286 2.78702 5.83652C2.6207 6.02019 2.30554 6.24761 2.27053 6.08143C2.23551 5.91525 1.8066 6.08142 1.63152 6.24759C1.4584 6.45517 1.22139 6.5997 0.957474 6.65866C0.75614 6.65866 0.756151 7.00851 0.668615 7.08723C0.581078 7.16594 0.616095 6.8161 0.616095 6.71989C0.616095 6.62369 0.423507 6.87732 0.335971 7.1572C0.248434 7.43708 0.537305 7.53328 0.335971 7.8219C0.134636 8.11052 -0.0141635 8.39915 0.239693 8.76649C0.49355 9.13382 0.633596 9.36996 0.554813 9.55363C0.47603 9.7373 0.283453 9.1863 0.230931 9.24753C0.178409 9.30875 0.458538 9.55364 0.379755 9.66734C0.300972 9.78104 0.0558488 9.22128 0.00332678 9.35248C-0.0491953 9.48367 0.537305 10.367 0.554813 10.6906C0.57232 11.0142 1.02752 11.3291 1.00126 11.8014C1.06347 12.2823 1.22759 12.7445 1.4827 13.1571C1.55273 13.2708 1.31639 13.5856 1.36016 13.9355C1.40393 14.2853 1.25511 14.4252 1.05378 14.4252C0.852444 14.4252 0.966245 14.7926 1.19384 14.8188C1.42144 14.8451 1.34264 15.0112 1.58774 15.1949C1.92208 15.3231 2.28331 15.3652 2.63819 15.3173C2.84828 15.3173 2.90955 14.9762 3.18092 14.9588C3.45228 14.9413 3.43477 14.8538 3.56608 14.6701C3.69738 14.4865 4.31891 14.5389 4.94917 14.5827C5.57944 14.6264 5.82454 14.4077 5.95584 14.1191C6.08715 13.8305 6.48982 13.8567 6.67365 13.6731C6.85748 13.4894 7.00627 13.4807 7.47021 13.5069C7.89454 13.4804 8.3061 13.3513 8.66949 13.1308C9.04207 13.0539 9.41926 13.0013 9.79869 12.9734C10.0876 12.8947 10.1401 13.3582 10.4552 13.3232C10.7704 13.2882 10.9279 13.4282 11.0942 13.4107C11.2606 13.3932 11.2343 13.5419 11.4006 13.5856C11.5669 13.6293 11.5494 13.778 11.4006 13.953C11.2518 14.1279 11.6545 14.1104 11.8821 14.4515C12.1097 14.7926 11.8821 14.8451 12.0134 15.1074C12.1447 15.3698 12.2147 15.2999 12.4598 14.9325C12.7049 14.5652 12.9588 14.8013 12.9938 14.4865C13.0288 14.1716 13.2827 13.8043 13.449 13.9617C13.6153 14.1191 13.3264 14.1978 13.2214 14.8363C13.1163 15.4748 12.9238 15.1249 12.8887 15.2999C12.8537 15.4748 13.3877 15.5622 13.3877 15.2474C13.3877 14.9325 13.484 14.7838 13.6853 15.0725C13.8867 15.3611 13.5715 15.5972 13.6153 15.7284C13.6591 15.8596 13.8867 15.7284 14.0092 15.7284C14.1318 15.7284 14.5082 16.2619 14.4644 16.5418C14.4206 16.8217 14.3419 17.0753 14.7533 17.3027C15.1647 17.5301 14.9984 17.5651 15.3048 17.5651C15.696 17.6121 16.0693 17.7564 16.3902 17.9849C16.5565 18.1336 16.9855 17.8625 17.073 17.5476C17.1605 17.2327 17.4669 17.5476 17.3006 17.6438C17.1343 17.74 17.3794 17.9937 17.3969 17.8275C17.4144 17.6613 17.4757 17.5126 17.5369 17.705C17.5982 17.8975 17.8083 17.9062 17.8958 18.0636C17.9834 18.2211 18.0709 18.3348 18.0709 18.2036C18.0687 18.1298 18.0918 18.0575 18.1364 17.9986C18.181 17.9397 18.2444 17.8979 18.316 17.88C18.5081 17.7737 18.6799 17.6346 18.8237 17.4689C19.181 17.319 19.5655 17.2445 19.953 17.2502C20.0607 16.8596 20.1195 16.4571 20.128 16.052C20.1806 15.6497 20.4869 15.5885 20.5395 15.1774C20.6239 14.715 20.8191 14.2799 21.1085 13.9092C21.1976 13.8813 21.2762 13.827 21.334 13.7537C21.3918 13.6803 21.426 13.5913 21.4323 13.4981C21.4323 13.2533 21.7212 12.9821 21.7212 12.676C21.7212 12.3699 21.8788 12.02 21.8525 11.9326C21.8126 11.8361 21.7973 11.7313 21.808 11.6275C21.8187 11.5237 21.855 11.4241 21.9138 11.3379C22.1239 11.1192 21.87 10.8743 21.9663 10.7956Z" fill="#92E3A9"/>
</svg>
