<svg width="10" height="6" viewBox="0 0 10 6" fill="none" xmlns="http://www.w3.org/2000/svg">
<path d="M9.21586 4.49102C9.36727 4.30414 9.97289 4.86476 9.99961 4.49102C10.0263 4.11727 9.31382 3.90369 9.02882 3.69012C8.74381 3.47655 8.61022 3.58334 8.13818 3.2096C7.66614 2.83585 8.26286 2.65788 7.92442 2.31973C7.75292 2.14246 7.63971 1.91709 7.59992 1.67378C7.56012 1.43046 7.59566 1.18081 7.70176 0.958222C7.94223 0.69126 8.20943 0.290817 7.77301 0.0683492C7.3366 -0.154119 6.633 0.228529 6.70425 0.335314C6.7755 0.442098 7.39004 0.815846 7.39004 0.976023C7.39004 1.1362 6.82894 0.522187 6.63299 0.655668C6.43705 0.789149 6.21439 0.388707 6.04517 0.655668C5.87595 0.92263 6.26783 1.85699 6.41033 2.12395C6.55284 2.39091 6.26784 2.39091 6.0719 2.44431C5.87596 2.4977 5.85814 1.69682 5.6622 1.40316C5.46626 1.1095 4.6825 0.762454 4.63797 0.976023C4.59344 1.18959 5.12782 1.18959 5.04766 1.48324C4.9675 1.7769 4.6825 1.29637 4.41531 1.53663C4.14812 1.7769 4.20156 1.61673 4.24609 1.37646C4.29062 1.1362 3.86311 0.869227 3.35545 0.922619C2.84778 0.976012 3.13278 1.34976 2.99028 1.48324C2.84778 1.61672 2.09964 1.40316 2.58058 1.29638C3.06153 1.18959 2.84778 0.895923 2.66965 0.602265C2.49152 0.308607 2.0373 0.65567 1.28916 0.949328C0.541021 1.24299 0.193676 1.56333 0.291646 1.59002C0.389616 1.61672 0.416333 1.75021 0.122422 2.01717C-0.171489 2.28413 0.122425 2.52439 0.389617 2.52439C0.656809 2.52439 0.389622 2.75577 0.603375 2.80916C0.817129 2.86255 1.65433 2.44431 1.8948 2.63119C2.13527 2.81806 0.46087 2.91594 0.46087 3.23629C0.46087 3.55665 1.35151 3.74352 2.06402 3.61004C2.77654 3.47656 3.93436 3.71682 3.93436 3.9037C3.93436 4.09057 3.13278 4.03717 2.52715 4.01048C1.92151 3.98378 0.870554 4.19736 0.923993 4.41093C0.977431 4.6245 1.03978 4.65119 1.68104 4.97154C2.3223 5.2919 2.96356 4.81137 2.94575 5.2652C2.92794 5.71904 3.28419 5.82583 4.1303 5.85252C4.97641 5.87922 5.3772 5.42538 5.78689 5.45208C5.94307 5.48752 6.10661 5.47003 6.25174 5.40236C6.39687 5.33469 6.51533 5.22069 6.58846 5.07834C6.7844 4.75798 6.95362 4.94486 7.00706 5.07834C7.0605 5.21182 7.58598 5.21181 7.71067 5.34529C8.0224 5.68344 9.04664 5.58555 9.43852 5.34529C9.8304 5.10502 9.26929 4.54441 9.07335 4.81137C8.87741 5.07833 8.70819 4.91816 8.65475 4.81137C8.60131 4.70459 9.07335 4.66899 9.21586 4.49102Z" fill="#92E3A9"/>
</svg>
