<svg width="2" height="7" viewBox="0 0 2 7" fill="none" xmlns="http://www.w3.org/2000/svg">
<path d="M0.175158 2.66052C0.318053 3.00317 -0.0153687 4.82113 0.175158 5.12571C0.365685 5.4303 -0.0534601 6.77235 0.0703822 6.93415C0.194225 7.09596 0.137061 6.57248 0.45143 6.51537C0.765799 6.45826 0.765798 6.89609 0.956324 6.99128C1.14685 7.08646 1.02299 6.38211 0.85152 6.42018C0.680046 6.45825 0.537167 5.96331 0.45143 5.65873C0.365693 5.35415 0.622897 4.99247 0.622897 4.61174C0.622897 4.23102 1.06112 4.25005 1.31833 4.5356C1.57554 4.82114 1.61363 4.63077 1.50884 4.42137C1.40405 4.21197 1.07062 2.69859 0.880098 2.14653C0.689571 1.59448 1.16591 1.06148 0.813435 0.775936C0.460961 0.490392 0.603833 -0.0997354 0.432359 0.0144822C0.260885 0.1287 0.43238 0.642676 0.156116 0.680749C-0.120148 0.718821 0.156111 1.00437 0.0322687 1.3851C-0.0399199 1.81524 0.00956526 2.25697 0.175158 2.66052Z" fill="#92E3A9"/>
</svg>
