<svg width="49" height="70" viewBox="0 0 49 70" fill="none" xmlns="http://www.w3.org/2000/svg">
<path d="M21.1255 0.551864C21.1255 0.551864 19.8393 8.27997 15.7112 13.4291C11.5831 18.5783 2.05798 23.5018 2.05798 23.5018C2.05798 23.5018 -0.262447 40 0.763062 47.7107C1.78857 55.4215 10.9486 68.4898 20.7518 69.0021C30.555 69.5144 34.7092 66.0498 38.9155 62.125C44.1299 57.3058 48.1972 46.9379 48.4753 43.5862C48.7534 40.2344 46.4156 36.8914 45.8681 31.7422C45.3206 26.593 48.7013 23.2499 43.2609 19.6464C37.8205 16.0428 29.8597 19.3859 27.5393 13.7244C25.2189 8.0629 25.2449 -0.220947 21.1255 0.551864Z" fill="#C7C7C7" stroke="#263238" stroke-linecap="round" stroke-linejoin="round"/>
</svg>
