<svg width="17" height="10" viewBox="0 0 17 10" fill="none" xmlns="http://www.w3.org/2000/svg">
<path d="M0.589729 2.28773C0.924948 2.04975 1.1896 2.20841 0.898489 2.36706C0.607378 2.52571 0.713236 2.63147 1.11903 2.60503C1.52482 2.57859 0.951416 2.73724 0.951416 3.00166C0.951416 3.26608 1.43661 3.10743 1.45425 3.37185C1.47189 3.63627 2.51283 3.74203 2.83041 3.42473C3.14799 3.10743 3.02449 3.50406 2.99802 3.71559C2.97156 3.92713 4.47122 4.11222 4.54179 3.8478C4.61237 3.58338 4.8329 3.68915 5.11519 3.76847C5.39748 3.8478 6.82657 3.47762 6.8795 3.16031C6.93243 2.84301 7.33822 3.31897 6.8795 3.66271C6.42078 4.00645 5.50334 3.95357 5.11519 4.08578C4.72704 4.21799 5.37983 4.53529 5.78562 4.87903C6.19141 5.22278 5.25633 5.03768 4.90347 4.58817C4.66142 4.40615 4.38508 4.27485 4.091 4.20215C3.79692 4.12945 3.49117 4.11685 3.1921 4.1651C2.73338 4.1651 2.87452 5.11701 3.1921 5.11701C3.50967 5.11701 3.87135 5.24922 4.20657 5.82213C4.54179 6.39503 5.26515 6.27164 5.26515 6.53605C5.26515 6.80047 4.33007 6.32452 3.80077 6.21875C3.27148 6.11298 2.42461 6.48318 2.39815 6.90625C2.37168 7.32932 3.17446 7.27643 3.70375 6.90625C4.23304 6.53606 3.84488 7.01201 3.58023 7.27643C3.31559 7.54085 4.20657 7.75238 4.20657 8.06969C4.20657 8.38699 3.55378 8.28122 3.48321 7.99036C3.41264 7.6995 3.17444 7.40864 2.54811 7.46152C1.92178 7.51441 2.0894 7.99036 2.46872 8.04324C2.84805 8.09612 2.88334 8.41343 2.46872 8.41343C2.05411 8.41343 1.05728 8.7131 1.35721 9.02159C1.65715 9.33008 2.92745 9.02159 3.12152 9.23312C3.3156 9.44466 3.94192 9.52398 4.08307 9.286C4.22421 9.04803 4.70939 9.1538 5.19458 9.1538C5.34483 9.12725 5.4994 9.1401 5.6432 9.19108C5.78699 9.24206 5.91509 9.32943 6.01499 9.44466C6.14721 9.53906 6.30892 9.58297 6.47078 9.56842C6.63264 9.55387 6.78392 9.48181 6.89715 9.36534C6.97162 9.28047 7.06686 9.21636 7.17355 9.17929C7.28024 9.14221 7.39473 9.13343 7.50584 9.1538C7.84105 9.1538 7.91162 8.91582 7.74401 8.62496C7.5764 8.3341 7.14415 8.8365 7.09122 8.62496C7.03829 8.41343 6.6325 8.28122 5.96206 8.38699C5.29163 8.49276 5.57392 7.91103 5.96206 8.04324C6.43426 8.15698 6.92867 8.13868 7.39115 7.99036C7.84105 7.85815 7.48819 7.62018 7.48819 7.40864C7.48819 7.19711 8.06159 7.32931 8.49384 7.32931C8.9261 7.32931 9.55243 6.5625 9.57889 6.11299C9.60536 5.66348 8.61734 5.76924 8.13216 5.76924C7.64697 5.76924 8.44974 5.37261 9.36718 5.43431C10.2846 5.49601 9.87001 5.03768 10.0376 4.87903C10.2052 4.72038 10.6375 5.06412 11.0962 4.95836C11.5549 4.85259 11.2462 4.42952 11.5549 4.42952C12.1652 4.17855 12.7405 3.8497 13.2663 3.45117C14.2543 2.84301 15.0306 2.94877 15.0747 2.56977C15.1188 2.19077 13.6986 2.56978 13.4604 2.46401C13.2222 2.35824 14.4484 2.06738 14.7395 2.14671C15.0306 2.22603 15.4099 2.14671 16.398 1.61787C17.386 1.08904 16.9537 0.956823 16.5391 1.03615C16.1245 1.11547 15.6569 0.956825 15.7011 0.665964C15.7452 0.375103 15.1012 0.66596 15.0747 0.489681C15.0483 0.313402 14.4749 0.410359 13.8485 0.665964C13.2222 0.921569 13.7956 0.410356 14.0602 0.304589C14.3249 0.198821 12.4724 0.304592 12.1548 0.0666148C11.8372 -0.171362 11.4843 0.46324 11.1932 0.145937C10.9021 -0.171365 10.1611 0.0930526 10.2582 0.331029C10.3552 0.569006 10.1347 0.560192 9.84354 0.331029C9.55243 0.101867 9.00549 0.331032 8.49384 0.278148C7.98219 0.225264 8.20274 0.718845 7.6558 0.46324C7.10886 0.207635 6.50017 0.331033 6.66778 0.410358C6.83539 0.489684 6.61486 0.639522 6.37668 0.56901C6.1385 0.498498 5.91795 0.56901 6.04145 0.851056C6.16496 1.1331 5.1593 0.771729 5.1593 1.06259C5.1593 1.35345 4.79761 1.5121 4.5065 1.24768C4.21539 0.983263 3.29795 0.903942 3.5626 1.14192C3.82725 1.3799 2.75101 1.24769 3.0333 1.48566C3.31559 1.72364 2.67162 1.90873 2.67162 1.77652C2.67162 1.64431 2.07175 1.40634 1.78946 1.64431C1.50717 1.88229 1.47189 2.17315 1.35721 2.0145C1.24253 1.85585 0.704421 1.90873 0.201592 2.12027C-0.301236 2.3318 0.25451 2.52571 0.589729 2.28773Z" fill="#92E3A9"/>
</svg>
