<svg width="46" height="124" viewBox="0 0 46 124" fill="none" xmlns="http://www.w3.org/2000/svg">
<path d="M40.6663 120.309C40.6663 120.309 41.4142 106.989 38.6922 96.3804C35.9703 85.7713 26.326 51.7283 26.326 49.5127C26.326 47.297 33.4831 42.3531 34.718 40.624C35.9529 38.8949 35.9529 35.4107 36.9443 32.7345C37.9356 30.0583 39.901 25.8269 43.11 23.6025C46.3189 21.3782 45.0927 19.1625 40.8924 20.6483C36.6921 22.1341 32.7439 27.7992 32.5004 28.7898C32.2569 29.7803 30.5177 29.2763 29.535 27.304C28.5523 25.3316 22.1257 5.10396 20.8908 4.11343C19.6559 3.1229 18.8124 4.11343 18.9863 5.24298C19.1602 6.37253 21.7257 18.9192 21.7257 19.1451C21.7257 19.3711 21.4561 19.4145 20.9256 19.4145C20.3951 19.4145 15.8991 2.12369 14.9251 1.16791C13.9511 0.212138 12.5423 0.377221 12.3684 1.08102C12.1945 1.78481 15.8469 18.5456 15.9861 19.5188C16.1252 20.4919 15.186 21.0219 14.8381 20.7526C14.4903 20.4832 9.18552 2.40173 8.48112 1.96728C7.77671 1.53284 6.18528 1.0984 5.87221 3.2011C5.55914 5.3038 10.9944 21.552 10.7335 22.3166C10.4726 23.0812 9.58555 23.1855 9.40293 22.7597C9.2203 22.334 2.44586 10.0566 1.89799 9.96972C1.35012 9.88283 0.0456714 9.78725 0.663112 11.8204C1.28055 13.8536 6.31573 27.9643 6.31573 27.9643C6.31573 27.9643 9.84645 43.3957 11.4379 45.8721C13.0293 48.3484 13.9076 49.6604 13.9076 49.6604C13.9076 49.6604 13.2467 98.7611 14.5425 107.624C15.3423 113.041 16.7034 118.362 18.6037 123.498C18.6037 123.498 31.5438 118.007 40.6663 120.309Z" fill="#C7C7C7" stroke="#263238" stroke-linecap="round" stroke-linejoin="round"/>
</svg>
