<svg width="3" height="4" viewBox="0 0 3 4" fill="none" xmlns="http://www.w3.org/2000/svg">
<path d="M0.620227 3.56332C1.02486 3.52673 1.40525 3.35463 1.6997 3.07493C2.0154 2.74933 2.18852 3.07493 2.47366 2.90195C2.75881 2.72898 2.58568 1.54867 2.47366 1.30447C2.46634 1.28851 2.46255 1.27116 2.46255 1.2536C2.46255 1.23604 2.46634 1.21868 2.47366 1.20272C2.47366 1.06027 2.79954 1.03993 2.9523 0.866957C3.10506 0.693982 2.86065 0.368373 2.60606 0.0936483C2.35146 -0.181076 2.06631 0.236097 1.8219 0.236097H1.74043C1.48584 0.124173 1.11923 0.124172 1.10904 0.378547C1.09886 0.632921 1.3942 0.541354 1.40438 0.704153C1.41456 0.866953 1.10905 0.826252 0.895192 0.989052C0.681334 1.15185 0.457282 0.877127 0.233239 0.989052C0.00919662 1.10098 0.467473 1.2536 0.304533 1.50797C0.141593 1.76234 0.304532 1.75218 0.589677 1.99638C0.874822 2.24058 0.426733 2.30162 0.426733 2.57635C0.426733 2.85107 0.0804816 2.8409 0.00919538 3.02405C-0.0620909 3.2072 0.294347 3.56332 0.620227 3.56332Z" fill="#92E3A9"/>
</svg>
