<svg width="59" height="12" viewBox="0 0 59 12" fill="none" xmlns="http://www.w3.org/2000/svg">
<path d="M56.0607 5.64977C56.0607 4.74577 55.7013 3.8788 55.0615 3.23957C54.4217 2.60034 53.554 2.24121 52.6492 2.24121H0.502153V0.502153H53.5891C54.8902 0.504451 56.1373 1.02188 57.0573 1.94109C57.9773 2.8603 58.4952 4.10635 58.4975 5.40631C58.4986 6.1066 58.3614 6.80024 58.0937 7.44745C57.826 8.09466 57.4331 8.6827 56.9375 9.17788C56.4419 9.67306 55.8533 10.0656 55.2056 10.3331C54.5578 10.6006 53.8635 10.7377 53.1627 10.7365H0.502153V8.99746H52.6492C53.5435 8.99761 54.4021 8.64685 55.0402 8.02073C55.6782 7.39461 56.0447 6.54319 56.0607 5.64977Z" fill="#92E3A9" stroke="#263238" stroke-linecap="round" stroke-linejoin="round"/>
</svg>
