<svg width="4" height="9" viewBox="0 0 4 9" fill="none" xmlns="http://www.w3.org/2000/svg">
<path d="M3.37366 0.107312C3.30172 -0.189189 3.24776 0.215127 3.17582 0.287006C3.10333 0.418402 3.07497 0.569568 3.09489 0.718275C3.09489 0.862032 2.89705 1.00579 2.77116 0.987823C2.64526 0.969853 2.42944 1.0597 2.49239 1.25737C2.55534 1.45504 2.39347 1.4191 2.49239 1.58083C2.59131 1.74255 2.31254 1.94022 2.07874 1.95819C1.84493 1.97616 1.55716 2.4254 1.31436 2.38946C1.07156 2.35352 0.819769 2.56916 0.61294 2.53322C0.40611 2.49728 0.541004 3.01839 0.379137 3.34185C0.314437 3.51769 0.286637 3.70495 0.297466 3.89198C0.308295 4.07901 0.357515 4.26181 0.442078 4.42902C0.554806 4.62251 0.603337 4.84667 0.580721 5.06941C0.558106 5.29214 0.465504 5.50201 0.316182 5.66894C0.15733 5.87221 0.0539449 6.11315 0.0161183 6.36826C-0.0217082 6.62337 0.00731132 6.88392 0.100355 7.12448C0.253229 7.48387 0.253238 8.02296 0.460067 8.27454C0.666897 8.52611 1.2604 8.73277 1.44026 8.53511C1.62011 8.33744 1.81795 8.5351 2.01578 8.30149C2.34406 7.47448 2.61155 6.62466 2.81612 5.75878C3.08442 4.98918 3.28895 4.19885 3.42763 3.39577C3.42763 3.14419 3.62546 2.98246 3.52655 2.71291C3.42763 2.44337 3.52653 2.11991 3.67042 2.33555C3.8143 2.55119 3.94919 2.55119 3.99415 2.26367C4.03911 1.97615 3.80531 1.52691 3.78732 1.11361C3.70386 0.758337 3.56421 0.418641 3.37366 0.107312Z" fill="#92E3A9"/>
</svg>
