<svg width="72" height="92" viewBox="0 0 72 92" fill="none" xmlns="http://www.w3.org/2000/svg">
<path d="M71.5702 58.1824C71.3345 58.1824 70.8806 58.1301 70.287 57.4236C70.1178 57.1748 69.8719 56.9881 69.5866 56.892C69.3013 56.796 68.9924 56.7958 68.707 56.8916C68.3141 57.005 67.9126 56.6822 67.6507 56.6125C67.3888 56.5427 67.1357 56.9177 66.9436 56.9962C66.7516 57.0747 67.0396 56.6822 67.0571 56.4293C67.0745 56.1764 66.3413 55.8362 65.7913 55.6007C65.2413 55.3652 65.0057 55.4786 65.0057 55.8624C65.0057 56.2461 64.7874 55.7403 64.6216 56.1415C64.4557 56.5427 64.1414 56.2898 64.3509 56.1415C64.5743 55.9703 64.7366 55.7317 64.8136 55.4612C64.8834 55.2169 64.0279 55.0163 63.7311 55.1472C63.4343 55.278 63.6177 55.749 63.382 55.6094C63.1463 55.4699 63.3383 55.1123 63.5216 55.121C63.7049 55.1297 63.9319 54.7023 64.0629 54.3883C64.1938 54.0744 63.8359 54.022 63.6176 53.7604C63.3994 53.4987 63.4518 52.7486 63.2336 52.6352C63.0066 52.5306 62.6661 51.9287 62.317 51.8502C62.1604 51.8105 62.0083 51.755 61.863 51.6845C61.6997 51.596 61.5163 51.5509 61.3305 51.5537C61.0424 51.5537 60.7456 51.7369 60.6409 51.5537C60.5361 51.3705 60.379 51.4141 60.2306 51.5537C60.2224 51.5576 60.2135 51.5596 60.2044 51.5596C60.1954 51.5596 60.1864 51.5576 60.1782 51.5537C60.0298 51.5537 59.8116 51.0653 59.6806 51.0653C59.6385 51.0637 59.5973 51.0529 59.5599 51.0337C59.5224 51.0144 59.4896 50.9872 59.4638 50.954C59.438 50.9207 59.4198 50.8822 59.4105 50.8411C59.4012 50.8001 59.4011 50.7575 59.41 50.7164C59.41 50.4896 59.0783 50.4634 58.8775 50.2192C58.8219 50.1582 58.7533 50.1106 58.6767 50.0797C58.426 50 58.162 49.9704 57.8998 49.9925C57.6903 49.9925 58.0308 49.7482 58.0395 49.5127C58.0482 49.2773 57.4633 49.2336 57.2451 49.1813C57.0269 49.129 57.0705 48.876 57.3149 48.8586C57.5594 48.8412 57.184 48.6667 56.861 48.719C56.4942 48.7922 56.1428 48.9279 55.8222 49.1203C55.5603 49.2773 55.1064 48.6667 54.8096 48.7975C54.5128 48.9284 54.0937 48.9196 54.1025 48.6667C54.1112 48.4138 53.989 48.1783 53.6922 48.2044C53.3954 48.2306 53.4652 47.8817 53.2382 47.8817C53.0113 47.8817 53.2383 48.1783 53.0811 48.2568C52.924 48.3353 52.3915 48.4835 52.3566 48.719C52.3216 48.9545 52.6359 49.3383 52.5312 49.5912C52.4264 49.8442 52.0685 49.6349 51.9637 49.3819C51.859 49.129 52.2693 48.7627 52.1994 48.6144C52.1281 48.4904 52.1034 48.345 52.1296 48.2044C52.1389 48.1753 52.156 48.1493 52.1791 48.1293C52.2022 48.1093 52.2304 48.0961 52.2605 48.0911C52.4962 48.0387 52.6184 47.873 52.3915 47.7247C52.1645 47.5765 52.0336 48.0038 51.7804 48.0387C51.5273 48.0736 51.4836 48.2481 51.3178 48.344C51.1519 48.4399 50.8376 48.344 50.8289 48.5097C50.8202 48.6754 50.7242 48.5097 50.5758 48.5097C50.4273 48.5097 50.0607 48.815 50.0782 49.0156C50.0956 49.2162 50.148 49.3906 49.8861 49.5738C49.67 49.7675 49.4897 49.9978 49.3536 50.2541C49.3364 50.2683 49.3148 50.2761 49.2925 50.2761C49.2702 50.2761 49.2486 50.2683 49.2314 50.2541C49.0928 50.1222 48.9803 49.9654 48.8997 49.7919C48.7076 49.4779 48.3584 49.504 48.1489 49.3994C47.9394 49.2947 47.6601 49.3994 47.3807 49.7133C47.1014 50.0273 46.7609 49.8267 46.5078 49.7133C46.4036 49.6354 46.3097 49.5446 46.2284 49.443C46.0364 49.2075 45.8181 48.9022 45.6959 48.719C45.6696 48.6771 45.6463 48.6334 45.6261 48.5882C45.5388 48.4225 45.6872 48.0823 45.7571 47.8294C45.8269 47.5765 45.6959 46.9572 45.8269 46.8264C45.9578 46.6955 45.888 46.5734 45.9491 46.2158V46.1548C45.9491 45.867 45.5999 45.9542 45.3468 45.6925C45.0936 45.4308 44.4738 45.5355 44.2032 45.6925C43.9326 45.8495 43.5397 45.5442 43.208 45.7536C43.0247 45.8669 42.9636 45.7536 42.9985 45.614C43.0179 45.499 43.0765 45.3943 43.1644 45.3175C43.3739 45.1343 43.0596 44.4016 43.3041 44.3319C43.3514 44.3227 43.3944 44.2982 43.4263 44.2621C43.5816 44.0234 43.6636 43.7444 43.662 43.4597C43.662 43.1108 43.5921 42.9887 43.758 42.7968C43.9238 42.6049 44.1072 42.5875 44.0548 42.3084C44.0024 42.0293 43.7842 42.3084 43.5921 42.1775C43.4001 42.0467 43.2342 42.1775 42.7192 42.1775C42.2041 42.1775 42.0033 42.4741 42.0295 42.8578C42.0557 43.2416 41.8637 43.0672 41.8724 43.3899C41.8811 43.7126 41.4883 43.7301 41.5145 43.9307C41.5407 44.1313 41.209 43.9307 41.1129 43.8609C40.6832 43.923 40.2597 44.0222 39.8472 44.1574C39.7075 44.1574 39.4456 43.8347 39.2361 43.8522C39.0266 43.8696 38.9567 43.5207 38.9306 43.2503C38.9044 42.98 38.5203 42.727 38.3544 42.4741C38.2028 42.113 38.1341 41.7226 38.1536 41.3315C38.1134 40.7754 38.1755 40.2167 38.337 39.683C38.3619 39.6038 38.3766 39.5218 38.3806 39.4388C38.3806 38.9678 37.9703 38.8893 38.2235 38.68C38.4766 38.4707 38.2235 38.2178 38.3544 38.1131C38.4854 38.0084 38.7472 37.9038 38.7472 37.7468C38.7472 37.5898 38.8782 37.5898 39.0702 37.6159C39.2623 37.6421 39.6202 37.2758 39.594 37.1362C39.5678 36.9967 39.594 36.9618 39.8559 37.0141C40.1178 37.0664 40.0479 36.735 40.1963 36.7873C40.3447 36.8397 40.4582 36.9269 40.467 36.7873C40.4757 36.6478 40.6241 36.7001 40.7288 36.8571C40.8336 37.0141 41.1479 37.049 41.174 36.8571C41.2002 36.6652 41.3748 36.8571 41.532 37.0316C41.6891 37.206 41.7502 37.1624 41.9772 37.1798C42.2041 37.1973 42.2041 37.1275 42.2216 36.9705C42.239 36.8135 42.466 37.3107 42.693 37.3368C42.9199 37.363 42.7454 37.1798 42.5795 37.0316C42.4136 36.8833 42.5795 36.8222 42.466 36.7088C42.3525 36.5955 42.6493 36.4385 42.9374 36.4472C43.2255 36.4559 43.208 36.5431 43.3128 36.36C43.4175 36.1768 43.531 36.36 43.531 36.517C43.531 36.674 43.9937 36.421 44.2468 36.421C44.3602 36.4271 44.4688 36.4681 44.5579 36.5384C44.647 36.6087 44.7122 36.7048 44.7444 36.8135C44.7444 36.9705 44.9365 37.049 45.1198 36.8746C45.3031 36.7001 45.4515 36.517 45.6174 36.7001C45.7832 36.8833 45.9491 37.1275 46.1499 37.3455C46.3507 37.5636 46.0538 37.8427 46.1499 38.0171C46.2459 38.1916 46.1499 38.4184 46.3768 38.6015C46.6038 38.7847 46.3768 39.1684 46.5864 39.2208C46.7959 39.2731 46.9355 39.5958 46.9617 39.7266C46.9879 39.8575 47.3371 40.0232 47.3633 39.8051C47.3895 39.5871 47.5815 39.3167 47.599 39.1161C47.5845 38.7015 47.4834 38.2945 47.3022 37.9212C47.145 37.6857 47.3022 37.6334 47.145 37.363C46.9442 37.0129 46.8417 36.6151 46.8482 36.2117C46.9411 35.7502 47.1619 35.3241 47.4855 34.9819C47.6863 34.79 47.9132 34.8947 47.9569 34.6853C48.0005 34.476 48.2537 34.2143 48.4021 34.2143C48.5505 34.2143 48.6989 34.2143 48.7251 34.0835C48.7513 33.9527 48.987 33.7085 49.2925 33.6561C49.598 33.6038 49.4234 33.4206 49.3449 33.2636C49.2663 33.1066 49.4147 32.9497 49.4758 33.0543C49.5369 33.159 49.7202 33.1677 49.8425 33.0543C49.9647 32.9409 50.2353 32.7142 49.9734 32.6967C49.7115 32.6793 49.6504 32.5659 49.8075 32.5048C49.9647 32.4438 49.8075 32.1298 49.6155 32.0949C49.4234 32.06 49.4758 31.9553 49.6155 31.8158C49.7552 31.6762 49.4235 31.432 49.2663 31.3186C49.1092 31.2052 49.3623 31.1355 49.4846 31.1093C49.6068 31.0831 49.4846 30.4813 49.5631 30.3331C49.6417 30.1848 49.825 30.1935 49.7464 30.3331C49.6679 30.4726 49.5369 30.7168 49.6941 30.9087C49.7717 31.007 49.8255 31.122 49.8513 31.2445C49.877 31.3671 49.874 31.494 49.8425 31.6152C49.7814 31.9204 49.8948 31.842 50.0782 31.4495C50.2615 31.057 50.2789 30.7168 50.1655 30.6732C50.052 30.6296 50.052 30.2458 50.1655 30.429C50.2789 30.6121 50.3488 30.6383 50.5496 30.429C50.7503 30.2197 50.9686 29.7836 50.8376 29.6963C50.7067 29.6091 50.8987 29.5132 51.1344 29.5306C51.4125 29.5226 51.6835 29.4414 51.9201 29.2951C52.0336 29.0335 51.0995 29.4085 51.0995 29.2951C51.0995 29.1817 51.6931 29.0073 51.9725 28.9899C52.2518 28.9724 52.1209 28.5712 52.2344 28.7456C52.263 28.7774 52.298 28.8028 52.3371 28.8202C52.3762 28.8376 52.4185 28.8466 52.4613 28.8466C52.5041 28.8466 52.5464 28.8376 52.5855 28.8202C52.6246 28.8028 52.6596 28.7774 52.6883 28.7456C52.8454 28.641 52.6883 28.3444 52.5486 28.2921C52.4089 28.2398 52.6796 28.1089 52.6185 27.9868C52.6095 27.8584 52.6376 27.7301 52.6995 27.6173C52.7614 27.5044 52.8545 27.4117 52.9676 27.3501C53.1946 27.2978 53.0811 27.1408 53.2732 27.1408C53.4652 27.1408 53.5001 26.8966 53.666 26.7134C53.8319 26.5303 54.0763 27.0012 54.3382 26.7134C54.4607 26.5899 54.5952 26.4788 54.7397 26.382C54.8996 26.2471 55.0924 26.1568 55.2984 26.1203C55.5167 26.1203 55.8397 25.8238 55.9357 25.6232C56.0317 25.4226 56.1626 25.8063 55.9357 25.8761C55.7087 25.9459 56.0928 26.0942 56.4245 26.0854C56.7563 26.0767 56.2674 26.2163 56.0142 26.1988C55.7611 26.1814 55.6563 26.1988 55.3246 26.5913C54.9929 26.9838 55.0802 27.0623 55.2635 27.2455C55.4468 27.4286 55.7087 27.3501 55.9706 27.1059C56.2325 26.8617 56.2237 26.6088 56.4856 26.6175C56.9124 26.547 57.3287 26.4239 57.7252 26.2512C58.022 26.1465 57.83 26.0942 57.83 25.9546C57.83 25.8151 58.3537 25.8063 58.5458 25.6668C58.7378 25.5272 58.5458 25.4051 58.345 25.4313C58.1442 25.4574 58.345 25.1696 58.345 25.0213C58.345 24.8731 57.9871 25.0911 57.9784 25.2568C57.9697 25.4226 57.7078 25.4923 57.7078 25.597C57.7078 25.9023 57.6641 25.7453 57.4808 25.8499C57.2975 25.9546 56.5467 25.8499 56.5206 25.6668C56.4944 25.4836 55.9619 25.3877 55.9357 25.1435C55.9095 24.8992 55.6563 24.812 55.8658 24.5416C56.0754 24.2712 55.8658 24.1404 55.6301 24.3498C55.3944 24.5591 55.3071 24.2276 55.6301 24.1143C55.9531 24.0009 56.4158 23.8788 56.1539 23.3554C55.892 22.8321 54.2421 23.5124 53.8231 23.7741C53.4041 24.0358 52.8803 24.8644 52.6621 24.8644C52.4439 24.8644 53.0549 24.4283 53.151 24.2538C53.247 24.0794 53.151 23.9136 53.2557 23.9834C53.3605 24.0532 53.7533 23.4165 54.0064 23.2072C54.2596 22.9978 54.5302 23.2072 54.5651 23.024C54.6001 22.8408 54.7223 22.7362 54.958 22.5007C55.1937 22.2652 58.0482 22.3088 58.3188 22.3262C58.7123 22.2368 59.058 22.0034 59.2878 21.6721C59.4362 21.4104 59.6457 21.4104 60.0211 21.4366C60.3965 21.4628 60.5885 21.079 60.7718 20.9395C60.9551 20.7999 60.894 20.7301 60.7718 20.6865C60.6496 20.6429 60.4488 20.5295 60.6147 20.5208C60.7806 20.5121 60.8679 20.3987 60.9377 20.1632C61.0075 19.9277 60.8766 20.0324 60.6496 19.7096C60.4226 19.3869 60.3092 19.8143 60.0822 19.7881C59.8552 19.762 60.2393 19.448 60.0822 19.3172C59.9251 19.1863 59.5322 19.3172 59.2092 19.5439C58.8863 19.7707 58.9474 19.5439 58.6942 19.7881C58.441 20.0324 58.4498 19.6573 58.5633 19.5527C58.6767 19.448 58.7728 19.5527 58.8775 19.4131C58.9823 19.2735 59.087 19.4131 59.3664 19.2125C59.6457 19.0119 59.8814 19.1078 59.96 18.9683C60.0386 18.8287 59.829 18.6281 59.5671 18.6892C59.3053 18.7502 59.1307 18.2967 58.9561 18.4275C58.7815 18.5583 58.8251 18.2356 58.6418 18.3665C58.4585 18.4973 58.3363 18.3665 58.2577 18.0786C58.0559 17.7386 57.7498 17.4725 57.3848 17.3198C57.0792 17.2151 57.28 17.032 57.4459 17.1628C57.6117 17.2936 57.8038 17.032 57.8736 16.9012C57.9435 16.7703 57.7514 16.6569 57.6554 16.6395C57.5594 16.622 57.5681 16.4563 57.5856 16.3255C57.603 16.1947 57.2538 16.029 57.2451 15.8981C57.2364 15.7673 57.0269 15.6714 57.0356 15.558C57.0443 15.4446 56.8348 15.2701 56.8348 15.1131C56.8348 14.9561 56.4769 14.6422 56.4682 14.459C56.4594 14.2758 56.2674 14.145 56.1976 13.9269C56.1277 13.7089 56.023 13.8048 55.9531 14.1188C55.8833 14.4328 55.6301 14.4241 55.7087 14.5288C55.7873 14.6334 55.7087 14.7468 55.6301 14.8777C55.5516 15.0085 55.7087 15.2004 55.5254 15.2004C55.3421 15.2004 55.4294 15.6103 55.3333 15.4271C55.2373 15.244 55.0103 15.2963 55.0103 15.4795C55.0103 15.6626 54.635 15.8283 54.4778 15.8196C54.3207 15.8109 54.3207 15.4533 54.1898 15.558C54.0588 15.6626 54.085 15.2527 53.8842 15.2701C53.6835 15.2876 53.5351 15.2701 53.5962 15.0608C53.6573 14.8515 53.247 14.773 53.3779 14.6596C53.5089 14.5462 53.3779 14.3282 53.3168 13.988C53.2557 13.6478 53.5001 13.6217 53.5001 13.4908C53.5001 13.36 53.3605 13.36 53.2121 13.4908C53.0637 13.6217 53.0724 13.3513 52.9153 13.36C52.7581 13.3687 52.2955 13.36 52.2693 13.1158C52.2431 12.8716 52.0947 12.9937 52.0248 12.7756C51.955 12.5576 51.763 12.7233 51.763 12.5663C51.763 12.4093 51.6757 12.3483 51.536 12.3308C51.3963 12.3134 51.3439 12.1477 51.1519 12.1215C50.9598 12.0953 50.7241 12.2698 50.6107 12.3221C50.4972 12.3744 50.2353 12.1389 50.1218 12.2262C50.0083 12.3134 49.9909 12.1651 49.6941 12.0692C49.3973 11.9732 49.0044 11.9558 48.9782 12.0692C48.9521 12.1826 48.7164 12.2262 48.7513 12.5053C48.7862 12.7844 49.0394 12.7233 49.1005 12.9065C49.1616 13.0896 48.9782 13.0199 48.9695 13.1943C48.9608 13.3687 48.8036 13.3513 48.8036 13.4647C48.8036 13.5781 48.9084 13.5606 48.9695 13.7961C49.0306 14.0316 49.1528 14.0142 49.1877 14.3282C49.2227 14.6422 49.0917 14.5811 48.9695 14.616C48.8473 14.6509 48.9695 14.8166 48.8124 15.0259C48.6553 15.2353 48.5069 15.4533 48.6378 15.5841C48.7687 15.715 49.2576 15.933 49.4496 16.2906C49.6099 16.7013 49.6493 17.1492 49.5631 17.5815C49.502 17.974 49.1005 18.0612 48.8036 18.4013C48.7125 18.5091 48.5966 18.5931 48.4659 18.6463C48.3351 18.6995 48.1934 18.7202 48.0529 18.7066C47.9132 18.7066 47.9918 19.0293 48.1926 19.2823C48.3934 19.5352 48.1926 19.605 48.341 19.8666C48.4894 20.1283 48.341 20.3376 48.4894 20.5731C48.6378 20.8086 48.5505 20.8958 48.3759 21.0703C48.2013 21.2447 48.4457 21.1488 48.4545 21.3668C48.4632 21.5849 48.3759 21.4628 48.2188 21.3668C48.0616 21.2709 47.922 21.5936 47.922 21.7332C47.922 21.8727 47.5553 21.5413 47.468 21.55C47.3807 21.5587 47.468 21.3319 47.276 21.1488C47.0839 20.9656 46.8919 20.922 46.8919 20.7388C46.8919 20.5557 46.5252 20.4248 46.5252 20.2155C46.5671 19.9263 46.5671 19.6325 46.5252 19.3433C46.4961 19.2658 46.4864 19.1823 46.497 19.1002C46.5077 19.0181 46.5384 18.9398 46.5864 18.8723C46.6562 18.7328 46.4991 18.506 46.2895 18.506C46.0202 18.4729 45.7491 18.4555 45.4777 18.4537C45.3818 18.4745 45.2826 18.4753 45.1864 18.4557C45.0902 18.4362 44.9992 18.3969 44.919 18.3403C44.704 18.1559 44.4505 18.0218 44.177 17.9478C44.0561 17.9214 43.9423 17.8697 43.843 17.796C43.7436 17.7223 43.6611 17.6284 43.6009 17.5204C43.6009 17.3983 43.1993 17.3111 43.112 17.189C42.9469 17.0654 42.7409 17.0093 42.5359 17.032C42.3874 17.032 42.0295 16.7093 41.82 16.718C41.5475 16.7896 41.2793 16.877 41.0169 16.9797C40.9383 16.9797 41.0169 16.7878 41.0867 16.6918C41.1566 16.5959 40.9122 16.2121 40.851 15.9505C40.7899 15.6888 40.7114 15.401 40.4582 15.4359C40.2479 15.4571 40.0369 15.4013 39.8646 15.2789C39.7939 14.913 39.7939 14.537 39.8646 14.1712C39.9257 13.8572 40.2313 13.3862 40.2313 13.1943C40.2313 13.0024 40.4408 12.9065 40.6154 12.8541C40.79 12.8018 40.6154 12.4268 40.8336 12.4006C41.0518 12.3744 41.0169 12.2959 41.0606 12.1389C41.1042 11.9819 41.305 12.0866 41.1915 11.9558C41.078 11.8249 41.1915 11.7813 41.4359 11.7813C41.6804 11.7813 42.1168 11.6767 42.0557 11.3801C41.9946 11.0836 41.2788 11.3016 41.2788 11.0487C41.2788 10.7958 40.4058 10.787 40.4058 10.6475C40.4058 10.5079 41.2788 10.7521 41.6192 10.883C41.8193 10.9815 42.0443 11.0179 42.2652 10.9876C42.5097 10.9876 42.3438 10.6213 42.3962 10.473C42.4486 10.3248 42.92 10.6998 43.1906 10.6213C43.4612 10.5428 43.7231 9.93227 43.95 9.74911C44.177 9.56595 43.95 9.4264 43.5397 9.46128C43.3685 9.47848 43.1955 9.45682 43.0338 9.39792C42.8721 9.33902 42.7257 9.24441 42.6057 9.12113C42.37 8.92924 42.3962 8.77225 42.6057 8.79842C42.8152 8.82458 43.4786 9.35661 43.6794 9.37406C43.8802 9.3915 44.2992 8.88563 44.4913 8.72864C44.6833 8.57164 44.3167 8.51059 44.177 8.38848C44.0373 8.26637 44.404 8.19659 44.596 8.19659C44.7881 8.19659 44.8754 8.37975 44.9452 8.46697C45.015 8.55419 45.3468 8.40591 45.5126 8.40591C45.6785 8.40591 45.5126 8.10065 45.2158 7.98726C44.919 7.87387 45.2158 7.64711 45.3118 7.83027C45.4079 8.01343 45.5912 7.96982 45.6872 8.17915C45.7832 8.38848 45.9054 8.28381 46.1499 8.17915C46.3442 8.08891 46.5124 7.95087 46.6387 7.77794C46.7697 7.62095 46.7959 7.77793 46.9443 7.55116C47.0927 7.32439 46.8744 7.07145 46.6824 6.91446C46.4903 6.75746 46.6824 6.60047 46.5078 6.49581C46.3332 6.39114 46.2808 6.19053 46.5078 6.24286C46.6084 6.27329 46.7164 6.26921 46.8145 6.23128C46.9125 6.19335 46.9951 6.12375 47.049 6.03354C47.1538 5.85038 46.6911 5.81548 46.9006 5.68465C47.1101 5.55382 46.9006 5.42299 46.726 5.42299C46.63 5.43539 46.533 5.40934 46.4561 5.35051C46.3792 5.29168 46.3288 5.20486 46.3157 5.109C46.3157 4.91711 45.9404 5.04795 45.7134 4.92584C45.4308 4.84048 45.1337 4.81377 44.8404 4.84735C44.7182 4.84735 44.7095 5.39683 44.8841 5.41427C45.0587 5.43172 45.2071 5.63233 45.05 5.69338C44.8928 5.75444 45.05 5.97248 44.9539 5.95503C44.8579 5.93759 44.6484 5.87654 44.6135 6.21669C44.5786 6.55685 44.5524 6.68769 44.3516 6.8098C44.1508 6.93191 44.2992 6.42602 44.1072 6.44346C43.9151 6.46091 43.8977 6.86212 44.0373 6.89701C44.177 6.9319 44.2032 7.07145 44.2381 7.26333C44.273 7.45522 43.9762 7.31567 43.8627 7.55116C43.7493 7.78666 43.7318 7.44649 43.5659 7.2895C43.3718 7.14019 43.2434 6.92121 43.208 6.67896C43.2057 6.64687 43.2096 6.61464 43.2198 6.5841C43.2299 6.55355 43.246 6.52531 43.2671 6.501C43.2882 6.47668 43.3139 6.45677 43.3427 6.44241C43.3715 6.42805 43.4029 6.41951 43.435 6.4173C43.5659 6.4173 43.435 6.2603 43.435 6.02481C43.435 5.78932 43.2691 5.86781 43.0771 5.61487C42.885 5.36194 42.6843 5.37066 42.5795 5.49277C42.4747 5.61487 42.5795 5.8242 42.3787 5.9027C42.1779 5.9812 42.2827 6.34753 42.1343 6.3737C41.9859 6.39986 42.0819 5.73698 41.9597 5.6672C41.8375 5.59743 41.8549 5.44915 42.0295 5.42299C42.2041 5.39682 42.3176 5.1875 42.1605 5.1875C41.9704 5.14117 41.7901 5.06143 41.628 4.95201C41.5145 4.89967 41.3399 5.17878 41.2177 5.07411C41.0955 4.96945 41.2177 4.70779 41.2177 4.55952C41.2177 4.41124 41.4097 4.62929 41.5232 4.44613C41.6367 4.26297 41.1915 4.26296 41.1915 4.06236C41.1915 3.86175 40.8336 3.81814 40.7201 3.74836C40.6066 3.67859 40.7987 3.35588 40.7201 3.22505C40.6415 3.09422 40.2225 2.66683 40.0305 2.71044C39.8384 2.75405 39.7948 2.43135 39.8995 2.44879C40.0043 2.46624 40.0916 2.37902 40.2924 2.1348C40.4931 1.89058 40.5193 1.80336 40.3797 1.75103C40.24 1.6987 40.1614 1.5417 40.3797 1.55915C40.5979 1.57659 41.0693 1.75103 41.209 1.63764C41.493 1.26836 41.7526 0.880846 41.9859 0.477611C42.1692 0.198507 41.8549 0.172338 41.4272 0.215949C40.9994 0.259559 40.9034 0.0327949 40.5542 0.00662884C40.1717 -0.0222741 39.7878 0.0436382 39.4369 0.198514C39.3408 0.320622 39.6115 0.425276 39.5765 0.556106C39.5416 0.686937 39.3234 0.460175 39.2274 0.512507C39.1313 0.564839 39.2274 0.739278 39.2274 1.19282C39.2011 1.31063 39.2066 1.43329 39.2434 1.54825C39.2802 1.6632 39.347 1.76631 39.4369 1.84697C39.5329 2.06003 39.5662 2.29601 39.5329 2.52729C39.5329 2.81512 39.2797 2.79767 39.1924 2.86745C39.1051 2.93722 39.4107 3.03316 39.3583 3.21632C39.3059 3.39948 39.0615 3.11166 38.9218 3.16399C38.8314 3.24033 38.7712 3.34637 38.752 3.46307C38.7328 3.57976 38.7559 3.69946 38.8171 3.80069C38.9655 3.94897 39.0266 3.9228 38.9131 4.08852C38.865 4.13028 38.8264 4.18187 38.8 4.2398C38.7736 4.29773 38.7599 4.36066 38.7599 4.42433C38.7599 4.488 38.7736 4.55092 38.8 4.60885C38.8264 4.66679 38.865 4.71837 38.9131 4.76012C39.1924 5.00434 39.7162 4.97817 39.9956 5.17877C40.2749 5.37938 39.8733 5.25728 39.9956 5.47533C40.1178 5.69338 39.821 5.77187 39.8297 5.94632C39.8384 6.12076 39.9519 6.02481 40.0916 5.73698C40.2313 5.44916 40.3447 5.81549 40.336 6.0597C40.3273 6.30392 40.1178 6.16436 39.9606 6.4173C39.9198 6.51582 39.8428 6.59506 39.7455 6.63882C39.6482 6.68259 39.5378 6.68758 39.4369 6.6528C39.2099 6.60046 39.3408 7.00168 39.4369 7.22845C39.5329 7.45522 39.4369 7.525 39.1575 7.4465C38.8782 7.368 38.7385 7.18484 38.8695 6.96679C39.0004 6.74874 39.0964 6.47836 38.9393 6.50452C38.7822 6.53069 38.4242 6.50452 38.3195 6.31264C38.2147 6.12075 38.3893 6.20797 38.7123 6.24286C39.0353 6.27775 38.756 6.00736 39.0004 6.00736C39.2448 6.00736 39.4194 6.15564 39.6202 5.95503C39.821 5.75443 39.4892 5.3881 39.3234 5.44915C39.1575 5.51021 38.8956 5.58871 38.8956 5.44915C38.8956 5.3096 39.175 5.39682 39.3321 5.35321C39.4892 5.3096 39.2448 5.08284 39.0091 5.14389C38.9093 5.19293 38.7956 5.20582 38.6873 5.18037C38.579 5.15492 38.483 5.09269 38.4155 5.00434C38.2235 4.77756 37.8743 4.64674 37.7957 5.16134C37.7171 5.67594 37.3767 5.39683 37.2458 5.56254C37.1148 5.72826 37.4029 5.85037 37.7259 5.85909C38.0489 5.86781 38.2846 6.19925 38.1274 6.19925C37.9703 6.19925 38.0489 6.45219 37.8743 6.35625C37.6997 6.26031 37.5426 6.35624 37.6648 6.51324C37.787 6.67024 37.6124 6.74001 37.6648 6.89701C37.7172 7.05401 37.4116 6.89701 37.1585 6.89701C36.8044 6.90135 36.4523 6.95118 36.1109 7.04528C35.9581 7.08503 35.7977 7.08506 35.6449 7.04536C35.4921 7.00567 35.352 6.92758 35.238 6.81852C35.0983 6.6528 34.9063 6.67896 34.6706 6.67896C34.4349 6.67896 34.5047 6.42602 34.1904 6.4173C33.8762 6.40858 33.9547 6.11203 33.9198 5.94632C33.8849 5.7806 33.2651 5.82421 33.0469 5.94632C32.8286 6.06842 32.3747 6.04226 32.2612 6.33009C32.1477 6.61791 32.366 6.5743 32.4969 6.5743C32.6278 6.5743 32.6627 6.3388 32.9945 6.39113C33.3262 6.44346 33.5706 6.01609 33.7103 6.17308C33.85 6.33008 33.1429 6.62663 32.8373 6.67896C32.5318 6.73129 32.6017 7.0104 32.8985 7.49011C33.1953 7.96982 32.7675 7.69944 32.7675 7.93493C32.7675 8.17043 32.2088 7.85644 32.4358 7.77794C32.6628 7.69944 32.5493 7.45522 32.3747 7.29823C32.2001 7.14123 32.0779 7.29823 32.0953 7.12379C32.1128 6.94935 31.912 7.12378 31.7374 6.99295C31.5628 6.86212 31.493 6.7313 31.266 6.86213C30.9478 6.97031 30.6155 7.03199 30.2796 7.04528C29.7503 7.16285 29.1981 7.12345 28.6908 6.93191C28.525 6.74874 29.1186 6.41731 29.3019 6.46964C29.4852 6.52197 29.3717 6.2603 29.0924 6.02481C28.813 5.78932 28.2194 5.64976 28.2194 5.78931C28.2194 5.92886 27.8702 5.78932 27.4338 5.71082C26.9973 5.63232 26.9274 5.44916 26.6394 5.44044C26.2566 5.42796 25.8885 5.29004 25.5918 5.04795C25.2601 4.76012 24.4745 4.83862 24.3784 5.10028C24.2824 5.36194 24.0205 5.35321 23.7586 5.35321C23.4968 5.35321 23.8809 5.03051 23.7586 4.96945C23.6364 4.9084 23.7586 4.54207 23.5753 4.51591C23.392 4.48974 23.2087 5.38811 22.8508 5.38811C22.4929 5.38811 22.3357 4.44612 22.0389 4.21063C21.7421 3.97514 21.4715 3.9577 21.7159 4.3153C21.9604 4.67291 21.5064 4.41997 21.5239 4.65546C21.5413 4.89096 21.1223 5.16133 21.131 5.0305C21.1398 4.89967 20.8954 4.76012 20.6073 5.12644C20.3192 5.49277 20.1184 5.44044 20.101 5.30961C20.0835 5.17878 19.228 5.64105 19.228 5.79804C19.228 5.95504 19.0971 6.07715 18.8701 6.0597C18.6431 6.04226 18.8701 5.84165 19.001 5.73698C19.3199 5.47819 19.6686 5.25856 20.0399 5.08283C20.3279 5.0305 20.9128 4.78629 20.9128 4.63801C20.9128 4.48974 20.6335 4.63801 20.4414 4.57695C20.2494 4.5159 19.9176 4.76885 19.5685 4.92584C19.2193 5.08284 18.8701 5.03051 18.9661 5.23983C19.0622 5.44916 18.6693 5.23983 18.5908 5.36194C18.5122 5.48405 18.3463 5.36194 18.4685 5.266C18.5908 5.17006 18.1805 5.04794 18.1805 5.13516C18.1805 5.22238 18.1106 5.34449 17.8226 5.34449C17.5345 5.34449 17.2551 5.56255 17.4385 5.71955C17.6218 5.87654 17.7527 5.95504 17.6567 6.0597C17.5607 6.16437 17.2639 5.78932 16.8449 5.82421C16.3631 5.77752 15.917 5.54998 15.5965 5.1875C15.5965 5.08284 15.0117 5.14389 14.6014 5.10028C14.5178 5.09464 14.4355 5.07702 14.3569 5.04795C14.0078 4.89968 13.484 4.63802 13.2221 4.70779C12.8895 4.78947 12.5421 4.78947 12.2095 4.70779C11.9436 4.56094 11.6338 4.51449 11.3365 4.57695C10.9437 4.64673 10.6905 4.34146 10.193 4.21063C9.73438 4.13381 9.26398 4.16975 8.82242 4.3153C8.65656 4.38508 8.69147 4.12342 8.47324 4.14958C8.255 4.17575 8.47324 4.04491 8.30738 3.84431C8.14152 3.6437 7.59155 3.84431 7.38204 3.84431C7.17254 3.84431 7.1027 3.7222 7.12016 3.60881C7.13762 3.49542 6.92811 3.53032 6.84082 3.68732C6.82168 3.72233 6.79502 3.75267 6.76275 3.77618C6.73049 3.79969 6.69343 3.81578 6.65421 3.82328C6.61499 3.83078 6.5746 3.82951 6.53593 3.81958C6.49725 3.80965 6.46126 3.79129 6.43053 3.76581C6.3345 3.66115 6.63131 3.61754 6.64004 3.50415C6.64877 3.39076 6.3345 3.32099 6.21229 3.27738C6.09008 3.23377 5.89803 3.40821 5.6536 3.66115C5.53217 3.75716 5.39048 3.82432 5.23925 3.85756C5.08802 3.89081 4.93119 3.88927 4.78065 3.85304C4.55368 3.85304 4.26561 3.85304 4.27434 4.02748C4.28306 4.20192 4.56241 4.15831 4.39655 4.34147C4.23069 4.52463 4.16958 4.08853 4.00372 4.28914C3.83786 4.48974 3.34028 4.47229 3.21806 4.44613C3.09585 4.41996 2.70302 4.89095 2.58954 5.02178C2.47605 5.15261 2.67683 5.26599 2.36257 5.64104C2.0483 6.01609 1.17535 5.94632 1.00076 5.94632C0.826172 5.94632 0.948389 6.16436 0.861094 6.31264C0.773798 6.46091 0.965848 6.58302 1.4547 6.73129C1.94356 6.87956 2.27528 7.60349 2.32765 7.75176C2.38003 7.90004 2.9911 7.75176 3.20061 7.75176C3.41012 7.75176 3.2006 8.15298 3.37519 8.25764C3.54979 8.36231 3.89024 8.20532 3.95135 8.38848C4.01245 8.57164 3.54105 8.38848 3.30536 8.58036C3.06966 8.77225 2.94745 8.86819 2.85142 8.72864C2.7554 8.58908 2.36257 8.67631 2.16179 8.72864C1.96101 8.78097 2.16179 8.44953 2.16179 8.3187C2.16179 8.18787 1.88244 8.10065 1.48961 8.3187C1.09679 8.53675 1.24519 8.4757 1.19281 8.67631C1.14044 8.87691 0.983306 8.5542 0.730149 8.72864C0.476993 8.90308 0.0754332 9.01647 0.00559698 9.18219C-0.0642392 9.3479 0.538096 9.47001 0.773793 9.52234C1.00949 9.57468 0.494449 9.7491 0.686499 9.81016C0.878549 9.87121 0.791253 10.0718 1.08806 10.2375C1.38486 10.4033 2.05704 10.2375 2.23163 10.2375C2.40622 10.2375 2.58081 10.473 2.72048 10.3073C2.86015 10.1416 3.40138 9.67061 3.672 9.941C3.94261 10.2114 3.37519 10.1765 3.5236 10.3422C3.672 10.5079 3.83786 10.9179 3.57598 11.1272C3.31409 11.3365 3.06966 11.197 2.92126 11.1795C2.77286 11.1621 2.86015 11.4673 2.63319 11.668C2.40622 11.8686 2.24035 11.4586 1.96101 11.4586C1.68166 11.4586 1.73404 11.8598 1.74277 12.0604C1.7515 12.261 1.31502 12.0604 1.21027 12.4878C1.10551 12.9152 0.642854 12.5576 0.948387 13.0111C1.25392 13.4647 1.19281 13.1769 1.43724 13.36C1.68167 13.5432 1.17535 13.8746 1.43724 13.9269C1.69912 13.9793 1.93482 14.4503 2.10068 14.616C2.26655 14.7817 2.48478 14.5288 2.73794 14.5113C2.99109 14.4939 2.86888 14.1188 3.00856 14.2671C3.14823 14.4154 3.35774 14.8253 3.22679 14.93C3.09585 15.0347 3.22679 15.3574 3.17441 15.5144C3.12204 15.6714 3.72438 15.619 3.7593 15.4359C3.79421 15.2527 4.24815 15.2004 4.5013 15.5056C4.75446 15.8109 4.83302 15.8545 4.83302 15.619C4.83302 15.3835 5.05126 15.1219 5.05999 15.3225C5.06872 15.5231 5.27823 15.5667 5.64487 15.3835C6.01151 15.2004 5.84565 15.3835 5.64487 15.6626C5.44409 15.9417 5.64487 16.5348 5.45282 16.6046C5.26077 16.6744 5.11237 17.189 4.7981 17.2326C4.48384 17.2762 3.92515 17.9042 3.92515 18.0089C3.92515 18.1135 3.18314 17.7995 3.0522 18.1048C2.92126 18.4101 2.55462 18.6281 2.65937 18.7415C2.76413 18.8549 3.27917 18.5235 3.30536 18.3665C3.33155 18.2095 3.40138 18.2356 3.48868 18.3665C3.57597 18.4973 3.82913 18.3141 3.93388 18.2095C4.03864 18.1048 4.22196 18.1484 4.32671 18.1571C4.43146 18.1658 4.48384 18.0176 4.80684 17.9478C5.12983 17.878 5.05127 17.7821 5.12983 17.5989C5.40568 17.3289 5.73603 17.1207 6.09881 16.9884C6.24721 16.9884 6.15992 16.6831 6.31705 16.6744C6.60147 16.6291 6.86754 16.5052 7.08524 16.3168C7.29475 16.1336 7.3384 16.2121 7.49553 16.1511C7.65266 16.09 7.49553 15.7411 7.68758 15.715C7.75957 15.7033 7.8255 15.6677 7.87463 15.6138C7.92377 15.56 7.95322 15.4911 7.9582 15.4184C7.9582 15.2701 7.56537 15.2701 7.53045 15.1829C7.49553 15.0957 7.83598 14.7555 7.96693 14.7643C8.05845 14.7584 8.14484 14.72 8.21048 14.656C8.27612 14.592 8.31669 14.5067 8.32483 14.4154C8.32483 14.2061 8.53435 14.1625 8.68275 13.9793C8.83115 13.7961 8.80496 13.6391 8.96209 13.6304C9.11922 13.6217 9.2589 13.3775 9.42476 13.2728C9.59062 13.1681 9.42476 13.4036 9.74775 13.4211C10.0707 13.4385 10.0009 13.7612 9.74775 13.6391C9.4946 13.517 9.4073 13.5345 9.18906 13.7612C8.97082 13.988 9.14542 14.0491 8.97082 14.2933C8.79623 14.5375 8.79623 14.7032 8.97082 14.7294C9.14542 14.7555 8.97082 14.9213 8.77877 14.991C8.58672 15.0608 8.71767 15.1829 8.98828 15.1829C9.2589 15.1829 9.66918 14.7555 10.0533 14.5462C10.4374 14.3369 10.7167 14.5462 10.8302 14.5026C10.9437 14.459 10.708 14.2671 10.8302 14.2061C10.9524 14.145 10.6731 14.1014 10.5945 13.8485C10.5159 13.5955 10.7255 13.7612 10.7691 13.5606C10.8128 13.36 10.9524 13.4472 11.0659 13.5606C11.1794 13.674 11.354 13.4734 11.4587 13.7176C11.5635 13.9618 11.6857 13.6566 11.8778 13.8223C12.0698 13.988 11.8778 13.9706 11.6421 14.0229C11.4064 14.0752 11.546 14.3718 11.7032 14.2322C11.8603 14.0927 11.9825 13.9967 12.1309 14.1363C12.2793 14.2758 12.3317 14.2148 12.4539 14.084C12.5761 13.9531 12.5674 14.084 12.5674 14.2061C12.5674 14.3282 12.8205 14.3456 13.1785 14.4154C13.5688 14.4446 13.9611 14.4299 14.3482 14.3718C14.5141 14.3718 14.453 14.6509 14.8196 14.7294C15.1862 14.8079 15.291 14.3194 15.4743 14.4939C15.6576 14.6683 15.4743 14.7294 15.3696 14.8602C15.2648 14.991 15.4918 14.9998 15.6314 15.0695C15.8626 15.1396 16.0787 15.2519 16.2687 15.401C16.4285 15.6386 16.6443 15.8333 16.8972 15.9679C17.2813 16.1772 16.8972 15.4446 17.2028 15.6801C17.5083 15.9156 17.3948 15.6801 17.6392 15.9243C17.8837 16.1685 17.7876 15.8196 17.6392 15.4271C17.4908 15.0346 17.744 15.2963 17.8575 15.4795C17.946 15.7307 17.946 16.0045 17.8575 16.2557C17.7876 16.4912 17.4297 16.2557 17.4646 16.1598C17.4996 16.0639 17.1067 16.0813 17.0893 16.2645C17.1085 16.3903 17.1595 16.5091 17.2374 16.6098C17.3152 16.7105 17.4175 16.7898 17.5345 16.8401C17.7265 16.8837 17.5345 17.2064 17.7004 17.25C17.8662 17.2937 17.8575 17.6425 17.9535 17.5902C18.0495 17.5379 18.0059 17.1279 17.9011 16.9448C17.7964 16.7616 17.84 16.4999 17.9884 16.5523C18.1368 16.6046 17.9884 16.8837 18.0583 16.9709C18.1281 17.0582 18.2154 16.8837 18.3813 16.779C18.5471 16.6744 18.3114 16.3691 18.3813 16.2121C18.4511 16.0551 18.6344 16.343 18.7042 16.6221C18.7741 16.9012 18.5297 16.8837 18.5297 17.0233C18.5297 17.1628 18.3027 17.1018 18.2328 17.1803C18.163 17.2588 18.2328 17.7821 18.294 17.7908C18.3551 17.7995 18.4424 17.3634 18.5035 17.5902C18.5646 17.817 18.7915 17.3024 18.8526 17.5117C18.9138 17.721 19.1931 17.9478 19.3066 17.8955C19.4201 17.8431 19.2542 17.6251 19.0883 17.6164C18.9225 17.6076 18.9487 17.3024 19.0883 17.2849C19.228 17.2675 19.5248 17.7123 19.5074 17.8693C19.4899 18.0263 19.3677 18.0176 19.2367 18.1746C19.1058 18.3316 18.9225 17.9129 18.7741 17.9216C18.6257 17.9304 18.7741 18.2007 18.8439 18.3839C18.9138 18.5671 18.6519 18.8113 18.8439 18.9595C19.036 19.1078 18.9836 18.8636 19.0272 18.7589C19.0709 18.6543 19.2106 18.7589 19.324 18.8811C19.4375 19.0032 19.4375 18.6717 19.4375 18.5496C19.4375 18.4275 19.6208 18.4973 19.7169 18.6543C19.8129 18.8113 19.8216 18.4886 19.9613 18.5147C20.101 18.5409 20.0137 18.7851 20.0137 18.9334C20.0137 19.0817 20.2668 18.8113 20.2406 18.9334C20.2319 18.9558 20.2319 18.9807 20.2406 19.0032C20.2406 19.1165 20.3454 19.1863 20.4676 19.2997C20.5898 19.4131 20.2057 19.4305 20.3192 19.5527C20.4327 19.6748 20.3192 19.8492 20.4152 19.9975C20.4786 20.0582 20.5631 20.0922 20.6509 20.0922C20.7388 20.0922 20.8232 20.0582 20.8866 19.9975C21.0176 19.8754 21.1136 20.137 21.0001 20.3289C20.8866 20.5208 21.1223 20.6691 21.2271 20.5295C21.3318 20.39 21.5588 20.765 21.6723 20.8261C21.7858 20.8871 21.8818 21.0877 21.6723 21.0877C21.4628 21.0877 21.5151 21.4279 21.6723 21.4453C21.8294 21.4628 21.7945 21.6372 21.7945 21.7593C21.7945 21.8814 22.2048 22.0471 22.3619 21.9948C22.519 21.9425 22.6587 22.0995 22.7373 22.239C22.8158 22.3786 23.0952 22.4832 23.2 22.396C23.3047 22.3088 23.3745 22.5617 23.4007 22.7449C23.4269 22.9281 23.6626 22.8234 23.8023 22.8147C23.942 22.806 24.0293 23.024 24.1253 22.9804C24.2213 22.9368 24.4046 23.3031 24.5443 23.5386C24.5538 23.5669 24.5722 23.5913 24.5967 23.6084C24.7713 23.8177 24.5967 23.9747 24.6927 24.2277C24.7887 24.4806 24.6927 24.8295 24.5181 24.8295C24.4838 24.8257 24.4516 24.8114 24.4259 24.7885C24.4001 24.7656 24.3822 24.7352 24.3745 24.7017C24.3668 24.6681 24.3698 24.633 24.383 24.6011C24.3962 24.5693 24.419 24.5424 24.4483 24.5242C24.5792 24.4457 24.5094 24.1579 24.3784 24.1579C24.2475 24.1579 24.2737 24.0619 24.2737 23.9485C24.2752 23.8635 24.2961 23.78 24.3348 23.7043C24.4133 23.5299 24.1515 23.652 23.9943 23.4688C23.8372 23.2857 23.4356 23.3206 23.3745 23.1548C23.3134 22.9891 22.9468 22.3699 22.746 22.3873C22.6225 22.4065 22.4963 22.401 22.3749 22.3711C22.2535 22.3411 22.1393 22.2873 22.0389 22.2129C21.8032 22.021 21.6461 22.0035 21.4802 22.1256C21.3144 22.2478 21.6636 22.2652 21.6461 22.396C21.6286 22.5269 21.7596 22.6053 21.8992 22.5792C22.0389 22.553 22.1262 22.8757 22.2659 22.8932C22.4056 22.9106 22.4579 23.1548 22.6238 23.1548C22.7897 23.1548 22.8333 23.3642 22.9119 23.4776C22.9904 23.5909 23.1825 23.4776 23.1825 23.6084C23.1825 23.7392 23.3745 23.809 23.4269 23.9398C23.4793 24.0707 23.4269 23.9398 23.4269 23.9922C23.4591 24.2716 23.5546 24.5401 23.7063 24.7771C23.8896 25.0475 23.7586 25.2132 23.942 25.3179C24.1253 25.4226 24.1078 25.5447 23.942 25.5185C23.7761 25.4923 23.8896 25.6581 23.8372 26.0505C23.7848 26.443 23.7848 27.2542 23.7499 27.4984C23.715 27.7426 23.4531 28.1525 23.6102 28.4142C23.7867 28.7009 23.849 29.0433 23.7848 29.3736C23.7414 29.4988 23.7244 29.6317 23.7349 29.7638C23.7454 29.8959 23.7832 30.0244 23.8459 30.1412C23.9769 30.3854 23.8459 30.8215 24.0118 30.9087C24.1812 31.0493 24.3182 31.2249 24.4134 31.4233C24.5443 31.6588 24.6665 31.5105 24.6927 31.746C24.7189 31.9815 24.6927 32.0251 24.9022 32.1123C25.1117 32.1996 24.9808 32.4351 24.9808 32.5659C24.9808 32.6967 25.2252 32.9322 25.5395 33.2375C25.8537 33.5427 25.5395 33.787 25.8101 33.787C26.0584 33.8177 26.2922 33.9209 26.4823 34.0835C26.7092 34.2405 26.7791 34.1533 26.9362 34.1882C27.1758 34.3389 27.3526 34.5713 27.4338 34.8423C27.4624 34.971 27.5034 35.0965 27.556 35.2174C27.6298 35.3905 27.7236 35.5544 27.8353 35.7058C28.0642 36.0512 28.2187 36.4402 28.2893 36.8484C28.2893 37.0577 28.6646 37.2322 28.9614 37.4415C29.0667 37.5404 29.1458 37.664 29.1915 37.801C29.2372 37.938 29.2481 38.0842 29.2233 38.2265C29.2233 38.3399 28.813 38.148 28.7956 38.2265C28.7781 38.305 29.267 38.8021 29.459 38.776C29.6511 38.7498 29.7471 38.8806 30.0439 39.1684C30.3407 39.4563 30.3145 39.7964 30.201 39.9011C30.0875 40.0057 30.4367 40.2238 30.8208 40.5029C31.0893 40.6856 31.289 40.9527 31.3882 41.2617C31.3882 41.4013 31.589 41.2617 31.6501 41.0786C31.7112 40.8954 31.5366 40.8256 31.5366 40.6076C31.5366 40.3895 31.2224 40.4244 31.0827 40.3982C30.943 40.3721 31.0827 40.0319 30.9518 39.8749C30.775 39.6121 30.656 39.3148 30.6026 39.0027C30.5328 38.7149 30.1661 38.4271 30.009 38.1305C29.9058 37.8943 29.7609 37.6787 29.5812 37.4938C29.4678 37.4153 29.7296 37.2932 29.6423 37.1798C29.555 37.0664 29.3979 37.0752 29.2233 36.9792C29.1346 36.9413 29.059 36.8781 29.0062 36.7973C28.9534 36.7166 28.9257 36.6221 28.9265 36.5257C28.8993 36.2288 28.8378 35.9362 28.7432 35.6535C28.6821 35.479 28.8741 35.5052 28.9352 35.5837C28.9964 35.6622 29.04 35.7407 29.1273 35.6884C29.1547 35.6773 29.1842 35.6719 29.2137 35.6725C29.2433 35.6731 29.2725 35.6798 29.2994 35.692C29.3264 35.7042 29.3506 35.7218 29.3705 35.7437C29.3904 35.7656 29.4057 35.7912 29.4154 35.8192C29.4678 35.9675 29.6773 35.8192 29.7733 35.8977C29.8693 35.9762 29.555 36.046 29.8606 36.6478C30.1661 37.2496 29.9566 36.9007 29.9566 37.3107C29.9566 37.7206 30.1487 37.5287 30.2098 37.4677C30.2709 37.4066 30.4367 37.5985 30.5939 37.8078C30.751 38.0171 31.0478 38.0259 31.0478 38.148C31.0478 38.2701 31.1002 38.4968 31.3097 38.5405C31.5192 38.5841 31.5454 38.8283 31.6763 38.8544C31.8073 38.8806 31.8335 39.0376 31.7636 39.2033C31.6938 39.3691 31.7636 39.5173 32.0953 39.6569C32.4271 39.7964 32.2699 39.8313 32.5318 40.1017C32.7937 40.3721 33.5357 41.2704 33.6928 41.5147C33.8103 41.7132 33.8985 41.9277 33.9547 42.1514C34.0158 42.3345 33.8325 42.4305 33.9547 42.5875C34.0769 42.7445 33.7801 42.6747 33.7889 42.7968C33.7976 42.9189 33.9547 43.5033 34.2166 43.5294C34.4785 43.5556 34.7753 43.9045 34.9935 44.1051C35.2118 44.3057 35.526 44.2534 35.8665 44.3842C36.2082 44.6049 36.5639 44.803 36.9315 44.9773C37.3626 45.1073 37.7716 45.3013 38.1449 45.553C38.4417 45.7623 38.8171 45.6663 39.2274 45.4832C39.3912 45.4305 39.5651 45.4172 39.7351 45.4445C39.905 45.4718 40.066 45.5388 40.2051 45.6402C40.4193 45.7818 40.6157 45.9487 40.7899 46.1373C41.0256 46.3641 41.2613 46.6083 41.3748 46.6868C41.4883 46.7653 41.9684 46.6868 42.1256 46.8264C42.4448 47.0262 42.8011 47.1597 43.1731 47.2189C43.2048 47.2186 43.236 47.2114 43.2647 47.1979C43.2933 47.1843 43.3187 47.1647 43.339 47.1404C43.3913 47.0967 43.4263 47.0706 43.5048 47.1404C43.5834 47.2101 43.5572 47.2799 43.5485 47.3584C43.5362 47.4005 43.5381 47.4455 43.5538 47.4865C43.5696 47.5275 43.5984 47.5621 43.6358 47.5852C43.8278 47.6986 44.0897 48.1608 44.2905 48.2742C44.3779 48.3282 44.443 48.4118 44.4738 48.5097C44.4738 48.6144 44.4738 48.7016 44.4302 48.7452C44.3999 48.7863 44.3795 48.8338 44.3707 48.8841C44.3618 48.9343 44.3647 48.9859 44.379 49.0349C44.3934 49.0838 44.4189 49.1288 44.4535 49.1663C44.4881 49.2038 44.5309 49.2328 44.5786 49.2511C44.8404 49.3732 44.7532 49.19 44.8841 49.19C45.015 49.19 45.0063 49.4081 45.1285 49.4081C45.2507 49.4081 45.5213 49.5651 45.5039 49.7744C45.4864 49.9837 45.5999 50.0797 45.8181 50.0797H45.9491C46.2116 50.1094 46.4555 50.2297 46.6387 50.4198C46.8133 50.6553 46.9268 50.4983 47.0316 50.7077C47.1363 50.917 47.3895 50.7077 47.4506 50.5943C47.5117 50.4809 47.3196 50.4111 47.2934 50.2628C47.2673 50.1146 47.5291 50.1756 47.5815 49.975C47.6339 49.7744 48.0093 49.6872 48.1751 49.7657C48.341 49.8442 48.4894 49.975 48.3323 50.1756C48.1751 50.3762 48.4545 50.5856 48.6465 50.7862L48.8211 50.9693C48.987 51.1612 48.8822 51.3182 48.9259 51.4229C48.9695 51.5275 49.0219 51.6845 48.9259 51.7543C48.861 52.0621 48.8946 52.3824 49.0219 52.6701C49.1266 52.8009 49.0219 52.9143 48.8997 53.176C48.7775 53.4376 48.6727 53.5598 48.4632 53.5685C48.2537 53.5772 48.2624 53.9435 48.1839 53.9435C48.1053 53.9435 48.0878 54.0831 48.0791 54.1965V54.275C48.0791 54.3884 47.9132 54.4668 47.7125 54.4843C47.5117 54.5017 47.5291 54.746 47.5291 54.9117C47.5291 55.0774 47.3633 55.0861 47.2934 55.2693C47.2236 55.4524 47.2934 55.4873 47.1538 55.5833C47.1166 55.5985 47.0832 55.6217 47.0561 55.6514C47.029 55.6811 47.0089 55.7164 46.9972 55.7548C46.9855 55.7933 46.9825 55.8338 46.9885 55.8735C46.9944 55.9133 47.0091 55.9511 47.0316 55.9845C47.1276 56.1415 47.0316 56.281 47.0316 56.377C47.0316 56.4729 47.1712 56.5078 47.3371 56.6735C47.503 56.8392 47.5291 56.6125 47.599 56.7433C47.6141 56.7829 47.6197 56.8255 47.6154 56.8676C47.611 56.9098 47.5968 56.9503 47.5738 56.986C47.5509 57.0216 47.5199 57.0514 47.4833 57.0729C47.4467 57.0943 47.4056 57.1069 47.3633 57.1096C47.1887 57.1096 47.0054 57.4149 46.9181 57.6242C46.8308 57.8335 47.0839 58.2784 47.1189 58.4266C47.1538 58.5749 46.9792 58.4266 46.953 58.5836C46.9268 58.7406 47.3458 58.9412 47.5379 59.0982C47.7299 59.2552 47.8958 59.7 48.0791 59.9094C48.2485 60.179 48.3751 60.4732 48.4545 60.7816C48.688 61.39 48.9804 61.9742 49.3274 62.526C49.5893 62.8923 49.7115 63.1801 49.6504 63.2848C49.6279 63.3834 49.6349 63.4864 49.6706 63.581C49.7063 63.6757 49.7691 63.7577 49.8512 63.8168C50.1113 64.0733 50.4049 64.2934 50.7242 64.471C51.287 64.7437 51.8074 65.0962 52.2693 65.5176C52.445 65.7382 52.6651 65.9194 52.9153 66.0497C52.9153 66.0497 52.9153 66.1107 52.9153 66.1631C52.8891 66.3394 52.8891 66.5187 52.9153 66.6951C52.9918 67.1952 52.9918 67.704 52.9153 68.204C52.8616 68.4984 52.7917 68.7896 52.7057 69.0762C52.6359 69.303 52.8716 69.3117 52.7756 69.4164C52.6796 69.521 52.7145 69.7827 52.7145 70.2013C52.7145 70.62 52.4875 71.3265 52.4788 71.5445C52.4701 71.7626 52.3129 71.9109 52.3304 72.1638C52.339 72.2614 52.3217 72.3595 52.2803 72.4483C52.239 72.5371 52.1749 72.6134 52.0947 72.6697C51.9637 72.7831 52.3129 73.1668 52.2955 73.3762C52.278 73.5855 52.0336 73.6727 52.0947 74.0129C52.1351 74.4422 52.1351 74.8744 52.0947 75.3037C52.0947 75.452 51.9375 75.4346 51.9812 75.7137C52.0248 75.9928 51.8241 76.0538 51.7892 76.4463C51.6959 76.8762 51.5553 77.2945 51.3701 77.6935C51.2654 77.9988 51.2654 78.1646 51.117 78.1646C50.9686 78.1646 50.9424 78.339 51.0471 78.6006C51.1519 78.8623 50.9773 79.0804 51.117 79.342C51.1707 79.4332 51.199 79.5371 51.199 79.6429C51.199 79.7487 51.1707 79.8526 51.117 79.9438C51.0471 80.188 50.9511 80.2055 50.9511 80.441C50.9511 80.6765 50.7853 80.8684 50.8813 81.13C50.9773 81.3917 50.9511 81.4876 50.8289 81.4876C50.7067 81.4876 50.6543 81.697 50.6019 82.1243C50.5496 82.5517 50.6019 82.543 50.8551 82.5168C51.1082 82.4907 50.9162 81.4615 51.0908 81.4615C51.2654 81.4615 51.0908 81.287 51.2916 81.2347C51.4923 81.1824 51.2916 81.4179 51.44 81.4615C51.5884 81.5051 51.6407 81.601 51.44 81.7231C51.2392 81.8452 51.44 82.072 51.3876 82.2203C51.3352 82.3686 51.1868 82.5168 51.2567 82.6825C51.3265 82.8483 51.1781 82.8395 51.1606 83.0663C51.1432 83.2931 51.2741 83.3018 51.1606 83.3541C51.0471 83.4065 51.2741 83.5722 51.1606 83.5984C51.0471 83.6245 51.1083 83.799 51.1606 83.956C51.213 84.113 51.0035 84.017 50.8813 84.1217C50.7591 84.2263 51.0035 84.3746 50.9337 84.5142C50.8638 84.6537 50.6718 84.4357 50.5845 84.3572C50.4972 84.2787 50.7154 84.1217 50.8202 83.9647C50.9249 83.8077 50.7154 83.4588 50.5408 83.5373C50.3662 83.6158 50.7154 83.8339 50.7154 84.0083C50.7154 84.1827 50.4186 83.9647 50.4273 84.1478C50.4361 84.331 50.2266 84.27 50.1218 84.4008C50.0171 84.5316 50.2615 84.645 50.1218 84.6886C50.0433 84.7189 49.9722 84.7657 49.9135 84.8259C49.8547 84.8861 49.8096 84.9583 49.7814 85.0375C49.7814 85.1683 49.9123 85.1945 49.9123 85.0375C49.9123 84.8805 50.1044 84.863 50.1655 85.0375C50.2266 85.2119 50.3051 85.0375 50.471 85.0375C50.6368 85.0375 50.6194 85.3515 50.5234 85.3428C50.4273 85.334 50.3313 85.5085 50.3575 85.7091C50.3837 85.9097 50.7154 85.7091 50.8551 85.7614C50.9948 85.8137 50.9511 86.0841 50.8551 85.9969C50.7591 85.9097 50.5757 85.744 50.4972 85.901C50.4186 86.058 50.2789 85.9795 50.1742 85.901C50.0694 85.8225 49.6853 86.1277 49.8163 86.2324C49.9472 86.3371 49.9298 86.5028 50.0171 86.4941C50.0717 86.4853 50.1237 86.4642 50.169 86.4325C50.2144 86.4008 50.252 86.3592 50.2789 86.3109C50.3226 86.2062 50.4972 86.1016 50.5059 86.3109C50.5146 86.5202 50.2789 86.4243 50.2353 86.5551C50.1693 86.6957 50.0706 86.8183 49.9472 86.9127C49.7988 87.0261 49.9472 87.218 50.0607 87.1569C50.1742 87.0959 50.0607 87.3139 50.1916 87.3401C50.3226 87.3663 50.4012 87.2354 50.3662 87.1046C50.3313 86.9738 50.4448 86.686 50.5932 86.8342C50.7416 86.9825 50.5146 87.1221 50.5146 87.2442C50.5146 87.3663 50.4361 87.5494 50.4361 87.689C50.4361 87.8285 50.2789 87.7588 50.2877 87.9158C50.2964 88.0727 49.9559 87.9681 50.1131 88.0727C50.2702 88.1774 50.0171 88.317 50.1131 88.4216C50.2091 88.5263 50.2615 88.2821 50.3924 88.3344C50.5234 88.3867 50.5059 88.4216 50.6718 88.3344C50.8376 88.2472 50.9337 88.4827 50.7765 88.535C50.6194 88.5874 50.4535 88.7792 50.5234 88.8054C50.5932 88.8316 50.8027 88.6746 50.8464 88.8054C50.89 88.9362 51.0122 88.9188 51.0297 88.7356C51.0471 88.5525 51.3265 88.7356 51.3701 88.8664C51.4138 88.9973 51.0733 89.1194 50.8987 89.0758C50.7242 89.0322 50.6194 89.2589 50.7416 89.4247C50.8638 89.5904 51.0035 89.4247 51.1344 89.2851C51.2654 89.1456 51.9114 89.1804 51.955 89.3374C51.9987 89.4944 51.6582 89.3374 51.6233 89.4508C51.5884 89.5642 51.3265 89.6253 51.2916 89.5206C51.2566 89.4159 51.0035 89.5206 50.9948 89.7299C50.986 89.9393 50.7853 89.8957 50.9948 89.9654C51.2043 90.0352 51.1519 89.7125 51.4836 89.7386C51.8153 89.7648 51.9987 89.3985 52.0947 89.6078C52.1907 89.8171 51.8153 89.9916 51.6844 89.8608C51.5534 89.7299 51.3963 89.948 51.4138 90.1486C51.4312 90.3492 51.0297 90.0962 50.8376 90.0701C50.6456 90.0439 50.7329 90.262 50.8987 90.4626C51.0646 90.6632 51.1606 90.4626 51.3614 90.576C51.5622 90.6893 51.5622 90.8812 51.7106 90.733C51.859 90.5847 51.7106 90.6021 51.6146 90.5411C51.5185 90.48 51.6146 90.2532 51.8328 90.3666C52.051 90.48 52.3216 90.262 52.2431 89.948C52.1645 89.634 52.4526 89.4944 52.7232 89.3898C52.9938 89.2851 52.8541 89.5817 52.6534 89.6776C52.4526 89.7735 52.4089 89.8346 52.5661 90.0178C52.7232 90.2009 52.924 89.8957 53.0549 90.0178C53.1859 90.1399 52.8192 90.1311 52.7581 90.2794C52.697 90.4277 52.9851 90.5934 52.7581 90.6981C52.5312 90.8027 52.6446 90.262 52.5312 90.2096C52.4177 90.1573 52.3042 90.2794 52.4264 90.576C52.5486 90.8725 52.278 90.6196 52.1558 90.4713C52.0336 90.323 51.8764 90.5411 52.0161 90.6981C52.1558 90.8551 51.7455 90.6981 51.7455 90.9336C51.7455 91.1691 51.9201 90.9336 52.1383 91.0208C52.3566 91.108 52.2518 91.4133 52.4089 91.5441C52.5661 91.6749 52.4089 91.1254 52.601 91.0906C52.793 91.0557 52.601 91.5092 52.9851 91.64C53.3692 91.7709 52.9851 91.5615 53.1771 91.4307C53.3692 91.2999 53.5525 91.8145 53.7358 91.8668C53.9192 91.9191 53.7969 91.64 53.666 91.4831C53.5351 91.3261 53.7969 91.4133 53.9715 91.4831C54.1461 91.5528 54.2945 91.5703 54.3294 91.4307C54.3644 91.2912 54.3294 91.3784 54.4167 91.4307C54.504 91.4831 54.5913 91.5179 54.6612 91.4307C54.731 91.3435 55.1413 91.3697 55.3333 91.2388C55.5254 91.108 55.2722 91.0644 54.9754 91.0557C54.6786 91.047 54.1025 90.4364 53.9104 90.2794C53.7184 90.1224 53.9104 89.9654 53.6485 90.009C53.3867 90.0526 53.5787 89.8259 53.7009 89.7561C53.8231 89.6863 53.6573 89.477 53.5089 89.4421C53.3517 89.4421 53.0026 89.4421 53.0637 89.2241C53.0651 89.2054 53.0715 89.1875 53.0823 89.1721C53.093 89.1568 53.1077 89.1446 53.1248 89.1368C53.2644 89.0671 53.57 89.2851 53.6398 89.2066C53.7096 89.1281 53.343 88.7792 53.3517 88.6571C53.3605 88.535 53.2906 88.3431 53.2906 88.2123C53.2906 88.0815 53.2295 87.7936 53.3954 87.6628C53.5612 87.532 53.5787 87.4011 53.6835 87.4273C53.7882 87.4535 54.0064 87.3227 54.0152 87.0087C54.0239 86.6947 54.1636 86.5813 54.3993 86.3632C54.635 86.1452 55.0889 85.8922 55.0278 85.7876C54.9667 85.6829 55.1238 85.3428 55.1238 85.2119C55.1238 85.0811 54.7223 85.1073 54.5913 85.0549C54.4317 84.9821 54.3054 84.852 54.2375 84.6904C54.1696 84.5288 54.165 84.3475 54.2247 84.1827C54.3076 84.0214 54.4323 83.8852 54.5859 83.7886C54.7394 83.6919 54.9162 83.6383 55.0976 83.6332C55.2373 83.6332 55.0976 83.3978 55.2286 83.3193C55.3595 83.2408 55.3683 83.1099 55.3683 82.9093C55.3683 82.7087 55.3683 82.3337 55.5865 82.3075C55.8047 82.2813 55.8571 82.1505 55.7262 82.1156C55.5952 82.0807 55.5341 81.9063 55.7262 81.8801C55.9182 81.854 55.8658 82.0807 56.023 82.0807C56.1801 82.0807 56.442 81.7929 56.2325 81.6185C56.023 81.444 55.9706 81.697 55.8658 81.7231C55.7611 81.7493 55.6738 81.5661 55.569 81.5661C55.4643 81.5661 55.569 81.2434 55.4817 81.1213C55.4113 80.9449 55.4113 80.7482 55.4817 80.5718C55.5778 80.4323 55.9793 80.7986 56.3547 80.8248C56.7301 80.8509 56.9745 80.6242 56.9745 80.4846C56.9745 80.3451 56.8086 80.0747 57.0269 79.9177C57.2451 79.7607 57.0269 79.7171 57.0269 79.5077C57.0269 79.2984 57.1229 79.1676 57.2189 79.2722C57.6798 79.3489 58.1523 79.316 58.5982 79.1763C59.1831 79.0455 59.5846 78.81 59.6195 78.6268C59.7639 78.3596 59.9273 78.1031 60.1084 77.8593C60.1314 77.8195 60.1435 77.7744 60.1435 77.7284C60.1435 77.6825 60.1313 77.6373 60.1083 77.5975C60.0853 77.5578 60.0523 77.5247 60.0124 77.5018C59.9726 77.4788 59.9274 77.4668 59.8814 77.4668C59.6457 77.4668 59.6632 77.1266 59.7941 76.9609C59.9251 76.7952 59.7156 76.6295 59.4886 76.6033C59.2616 76.5771 58.9124 76.4114 59.1132 76.2021C59.314 75.9928 59.2529 76.1236 59.3053 76.2021C59.3577 76.2806 59.4013 76.3242 59.5148 76.3155C59.7585 76.3103 59.9984 76.377 60.2044 76.5074C60.4663 76.6382 60.3703 76.5074 60.6234 76.5074C60.7594 76.544 60.9014 76.5528 61.0409 76.5333C61.1804 76.5138 61.3145 76.4664 61.4353 76.394C61.6049 76.2335 61.7491 76.0483 61.863 75.8445C61.9353 75.7411 62.0203 75.6474 62.1162 75.5654C62.4479 75.3037 62.3693 75.1467 62.5177 74.8415C62.6661 74.5362 62.5177 74.3966 62.8058 74.1175C63.0939 73.8384 62.8058 73.664 63.0939 73.4896C63.382 73.3151 63.382 73.6465 63.0939 74.0303C62.8058 74.4141 62.7709 74.51 63.0939 74.2222C63.4166 73.9022 63.6538 73.5063 63.7835 73.0709C63.993 72.6174 64.1414 72.4778 64.3248 72.4516C64.5081 72.4255 64.4993 71.937 64.4819 71.5794C64.4644 71.2218 64.3597 70.9253 64.4819 70.7072C64.6041 70.4892 64.4819 70.2798 64.6477 70.2798C64.8136 70.2798 65.0668 70.0007 65.3286 69.7129C65.4117 69.605 65.519 69.518 65.6418 69.459C65.7646 69.3999 65.8995 69.3704 66.0357 69.3728C66.3064 69.3728 66.1492 69.2419 66.3325 69.1896C66.5158 69.1373 66.6293 68.9541 66.7428 68.8407C66.8563 68.7273 67.3539 68.8407 67.6158 68.8407C67.8777 68.8407 68.0872 68.8407 68.0872 68.675C68.0836 68.6314 68.0887 68.5876 68.1021 68.546C68.1155 68.5045 68.1371 68.4659 68.1655 68.4327C68.1939 68.3995 68.2286 68.3722 68.2676 68.3524C68.3066 68.3326 68.3491 68.3207 68.3927 68.3174C68.5586 68.3174 68.6284 68.2651 68.6284 68.0034C68.619 67.9037 68.634 67.8032 68.672 67.7105C68.71 67.6179 68.7699 67.5358 68.8466 67.4714C68.9863 67.358 69.0125 67.0963 69.0562 66.9219C69.0998 66.7474 69.2569 66.8608 69.2569 66.6079C69.2569 66.3549 69.3442 66.0846 69.3442 65.8927C69.3442 65.7008 69.5363 65.7182 69.6148 65.5787C69.6934 65.4391 69.545 65.256 69.6759 64.846C69.7414 64.4651 69.7414 64.0757 69.6759 63.6947C69.6759 63.3284 69.6759 62.9534 69.7982 62.8225C69.9204 62.6917 69.8593 62.6394 69.7982 62.587C69.737 62.5347 69.7982 62.3864 69.8942 62.4126C69.9902 62.4388 70.0688 62.6394 70.2259 62.5347C70.4297 62.2619 70.5753 61.9502 70.6537 61.6189C70.7846 61.2526 71.0028 61.2613 71.1687 61.1828C71.5278 60.8784 71.7889 60.4749 71.9194 60.0228C72.0574 59.4431 72.0178 58.8353 71.8059 58.2784C71.9369 58.0603 71.8059 58.1824 71.5702 58.1824ZM48.987 27.0623C49.3536 27.1059 49.6068 26.8268 49.7377 27.0012C49.9123 27.3327 49.2838 27.542 48.6902 27.5682C48.5466 27.5764 48.4037 27.5939 48.2624 27.6205C48.018 27.6205 47.9394 27.6728 47.8783 27.4897C47.8172 27.3065 48.568 27.01 48.987 27.0623ZM48.1577 27.9345C48.1618 27.9442 48.1638 27.9545 48.1638 27.965C48.1638 27.9755 48.1618 27.9859 48.1577 27.9956C47.7931 28.3342 47.3778 28.6137 46.9268 28.8241C46.4729 29.0858 45.8531 28.955 45.8531 28.5625C45.8531 28.17 46.1848 28.2485 46.2546 28.4317C46.3245 28.6148 46.3681 28.4317 46.4729 28.3706C46.5776 28.3095 46.9181 27.9694 47.1363 27.9868C47.4942 27.9868 47.5902 28.2485 47.8347 28.0653C48.0791 27.8822 48.0616 27.8386 48.114 27.9694L48.1577 27.9345ZM46.4118 25.5621C46.7522 25.6929 47.2847 25.4051 47.4157 25.8499C47.5466 26.2948 47.9656 26.6262 47.6077 26.6611C47.2498 26.696 46.8919 26.2163 46.9181 26.4779C46.9443 26.7396 46.7522 26.6088 46.7522 27.0012C46.7522 27.3937 46.5078 27.9345 46.3681 27.8734C46.2372 27.8037 46.4467 27.2193 46.1673 27.1234C45.888 27.0274 45.5475 27.5595 45.5999 27.2193C45.6523 26.8791 46.0713 26.6 45.8094 26.1552C45.5475 25.7104 45.0761 25.7104 44.9801 26.0505C44.8841 26.3907 44.5524 26.2337 44.4302 26.4954C44.2676 26.8898 44.2192 27.322 44.2905 27.7426C44.3469 27.9097 44.3388 28.0918 44.2678 28.2532C44.1967 28.4145 44.0678 28.5435 43.9064 28.6148C43.5485 28.8503 43.3564 28.2572 43.4961 27.4897C43.5921 26.9751 43.854 26.4779 43.6183 26.4779C43.3826 26.4779 43.9326 25.8499 44.4302 25.7191C44.9277 25.5883 45.5475 25.6406 45.5475 25.4836C45.5475 25.3266 45.5475 25.4313 45.6086 25.4138C45.8729 25.4129 46.1334 25.4758 46.3681 25.597L46.4118 25.5621ZM43.2691 23.4165C43.5747 23.4165 44.3603 23.495 44.4127 23.9398C44.4651 24.3846 44.9365 23.9398 44.9801 24.3846C45.0238 24.8295 45.338 25.0214 45.2856 25.2045C45.2772 25.2427 45.2556 25.2767 45.2245 25.3005C45.0238 25.4487 45.0761 25.065 44.7182 25.065C44.3603 25.065 44.0024 25.4313 43.7231 25.2743C43.4437 25.1173 43.5747 24.908 43.3128 24.908C43.0509 24.908 43.5048 24.3585 43.1207 24.594C42.7366 24.8295 42.1692 25.4051 41.9073 25.1435C41.6454 24.8818 41.4097 25.222 41.2177 25.0126C41.0256 24.8033 41.8811 24.2277 42.2914 24.2538C42.3418 24.254 42.3918 24.2441 42.4383 24.2246C42.4848 24.2052 42.5269 24.1765 42.562 24.1404C42.8065 23.9398 43.016 23.4514 43.2517 23.4514L43.2691 23.4165ZM38.1187 19.6311C38.3108 19.8928 38.5988 20.9656 38.7647 21.3058C38.9305 21.6459 38.9306 22.178 38.7123 22.2216C38.4941 22.2652 38.7123 21.4628 38.2584 21.1749C38.0319 21.0335 37.841 20.8419 37.7002 20.6151C37.5595 20.3883 37.4727 20.1322 37.4465 19.8666C37.4587 19.7969 37.49 19.7318 37.5369 19.6787C37.5838 19.6256 37.6445 19.5865 37.7123 19.5657C37.7801 19.5449 37.8523 19.5433 37.921 19.561C37.9896 19.5787 38.052 19.6151 38.1012 19.666L38.1187 19.6311ZM28.394 13.1333C28.394 12.9501 28.5773 12.671 28.813 12.671C29.0487 12.671 29.0313 12.3308 28.6472 12.1215C28.2631 11.9122 29.2059 11.7813 29.4241 12.1215C29.6423 12.4617 30.0264 12.6884 30.2447 12.4529C30.4629 12.2174 31.7112 11.5807 31.7112 11.8598C31.7112 12.1389 30.7859 12.3832 30.4193 12.732C30.0526 13.0809 30.0788 12.9937 29.7558 13.0547C29.4328 13.1158 29.686 13.4734 29.3019 13.4996C28.9178 13.5257 27.975 13.5781 27.8441 13.3339C27.7829 13.2815 28.3329 13.3426 28.3766 13.1681L28.394 13.1333ZM24.4919 9.49616C24.6752 9.49616 24.553 9.25195 24.7974 9.15601C25.0419 9.06007 24.7538 8.89435 24.7974 8.78097C24.8411 8.66758 25.3823 8.89435 25.3911 8.68502C25.3998 8.4757 24.8847 8.30125 24.7189 8.42336C24.581 8.55214 24.4089 8.63867 24.2233 8.67269C24.0376 8.7067 23.846 8.68677 23.6713 8.61525C23.5229 8.53675 24.8673 8.38848 25.0943 8.15298C25.3212 7.91749 26.3426 7.66456 26.4211 7.87388C26.4997 8.08321 25.8712 8.21403 26.1767 8.40591C26.3186 8.4766 26.4791 8.50116 26.6356 8.47613C26.7922 8.4511 26.9369 8.37776 27.0497 8.26637C27.1631 8.07449 27.652 8.10066 27.3465 8.52803C27.0409 8.95541 26.9275 9.01646 26.6045 8.95541C26.2815 8.89435 26.0807 9.06879 26.2466 9.1909C26.4124 9.31301 26.4124 9.4264 26.0807 9.5049C25.749 9.58339 25.5307 9.87122 25.3998 9.83634C25.2688 9.80145 25.9672 9.25196 25.7926 9.11241C25.618 8.97286 25.1641 9.35662 25.1554 9.53978C25.1466 9.72294 24.8498 9.72294 24.6665 9.71422C24.4832 9.70549 24.2999 9.5485 24.4745 9.53106L24.4919 9.49616ZM53.7882 91.5703C53.7882 91.5703 53.7882 91.5703 53.7882 91.5005C53.7882 91.4307 53.7446 91.5964 53.7533 91.5964L53.7882 91.5703ZM53.6223 61.6887C53.5662 61.6669 53.5075 61.6523 53.4478 61.6451L53.6223 61.6887ZM52.8192 57.5457C52.7694 57.5549 52.7237 57.5792 52.6883 57.6155C52.7167 57.5942 52.7495 57.5793 52.7843 57.5719L52.8192 57.5457ZM53.0898 57.5457C53.0057 57.5361 52.9208 57.5361 52.8367 57.5457C52.9113 57.5586 52.9845 57.579 53.0549 57.6068L53.0898 57.5457ZM53.4303 61.6102C53.352 61.6013 53.2729 61.6013 53.1946 61.6102C53.2634 61.6238 53.3307 61.6442 53.3954 61.6712L53.4303 61.6102ZM59.7068 66.73C59.7068 66.73 59.6981 66.7998 59.6894 66.8085L59.7068 66.73ZM61.6011 53.6644C61.6011 53.6644 61.5749 53.7604 61.5662 53.7429L61.6011 53.6644ZM61.5051 70.5241C61.4984 70.4428 61.4984 70.3611 61.5051 70.2798C61.4817 70.3858 61.47 70.494 61.4702 70.6026L61.5051 70.5241ZM61.5924 69.9746C61.5933 69.9601 61.5933 69.9455 61.5924 69.931C61.5878 69.9734 61.576 70.0147 61.5575 70.0531L61.5924 69.9746ZM58.345 51.9985C58.3873 51.9832 58.4337 51.9832 58.476 51.9985C58.444 51.9967 58.412 52.003 58.383 52.0167C58.3541 52.0304 58.329 52.0511 58.3101 52.077L58.345 51.9985ZM58.2141 52.2253C58.1977 52.2618 58.1702 52.2924 58.1355 52.3125C58.1512 52.3058 58.1658 52.297 58.1792 52.2863L58.2141 52.2253ZM50.1043 55.2169V55.2605L50.052 55.1908L50.1043 55.2169ZM50.2266 55.6443C50.2502 55.6194 50.268 55.5896 50.2789 55.5571C50.2573 55.6103 50.2169 55.6537 50.1655 55.6792L50.2266 55.6443ZM50.2266 55.3565C50.2241 55.3738 50.2241 55.3915 50.2266 55.4088C50.1994 55.4089 50.1726 55.4029 50.148 55.3914L50.2266 55.3565ZM50.2877 55.4699C50.2918 55.4871 50.2918 55.505 50.2877 55.5222C50.2645 55.507 50.2365 55.5008 50.2091 55.5048L50.2877 55.4699ZM52.9676 61.6625C53.04 61.6527 53.1135 61.6527 53.1859 61.6625C53.0872 61.6472 52.9866 61.6501 52.8891 61.6712L52.9676 61.6625Z" fill="#92E3A9"/>
</svg>
