<svg width="6" height="4" viewBox="0 0 6 4" fill="none" xmlns="http://www.w3.org/2000/svg">
<path d="M5.09587 2.35312C5.41776 2.35312 5.40857 1.93961 5.54652 1.95799C5.68447 1.97637 5.89599 1.68232 5.97876 1.49854C6.06153 1.31477 5.8868 0.983965 5.68447 0.983965C5.48214 0.983965 5.33498 0.809374 5.38097 0.680729C5.42695 0.552083 5.27061 0.386684 5.2798 0.294794C5.289 0.202905 5.02229 0.294794 4.89354 0.294794C4.76478 0.294794 4.47048 -0.0635721 4.35092 0.00993942C4.23137 0.083451 4.35092 0.276422 4.27735 0.38669C4.20377 0.496957 3.94626 0.285611 3.94626 0.38669C3.94626 0.487768 3.8175 0.533713 3.71634 0.38669C3.61517 0.239666 3.38525 0.331554 3.39444 0.441821C3.40364 0.552088 3.29328 0.441811 3.10015 0.331544C2.90702 0.221277 2.70468 0.478579 2.72308 0.616413C2.74147 0.754247 2.6587 0.791004 2.49315 0.487768C2.32761 0.184533 2.15287 0.487761 2.23564 0.680729C2.31841 0.873696 2.29082 1.04828 2.16207 0.965584C2.03331 0.882883 1.86777 1.02071 1.7942 1.14936C1.72062 1.278 1.45391 0.772619 1.64704 0.653163C1.84018 0.533706 1.03085 0.0283212 0.782536 0.0283212C0.534221 0.0283212 0.699761 0.230469 0.865305 0.377492C1.03085 0.524515 0.745749 0.487759 0.653781 0.377492C0.561812 0.267224 0.387077 0.37749 0.285912 0.533702C0.184746 0.689914 0.0191908 0.818571 0.000797074 0.947216C-0.0175967 1.07586 0.285911 1.21368 0.543423 1.09423C0.646935 1.0299 0.766403 0.995813 0.888305 0.995813C1.01021 0.995813 1.12968 1.0299 1.23319 1.09423C1.36194 1.23206 0.99406 1.2872 1.12282 1.39747C1.25157 1.50773 1.12282 1.59962 0.828523 1.57206C0.534224 1.54449 0.129564 1.64558 0.184746 1.76503C0.239927 1.88449 0.994069 1.66395 1.00327 1.76503C1.01246 1.86611 1.00327 2.08664 1.2056 1.99476C1.40793 1.90287 1.26997 2.16015 1.37113 2.2061C1.4723 2.25204 1.45391 2.47257 1.17801 2.49095C0.902103 2.50933 0.782532 2.56446 0.892894 2.69311C1.00326 2.82176 1.33435 2.69311 1.61945 2.69311C1.90456 2.69311 2.30921 2.99635 2.6495 3.14337C2.81855 3.20109 3.00077 3.20835 3.1739 3.16429C3.34702 3.12023 3.50355 3.02676 3.62436 2.89527C3.69794 2.7023 4.14859 2.77581 4.33253 2.63798C4.55274 2.4689 4.81864 2.36968 5.09587 2.35312Z" fill="#92E3A9"/>
</svg>
