<svg width="6" height="6" viewBox="0 0 6 6" fill="none" xmlns="http://www.w3.org/2000/svg">
<path d="M3.07731 3.15031C3.07731 3.53232 2.63414 3.56705 2.74711 3.74069C2.86007 3.91433 2.39952 4.01851 2.4169 3.86223C2.43428 3.70596 2.13015 3.79278 1.76519 3.94906C1.40023 4.10534 1.18299 3.77542 0.974438 4.00115C0.765889 4.22688 0.418325 4.62625 0.14895 4.67835C-0.120425 4.73044 0.0359861 5.08641 0.14895 5.02564C0.261913 4.96486 0.644246 5.02563 0.73983 4.86935C1.14685 4.63429 1.60792 4.50866 2.07802 4.50471C2.55595 4.50471 2.26917 4.74781 2.30393 5.02564C2.33869 5.30346 2.72973 5.25137 2.93828 5.02564C3.14682 4.7999 3.30324 4.78253 3.12945 4.62626C2.95566 4.46998 3.12944 4.33106 3.28585 4.53943C3.32732 4.59234 3.38123 4.63419 3.44279 4.66127C3.50434 4.68835 3.57164 4.69984 3.6387 4.69468C3.70576 4.68953 3.77051 4.6679 3.8272 4.63173C3.88388 4.59556 3.93075 4.54596 3.96363 4.48734C4.12004 4.20952 4.1722 4.53943 4.36337 4.48734C4.55454 4.43525 4.6588 3.94906 4.67618 4.14007C4.69356 4.33107 4.98902 4.27897 5.18019 4.05324C5.37136 3.82751 5.18017 3.42813 5.32789 3.18504C5.40651 3.05632 5.45786 2.91287 5.47878 2.76353C5.49971 2.6142 5.48978 2.46217 5.44956 2.31683C5.32791 2.05637 5.73629 1.88274 5.94484 1.67437C6.15339 1.466 5.70154 0.424156 5.68417 0.111603C5.66679 -0.20095 5.1628 0.233143 5.00639 0.319964C4.84997 0.406784 4.737 0.945078 4.91079 1.10135C5.08458 1.25763 4.62403 1.55281 4.64141 1.88273C4.65879 2.21265 4.36337 2.21266 4.31123 2.44707C4.2591 2.68149 4.09397 2.64675 3.8246 2.86381C3.55522 3.08086 3.40751 2.8638 3.47702 2.68148C3.54654 2.49915 3.05993 2.79435 3.07731 3.15031Z" fill="#92E3A9"/>
</svg>
