<svg width="73" height="12" viewBox="0 0 73 12" fill="none" xmlns="http://www.w3.org/2000/svg">
<path d="M50.6128 9.04494V2.23902H0.50069V0.505025H67.178C67.8664 0.476669 68.5533 0.587654 69.1976 0.831286C69.8419 1.07492 70.4303 1.44617 70.9274 1.92276C71.4244 2.39934 71.82 2.97142 72.0901 3.6046C72.3603 4.23777 72.4996 4.91898 72.4996 5.6073C72.4996 6.29562 72.3603 6.97683 72.0901 7.61001C71.82 8.24318 71.4244 8.81526 70.9274 9.29185C70.4303 9.76843 69.8419 10.1397 69.1976 10.3833C68.5533 10.627 67.8664 10.7379 67.178 10.7096H0.50069V8.97559L50.6128 9.04494Z" fill="#92E3A9" stroke="#263238" stroke-linecap="round" stroke-linejoin="round"/>
</svg>
