<svg width="59" height="12" viewBox="0 0 59 12" fill="none" xmlns="http://www.w3.org/2000/svg">
<path d="M56.0607 5.65845C56.0618 5.2101 55.9744 4.76595 55.8035 4.3514C55.6326 3.93685 55.3815 3.56006 55.0646 3.24262C54.7477 2.92519 54.3712 2.67334 53.9567 2.5015C53.5423 2.32966 53.0979 2.24121 52.6492 2.24121H0.502153V0.502153H53.5891C54.8917 0.504456 56.1401 1.02308 57.0604 1.94417C57.9806 2.86525 58.4975 4.11352 58.4975 5.41498C58.4975 6.11455 58.3594 6.80724 58.0912 7.45344C57.823 8.09965 57.4299 8.68667 56.9344 9.18093C56.4389 9.67519 55.8507 10.067 55.2035 10.3339C54.5563 10.6008 53.8628 10.7376 53.1627 10.7365H0.502153V8.99744H52.6492C53.542 8.99762 54.3994 8.64809 55.0372 8.02383C55.675 7.39957 56.0425 6.55034 56.0607 5.65845Z" fill="#92E3A9" stroke="#263238" stroke-linecap="round" stroke-linejoin="round"/>
</svg>
