<svg width="6" height="5" viewBox="0 0 6 5" fill="none" xmlns="http://www.w3.org/2000/svg">
<path d="M0.799061 3.33944C1.25411 3.45079 1.30055 4.33226 1.60701 4.33226C1.91347 4.33226 1.66272 4.05389 1.98776 4.05389C2.31279 4.05389 2.24779 3.85905 2.54497 3.88688C2.84214 3.91472 3.10217 3.80338 3.10217 3.42295C3.10217 3.04252 3.33433 2.89406 3.64079 2.81055C3.94725 2.72704 3.64079 2.3095 4.09584 2.19815C4.74341 1.98784 5.36618 1.70784 5.95318 1.36308C6.1482 1.19606 5.69315 0.973371 5.2381 0.667174C4.78305 0.360977 4.43016 0.277474 4.06798 0.527999C3.7058 0.778524 3.99369 0.24963 3.71508 0.38881C3.43648 0.527991 2.67498 0.166122 2.57282 0.0269414C2.47067 -0.112239 1.10552 0.33314 0.771202 0.33314C0.436881 0.33314 0.771201 0.72285 1.03123 0.917703C1.29126 1.11256 0.474024 1.72495 0.622612 1.84557C0.771199 1.9662 0.474036 2.34662 0.111854 2.77344C-0.250327 3.20026 0.344013 3.2281 0.799061 3.33944Z" fill="#92E3A9"/>
</svg>
