<svg width="4" height="6" viewBox="0 0 4 6" fill="none" xmlns="http://www.w3.org/2000/svg">
<path d="M0.023133 1.60568C-0.0376844 1.78797 0.0231368 2.53741 0.185317 2.53741C0.347497 2.53741 0.448842 2.72984 0.357616 3.05392C0.266389 3.378 0.63131 3.4185 0.975943 3.27671C1.32058 3.13493 1.19892 3.54004 1.55369 3.47928C1.90845 3.41851 2.38486 3.90462 2.3139 4.08692C2.24295 4.26921 2.31393 4.85662 2.49638 4.69458C2.67883 4.53253 2.9221 4.69458 2.74979 4.9984C2.57747 5.30223 3.01333 5.52503 3.06401 5.84911C3.11469 6.17319 3.30726 5.90987 3.26671 5.66681C3.22617 5.42375 3.26671 5.44401 3.55053 5.26171C3.83434 5.07942 3.55055 4.77559 3.37823 4.43125C3.20591 4.08691 2.67883 4.20845 2.67883 3.88437C2.67883 3.56029 2.27336 3.45901 2.25309 3.27671C2.23282 3.09442 1.70576 2.91213 1.39153 3.11468C1.07731 3.31723 1.29014 2.75009 1.07728 2.49691C0.86442 2.24372 1.23947 1.84874 1.50302 1.48415C1.76656 1.11956 1.42193 0.61318 1.50302 0.370119C1.58411 0.127059 1.50303 0.0460331 1.39153 0.127053C1.28003 0.208073 0.722526 -0.115994 0.489392 0.0460467C0.256258 0.208087 0.489387 1.54491 0.357616 1.64618C0.225844 1.74746 0.063678 1.46389 0.023133 1.60568Z" fill="#92E3A9"/>
</svg>
