<svg width="20" height="20" viewBox="0 0 20 20" fill="none" xmlns="http://www.w3.org/2000/svg">
<g clip-path="url(#clip0_89_2817)">
<path d="M0 10.6264V9.37855C0.0147687 9.24878 0.0319844 9.12898 0.046753 8.99421C0.268039 6.82285 1.18267 4.78417 2.65152 3.18815C4.12038 1.59213 6.06311 0.526121 8.18431 0.152204C8.53629 0.0923086 8.89319 0.0523541 9.24764 0.00244141H10.4784C10.5276 0.00244141 10.5768 0.0298641 10.6261 0.0348554C12.1429 0.136539 13.6126 0.610143 14.909 1.41495C16.1355 2.1439 17.1897 3.13628 17.9976 4.32234C18.8056 5.50839 19.3476 6.85936 19.5857 8.28044C19.6522 8.6423 19.6867 9.01169 19.7359 9.37855V10.6264C19.7088 10.8759 19.6817 11.1005 19.6497 11.3401C19.3654 13.4393 18.4323 15.3933 16.9844 16.9213C15.5366 18.4494 13.6484 19.473 11.5909 19.8452C11.2266 19.9126 10.8525 19.95 10.4907 19.9999H9.25996C9.01381 19.97 8.76768 19.945 8.53631 19.9101C6.46958 19.6184 4.5469 18.6711 3.04361 17.2039C1.54031 15.7367 0.533515 13.8247 0.167392 11.7419C0.0861638 11.3726 0.0492289 10.9982 0 10.6264ZM9.863 16.5035C9.93684 16.4212 10.0008 16.3588 10.055 16.2889C10.7934 15.3905 11.5319 14.507 12.2358 13.5862C13.0346 12.5663 13.7152 11.4568 14.2641 10.2794C14.6161 9.49831 14.8499 8.69725 14.7121 7.82378C14.4044 5.88217 13.3706 4.49209 11.5516 3.81328C9.73257 3.13447 8.05879 3.48637 6.59915 4.77162C5.32166 5.89715 4.38385 8.09827 5.4595 10.2894C5.93567 11.254 6.48541 12.1794 7.10373 13.0571C7.95699 14.2591 8.87828 15.4098 9.863 16.5035Z" fill="white"/>
<path d="M9.84584 16.4364C8.86052 15.3431 7.93919 14.1923 7.08657 12.9899C6.46825 12.1121 5.91848 11.1868 5.44231 10.2222C4.35928 8.03105 5.30447 5.82993 6.58196 4.7044C8.0416 3.41915 9.72523 3.07224 11.5344 3.74606C13.3436 4.41988 14.3872 5.81495 14.6949 7.75655C14.8327 8.63003 14.5989 9.43358 14.2469 10.2122C13.698 11.3896 13.0175 12.4991 12.2187 13.5189C11.5172 14.4398 10.7689 15.3233 10.0378 16.2217C9.98615 16.2916 9.92215 16.3565 9.84584 16.4364ZM8.12283 8.61004C8.11943 8.98141 8.22479 9.34543 8.42555 9.65606C8.62632 9.9667 8.91348 10.21 9.25067 10.355C9.58786 10.5001 9.95993 10.5405 10.3198 10.4711C10.6796 10.4017 11.011 10.2256 11.2721 9.96509C11.5332 9.70459 11.7122 9.37141 11.7864 9.00772C11.8606 8.64404 11.8267 8.26619 11.689 7.92204C11.5513 7.57789 11.316 7.28289 11.0129 7.0744C10.7098 6.86591 10.3524 6.75329 9.98613 6.75081C9.49625 6.74814 9.02527 6.94218 8.67611 7.29057C8.32696 7.63897 8.12803 8.11338 8.12283 8.61004Z" fill="black"/>
<path d="M8.01223 8.51014C8.01223 7.28478 8.91555 6.29898 10.0158 6.30397C11.1161 6.30897 12.0022 7.31971 11.985 8.56503C11.9677 9.81035 11.0718 10.7687 9.97153 10.7587C8.87126 10.7487 8.00731 9.733 8.01223 8.51014Z" fill="white"/>
</g>
<defs>
<clipPath id="clip0_89_2817">
<rect width="19.726" height="20" fill="white"/>
</clipPath>
</defs>
</svg>
