<svg width="16" height="13" viewBox="0 0 16 13" fill="none" xmlns="http://www.w3.org/2000/svg">
<path d="M10.2297 2.83655C10.1584 2.60504 9.52563 2.57833 9.40086 2.83655C9.27609 3.09477 8.76812 2.52489 8.76812 2.28448C8.76812 2.04407 7.9928 2.28448 8.09083 1.85708C8.18886 1.42968 7.19963 1.34955 6.92336 1.34955C6.64709 1.34955 6.26389 1.58996 6.30845 1.85708C6.35301 2.12421 6.02327 2.01736 5.9698 1.72352C5.91632 1.42968 5.26576 2.04408 5.07861 2.04408C4.89146 2.04408 5.20337 1.26941 5.07861 1.029C4.93126 0.797994 4.80023 0.556983 4.68648 0.307745C4.54389 -0.0929436 3.7953 0.067332 3.61706 0.307745C3.43882 0.548159 2.78826 0.441315 2.44961 0.815291C2.11096 1.18927 2.44961 1.56324 2.61894 1.70571C2.78826 1.84818 2.11096 2.05298 2.32484 2.26668C2.53873 2.48038 2.88628 2.37353 2.91302 2.72079C2.93975 3.06805 2.11095 2.61394 2.02183 2.3201C1.93271 2.02626 2.06639 1.75913 1.89706 1.54543C1.72774 1.33173 1.89706 1.0646 2.19116 0.655009C2.48525 0.245415 2.75261 0.334466 2.75261 0.120765C2.75261 -0.092936 1.38908 -0.0929327 0.587016 0.708445C0.332176 0.982203 0.151713 1.31658 0.0627961 1.67973C-0.0261212 2.04289 -0.0205266 2.42274 0.0790462 2.78313C0.123606 2.99683 0.827641 2.88997 1.2465 3.02353C1.66536 3.15709 1.43365 3.34408 1.12173 3.29066C0.809818 3.23723 0.230553 3.13038 0.292936 3.37079C0.395497 3.56135 0.551004 3.71821 0.740746 3.82248C0.930488 3.92675 1.14637 3.97398 1.36236 3.95847C1.75448 3.85162 1.75447 3.85162 1.9238 4.09203C2.09312 4.33244 2.55655 4.25231 3.01997 4.27902C3.42844 4.33473 3.83319 4.41502 4.23198 4.51944C4.34045 4.52529 4.44865 4.5039 4.54672 4.45724C4.64479 4.41058 4.7296 4.34013 4.79342 4.25231C4.86472 4.11875 5.77374 4.46601 6.04109 4.43929C6.30845 4.41258 6.13021 4.14546 5.96089 4.06532C5.79156 3.98518 5.86286 3.63792 6.08565 3.77148C6.30845 3.90504 6.67383 3.98519 6.74512 4.2256C6.81642 4.46602 7.01248 4.33245 7.03922 4.51944C7.06595 4.70643 7.84128 4.92013 7.85911 5.13383C7.87693 5.34753 7.11052 5.45438 7.3244 5.64137C7.53829 5.82835 7.88585 5.40095 8.21559 5.37424C8.54533 5.34753 8.50968 6.06877 8.72356 5.96192C8.93745 5.85507 9.25828 6.09548 9.55237 6.5496C9.84646 7.00371 9.55237 7.44002 9.55237 7.58249C9.55237 7.72496 10.1406 7.68934 10.4436 7.51125C10.7466 7.33317 11.0496 7.71605 11.3347 7.95646C11.6199 8.19688 10.4436 8.59756 10.5327 8.38386C10.6218 8.17016 9.84646 7.53796 9.14242 7.82289C8.43838 8.10783 8.91962 8.57084 8.99983 8.83797C9.08003 9.1051 8.36709 9.37222 7.70761 9.13181C7.04813 8.8914 7.2442 9.29209 6.97684 9.29209C6.89771 9.30692 6.82345 9.34099 6.76063 9.39129C6.6978 9.4416 6.64836 9.50658 6.61665 9.58051C6.58493 9.65445 6.57192 9.73505 6.57879 9.8152C6.58565 9.89534 6.61218 9.97257 6.65601 10.04C6.90555 10.3339 7.44025 10.04 7.87694 10.0935C8.31362 10.1469 8.36709 10.2537 8.41165 9.98662C8.45621 9.71949 8.91962 9.85306 9.24045 9.9332C9.56128 10.0133 9.48108 10.4942 9.8732 10.5476C10.2653 10.601 9.94449 11.0284 10.1851 11.3223C10.4257 11.6161 11.21 11.4558 11.5041 11.7764C11.7982 12.0969 13.0369 12.7291 13.2062 12.4976C13.3756 12.2661 12.1368 11.0017 11.7714 10.8948C11.406 10.788 12.1368 10.6544 12.6002 11.0551C13.0636 11.4558 13.7409 11.6428 14.0796 11.162C14.4182 10.6811 13.7944 10.8147 13.7944 10.4674C13.7944 10.1202 13.5716 9.63936 13.233 9.63936C12.8943 9.63936 12.012 8.8914 12.3418 8.74894C12.6715 8.60647 12.2438 8.37496 12.4844 8.08112C12.725 7.78728 12.9745 8.34825 13.2597 8.37496C13.5449 8.40167 13.6073 8.80236 14.0707 9.26538C14.5341 9.7284 14.5787 9.39894 14.65 9.1051C14.7213 8.81126 15.2381 9.05167 15.2114 8.75784C15.1847 8.464 15.6214 8.11674 15.9155 7.98318C16.2095 7.84961 15.6748 7.53796 15.2827 7.56468C15.2203 7.57521 15.1562 7.57082 15.0958 7.55186C15.0354 7.53291 14.9803 7.49994 14.9351 7.45564C14.8899 7.41135 14.8559 7.35698 14.8357 7.297C14.8156 7.23703 14.81 7.17313 14.8193 7.11055C14.8193 6.92357 14.0885 6.46946 13.8479 6.5496C13.6073 6.62974 13.1884 6.20234 12.8765 6.17562C12.5646 6.14891 12.0922 5.88179 12.1457 5.50781C12.1992 5.13383 12.7785 5.61465 12.9032 5.32081C13.028 5.02698 12.2883 5.18725 12.2705 4.97355C12.2527 4.75985 12.4398 4.83999 12.5824 4.70642C12.725 4.57286 12.4576 4.30574 12.2883 4.19889C12.119 4.09204 12.0744 4.41258 11.9051 4.41258C11.7358 4.41258 11.9051 4.11875 11.9942 3.93176C12.0833 3.74477 11.4417 3.53107 11.103 3.63792C10.7644 3.74477 10.7109 3.55778 10.7109 3.34408C10.7109 3.13038 10.2029 3.34409 10.0069 3.50436C9.81081 3.66464 9.57019 3.34408 9.81081 3.31737C10.0514 3.29066 10.301 3.07696 10.2297 2.83655Z" fill="#92E3A9"/>
</svg>
