<svg width="20" height="20" viewBox="0 0 20 20" fill="none" xmlns="http://www.w3.org/2000/svg">
<g clip-path="url(#clip0_89_2802)">
<path d="M9.85363 0.00520888C4.35831 0.0231395 -0.0413487 4.51001 0.00128379 10.1033C0.0428504 15.6512 4.51712 20.0812 10.0029 20.0042C15.4161 19.9282 19.738 15.4688 19.7262 9.96197C19.7145 4.45516 15.269 -0.0169407 9.85363 0.00520888Z" fill="white"/>
<path d="M9.85363 0.00517448C15.269 -0.0117014 19.7145 4.46779 19.7262 9.96193C19.738 15.4561 15.4161 19.9282 10.0029 20.0041C4.51712 20.0811 0.0428504 15.6512 0.00128379 10.1033C-0.0413487 4.5047 4.35831 0.0178314 9.85363 0.00517448ZM12.9946 16.0119C13.0717 15.992 13.1461 15.963 13.2163 15.9254C14.1108 15.3626 14.917 14.6728 15.609 13.8782C15.8605 13.585 15.8478 13.4151 15.5419 13.1831C14.7376 12.5616 13.8657 12.0309 12.9424 11.601C12.6386 11.4618 12.5406 11.4903 12.3114 11.7423C12.0609 12.0176 11.8179 12.2992 11.5739 12.5861C11.5465 12.6297 11.5032 12.6612 11.4531 12.6741C11.4029 12.6871 11.3496 12.6805 11.3042 12.6557C10.815 12.4258 10.2959 12.2476 9.84298 11.9607C8.59527 11.1811 7.67694 9.97871 7.25945 8.57811C7.23449 8.52204 7.22953 8.45923 7.24542 8.4C7.2613 8.34077 7.29707 8.28864 7.34685 8.25219C7.61117 8.0212 7.87975 7.78811 8.13128 7.54869C8.40519 7.29449 8.42972 7.20273 8.27518 6.85782C7.85692 5.94715 7.34435 5.08186 6.74573 4.27582C6.50379 3.94463 6.33433 3.92564 6.03057 4.1946C5.24751 4.89804 4.57311 5.71149 4.02898 6.60891C3.96252 6.72884 3.93922 6.86756 3.9629 7.00232C4.03612 7.41747 4.13617 7.82756 4.26239 8.23004C4.758 9.69192 5.60212 10.9418 6.60718 12.082C7.90534 13.5502 9.39747 14.7621 11.2051 15.5352C11.7738 15.7818 12.3773 15.9408 12.9946 16.0067V16.0119ZM10.2906 4.82113C13.1321 5.13755 14.6743 6.71333 14.9802 9.56746H15.7721C15.8051 6.33257 13.0148 3.91088 10.2949 4.03428L10.2906 4.82113ZM13.6511 9.57273C13.6884 7.43582 11.722 6.01931 10.2938 6.19018V7.00021C10.9653 7.01117 11.6052 7.28456 12.0737 7.76069C12.55 8.24719 12.8203 8.89543 12.8294 9.57273H13.6511Z" fill="white"/>
<path d="M12.9944 16.0067C12.378 15.9371 11.7759 15.7745 11.2092 15.5246C9.39732 14.7515 7.90518 13.5396 6.61129 12.0714C5.60197 10.9312 4.75784 9.68138 4.26651 8.2195C4.14028 7.81702 4.04025 7.40693 3.96702 6.99178C3.94334 6.85702 3.96664 6.7183 4.0331 6.59837C4.57724 5.70095 5.25164 4.8875 6.0347 4.18406C6.33845 3.91511 6.50791 3.93409 6.74985 4.26528C7.34848 5.07132 7.86103 5.93661 8.27929 6.84729C8.43383 7.19219 8.40932 7.28395 8.1354 7.53815C7.87854 7.77757 7.61529 8.01066 7.35097 8.24165C7.30119 8.2781 7.26542 8.33022 7.24954 8.38944C7.23366 8.44867 7.2386 8.5115 7.26357 8.56757C7.68105 9.96817 8.5994 11.1705 9.8471 11.9501C10.3001 12.237 10.8191 12.4153 11.3083 12.6452C11.3537 12.67 11.407 12.6765 11.4572 12.6636C11.5073 12.6506 11.5506 12.6191 11.578 12.5756C11.822 12.2929 12.065 12.0113 12.3155 11.7318C12.5447 11.4797 12.6427 11.4512 12.9465 11.5905C13.8698 12.0204 14.7417 12.5511 15.546 13.1726C15.8519 13.4046 15.8657 13.5744 15.6131 13.8676C14.9211 14.6623 14.1149 15.352 13.2204 15.9149C13.1492 15.9545 13.0733 15.9854 12.9944 16.0067Z" fill="#2F383B"/>
<path d="M10.2905 4.816V4.02917C13.0105 3.90577 15.8008 6.32745 15.7677 9.56234H14.9758C14.6742 6.70821 13.132 5.13137 10.2905 4.816Z" fill="#2F383B"/>
<path d="M13.6508 9.56766H12.829C12.82 8.89037 12.5496 8.24211 12.0734 7.75561C11.6048 7.27948 10.965 7.00611 10.2935 6.99515V6.1851C11.7216 6.0174 13.6881 7.43076 13.6508 9.56766Z" fill="#2F383B"/>
</g>
<defs>
<clipPath id="clip0_89_2802">
<rect width="19.726" height="20" fill="white"/>
</clipPath>
</defs>
</svg>
