<svg width="18" height="13" viewBox="0 0 18 13" fill="none" xmlns="http://www.w3.org/2000/svg">
<path d="M0.314319 12.9173H0.269991C0.194866 12.8896 0.129586 12.8403 0.0822902 12.7758C0.0349941 12.7112 0.00777338 12.6341 0.00403636 12.5542C-0.00457678 12.4991 0.000645803 12.4428 0.0192137 12.3902C0.0377816 12.3376 0.0691226 12.2905 0.110426 12.253C0.996933 10.4815 6.59078 3.29816 10.518 1.05723C12.6988 -0.289102 14.8264 -0.351115 16.3601 0.880068C16.9097 1.33073 17.3442 1.90546 17.6279 2.55689C17.9115 3.20832 18.036 3.91779 17.9913 4.62677C17.7608 8.16975 13.018 9.71094 11.573 10.1095C8.78046 10.5967 1.24516 12.5719 0.55368 12.8819C0.518397 12.904 0.478909 12.9186 0.437713 12.9247C0.396516 12.9308 0.354501 12.9283 0.314319 12.9173ZM14.2591 0.800355C13.0395 0.703516 11.8248 1.03908 10.8283 1.74811C7.22021 3.80303 2.84973 9.48949 1.25401 11.7481C1.95435 11.5356 3.02703 11.2521 4.80004 10.8004C7.01631 10.2335 9.93292 9.52492 11.4666 9.25919C14.1882 8.50631 17.1757 6.8677 17.3352 4.51162C17.3635 3.94258 17.2569 3.37491 17.0244 2.85472C16.7918 2.33453 16.4397 1.8765 15.9966 1.5178C15.4991 1.11571 14.8955 0.86649 14.2591 0.800355Z" fill="black"/>
</svg>
